<?xml version="1.0" encoding="UTF-8"?>
<svg version="1.1" xmlns="http://www.w3.org/2000/svg" width="200" height="200">
<path d="M0 0 C1.60407328 -0.02708567 3.2082785 -0.04643483 4.8125 -0.0625 C5.70582031 -0.07410156 6.59914062 -0.08570312 7.51953125 -0.09765625 C10 0 10 0 13 1 C14.4977109 1.10146572 15.99900529 1.15461259 17.5 1.17578125 C38.52071705 1.68047804 38.52071705 1.68047804 48 8 C50.41339381 7.6749987 50.41339381 7.6749987 53 7 C62.2558178 6.05690357 62.2558178 6.05690357 65.87109375 8.01171875 C67.31836448 9.26351395 68.66294338 10.6311087 70 12 C70.928125 12.515625 71.85625 13.03125 72.8125 13.5625 C75 15 75 15 75.7421875 16.71484375 C76.09393873 19.83263878 75.30946498 22.03504839 74.3125 25 C73.97863281 26.03125 73.64476562 27.0625 73.30078125 28.125 C71.92416477 31.1676118 70.57046929 32.89089699 68 35 C67.34 35 66.68 35 66 35 C68.31 41.6 70.62 48.2 73 55 C74.32 53.02 75.64 51.04 77 49 C79.625 48 79.625 48 82 48 C84 50 84 50 84.3125 53.25 C83.97064419 57.35226976 83.184661 59.53467565 81 63 C79.71029297 64.02673828 79.71029297 64.02673828 78.39453125 65.07421875 C74.96415159 69.26566144 75.563003 72.46166864 75.875 77.6875 C76.39065814 95.58130494 74.02969397 111.99282209 62 126 C60.70128156 127.36707204 59.38555866 128.72102277 58 130 C58.680625 130.9075 59.36125 131.815 60.0625 132.75 C62 136 62 136 61.75 138.375 C61.37875 139.179375 61.37875 139.179375 61 140 C57.11567344 141.05998348 55.16165484 140.8987991 51.5 139.3125 C47.03846483 137.85779275 44.78456332 138.12750103 40.4375 139.8125 C33.69019234 142.25507374 27.39513355 142.39735291 20.25 142.375 C19.18450928 142.37604736 18.11901855 142.37709473 17.02124023 142.37817383 C12.15219269 142.31248364 7.63913161 142.04216813 2.8984375 140.890625 C-0.89109242 139.58075105 -0.89109242 139.58075105 -3.625 141.375 C-4.800625 142.179375 -4.800625 142.179375 -6 143 C-9.8125 143.1875 -9.8125 143.1875 -13 143 C-14.14947895 139.44706507 -14.0868937 138.20023331 -12.5625 134.6875 C-12.046875 133.800625 -11.53125 132.91375 -11 132 C-11.59748047 131.34644531 -11.59748047 131.34644531 -12.20703125 130.6796875 C-16.53430296 125.81545507 -20 121.78042991 -20 115 C-20.928125 115.04125 -21.85625 115.0825 -22.8125 115.125 C-26 115 -26 115 -29 113 C-29.1875 109.875 -29.1875 109.875 -29 107 C-26.59454362 105.79727181 -25.05003047 105.89928528 -22.375 105.9375 C-21.55773437 105.94652344 -20.74046875 105.95554687 -19.8984375 105.96484375 C-19.27195312 105.97644531 -18.64546875 105.98804688 -18 106 C-17.00608799 91.97479723 -22.82821353 80.78565601 -29.02148438 68.55664062 C-35.22823199 55.99800825 -39.07450439 42.39492995 -34.5 28.5625 C-34.005 27.386875 -33.51 26.21125 -33 25 C-34.11375 25.185625 -35.2275 25.37125 -36.375 25.5625 C-40 26 -40 26 -42 25 C-41.66739581 22.0065623 -41.18610473 20.2505256 -39.375 17.8125 C-35.30801392 14.70874746 -30.85470371 14.0510747 -25.875 13.5625 C-21.89159876 12.98426434 -20.31349113 12.13010144 -17 10 C-12.55966483 8.05314141 -8.10658763 6.31062109 -3.4375 5 C-2.633125 4.67 -1.82875 4.34 -1 4 C-0.31239681 1.97956584 -0.31239681 1.97956584 0 0 Z " fill="#DE2013" transform="translate(100,28)"/>
<path d="M0 0 C1.75 1.875 1.75 1.875 1.75 3.875 C2.34167969 4.10832031 2.93335938 4.34164062 3.54296875 4.58203125 C7.75397776 7.04901175 9.84170534 11.50291394 11.75 15.875 C12.11030716 18.78395041 11.75740776 20.03055456 10.75 22.875 C7.28001271 25.18832486 5.82490752 25.21457563 1.75 24.875 C0.76 24.215 -0.23 23.555 -1.25 22.875 C-0.92 21.555 -0.59 20.235 -0.25 18.875 C-0.53875 19.49375 -0.8275 20.1125 -1.125 20.75 C-2.25 22.875 -2.25 22.875 -4.25 24.875 C-2.18757383 24.90217692 -0.12504297 24.9214758 1.9375 24.9375 C3.66033203 24.95490234 3.66033203 24.95490234 5.41796875 24.97265625 C8.68183058 24.99722289 8.68183058 24.99722289 11.48828125 24.18359375 C13.75 23.875 13.75 23.875 15.39453125 24.85546875 C17.34375256 27.75963998 18.37546352 30.88588206 19.4375 34.1875 C19.66244141 34.83912109 19.88738281 35.49074219 20.11914062 36.16210938 C21.44454133 40.18665436 21.99251404 43.64739042 21.75 47.875 C21.02554688 47.75640625 20.30109375 47.6378125 19.5546875 47.515625 C13.40898893 46.65438977 13.40898893 46.65438977 7.5625 48.3125 C5.23307425 50.43486568 3.06250943 52.6113297 0.875 54.875 C-5.32184574 61.24991602 -12.04499004 63.9661673 -20.875 64.1875 C-30.56512874 64.08127447 -37.45071257 60.58800206 -44.25 53.875 C-44.75789063 53.40449219 -45.26578125 52.93398437 -45.7890625 52.44921875 C-46.99326004 51.30893113 -48.12936666 50.09750909 -49.25 48.875 C-49.25 48.215 -49.25 47.555 -49.25 46.875 C-59.63744733 48.68868128 -66.9303646 52.27533928 -73.25 60.875 C-72.76789063 61.81601563 -72.28578125 62.75703125 -71.7890625 63.7265625 C-71.1508253 64.98426522 -70.5128166 66.24208392 -69.875 67.5 C-69.55789062 68.11746094 -69.24078125 68.73492187 -68.9140625 69.37109375 C-65.86178149 75.41206658 -63.9748205 80.55864492 -64.0625 87.4375 C-64.07410156 88.65824219 -64.08570312 89.87898438 -64.09765625 91.13671875 C-64.2431931 94.70796904 -64.59910954 98.19984634 -65 101.75 C-65.47213819 107.55659509 -64.91647817 111.28428495 -61.25 115.875 C-53.6176716 124.44077864 -43.16999935 129.40806126 -31.8046875 130.078125 C-22.31196514 130.1990514 -14.22264719 128.8658824 -5.25 125.875 C-5.25 124.885 -5.25 123.895 -5.25 122.875 C-2.0296918 123.87176206 0.87778809 124.94144981 3.875 126.5 C6.82027495 128.162637 6.82027495 128.162637 10.75 127.875 C10.62201124 125.96639957 10.62201124 125.96639957 9.75 123.875 C7.52081633 122.1555455 7.52081633 122.1555455 4.8125 120.75 C-0.10760518 118.01739482 -0.10760518 118.01739482 -2.25 115.875 C-1.528125 116.019375 -0.80625 116.16375 -0.0625 116.3125 C0.865625 116.498125 1.79375 116.68375 2.75 116.875 C3.53375 117.205 4.3175 117.535 5.125 117.875 C8.32052634 117.875 8.8677723 117.29309899 11.1875 115.1875 C25.18982987 99.72405745 25.46486234 78.50033673 25.75 58.875 C26.08 58.875 26.41 58.875 26.75 58.875 C30.30441101 74.15323442 27.82238186 94.33788772 19.75 107.875 C16.83885071 112.29424468 13.64754954 116.27726196 9.75 119.875 C10.430625 120.7825 11.11125 121.69 11.8125 122.625 C13.75 125.875 13.75 125.875 13.5 128.25 C13.12875 129.054375 13.12875 129.054375 12.75 129.875 C8.86567344 130.93498348 6.91165484 130.7737991 3.25 129.1875 C-1.21153517 127.73279275 -3.46543668 128.00250103 -7.8125 129.6875 C-14.55980766 132.13007374 -20.85486645 132.27235291 -28 132.25 C-29.06549072 132.25104736 -30.13098145 132.25209473 -31.22875977 132.25317383 C-36.09780731 132.18748364 -40.61086839 131.91716813 -45.3515625 130.765625 C-49.14109242 129.45575105 -49.14109242 129.45575105 -51.875 131.25 C-53.050625 132.054375 -53.050625 132.054375 -54.25 132.875 C-58.0625 133.0625 -58.0625 133.0625 -61.25 132.875 C-62.39947895 129.32206507 -62.3368937 128.07523331 -60.8125 124.5625 C-60.296875 123.675625 -59.78125 122.78875 -59.25 121.875 C-59.84748047 121.22144531 -59.84748047 121.22144531 -60.45703125 120.5546875 C-64.78430296 115.69045507 -68.25 111.65542991 -68.25 104.875 C-69.178125 104.91625 -70.10625 104.9575 -71.0625 105 C-74.25 104.875 -74.25 104.875 -77.25 102.875 C-77.4375 99.75 -77.4375 99.75 -77.25 96.875 C-74.84454362 95.67227181 -73.30003047 95.77428528 -70.625 95.8125 C-69.80773437 95.82152344 -68.99046875 95.83054687 -68.1484375 95.83984375 C-67.52195312 95.85144531 -66.89546875 95.86304688 -66.25 95.875 C-65.25608799 81.84979723 -71.07821353 70.66065601 -77.27148438 58.43164062 C-83.68260915 45.45947481 -86.99997694 32.22551771 -82.75 17.9375 C-82.27165118 16.5755346 -81.78066164 15.21744761 -81.25 13.875 C-83.56 13.875 -85.87 13.875 -88.25 13.875 C-87.88978831 11.26346523 -87.51056045 10.11469177 -85.54296875 8.3046875 C-82.89849232 6.65583167 -80.8859647 6.25156639 -77.8125 5.8125 C-73.30420161 5.15412541 -69.56396371 4.11989141 -65.53417969 1.9519043 C-47.41695124 -7.72361302 -17.88891469 -11.69659807 0 0 Z " fill="#DC2013" transform="translate(148.25,38.125)"/>
<path d="M0 0 C2 0.6875 2 0.6875 4 2.6875 C4.95184558 5.09884215 5.81366454 7.4799083 6.625 9.9375 C6.85445313 10.59363281 7.08390625 11.24976562 7.3203125 11.92578125 C8.67221384 15.97343825 9.25130814 19.42848832 9 23.6875 C8.27554688 23.56890625 7.55109375 23.4503125 6.8046875 23.328125 C0.65898893 22.46688977 0.65898893 22.46688977 -5.1875 24.125 C-7.51692575 26.24736568 -9.68749057 28.4238297 -11.875 30.6875 C-18.07184574 37.06241602 -24.79499004 39.7786673 -33.625 40 C-42.27604742 39.90516513 -48.89537308 37.14146427 -55.4296875 31.54296875 C-57.73385975 28.82037716 -59.28966478 25.81571053 -61 22.6875 C-59.81664063 22.66171875 -58.63328125 22.6359375 -57.4140625 22.609375 C-44.24004951 22.19254644 -35.36911004 20.17749184 -25 11.6875 C-21.25522042 8.6875 -21.25522042 8.6875 -19 8.6875 C-19.04125 7.73875 -19.0825 6.79 -19.125 5.8125 C-19 2.6875 -19 2.6875 -17 0.6875 C-14.03125 0.52734375 -14.03125 0.52734375 -10.5 0.625 C-6.94781968 0.71537627 -3.20962356 -0.50150368 0 0 Z " fill="#57D6F8" transform="translate(161,62.3125)"/>
<path d="M0 0 C4.3082893 2.19583777 6.7785952 5.01937795 8.87890625 9.30078125 C10.49699425 15.41603796 10.01061624 19.68530126 6.87890625 25.30078125 C4.51647355 28.73011904 2.72678726 30.74249196 -1.12109375 32.30078125 C-7.59051408 33.25512121 -13.10391883 32.8261699 -18.4609375 28.91015625 C-22.60611872 24.89176881 -24.31305277 20.39379186 -24.62109375 14.67578125 C-24.34370127 9.46796123 -22.28940382 6.52801279 -18.68359375 2.82421875 C-13.29250013 -1.81523201 -6.65905453 -2.19515794 0 0 Z " fill="#F9F9F9" transform="translate(130.12109375,42.69921875)"/>
<path d="M0 0 C1.60407328 -0.02708567 3.2082785 -0.04643483 4.8125 -0.0625 C5.70582031 -0.07410156 6.59914062 -0.08570312 7.51953125 -0.09765625 C10 0 10 0 13 1 C14.4977109 1.10146572 15.99900529 1.15461259 17.5 1.17578125 C38.52071705 1.68047804 38.52071705 1.68047804 48 8 C50.41339381 7.6749987 50.41339381 7.6749987 53 7 C62.2558178 6.05690357 62.2558178 6.05690357 65.87109375 8.01171875 C67.31836448 9.26351395 68.66294338 10.6311087 70 12 C70.928125 12.515625 71.85625 13.03125 72.8125 13.5625 C75 15 75 15 75.7421875 16.71484375 C76.09393873 19.83263878 75.30946498 22.03504839 74.3125 25 C73.97863281 26.03125 73.64476562 27.0625 73.30078125 28.125 C71.92416477 31.1676118 70.57046929 32.89089699 68 35 C67.34 35 66.68 35 66 35 C68.31 41.6 70.62 48.2 73 55 C74.32 53.02 75.64 51.04 77 49 C79.625 48 79.625 48 82 48 C84 50 84 50 84.125 52.625 C84.08375 53.40875 84.0425 54.1925 84 55 C83.01 55.495 83.01 55.495 82 56 C81.67 54.35 81.34 52.7 81 51 C77.30209954 52.23263349 77.0645154 53.20052451 75.3125 56.5625 C74.87550781 57.38878906 74.43851562 58.21507812 73.98828125 59.06640625 C73.66214844 59.70449219 73.33601563 60.34257813 73 61 C70.68194933 58.68194933 70.28007058 57.17760952 69.34375 54.0625 C68.89322266 52.59683594 68.89322266 52.59683594 68.43359375 51.1015625 C67.81119792 49.03385417 67.18880208 46.96614583 66.56640625 44.8984375 C66.11587891 43.43277344 66.11587891 43.43277344 65.65625 41.9375 C65.38619141 41.03902344 65.11613281 40.14054687 64.83789062 39.21484375 C64.11227694 36.83816709 64.11227694 36.83816709 62 35 C60.32434277 35.28471344 58.6586513 35.62883327 57 36 C54.77124246 36.04270673 52.54129578 36.04066218 50.3125 36 C45.99556218 35.7671667 45.99556218 35.7671667 42 37 C42.66 35.68 43.32 34.36 44 33 C44.66 33 45.32 33 46 33 C46.33 31.35 46.66 29.7 47 28 C47.66 28.33 48.32 28.66 49 29 C48.67 30.32 48.34 31.64 48 33 C50.73905345 34.36952673 52.97087332 34.12621361 56 34 C56.66 33.67 57.32 33.34 58 33 C58 31.35 58 29.7 58 28 C58.66 28 59.32 28 60 28 C54.45052861 16.95220442 48.65965951 9.9472851 36.84375 5.92578125 C20.21727277 1.92123338 -2.52539102 4.61549631 -17.3125 13.25 C-18.1065625 13.75660156 -18.900625 14.26320313 -19.71875 14.78515625 C-23.01853528 16.54240492 -26.08744571 16.62907134 -29.76953125 16.8046875 C-33.03384879 17.09052967 -35.30656103 18.1819287 -38 20 C-39.40466953 22.05093145 -39.40466953 22.05093145 -40 24 C-37.69 24 -35.38 24 -33 24 C-33.66 24.66 -34.32 25.32 -35 26 C-38.625 25.625 -38.625 25.625 -42 25 C-41.66739581 22.0065623 -41.18610473 20.2505256 -39.375 17.8125 C-35.30801392 14.70874746 -30.85470371 14.0510747 -25.875 13.5625 C-21.89159876 12.98426434 -20.31349113 12.13010144 -17 10 C-12.55966483 8.05314141 -8.10658763 6.31062109 -3.4375 5 C-2.633125 4.67 -1.82875 4.34 -1 4 C-0.31239681 1.97956584 -0.31239681 1.97956584 0 0 Z " fill="#090202" transform="translate(100,28)"/>
<path d="M0 0 C-0.38671875 0.4846875 -0.7734375 0.969375 -1.171875 1.46875 C-2.83573581 3.61035302 -4.4273558 5.79062669 -6 8 C-6.42539063 8.5775 -6.85078125 9.155 -7.2890625 9.75 C-11.89510226 17.17268277 -10.8098531 27.15729732 -9.421875 35.45703125 C-8.13700511 40.89039062 -6.40339992 45.96430494 -4 51 C-3.13375 50.566875 -3.13375 50.566875 -2.25 50.125 C-0.16666667 49.08333333 1.91666667 48.04166667 4 47 C2.02 49.64 0.04 52.28 -2 55 C-1.51789063 55.94101563 -1.03578125 56.88203125 -0.5390625 57.8515625 C0.0991747 59.10926522 0.7371834 60.36708392 1.375 61.625 C1.69210938 62.24246094 2.00921875 62.85992187 2.3359375 63.49609375 C5.38821851 69.53706658 7.2751795 74.68364492 7.1875 81.5625 C7.17589844 82.78324219 7.16429688 84.00398438 7.15234375 85.26171875 C7.0068069 88.83296904 6.65089046 92.32484634 6.25 95.875 C5.77786181 101.68159509 6.33352183 105.40928495 10 110 C17.6323284 118.56577864 28.08000065 123.53306126 39.4453125 124.203125 C48.93803486 124.3240514 57.02735281 122.9908824 66 120 C66 119.01 66 118.02 66 117 C69.2203082 117.99676206 72.12778809 119.06644981 75.125 120.625 C78.07027495 122.287637 78.07027495 122.287637 82 122 C81.87201124 120.09139957 81.87201124 120.09139957 81 118 C78.77081633 116.2805455 78.77081633 116.2805455 76.0625 114.875 C71.14239482 112.14239482 71.14239482 112.14239482 69 110 C69.721875 110.144375 70.44375 110.28875 71.1875 110.4375 C72.115625 110.623125 73.04375 110.80875 74 111 C74.78375 111.33 75.5675 111.66 76.375 112 C79.57052634 112 80.1177723 111.41809899 82.4375 109.3125 C96.43982987 93.84905745 96.71486234 72.62533673 97 53 C97.33 53 97.66 53 98 53 C101.55441101 68.27823442 99.07238186 88.46288772 91 102 C88.08885071 106.41924468 84.89754954 110.40226196 81 114 C81.680625 114.9075 82.36125 115.815 83.0625 116.75 C85 120 85 120 84.75 122.375 C84.5025 122.91125 84.255 123.4475 84 124 C80.11567344 125.05998348 78.16165484 124.8987991 74.5 123.3125 C70.03846483 121.85779275 67.78456332 122.12750103 63.4375 123.8125 C56.69019234 126.25507374 50.39513355 126.39735291 43.25 126.375 C42.18450928 126.37604736 41.11901855 126.37709473 40.02124023 126.37817383 C35.15219269 126.31248364 30.63913161 126.04216813 25.8984375 124.890625 C22.10890758 123.58075105 22.10890758 123.58075105 19.375 125.375 C18.59125 125.91125 17.8075 126.4475 17 127 C13.1875 127.1875 13.1875 127.1875 10 127 C8.85052105 123.44706507 8.9131063 122.20023331 10.4375 118.6875 C10.953125 117.800625 11.46875 116.91375 12 116 C11.40251953 115.34644531 11.40251953 115.34644531 10.79296875 114.6796875 C6.46569704 109.81545507 3 105.78042991 3 99 C2.071875 99.04125 1.14375 99.0825 0.1875 99.125 C-3 99 -3 99 -6 97 C-6.1875 93.875 -6.1875 93.875 -6 91 C-3.59454362 89.79727181 -2.05003047 89.89928528 0.625 89.9375 C1.44226563 89.94652344 2.25953125 89.95554687 3.1015625 89.96484375 C3.72804688 89.97644531 4.35453125 89.98804688 5 90 C5.99391201 75.97479723 0.17178647 64.78565601 -6.02148438 52.55664062 C-12.43260915 39.58447481 -15.74997694 26.35051771 -11.5 12.0625 C-11.02165118 10.7005346 -10.53066164 9.34244761 -10 8 C-12.31 8 -14.62 8 -17 8 C-16.65246835 5.48039553 -16.218246 4.22697584 -14.4375 2.375 C-9.78256326 -0.25086175 -5.19426731 -1.62320853 0 0 Z " fill="#200402" transform="translate(77,44)"/>
<path d="M0 0 C0.66 0.33 1.32 0.66 2 1 C3.41918243 6.19351981 3.18395549 11.47092448 3.1875 16.8125 C3.19974609 17.77220703 3.21199219 18.73191406 3.22460938 19.72070312 C3.25303444 33.6016085 3.25303444 33.6016085 -0.9375 38.0625 C-5.67768035 39.51357562 -10.15200101 38.70470038 -15 38 C-15 37.01 -15 36.02 -15 35 C-15.66 35 -16.32 35 -17 35 C-20.61094618 28.82270278 -23.62417135 23.26947662 -22 16 C-19.68975563 10.4886967 -16.44479034 6.61768766 -11 4 C-8.63588859 3.64059117 -6.34319368 3.44019438 -3.953125 3.37109375 C-3.30859375 3.24863281 -2.6640625 3.12617187 -2 3 C-1.34 2.01 -0.68 1.02 0 0 Z " fill="#BFB648" transform="translate(171,93)"/>
<path d="M0 0 C3.125 1.5625 3.125 1.5625 5 4 C5.6875 7.6875 5.6875 7.6875 6 11 C6.66 11.33 7.32 11.66 8 12 C7.51219512 19.31707317 7.51219512 19.31707317 5.125 22.5 C3 24 3 24 0 24 C-0.51949219 22.98679687 -1.03898438 21.97359375 -1.57421875 20.9296875 C-2.27826177 19.5779249 -2.98271059 18.22637359 -3.6875 16.875 C-4.02716797 16.20984375 -4.36683594 15.5446875 -4.71679688 14.859375 C-6.48186625 11.49419601 -8.2835944 8.51772687 -10.76953125 5.6328125 C-13 3 -13 3 -13 1 C-9.05201168 -0.97399416 -4.30380009 -0.43472728 0 0 Z " fill="#F5F5F5" transform="translate(164,37)"/>
<path d="M0 0 C0.33 0 0.66 0 1 0 C4.55441101 15.27823442 2.07238186 35.46288772 -6 49 C-8.91114929 53.41924468 -12.10245046 57.40226196 -16 61 C-15.319375 61.9075 -14.63875 62.815 -13.9375 63.75 C-12 67 -12 67 -12.25 69.375 C-12.4975 69.91125 -12.745 70.4475 -13 71 C-16.88432656 72.05998348 -18.83834516 71.8987991 -22.5 70.3125 C-26.96153517 68.85779275 -29.21543668 69.12750103 -33.5625 70.8125 C-40.30251791 73.24438221 -46.61346508 73.43075028 -53.75 73.4375 C-54.81549072 73.44692627 -55.88098145 73.45635254 -56.97875977 73.46606445 C-63.50885207 73.39833442 -68.96133101 72.51611208 -75 70 C-74.505 69.01 -74.505 69.01 -74 68 C-73.23558594 68.2165625 -72.47117187 68.433125 -71.68359375 68.65625 C-57.41493752 72.36507039 -44.90037223 71.63345741 -31 67 C-31 66.01 -31 65.02 -31 64 C-27.7796918 64.99676206 -24.87221191 66.06644981 -21.875 67.625 C-18.92972505 69.287637 -18.92972505 69.287637 -15 69 C-15.12798876 67.09139957 -15.12798876 67.09139957 -16 65 C-18.22918367 63.2805455 -18.22918367 63.2805455 -20.9375 61.875 C-25.85760518 59.14239482 -25.85760518 59.14239482 -28 57 C-27.278125 57.144375 -26.55625 57.28875 -25.8125 57.4375 C-24.4203125 57.7159375 -24.4203125 57.7159375 -23 58 C-21.824375 58.495 -21.824375 58.495 -20.625 59 C-17.42947366 59 -16.8822277 58.41809899 -14.5625 56.3125 C-0.56017013 40.84905745 -0.28513766 19.62533673 0 0 Z " fill="#0A0202" transform="translate(174,97)"/>
<path d="M0 0 C-1.54841575 3.34708051 -3.49105864 6.24667512 -5.625 9.25 C-6.25664062 10.14203125 -6.88828125 11.0340625 -7.5390625 11.953125 C-8.02117187 12.62859375 -8.50328125 13.3040625 -9 14 C-7.35 13.67 -5.7 13.34 -4 13 C-4.79005662 14.43838552 -5.58211045 15.87567415 -6.375 17.3125 C-6.81585938 18.11300781 -7.25671875 18.91351563 -7.7109375 19.73828125 C-8.73513335 21.53527943 -9.85267138 23.27900708 -11 25 C-9.35 24.67 -7.7 24.34 -6 24 C-7.3125 26.9375 -7.3125 26.9375 -9 30 C-9.99 30.33 -10.98 30.66 -12 31 C-15.61094618 24.82270278 -18.62417135 19.26947662 -17 12 C-13.83131625 4.44080952 -8.63994886 -0.82285227 0 0 Z " fill="#FBF2F1" transform="translate(166,97)"/>
<path d="M0 0 C2.64 0 5.28 0 8 0 C8.061875 1.11375 8.12375 2.2275 8.1875 3.375 C9.30430892 11.90198705 13.4389939 18.27487389 20.0625 23.59375 C22.29911338 25.21709842 24.55817144 26.70277858 27 28 C25.55813953 32.56589147 25.55813953 32.56589147 23.3125 34.3125 C20.16643337 35.2478171 17.26075491 35.12541365 14 35 C12.85052105 31.44706507 12.9131063 30.20023331 14.4375 26.6875 C14.953125 25.800625 15.46875 24.91375 16 24 C15.60167969 23.56429687 15.20335938 23.12859375 14.79296875 22.6796875 C10.46569704 17.81545507 7 13.78042991 7 7 C6.071875 7.061875 5.14375 7.12375 4.1875 7.1875 C1 7 1 7 -0.875 5.5 C-1.24625 5.005 -1.6175 4.51 -2 4 C-1.34 4 -0.68 4 0 4 C0 2.68 0 1.36 0 0 Z " fill="#0F0702" transform="translate(73,136)"/>
<path d="M0 0 C2 2 2 2 2.265625 5.1953125 C2.20862415 19.53102591 2.20862415 19.53102591 0 25 C-2.81744229 27.50439314 -4.43801659 27.95592287 -8.1875 28.25 C-11 28 -11 28 -13 27 C-11.52869627 22.6426774 -9.16919385 19.28065866 -6.375 15.6875 C-5.95476562 15.13771484 -5.53453125 14.58792969 -5.1015625 14.02148438 C-4.07279961 12.67707832 -3.0370991 11.33798587 -2 10 C-3.32 9.67 -4.64 9.34 -6 9 C-3.03 4.545 -3.03 4.545 0 0 Z " fill="#F7F3F2" transform="translate(172,104)"/>
<path d="M0 0 C0.68835938 0.50789063 1.37671875 1.01578125 2.0859375 1.5390625 C4.0711242 3.00879722 6.03988199 4.49708073 8 6 C5.53611001 20.66739216 5.53611001 20.66739216 0 25 C-0.66 25 -1.32 25 -2 25 C0.31 31.6 2.62 38.2 5 45 C6.32 43.02 7.64 41.04 9 39 C11.625 38 11.625 38 14 38 C16 40 16 40 16.125 42.625 C16.08375 43.40875 16.0425 44.1925 16 45 C15.01 45.495 15.01 45.495 14 46 C13.505 43.525 13.505 43.525 13 41 C9.30209954 42.23263349 9.0645154 43.20052451 7.3125 46.5625 C6.87550781 47.38878906 6.43851563 48.21507812 5.98828125 49.06640625 C5.66214844 49.70449219 5.33601563 50.34257813 5 51 C2.69537205 48.69537205 2.26580948 47.18691588 1.30859375 44.09765625 C0.85129883 42.63875977 0.85129883 42.63875977 0.38476562 41.15039062 C0.07216797 40.13138672 -0.24042969 39.11238281 -0.5625 38.0625 C-1.03719727 36.53979492 -1.03719727 36.53979492 -1.52148438 34.98632812 C-2.1090927 33.1012407 -2.69407527 31.21533144 -3.27563477 29.32836914 C-3.83019143 27.54582554 -4.40966156 25.77101533 -5 24 C-4.236875 23.608125 -3.47375 23.21625 -2.6875 22.8125 C1.13336157 20.23563987 2.60160777 17.6297864 3.6875 13.1875 C3.790625 12.465625 3.89375 11.74375 4 11 C3.01 10.67 2.02 10.34 1 10 C0.9175 8.906875 0.835 7.81375 0.75 6.6875 C0.32042639 3.08318017 0.32042639 3.08318017 -1.5625 1.125 C-5.03347725 -0.4769895 -8.19333095 -0.68277758 -12 -1 C-12 -1.33 -12 -1.66 -12 -2 C-6.7213995 -3.13852168 -4.32758346 -3.2720753 0 0 Z " fill="#060708" transform="translate(168,38)"/>
<path d="M0 0 C0.66 0.33 1.32 0.66 2 1 C2 1.99 2 2.98 2 4 C0.783125 4.0825 -0.43375 4.165 -1.6875 4.25 C-5.66980791 4.67667585 -9.15133295 5.64501404 -12.9375 6.9375 C-25.07024821 10.81600148 -37.56134955 12.17063639 -50 9 C-50 7.68 -50 6.36 -50 5 C-48.700625 5.2475 -48.700625 5.2475 -47.375 5.5 C-30.38469095 7.7721571 -15.81863258 -1.05457551 0 0 Z " fill="#000000" transform="translate(64,110)"/>
<path d="M0 0 C1 1 1 1 1.0625 4.0625 C1.041875 5.031875 1.02125 6.00125 1 7 C-0.2375 7.28875 -1.475 7.5775 -2.75 7.875 C-5.10302257 8.45293537 -6.97657776 8.98759999 -9.125 10.125 C-11.83768987 11.39092194 -14.04901874 11.25114734 -17 11 C-17.99 10.34 -18.98 9.68 -20 9 C-20.40843923 6.28796348 -20.13336867 3.7562858 -20 1 C-15.93638892 -0.04867383 -12.14852827 -0.04937219 -7.98828125 0.0625 C-0.53276047 -0.17185822 -0.53276047 -0.17185822 0 0 Z " fill="#FCDED1" transform="translate(163,63)"/>
<path d="M0 0 C3 1 3 1 4.375 3.6875 C5.18123816 7.96056226 4.37021236 9.40645223 2 13 C-0.5 15.6875 -0.5 15.6875 -3 18 C-3.598125 18.598125 -4.19625 19.19625 -4.8125 19.8125 C-5.204375 20.204375 -5.59625 20.59625 -6 21 C-6.495 18.525 -6.495 18.525 -7 16 C-7.99 16.99 -8.98 17.98 -10 19 C-10 16 -10 16 -9.4375 14 C-8.77947007 11.80883384 -8.77947007 11.80883384 -10 9 C-15.73842251 8.79586639 -20.60539047 8.72858546 -26 11 C-22.25 7.125 -22.25 7.125 -20 6 C-17.90625 6.0859375 -17.90625 6.0859375 -15.5 6.375 C-14.30890625 6.51035156 -14.30890625 6.51035156 -13.09375 6.6484375 C-11 7 -11 7 -9 8 C-8.67 7.01 -8.34 6.02 -8 5 C-7.67 6.32 -7.34 7.64 -7 9 C-4.61327331 6.03716687 -2.2646629 3.05729491 0 0 Z " fill="#232124" transform="translate(179,78)"/>
<path d="M0 0 C1.05703125 0.00257812 2.1140625 0.00515625 3.203125 0.0078125 C4.24984375 0.00523438 5.2965625 0.00265625 6.375 0 C9.18535622 0.12125902 11.71952109 0.49497159 14.453125 1.1328125 C14.453125 4.1328125 14.453125 4.1328125 12.94921875 5.73828125 C9.44158957 8.4338976 7.14014888 10.01830852 2.703125 10.7578125 C-0.546875 10.1328125 -0.546875 10.1328125 -3.046875 8.4453125 C-4.546875 6.1328125 -4.546875 6.1328125 -4.359375 3.4453125 C-3.20763 0.16726905 -3.20763 0.16726905 0 0 Z " fill="#070809" transform="translate(37.546875,57.8671875)"/>
<path d="M0 0 C1.24652344 -0.00257812 2.49304688 -0.00515625 3.77734375 -0.0078125 C7.0625 0.125 7.0625 0.125 10.0625 1.125 C10.0625 2.115 10.0625 3.105 10.0625 4.125 C8.00659546 4.99492154 5.94244664 5.84537689 3.875 6.6875 C2.15216797 7.40099609 2.15216797 7.40099609 0.39453125 8.12890625 C-3.0204584 9.14979999 -4.61757921 9.29847111 -7.9375 8.125 C-8.5975 7.465 -9.2575 6.805 -9.9375 6.125 C-9.6875 3.5625 -9.6875 3.5625 -8.9375 1.125 C-5.97950997 -0.35399501 -3.2891424 -0.00678874 0 0 Z " fill="#020202" transform="translate(25.9375,42.875)"/>
<path d="M0 0 C2.59188165 3.14511954 4.10188409 6.2920873 5.625 10.0625 C6.05039063 11.10535156 6.47578125 12.14820312 6.9140625 13.22265625 C10.77629446 23.10052288 9.32182478 33.8420166 7 44 C6.505 42.515 6.505 42.515 6 41 C5.34 40.67 4.68 40.34 4 40 C4.66 40 5.32 40 6 40 C6 38.68 6 37.36 6 36 C3.36 36 0.72 36 -2 36 C-2 37.32 -2 38.64 -2 40 C-2.66 40 -3.32 40 -4 40 C-4 38.35 -4 36.7 -4 35 C-1.59454362 33.79727181 -0.05003047 33.89928528 2.625 33.9375 C3.85089844 33.95103516 3.85089844 33.95103516 5.1015625 33.96484375 C5.72804688 33.97644531 6.35453125 33.98804688 7 34 C7.79532032 22.77714666 4.54725675 13.70930181 -0.36328125 3.7421875 C-0.67845703 2.87980469 -0.67845703 2.87980469 -1 2 C-0.67 1.34 -0.34 0.68 0 0 Z " fill="#1A0301" transform="translate(75,100)"/>
<path d="M0 0 C0.33 0.66 0.66 1.32 1 2 C2.32 2 3.64 2 5 2 C4.46322564 6.15448646 3.19850793 8.45962335 0.5625 11.6875 C-0.05496094 12.45449219 -0.67242187 13.22148438 -1.30859375 14.01171875 C-3 16 -3 16 -5 18 C-5.66 18 -6.32 18 -7 18 C-6.41196203 14.97580475 -5.77321882 11.98241547 -5 9 C-5.99 9 -6.98 9 -8 9 C-6.64531705 4.12314139 -4.28324091 2.51407619 0 0 Z " fill="#DED343" transform="translate(163,113)"/>
<path d="M0 0 C1.0625 1.875 1.0625 1.875 2 4 C1.67 4.66 1.34 5.32 1 6 C0.01 6 -0.98 6 -2 6 C-2 9.3 -2 12.6 -2 16 C-3.98 16.33 -5.96 16.66 -8 17 C-8.99 14.69 -9.98 12.38 -11 10 C-13.64 10 -16.28 10 -19 10 C-19.33 9.34 -19.66 8.68 -20 8 C-18.205625 8.0928125 -18.205625 8.0928125 -16.375 8.1875 C-12.20937195 8.20950156 -9.69461232 6.92762382 -6 5 C-2.625 4.8125 -2.625 4.8125 0 5 C0 3.35 0 1.7 0 0 Z " fill="#455A5F" transform="translate(164,65)"/>
<path d="M0 0 C5.67853635 1.41963409 9.53174216 4.39363961 14 8 C13.67 9.32 13.34 10.64 13 12 C7.14727744 11.54979057 2.91779881 8.96160773 -2 6 C-1.34 4.02 -0.68 2.04 0 0 Z " fill="#EDE03F" transform="translate(146,155)"/>
<path d="M0 0 C2 2 2 2 2.265625 3.98828125 C2.23556667 8.45945727 2.0386416 11.9227168 0 16 C-0.33 16.99 -0.66 17.98 -1 19 C-0.01 18.67 0.98 18.34 2 18 C2 16.35 2 14.7 2 13 C2.33 13 2.66 13 3 13 C3.5 15.625 3.5 15.625 3 19 C0.5896793 21.39310412 -2.16280663 23.15168242 -5 25 C-5.70640625 25.55300781 -6.4128125 26.10601562 -7.140625 26.67578125 C-9 28 -9 28 -11 28 C-11 27.01 -11 26.02 -11 25 C-11.73605469 24.96261719 -12.47210938 24.92523438 -13.23046875 24.88671875 C-22.92267135 24.23374341 -22.92267135 24.23374341 -27 21 C-26.34 20.67 -25.68 20.34 -25 20 C-24.40960938 20.30164063 -23.81921875 20.60328125 -23.2109375 20.9140625 C-19.06645259 22.9496929 -14.50157309 22.52844554 -10 22 C-5.53678456 19.84809256 -2.89710592 17.59299329 -1 13 C-0.29262677 8.67254026 0 4.38197831 0 0 Z " fill="#421A18" transform="translate(139,52)"/>
<path d="M0 0 C6.39194616 5.63995249 10.52695149 13.28211442 14 21 C14 21.66 14 22.32 14 23 C14.66 23.33 15.32 23.66 16 24 C9.41772504 25.78502372 3.53928458 26.15602754 -3.27734375 25.97265625 C-5.9667691 25.80079758 -5.9667691 25.80079758 -8 27 C-7.34 25.68 -6.68 24.36 -6 23 C-5.34 23 -4.68 23 -4 23 C-3.67 21.35 -3.34 19.7 -3 18 C-2.34 18.33 -1.68 18.66 -1 19 C-1.33 20.32 -1.66 21.64 -2 23 C0.73905345 24.36952673 2.97087332 24.12621361 6 24 C6.66 23.67 7.32 23.34 8 23 C8 21.35 8 19.7 8 18 C8.66 18 9.32 18 10 18 C7.74149267 13.58870271 5.71713359 9.71713359 2.1875 6.1875 C1.465625 5.465625 0.74375 4.74375 0 4 C0 2.68 0 1.36 0 0 Z " fill="#533A34" transform="translate(150,38)"/>
<path d="M0 0 C0.99 0.33 1.98 0.66 3 1 C2.88258446 5.80336309 2.6846128 9.73332047 -0.4375 13.5625 C-3 16 -3 16 -5 16 C-6.68710359 9.25158562 -6.68710359 9.25158562 -4.73046875 5.6875 C-3.22438979 3.71231447 -1.67894251 1.82980401 0 0 Z " fill="#DA1F12" transform="translate(179,78)"/>
<path d="M0 0 C-14.79311931 8.65890584 -14.79311931 8.65890584 -22.91015625 8.875 C-26.13385071 9.06781911 -28.35733743 10.21620276 -31 12 C-32.40466953 14.05093145 -32.40466953 14.05093145 -33 16 C-30.69 16 -28.38 16 -26 16 C-26.66 16.66 -27.32 17.32 -28 18 C-31.625 17.625 -31.625 17.625 -35 17 C-34.66739581 14.0065623 -34.18610473 12.2505256 -32.375 9.8125 C-28.30801392 6.70874746 -23.85470371 6.0510747 -18.875 5.5625 C-14.9540722 4.99333306 -13.22886574 4.15257716 -10 2 C-3.69271291 -1.2309043 -3.69271291 -1.2309043 0 0 Z " fill="#080100" transform="translate(93,36)"/>
<path d="M0 0 C5.56818182 0.56818182 5.56818182 0.56818182 7 2 C7.125 5.5 7.125 5.5 7 9 C6 10 6 10 2.5 10.125 C-1 10 -1 10 -2 9 C-2.1875 5.5625 -2.1875 5.5625 -2 2 C-1.34 1.34 -0.68 0.68 0 0 Z " fill="#222222" transform="translate(129,51)"/>
<path d="M0 0 C0.68835938 0.50789063 1.37671875 1.01578125 2.0859375 1.5390625 C4.0711242 3.00879722 6.03988199 4.49708073 8 6 C7.74476126 7.62752231 7.47025506 9.25203196 7.1875 10.875 C7.03667969 11.77992187 6.88585937 12.68484375 6.73046875 13.6171875 C6 16 6 16 3 18 C3.33 15.69 3.66 13.38 4 11 C3.01 10.67 2.02 10.34 1 10 C0.9175 8.906875 0.835 7.81375 0.75 6.6875 C0.32042639 3.08318017 0.32042639 3.08318017 -1.5625 1.125 C-5.03347725 -0.4769895 -8.19333095 -0.68277758 -12 -1 C-12 -1.33 -12 -1.66 -12 -2 C-6.7213995 -3.13852168 -4.32758346 -3.2720753 0 0 Z " fill="#161616" transform="translate(168,38)"/>
<path d="M0 0 C-5.0218344 1.97343652 -9.55584032 2.4086274 -14.875 2.625 C-15.65875 2.66367188 -16.4425 2.70234375 -17.25 2.7421875 C-19.16631367 2.83566622 -21.08312319 2.91888495 -23 3 C-23.33 3.66 -23.66 4.32 -24 5 C-24.33 4.01 -24.66 3.02 -25 2 C-29.69662735 2.8093961 -33.83285995 3.68488191 -37.9375 6.1875 C-39.4534375 7.0846875 -39.4534375 7.0846875 -41 8 C-41.66 7.67 -42.32 7.34 -43 7 C-36.79823325 2.28665727 -31.82484582 -0.15796374 -23.8671875 -0.44921875 C-22.73152344 -0.49240234 -21.59585938 -0.53558594 -20.42578125 -0.58007812 C-18.66814453 -0.63325195 -18.66814453 -0.63325195 -16.875 -0.6875 C-15.10576172 -0.75807617 -15.10576172 -0.75807617 -13.30078125 -0.83007812 C-3.76810849 -1.16084777 -3.76810849 -1.16084777 0 0 Z " fill="#461B1A" transform="translate(124,83)"/>
<path d="M0 0 C-0.33 1.32 -0.66 2.64 -1 4 C-3.03959477 4.50838564 -5.08179138 5.00633886 -7.125 5.5 C-8.26195312 5.7784375 -9.39890625 6.056875 -10.5703125 6.34375 C-13.81466698 6.96453765 -16.70814457 7.12006768 -20 7 C-20 6.01 -20 5.02 -20 4 C-17.41806023 3.32749476 -14.83467929 2.66182099 -12.25 2 C-11.15558594 1.71382812 -11.15558594 1.71382812 -10.0390625 1.421875 C-6.55428354 0.53484036 -3.61876278 0 0 0 Z " fill="#000000" transform="translate(55,129)"/>
<path d="M0 0 C1.23556641 0.01740234 1.23556641 0.01740234 2.49609375 0.03515625 C3.32238281 0.04417969 4.14867187 0.05320313 5 0.0625 C5.63808594 0.07410156 6.27617187 0.08570313 6.93359375 0.09765625 C7.26359375 1.74765625 7.59359375 3.39765625 7.93359375 5.09765625 C4.46360646 7.41098111 3.00850127 7.43723188 -1.06640625 7.09765625 C-2.05640625 6.43765625 -3.04640625 5.77765625 -4.06640625 5.09765625 C-2.94676868 0.13926128 -2.94676868 0.13926128 0 0 Z " fill="#C3AE96" transform="translate(151.06640625,55.90234375)"/>
<path d="M0 0 C-4.34529148 6.5264574 -4.34529148 6.5264574 -8.40234375 7.6875 C-10.6188807 7.91160484 -12.77321644 8.03463886 -15 8 C-14.234375 4.2109375 -14.234375 4.2109375 -12.125 2.3125 C-8.06616592 -0.19442693 -4.66790835 -0.08807374 0 0 Z " fill="#D41E11" transform="translate(75,44)"/>
<path d="M0 0 C3.96 0 7.92 0 12 0 C12.33 0.99 12.66 1.98 13 3 C6.4 4.32 -0.2 5.64 -7 7 C-4.78065836 3.67098753 -3.65316671 3.24976756 0 2 C0 1.34 0 0.68 0 0 Z " fill="#5F0D07" transform="translate(99,30)"/>
<path d="M0 0 C1.45792884 -0.05399736 2.91642712 -0.09279177 4.375 -0.125 C5.18710937 -0.14820313 5.99921875 -0.17140625 6.8359375 -0.1953125 C9 0 9 0 11 2 C7.730187 5.87533393 7.730187 5.87533393 4.4375 6.4375 C1.63751034 5.93493775 0.73892405 5.19653565 -1 3 C-0.67 2.01 -0.34 1.02 0 0 Z " fill="#C3E1EB" transform="translate(36,60)"/>
<path d="M0 0 C2.5 0.1875 2.5 0.1875 5 1 C5.66 1.99 6.32 2.98 7 4 C1.58461538 8.06153846 1.58461538 8.06153846 -1.375 7.75 C-1.91125 7.5025 -2.4475 7.255 -3 7 C-2.25 2.25 -2.25 2.25 0 0 Z " fill="#EBE03F" transform="translate(91,162)"/>
<path d="M0 0 C1.875 0.6875 1.875 0.6875 2.875 1.6875 C2.91563832 3.35367115 2.917721 5.02138095 2.875 6.6875 C1.885 7.1825 1.885 7.1825 0.875 7.6875 C0.545 6.0375 0.215 4.3875 -0.125 2.6875 C-3.82290046 3.92013349 -4.0604846 4.88802451 -5.8125 8.25 C-6.24949219 9.07628906 -6.68648437 9.90257813 -7.13671875 10.75390625 C-7.62591797 11.71103516 -7.62591797 11.71103516 -8.125 12.6875 C-8.785 12.0275 -9.445 11.3675 -10.125 10.6875 C-9.85919422 6.8333162 -7.6238511 4.48033358 -5.125 1.6875 C-2.125 -0.3125 -2.125 -0.3125 0 0 Z " fill="#0D0201" transform="translate(181.125,76.3125)"/>
<path d="M0 0 C2.10409639 -0.02701408 4.20829178 -0.04640223 6.3125 -0.0625 C7.48425781 -0.07410156 8.65601563 -0.08570313 9.86328125 -0.09765625 C13 0 13 0 16 1 C16 1.99 16 2.98 16 4 C13.69 4.66 11.38 5.32 9 6 C9.33 4.68 9.66 3.36 10 2 C6.37 2 2.74 2 -1 2 C-0.67 1.34 -0.34 0.68 0 0 Z " fill="#010202" transform="translate(20,43)"/>
<path d="M0 0 C1.1446875 0.495 1.1446875 0.495 2.3125 1 C9.06254413 2.83052044 16.1819328 2.47417669 23 1 C22.21654285 2.17219543 21.42297164 3.33763668 20.625 4.5 C20.18414062 5.1496875 19.74328125 5.799375 19.2890625 6.46875 C18.86367187 6.9740625 18.43828125 7.479375 18 8 C17.34 8 16.68 8 16 8 C16 7.01 16 6.02 16 5 C15.26394531 4.96261719 14.52789062 4.92523438 13.76953125 4.88671875 C3.89238421 4.22128348 3.89238421 4.22128348 0 1 C0 0.67 0 0.34 0 0 Z " fill="#671813" transform="translate(112,72)"/>
<path d="M0 0 C4.86819639 4.29546741 7.86760059 9.35065796 11 15 C11.38800781 15.67933594 11.77601563 16.35867187 12.17578125 17.05859375 C13 19 13 19 13 23 C12.01 22.67 11.02 22.34 10 22 C9.56275691 20.11649131 9.13070565 18.23156173 8.73046875 16.33984375 C7.40012394 12.07847187 4.78341091 8.45657279 2 5 C1.34 4.67 0.68 4.34 0 4 C0 2.68 0 1.36 0 0 Z " fill="#5B221E" transform="translate(150,38)"/>
<path d="M0 0 C2 2 2 2 2.125 5.625 C2.08375 6.73875 2.0425 7.8525 2 9 C0.35 9 -1.3 9 -3 9 C-3.33 6.69 -3.66 4.38 -4 2 C-2.68 1.34 -1.36 0.68 0 0 Z " fill="#EFEFEF" transform="translate(159,71)"/>
<path d="M0 0 C-1.55603771 3.81936528 -3.95604931 6.26044438 -7 9 C-7.66 9 -8.32 9 -9 9 C-9.33 9.66 -9.66 10.32 -10 11 C-12.97 9.35 -15.94 7.7 -19 6 C-18.01 5.67 -17.02 5.34 -16 5 C-15.360625 5.33 -14.72125 5.66 -14.0625 6 C-12.08664805 7.18996217 -12.08664805 7.18996217 -10.06640625 6.75390625 C-7.65446234 5.87393428 -6.58505479 4.8310947 -4.875 2.9375 C-2.20705882 0 -2.20705882 0 0 0 Z " fill="#240D04" transform="translate(165,149)"/>
<path d="M0 0 C3.63 0 7.26 0 11 0 C11 0.66 11 1.32 11 2 C7.17010894 3.80230168 4.21878192 4.19622241 0 4 C0 2.68 0 1.36 0 0 Z " fill="#B2CDD6" transform="translate(19,45)"/>
<path d="M0 0 C2.64 0 5.28 0 8 0 C8 1.32 8 2.64 8 4 C5.69 4.33 3.38 4.66 1 5 C0.67 3.35 0.34 1.7 0 0 Z " fill="#DC1F12" transform="translate(73,136)"/>
<path d="M0 0 C1.875 0.625 1.875 0.625 4 2 C5.25 5.125 5.25 5.125 6 8 C4.875 9.5625 4.875 9.5625 3 11 C-0.1875 10.6875 -0.1875 10.6875 -3 10 C-3 9.34 -3 8.68 -3 8 C-1.02 8 0.96 8 3 8 C2.37240135 5.07120629 1.41377341 2.63904371 0 0 Z " fill="#050501" transform="translate(156,158)"/>
<path d="M0 0 C0.33 0.66 0.66 1.32 1 2 C1.99 1.67 2.98 1.34 4 1 C2.63055898 3.94956528 1.12169591 6.52468811 -1 9 C-1.66 9 -2.32 9 -3 9 C-2.44271087 5.65626525 -1.64826111 2.96687001 0 0 Z " fill="#A09746" transform="translate(159,122)"/>
<path d="M0 0 C0.66 0.33 1.32 0.66 2 1 C2.4140625 3.06640625 2.4140625 3.06640625 2.625 5.5625 C2.69976562 6.38878906 2.77453125 7.21507813 2.8515625 8.06640625 C2.90054688 8.70449219 2.94953125 9.34257813 3 10 C1.35 8.68 -0.3 7.36 -2 6 C-1.34 4.02 -0.68 2.04 0 0 Z " fill="#D02B1F" transform="translate(171,93)"/>
<path d="M0 0 C3.73487777 0.4979837 5.81237635 0.87491756 9 3 C8.25 5.4375 8.25 5.4375 7 8 C4.875 8.8125 4.875 8.8125 3 9 C3 7 3 7 4.5 5.375 C4.995 4.92125 5.49 4.4675 6 4 C4.02 3.01 2.04 2.02 0 1 C0 0.67 0 0.34 0 0 Z " fill="#2C1D08" transform="translate(91,161)"/>
<path d="M0 0 C3.48670834 1.1094072 6.77484237 2.26337666 10 4 C10 4.66 10 5.32 10 6 C7.03 5.67 4.06 5.34 1 5 C0.67 3.35 0.34 1.7 0 0 Z " fill="#221305" transform="translate(143,161)"/>
<path d="M0 0 C1.15941038 3.47823115 0.70820884 5.45895578 0 9 C-3 8 -3 8 -4 7 C-4 4 -4 4 -2 1.8125 C-1.34 1.214375 -0.68 0.61625 0 0 Z " fill="#837A3B" transform="translate(168,96)"/>
<path d="M0 0 C1.62463842 -0.05395478 3.24978541 -0.09277195 4.875 -0.125 C5.77992187 -0.14820312 6.68484375 -0.17140625 7.6171875 -0.1953125 C10 0 10 0 12 2 C6.06 2.495 6.06 2.495 0 3 C0 2.01 0 1.02 0 0 Z " fill="#1D0402" transform="translate(100,28)"/>
<path d="M0 0 C1.9375 0.6875 1.9375 0.6875 4 2 C4.75 4.625 4.75 4.625 5 7 C4.01 7.33 3.02 7.66 2 8 C1.34 8.66 0.68 9.32 0 10 C0 7 0 7 0.5625 5 C1.22052993 2.80883384 1.22052993 2.80883384 0 0 Z " fill="#440D06" transform="translate(169,87)"/>
<path d="M0 0 C0 0.66 0 1.32 0 2 C-5.61 1.67 -11.22 1.34 -17 1 C-17 0.67 -17 0.34 -17 0 C-15.10507254 -0.19644384 -13.20899097 -0.38177288 -11.3125 -0.5625 C-9.72888672 -0.71912109 -9.72888672 -0.71912109 -8.11328125 -0.87890625 C-5.18573914 -0.99277552 -2.82868856 -0.70848415 0 0 Z " fill="#280503" transform="translate(136,31)"/>
<path d="M0 0 C0 0.99 0 1.98 0 3 C-0.66 3 -1.32 3 -2 3 C-2.268125 3.78375 -2.53625 4.5675 -2.8125 5.375 C-4 8 -4 8 -7 10 C-5.76075855 5.04303419 -4.21422242 2.88341534 0 0 Z " fill="#5F2B0E" transform="translate(157,130)"/>
<path d="M0 0 C0.33 0.66 0.66 1.32 1 2 C0.67 2.66 0.34 3.32 0 4 C1.32 3.67 2.64 3.34 4 3 C3.67 3.99 3.34 4.98 3 6 C1.02 6 -0.96 6 -3 6 C-1.125 1.125 -1.125 1.125 0 0 Z " fill="#797542" transform="translate(158,116)"/>
<path d="M0 0 C0.33 0.66 0.66 1.32 1 2 C2.65 1.67 4.3 1.34 6 1 C4.515 3.475 4.515 3.475 3 6 C2.67 5.34 2.34 4.68 2 4 C0.68 4 -0.64 4 -2 4 C-1.34 2.68 -0.68 1.36 0 0 Z " fill="#787654" transform="translate(159,107)"/>
<path d="M0 0 C-1.0625 1.5625 -1.0625 1.5625 -3 3 C-6.6875 2.6875 -6.6875 2.6875 -10 2 C-10 1.67 -10 1.34 -10 1 C-8.71073008 0.63720544 -7.41846728 0.28503302 -6.125 -0.0625 C-5.40570312 -0.25972656 -4.68640625 -0.45695312 -3.9453125 -0.66015625 C-2 -1 -2 -1 0 0 Z " fill="#0F1112" transform="translate(30,48)"/>
<path d="M0 0 C3.875 1.75 3.875 1.75 5 4 C3.02 4.33 1.04 4.66 -1 5 C-0.67 3.35 -0.34 1.7 0 0 Z " fill="#F4F3F2" transform="translate(168,99)"/>
</svg>
