<?xml version="1.0" encoding="UTF-8"?>
<svg version="1.1" xmlns="http://www.w3.org/2000/svg" width="200" height="200">
<path d="M0 0 C1.17755859 0.02320312 1.17755859 0.02320312 2.37890625 0.046875 C4.4375 0.25 4.4375 0.25 6.4375 1.25 C8.69353962 6.26342137 8.65252018 10.87449542 8.4375 16.25 C9.00597656 16.52972656 9.57445313 16.80945313 10.16015625 17.09765625 C23.27452246 23.90661767 29.58626627 34.4725478 34.26953125 48.234375 C36.76564194 56.4171138 39.4375 65.65981013 39.4375 74.25 C40.77554688 74.21519531 40.77554688 74.21519531 42.140625 74.1796875 C43.89632812 74.15261719 43.89632812 74.15261719 45.6875 74.125 C46.84765625 74.10179688 48.0078125 74.07859375 49.203125 74.0546875 C52.3008493 74.24174815 53.92218205 74.49280358 56.4375 76.25 C57.9375 79.0625 57.9375 79.0625 58.4375 82.25 C57.25 84.9375 57.25 84.9375 54.4375 87.25 C50.82810326 88.54461863 47.18597825 89.45506409 43.4375 90.25 C43.6540625 92.15072266 43.6540625 92.15072266 43.875 94.08984375 C44.06275586 95.78903425 44.25024139 97.48825463 44.4375 99.1875 C44.53289062 100.01830078 44.62828125 100.84910156 44.7265625 101.70507812 C46.22083964 115.42040762 44.651864 126.75818201 38.4375 139.25 C37.7775 139.25 37.1175 139.25 36.4375 139.25 C36.8530464 143.23924543 37.48081177 146.59335523 39 150.3125 C40.35916981 153.77403098 40.94990463 156.49236606 40.4375 160.25 C39.375 162.625 39.375 162.625 37.4375 164.25 C34.0625 164.8125 34.0625 164.8125 30.4375 164.25 C27.27795695 161.70862841 25.72209114 160.10377341 24.4375 156.25 C23.7775 156.25 23.1175 156.25 22.4375 156.25 C21.7775 155.26 21.1175 154.27 20.4375 153.25 C19.90382813 153.44335938 19.37015625 153.63671875 18.8203125 153.8359375 C3.88963838 159.05392396 -16.86895646 163.01787882 -31.91796875 156.1796875 C-32.73201172 155.71949219 -32.73201172 155.71949219 -33.5625 155.25 C-33.85125 155.9925 -34.14 156.735 -34.4375 157.5 C-34.80875 158.4075 -35.18 159.315 -35.5625 160.25 C-35.830625 160.95125 -36.09875 161.6525 -36.375 162.375 C-38.06696682 165.04652656 -39.67827508 165.96812226 -42.5625 167.25 C-46.375 167.4375 -46.375 167.4375 -49.5625 167.25 C-51.564473 161.244081 -50.71341227 156.43156663 -48.8125 150.5625 C-47.94117456 147.80294737 -47.94117456 147.80294737 -47.5625 145.25 C-49.11831103 142.51286616 -49.11831103 142.51286616 -51.5625 140.25 C-52.80137687 137.32029548 -53.7029668 134.31037618 -54.5625 131.25 C-54.75328125 130.57582031 -54.9440625 129.90164062 -55.140625 129.20703125 C-55.78325553 126.22593963 -55.62089419 123.28649785 -55.5625 120.25 C-56.08199219 120.62253906 -56.60148437 120.99507813 -57.13671875 121.37890625 C-62.84315395 125.25 -62.84315395 125.25 -66.4375 125.25 C-68.5625 124.25 -68.5625 124.25 -70.5625 121.25 C-70.5625 114.17532921 -67.86999811 108.82575352 -63.5625 103.25 C-62.9025 103.25 -62.2425 103.25 -61.5625 103.25 C-59.59302702 99.99772853 -59.40606651 97.93331814 -59.875 94.1875 C-59.97425781 93.33027344 -60.07351562 92.47304687 -60.17578125 91.58984375 C-60.68126234 88.53142783 -61.11253484 86.68444912 -63.375 84.5 C-66.18096978 81.61385965 -68.47904122 79.15314342 -69.5625 75.25 C-69.41852795 70.11708354 -69.20300645 64.43313551 -66.0390625 60.22265625 C-64.10880668 57.64387533 -63.91603864 55.54981917 -63.5 52.375 C-62.88311196 48.13454272 -62.12380761 44.26479101 -60.5625 40.25 C-61.51962891 40.06824219 -61.51962891 40.06824219 -62.49609375 39.8828125 C-63.32238281 39.71523438 -64.14867187 39.54765625 -65 39.375 C-65.82371094 39.21257813 -66.64742187 39.05015625 -67.49609375 38.8828125 C-68.17800781 38.67398438 -68.85992187 38.46515625 -69.5625 38.25 C-71.12680248 35.12139505 -70.91877284 32.69397075 -70.5625 29.25 C-67.74071593 25.81095066 -66.05256016 25.30445113 -61.625 24.8125 C-57.74391106 24.99661238 -54.90392864 26.24514281 -51.5625 28.25 C-51.01722656 27.79109375 -50.47195312 27.3321875 -49.91015625 26.859375 C-37.01974679 16.37076833 -22.92710166 13.96150442 -6.5625 13.25 C-7.0575 12.26 -7.0575 12.26 -7.5625 11.25 C-8.02862717 3.90849711 -8.02862717 3.90849711 -6.33203125 1.51171875 C-4.0723932 -0.09945805 -2.75045962 -0.0906247 0 0 Z " fill="#BDE0E6" transform="translate(93.5625,16.75)"/>
<path d="M0 0 C1.17755859 0.02320312 1.17755859 0.02320312 2.37890625 0.046875 C4.4375 0.25 4.4375 0.25 6.4375 1.25 C8.69353962 6.26342137 8.65252018 10.87449542 8.4375 16.25 C9.00597656 16.52972656 9.57445313 16.80945313 10.16015625 17.09765625 C23.27452246 23.90661767 29.58626627 34.4725478 34.26953125 48.234375 C36.76564194 56.4171138 39.4375 65.65981013 39.4375 74.25 C40.77554688 74.21519531 40.77554688 74.21519531 42.140625 74.1796875 C43.89632812 74.15261719 43.89632812 74.15261719 45.6875 74.125 C46.84765625 74.10179688 48.0078125 74.07859375 49.203125 74.0546875 C52.3008493 74.24174815 53.92218205 74.49280358 56.4375 76.25 C57.9375 79.0625 57.9375 79.0625 58.4375 82.25 C57.25 84.9375 57.25 84.9375 54.4375 87.25 C50.82810326 88.54461863 47.18597825 89.45506409 43.4375 90.25 C43.6540625 92.15072266 43.6540625 92.15072266 43.875 94.08984375 C44.06275586 95.78903425 44.25024139 97.48825463 44.4375 99.1875 C44.53289062 100.01830078 44.62828125 100.84910156 44.7265625 101.70507812 C46.22083964 115.42040762 44.651864 126.75818201 38.4375 139.25 C37.7775 139.25 37.1175 139.25 36.4375 139.25 C36.8530464 143.23924543 37.48081177 146.59335523 39 150.3125 C40.35916981 153.77403098 40.94990463 156.49236606 40.4375 160.25 C39.375 162.625 39.375 162.625 37.4375 164.25 C34.0625 164.8125 34.0625 164.8125 30.4375 164.25 C27.27795695 161.70862841 25.72209114 160.10377341 24.4375 156.25 C23.7775 156.25 23.1175 156.25 22.4375 156.25 C21.7775 155.26 21.1175 154.27 20.4375 153.25 C19.90382813 153.44335938 19.37015625 153.63671875 18.8203125 153.8359375 C3.88963838 159.05392396 -16.86895646 163.01787882 -31.91796875 156.1796875 C-32.73201172 155.71949219 -32.73201172 155.71949219 -33.5625 155.25 C-33.85125 155.9925 -34.14 156.735 -34.4375 157.5 C-34.80875 158.4075 -35.18 159.315 -35.5625 160.25 C-35.830625 160.95125 -36.09875 161.6525 -36.375 162.375 C-38.06696682 165.04652656 -39.67827508 165.96812226 -42.5625 167.25 C-46.375 167.4375 -46.375 167.4375 -49.5625 167.25 C-51.564473 161.244081 -50.71341227 156.43156663 -48.8125 150.5625 C-47.94117456 147.80294737 -47.94117456 147.80294737 -47.5625 145.25 C-49.11831103 142.51286616 -49.11831103 142.51286616 -51.5625 140.25 C-53.48394349 135.78037608 -54.78809789 131.05129311 -55.5625 126.25 C-54.9025 126.25 -54.2425 126.25 -53.5625 126.25 C-52.5725 128.725 -52.5725 128.725 -51.5625 131.25 C-50.5725 130.92 -49.5825 130.59 -48.5625 130.25 C-48.2325 129.26 -47.9025 128.27 -47.5625 127.25 C-47.0675 128.24 -47.0675 128.24 -46.5625 129.25 C-45.9025 129.25 -45.2425 129.25 -44.5625 129.25 C-44.8925 130.9 -45.2225 132.55 -45.5625 134.25 C-46.5525 134.25 -47.5425 134.25 -48.5625 134.25 C-47.72320771 140.15575182 -44.93630767 143.34181583 -40.5625 147.25 C-27.09370592 156.06455635 -10.98957912 156.13671579 4.69140625 153.71875 C7.69211012 153.05433422 10.53381257 152.25127153 13.4375 151.25 C14.30761719 150.99476563 15.17773438 150.73953125 16.07421875 150.4765625 C24.74095429 147.58322659 32.20924564 141.39380824 36.4375 133.25 C36.4375 132.59 36.4375 131.93 36.4375 131.25 C35.4475 131.25 34.4575 131.25 33.4375 131.25 C33.7675 130.26 34.0975 129.27 34.4375 128.25 C35.0975 128.25 35.7575 128.25 36.4375 128.25 C36.4375 127.59 36.4375 126.93 36.4375 126.25 C35.7775 126.25 35.1175 126.25 34.4375 126.25 C34.4375 125.59 34.4375 124.93 34.4375 124.25 C36.4175 124.58 38.3975 124.91 40.4375 125.25 C42.59064433 113.73238668 41.2724262 101.86441979 40.4375 90.25 C38.4575 90.58 36.4775 90.91 34.4375 91.25 C36.56530579 88.90941363 38.55312221 87.54299694 41.4375 86.25 C41.4375 85.59 41.4375 84.93 41.4375 84.25 C42.0975 84.25 42.7575 84.25 43.4375 84.25 C43.4375 83.59 43.4375 82.93 43.4375 82.25 C44.06398438 82.3221875 44.69046875 82.394375 45.3359375 82.46875 C46.15320313 82.5615625 46.97046875 82.654375 47.8125 82.75 C48.62460938 82.8428125 49.43671875 82.935625 50.2734375 83.03125 C52.40662825 83.28352351 52.40662825 83.28352351 54.4375 83.25 C53.7775 81.6 53.1175 79.95 52.4375 78.25 C40.90012472 78.08017454 40.90012472 78.08017454 29.4375 79.25 C29.4375 78.59 29.4375 77.93 29.4375 77.25 C32.9025 76.755 32.9025 76.755 36.4375 76.25 C31.51063773 45.88673891 31.51063773 45.88673891 12.78515625 22.46875 C5.34348029 18.60551722 -1.56257779 17.75538691 -9.875 17.875 C-10.89174805 17.88515137 -11.90849609 17.89530273 -12.95605469 17.90576172 C-26.78006549 18.19145499 -39.51308475 21.77529729 -49.93359375 31.3671875 C-55.96806915 38.34228856 -59.57109138 46.10476134 -60.5625 55.25 C-59.51449219 54.51716797 -59.51449219 54.51716797 -58.4453125 53.76953125 C-55.15057852 52.03287607 -53.13321787 51.87729407 -49.4375 51.9375 C-48.40367188 51.94136719 -47.36984375 51.94523437 -46.3046875 51.94921875 C-43.5625 52.25 -43.5625 52.25 -40.5625 54.25 C-41.50351562 54.27578125 -42.44453125 54.3015625 -43.4140625 54.328125 C-52.80388229 54.51281033 -52.80388229 54.51281033 -60.5625 59.25 C-64.65343541 64.00433035 -65.29353369 68.19825803 -65.5625 74.25 C-55.69022445 74.82028549 -48.18919603 74.43065828 -39.0390625 70.34375 C-36.5625 69.25 -36.5625 69.25 -34.5625 69.25 C-34.5625 69.91 -34.5625 70.57 -34.5625 71.25 C-36.5425 71.745 -36.5425 71.745 -38.5625 72.25 C-38.8925 73.9 -39.2225 75.55 -39.5625 77.25 C-43.04849134 78.12149784 -45.1346769 78.13281394 -48.5625 77.25 C-51.32220408 77.18073032 -54.05446042 77.1558264 -56.8125 77.1875 C-57.55757812 77.19201172 -58.30265625 77.19652344 -59.0703125 77.20117188 C-60.9010764 77.21290754 -62.73179873 77.2308415 -64.5625 77.25 C-65.0575 78.24 -65.0575 78.24 -65.5625 79.25 C-67.59765625 77.65625 -67.59765625 77.65625 -69.5625 75.25 C-69.62109375 72.15625 -69.62109375 72.15625 -69 68.75 C-68.81308594 67.6259375 -68.62617187 66.501875 -68.43359375 65.34375 C-67.55637289 62.22823913 -66.46995811 60.78318511 -64.5625 58.25 C-63.84649539 55.41909837 -63.84649539 55.41909837 -63.5 52.375 C-62.88311196 48.13454272 -62.12380761 44.26479101 -60.5625 40.25 C-61.51962891 40.06824219 -61.51962891 40.06824219 -62.49609375 39.8828125 C-63.32238281 39.71523438 -64.14867187 39.54765625 -65 39.375 C-65.82371094 39.21257813 -66.64742187 39.05015625 -67.49609375 38.8828125 C-68.17800781 38.67398438 -68.85992187 38.46515625 -69.5625 38.25 C-71.12680248 35.12139505 -70.91877284 32.69397075 -70.5625 29.25 C-67.74071593 25.81095066 -66.05256016 25.30445113 -61.625 24.8125 C-57.74391106 24.99661238 -54.90392864 26.24514281 -51.5625 28.25 C-51.01722656 27.79109375 -50.47195312 27.3321875 -49.91015625 26.859375 C-37.01974679 16.37076833 -22.92710166 13.96150442 -6.5625 13.25 C-7.0575 12.26 -7.0575 12.26 -7.5625 11.25 C-8.02862717 3.90849711 -8.02862717 3.90849711 -6.33203125 1.51171875 C-4.0723932 -0.09945805 -2.75045962 -0.0906247 0 0 Z " fill="#474D4D" transform="translate(93.5625,16.75)"/>
<path d="M0 0 C0.70318359 -0.03287109 1.40636719 -0.06574219 2.13085938 -0.09960938 C6.11088464 -0.14064056 7.85773309 0.27461105 11.00390625 2.77734375 C13.0625 5.4375 13.0625 5.4375 14.0625 8.4375 C15.0525 8.7675 16.0425 9.0975 17.0625 9.4375 C17.41783249 15.85980572 17.56157685 21.82970796 14.0625 27.4375 C10.18624237 31.76682671 6.92749811 34.63029643 1.0625 35.4375 C-2.16869909 52.1451636 -0.46385985 71.55641265 8.57421875 86.24609375 C9.06535156 86.96925781 9.55648437 87.69242187 10.0625 88.4375 C10.44019531 89.02660156 10.81789062 89.61570312 11.20703125 90.22265625 C14.69750368 95.04518177 19.95359902 97.64000471 25.0625 100.4375 C20.60080534 102.00318643 17.83517081 100.53109198 13.65625 98.73046875 C6.89681343 95.36093034 0.42372673 90.38497282 -2.9375 83.4375 C-2.58984375 81.1953125 -2.58984375 81.1953125 -1.9375 79.4375 C-0.4525 79.9325 -0.4525 79.9325 1.0625 80.4375 C1.3925 78.7875 1.7225 77.1375 2.0625 75.4375 C-2.35272109 76.70724972 -2.35272109 76.70724972 -5.9375 79.4375 C-6.2675 77.1275 -6.5975 74.8175 -6.9375 72.4375 C-7.5975 72.4375 -8.2575 72.4375 -8.9375 72.4375 C-8.9375 70.4575 -8.9375 68.4775 -8.9375 66.4375 C-9.45699219 66.81003906 -9.97648437 67.18257813 -10.51171875 67.56640625 C-16.21815395 71.4375 -16.21815395 71.4375 -19.8125 71.4375 C-21.9375 70.4375 -21.9375 70.4375 -23.9375 67.4375 C-23.9375 60.36282921 -21.24499811 55.01325352 -16.9375 49.4375 C-16.2775 49.4375 -15.6175 49.4375 -14.9375 49.4375 C-12.96802702 46.18522853 -12.78106651 44.12081814 -13.25 40.375 C-13.34925781 39.51777344 -13.44851562 38.66054687 -13.55078125 37.77734375 C-14.08320879 34.55588822 -14.5609073 32.80232418 -16.9375 30.5 C-18.99252754 28.38075285 -19.52856845 27.30002086 -19.9375 24.4375 C-16.45098079 22.6942404 -12.47265526 23.0070283 -8.625 22.8125 C-7.34206055 22.73515625 -7.34206055 22.73515625 -6.03320312 22.65625 C-1.82875337 22.43479176 1.95714249 22.30323627 6.0625 23.4375 C6.31 22.633125 6.5575 21.82875 6.8125 21 C8.0625 18.4375 8.0625 18.4375 10.1875 17.625 C10.80625 17.563125 11.425 17.50125 12.0625 17.4375 C12.0625 16.7775 12.0625 16.1175 12.0625 15.4375 C11.23105469 15.78683594 10.39960937 16.13617188 9.54296875 16.49609375 C8.45628906 16.95113281 7.36960937 17.40617187 6.25 17.875 C4.63158203 18.55369141 4.63158203 18.55369141 2.98046875 19.24609375 C-1.90739828 21.2418092 -5.90790768 21.55923336 -11.125 21.5 C-11.87458984 21.49548828 -12.62417969 21.49097656 -13.39648438 21.48632812 C-15.24352383 21.47456354 -17.09052213 21.45662865 -18.9375 21.4375 C-20.83379651 17.64490697 -19.21511989 13.30504618 -17.9375 9.4375 C-13.34970685 2.05128757 -8.55984496 0.07022662 0 0 Z " fill="#444645" transform="translate(46.9375,70.5625)"/>
<path d="M0 0 C2.87824789 2.03583387 5.24527955 4.15451184 7.5625 6.8125 C7.5625 7.4725 7.5625 8.1325 7.5625 8.8125 C8.5525 9.1425 9.5425 9.4725 10.5625 9.8125 C11.06626434 17.29899776 10.75408779 23.40259499 6.5625 29.8125 C2.90254157 33.9136589 -1.24536069 36.45842311 -6.7265625 37.06640625 C-12.91449533 37.3561735 -16.46069417 36.52070826 -21.4375 32.8125 C-25.25482627 29.0159766 -29.4083014 24.49147194 -29.46875 18.9453125 C-27.98473387 10.54316235 -26.07090293 5.70439213 -19.375 0.375 C-13.44155462 -2.64377046 -6.12585479 -2.11620438 0 0 Z " fill="#2D3332" transform="translate(109.4375,55.1875)"/>
<path d="M0 0 C2.97 0.495 2.97 0.495 6 1 C6 2.32 6 3.64 6 5 C6.66 3.35 7.32 1.7 8 0 C9.32830615 3.98491845 8.23204404 5.40048548 6.5625 9.1875 C5.85287109 10.81751953 5.85287109 10.81751953 5.12890625 12.48046875 C4.75636719 13.31191406 4.38382812 14.14335937 4 15 C3.34 15 2.68 15 2 15 C2.4155464 18.98924543 3.04331177 22.34335523 4.5625 26.0625 C5.92166981 29.52403098 6.51240463 32.24236606 6 36 C4.9375 38.375 4.9375 38.375 3 40 C-0.375 40.5625 -0.375 40.5625 -4 40 C-7.15954305 37.45862841 -8.71540886 35.85377341 -10 32 C-10.66 32 -11.32 32 -12 32 C-12.99 30.515 -12.99 30.515 -14 29 C-14.53367187 29.19335938 -15.06734375 29.38671875 -15.6171875 29.5859375 C-30.54786162 34.80392396 -51.30645646 38.76787882 -66.35546875 31.9296875 C-66.89816406 31.62289062 -67.44085938 31.31609375 -68 31 C-68.433125 32.11375 -68.433125 32.11375 -68.875 33.25 C-69.431875 34.61125 -69.431875 34.61125 -70 36 C-70.268125 36.70125 -70.53625 37.4025 -70.8125 38.125 C-72.50446682 40.79652656 -74.11577508 41.71812226 -77 43 C-80.8125 43.1875 -80.8125 43.1875 -84 43 C-86.001973 36.994081 -85.15091227 32.18156663 -83.25 26.3125 C-82.37867456 23.55294737 -82.37867456 23.55294737 -82 21 C-83.55581103 18.26286616 -83.55581103 18.26286616 -86 16 C-87.92144349 11.53037608 -89.22559789 6.80129311 -90 2 C-89.34 2 -88.68 2 -88 2 C-87.34 3.65 -86.68 5.3 -86 7 C-85.01 6.67 -84.02 6.34 -83 6 C-82.67 5.01 -82.34 4.02 -82 3 C-81.67 3.66 -81.34 4.32 -81 5 C-80.34 5 -79.68 5 -79 5 C-79.33 6.65 -79.66 8.3 -80 10 C-80.99 10 -81.98 10 -83 10 C-82.16070771 15.90575182 -79.37380767 19.09181583 -75 23 C-61.53120592 31.81455635 -45.42707912 31.88671579 -29.74609375 29.46875 C-26.74538988 28.80433422 -23.90368743 28.00127153 -21 27 C-20.12988281 26.74476563 -19.25976562 26.48953125 -18.36328125 26.2265625 C-9.69654571 23.33322659 -2.22825436 17.14380824 2 9 C2 8.34 2 7.68 2 7 C1.01 7 0.02 7 -1 7 C-0.67 6.01 -0.34 5.02 0 4 C0.66 4 1.32 4 2 4 C2 3.34 2 2.68 2 2 C1.34 2 0.68 2 0 2 C0 1.34 0 0.68 0 0 Z " fill="#3E3D39" transform="translate(128,141)"/>
<path d="M0 0 C0.66 0 1.32 0 2 0 C3.4606285 2.64738916 4 3.89448334 4 7 C5.32 6.67 6.64 6.34 8 6 C8.33 6.99 8.66 7.98 9 9 C11.475 9.495 11.475 9.495 14 10 C14 8.02 14 6.04 14 4 C14.99 4 15.98 4 17 4 C17 5.98 17 7.96 17 10 C17.99 10 18.98 10 20 10 C20 9.34 20 8.68 20 8 C20.99 8 21.98 8 23 8 C26.03620615 11.38320113 27.30020005 14.14800105 27.5 18.625 C27.33526428 21.58525105 27.04058359 22.92765533 25.5625 25.5625 C21.72248796 27.7166531 18.29383303 27.89732953 14 27 C11.55626362 25.56162971 10.00531861 24.05673704 8 22 C7.67 22.99 7.34 23.98 7 25 C6.01 25 5.02 25 4 25 C3.34 23.35 2.68 21.7 2 20 C2 21.32 2 22.64 2 24 C1.01 23.67 0.02 23.34 -1 23 C-1 21.35 -1 19.7 -1 18 C-2.11375 17.9071875 -2.11375 17.9071875 -3.25 17.8125 C-6.92401842 16.72699456 -8.07012464 15.26594292 -10 12 C-9.75 9.1875 -9.75 9.1875 -9 7 C-6.03 6.34 -3.06 5.68 0 5 C-0.33 3.68 -0.66 2.36 -1 1 C-0.67 0.67 -0.34 0.34 0 0 Z " fill="#2C2D2B" transform="translate(150,104)"/>
<path d="M0 0 C3.34853666 1.79538561 5.89810467 3.92496412 7.7734375 7.234375 C7.7734375 7.894375 7.7734375 8.554375 7.7734375 9.234375 C8.4334375 9.564375 9.0934375 9.894375 9.7734375 10.234375 C9.1134375 11.224375 8.4534375 12.214375 7.7734375 13.234375 C7.1134375 13.234375 6.4534375 13.234375 5.7734375 13.234375 C5.7734375 12.574375 5.7734375 11.914375 5.7734375 11.234375 C4.8246875 11.729375 3.8759375 12.224375 2.8984375 12.734375 C-0.2265625 14.234375 -0.2265625 14.234375 -2.2265625 14.234375 C-2.2265625 14.894375 -2.2265625 15.554375 -2.2265625 16.234375 C-1.5665625 16.564375 -0.9065625 16.894375 -0.2265625 17.234375 C-6.3539303 20.51180429 -11.05560411 21.37503328 -17.9765625 21.359375 C-19.12640625 21.36195312 -20.27625 21.36453125 -21.4609375 21.3671875 C-24.2265625 21.234375 -24.2265625 21.234375 -25.2265625 20.234375 C-26.14412533 14.24400055 -25.23006789 9.87583954 -21.69140625 4.96484375 C-16.09427717 -1.6472314 -8.1125761 -2.78958757 0 0 Z " fill="#AFCFD3" transform="translate(108.2265625,56.765625)"/>
<path d="M0 0 C3.36677336 1.82336979 5.94000759 3.90332221 7.83203125 7.2421875 C7.83203125 7.9021875 7.83203125 8.5621875 7.83203125 9.2421875 C8.49203125 9.5721875 9.15203125 9.9021875 9.83203125 10.2421875 C1.92937377 17.96923037 -5.93054042 20.58162712 -16.85546875 20.4921875 C-19.29628565 20.44137699 -21.72876725 20.35236473 -24.16796875 20.2421875 C-26.06426526 16.44959447 -24.44558864 12.10973368 -23.16796875 8.2421875 C-17.90377878 -0.23300398 -9.6928103 -3.38811748 0 0 Z " fill="#AFCFD3" transform="translate(52.16796875,71.7578125)"/>
<path d="M0 0 C3.96 0.33 7.92 0.66 12 1 C11.84144531 1.81984375 11.68289062 2.6396875 11.51953125 3.484375 C8.98620415 20.62718998 11.11981739 39.45201459 21 54 C21.37769531 54.58910156 21.75539063 55.17820313 22.14453125 55.78515625 C25.63500368 60.60768177 30.89109902 63.20250471 36 66 C31.53830534 67.56568643 28.77267081 66.09359198 24.59375 64.29296875 C17.83431343 60.92343034 11.36122673 55.94747282 8 49 C8.34765625 46.7578125 8.34765625 46.7578125 9 45 C9.99 45.33 10.98 45.66 12 46 C12.33 44.35 12.66 42.7 13 41 C10.69 41.66 8.38 42.32 6 43 C4.26292517 35.55539359 3.46461561 28.15944236 2.75488281 20.56445312 C2.09771786 13.64993488 1.14235204 6.85411222 0 0 Z " fill="#93AFB3" transform="translate(36,105)"/>
<path d="M0 0 C3.37478448 2.6919102 4.30155263 6.00447605 5.6875 10 C6.12449219 11.2375 6.56148438 12.475 7.01171875 13.75 C8 17 8 17 8 20 C8.66 20 9.32 20 10 20 C10.50354867 22.43681587 11.00296756 24.87435439 11.5 27.3125 C11.64308594 28.00279297 11.78617188 28.69308594 11.93359375 29.40429688 C12.52625044 32.32524773 13 35.01108122 13 38 C13.89203125 37.97679687 14.7840625 37.95359375 15.703125 37.9296875 C16.87359375 37.91164062 18.0440625 37.89359375 19.25 37.875 C20.41015625 37.85179687 21.5703125 37.82859375 22.765625 37.8046875 C25.8633493 37.99174815 27.48468205 38.24280358 30 40 C31.5 42.8125 31.5 42.8125 32 46 C30.8125 48.6875 30.8125 48.6875 28 51 C24.39060326 52.29461863 20.74847825 53.20506409 17 54 C17.144375 55.26714844 17.28875 56.53429687 17.4375 57.83984375 C17.62525586 59.53903425 17.81274139 61.23825463 18 62.9375 C18.09539062 63.76830078 18.19078125 64.59910156 18.2890625 65.45507812 C19.11889624 73.07176641 19.5491505 80.44789129 18 88 C17.34 88 16.68 88 16 88 C15.34 90.31 14.68 92.62 14 95 C13.01708036 91.8587813 13.02036062 90.92534438 13.9375 87.5625 C16.8284755 76.95574528 14.7810337 64.8647367 14 54 C11.03 54.495 11.03 54.495 8 55 C10.12780579 52.65941363 12.11562221 51.29299694 15 50 C15 49.34 15 48.68 15 48 C15.66 48 16.32 48 17 48 C17 47.34 17 46.68 17 46 C17.62648437 46.0721875 18.25296875 46.144375 18.8984375 46.21875 C20.12433594 46.35796875 20.12433594 46.35796875 21.375 46.5 C22.59316406 46.63921875 22.59316406 46.63921875 23.8359375 46.78125 C25.96912825 47.03352351 25.96912825 47.03352351 28 47 C27.34 45.35 26.68 43.7 26 42 C14.46262472 41.83017454 14.46262472 41.83017454 3 43 C3 42.34 3 41.68 3 41 C6.465 40.505 6.465 40.505 10 40 C6.85025609 21.68957056 6.85025609 21.68957056 0.91796875 4.16015625 C0 2 0 2 0 0 Z " fill="#40403D" transform="translate(120,53)"/>
<path d="M0 0 C2 2 2 2 2.25 5.375 C2.01294685 8.81227071 1.50885145 10.07660032 0 13 C-0.16666667 16 -0.16666667 16 0 19 C0 20.32 0 21.64 0 23 C-6.625 26 -6.625 26 -10 26 C-10.22786458 24.01432292 -10.45572917 22.02864583 -10.68359375 20.04296875 C-10.97170735 17.80603607 -10.97170735 17.80603607 -12 15 C-13.98248715 14.28293018 -15.98415349 13.61709587 -18 13 C-18.66 12.34 -19.32 11.68 -20 11 C-19.9765625 8.58203125 -19.9765625 8.58203125 -19 6 C-13.43787311 1.95561436 -6.93062066 -1.20532533 0 0 Z " fill="#D3EAE7" transform="translate(76,56)"/>
<path d="M0 0 C2.97 0.495 2.97 0.495 6 1 C6 2.32 6 3.64 6 5 C6.66 3.35 7.32 1.7 8 0 C9.32830615 3.98491845 8.23204404 5.40048548 6.5625 9.1875 C6.08941406 10.27417969 5.61632812 11.36085937 5.12890625 12.48046875 C4.75636719 13.31191406 4.38382813 14.14335937 4 15 C3.34 15 2.68 15 2 15 C2.4155464 18.98924543 3.04331177 22.34335523 4.5625 26.0625 C5.92166981 29.52403098 6.51240463 32.24236606 6 36 C4.9375 38.375 4.9375 38.375 3 40 C-0.375 40.5625 -0.375 40.5625 -4 40 C-7.15954305 37.45862841 -8.71540886 35.85377341 -10 32 C-10.66 32 -11.32 32 -12 32 C-12.66 30.35 -13.32 28.7 -14 27 C-13.34 27 -12.68 27 -12 27 C-10.61061923 28.96147874 -9.2739589 30.96166576 -8 33 C-7.8 30.85 -7.8 30.85 -9.5 29 C-11 27 -11 27 -11 25 C-9.57421875 23.921875 -9.57421875 23.921875 -7.6875 22.75 C-4.10969857 20.30240948 -2.68488169 18.04371605 -1 14 C-0.443125 13.0925 0.11375 12.185 0.6875 11.25 C2.16795701 9.14621257 2.16795701 9.14621257 2 7 C1.01 7 0.02 7 -1 7 C-0.67 6.01 -0.34 5.02 0 4 C0.66 4 1.32 4 2 4 C2 3.34 2 2.68 2 2 C1.34 2 0.68 2 0 2 C0 1.34 0 0.68 0 0 Z " fill="#3F3D39" transform="translate(128,141)"/>
<path d="M0 0 C0.66 0.33 1.32 0.66 2 1 C1.32904297 1.70962891 1.32904297 1.70962891 0.64453125 2.43359375 C-6.52720563 10.27815883 -10.51895084 17.41160375 -12 28 C-11.30132812 27.51144531 -10.60265625 27.02289063 -9.8828125 26.51953125 C-6.58807852 24.78287607 -4.57071787 24.62729407 -0.875 24.6875 C0.15882812 24.69136719 1.19265625 24.69523437 2.2578125 24.69921875 C5 25 5 25 8 27 C7.05898438 27.02578125 6.11796875 27.0515625 5.1484375 27.078125 C-4.24138229 27.26281033 -4.24138229 27.26281033 -12 32 C-16.09093541 36.75433035 -16.73103369 40.94825803 -17 47 C-7.12772445 47.57028549 0.37330397 47.18065828 9.5234375 43.09375 C12 42 12 42 14 42 C14 42.66 14 43.32 14 44 C12.02 44.495 12.02 44.495 10 45 C9.67 46.65 9.34 48.3 9 50 C5.51400866 50.87149784 3.4278231 50.88281394 0 50 C-2.75970408 49.93073032 -5.49196042 49.9058264 -8.25 49.9375 C-8.99507812 49.94201172 -9.74015625 49.94652344 -10.5078125 49.95117188 C-12.3385764 49.96290754 -14.16929873 49.9808415 -16 50 C-16.33 50.66 -16.66 51.32 -17 52 C-19.03515625 50.40625 -19.03515625 50.40625 -21 48 C-21.05859375 44.90625 -21.05859375 44.90625 -20.4375 41.5 C-20.25058594 40.3759375 -20.06367188 39.251875 -19.87109375 38.09375 C-18.99387289 34.97823913 -17.90745811 33.53318511 -16 31 C-15.28399539 28.16909837 -15.28399539 28.16909837 -14.9375 25.125 C-14.32061196 20.88454272 -13.56130761 17.01479101 -12 13 C-14.64 12.01 -17.28 11.02 -20 10 C-20 9.67 -20 9.34 -20 9 C-18.56260487 8.97287934 -17.12506137 8.95354933 -15.6875 8.9375 C-14.48673828 8.92009766 -14.48673828 8.92009766 -13.26171875 8.90234375 C-11 9 -11 9 -8 10 C-8 9.34 -8 8.68 -8 8 C-10.31 8 -12.62 8 -15 8 C-14.67 7.34 -14.34 6.68 -14 6 C-13.01 6 -12.02 6 -11 6 C-10.67 5.34 -10.34 4.68 -10 4 C-8.68 4.66 -7.36 5.32 -6 6 C-6.33 4.35 -6.66 2.7 -7 1 C-6.21625 1.20625 -5.4325 1.4125 -4.625 1.625 C-3.75875 1.74875 -2.8925 1.8725 -2 2 C-1.34 1.34 -0.68 0.68 0 0 Z " fill="#3E403F" transform="translate(45,44)"/>
<path d="M0 0 C0.66 0 1.32 0 2 0 C1.50521338 7.17440601 -0.0531815 11.34067599 -5.5625 16.3125 C-10.35484058 19.63027425 -15.35598993 19.64276558 -21 19 C-24.96262891 16.94530353 -28.07552893 14.3743897 -31 11 C-31 10.34 -31 9.68 -31 9 C-21.95960217 7.72958023 -13.15564771 6.65084394 -4 7 C-3.525625 6.030625 -3.05125 5.06125 -2.5625 4.0625 C-1 1 -1 1 0 0 Z " fill="#F3F3F3" transform="translate(116,71)"/>
<path d="M0 0 C-0.44500242 5.45127965 -1.50705301 9.68455479 -5 14 C-9.98821187 17.97020945 -14.07490817 18.63873822 -20.41015625 18.38671875 C-24.131859 17.83098938 -26.25468957 16.53941214 -29 14 C-30.03166331 12.35274514 -31.03688553 10.68825007 -32 9 C-29.10508022 8.63625619 -26.20952377 8.28371333 -23.3125 7.9375 C-22.49587891 7.83373047 -21.67925781 7.72996094 -20.83789062 7.62304688 C-16.6579194 7.13228102 -13.11245789 6.80227805 -9 8 C-8.773125 7.236875 -8.54625 6.47375 -8.3125 5.6875 C-6.58459606 2.14941098 -4.0788835 0 0 0 Z " fill="#F5F5F4" transform="translate(62,86)"/>
<path d="M0 0 C3.125 0.375 3.125 0.375 6 1 C6.33 1.99 6.66 2.98 7 4 C7.66 4 8.32 4 9 4 C9 4.99 9 5.98 9 7 C9.66 7 10.32 7 11 7 C11 9.31 11 11.62 11 14 C11.85271484 14.41958984 11.85271484 14.41958984 12.72265625 14.84765625 C26.30906489 21.90170147 32.13658404 32.89051621 37.21484375 46.8984375 C37.96699311 49.86961458 38.10905566 51.20325094 37 54 C36.67386719 52.96359375 36.34773438 51.9271875 36.01171875 50.859375 C35.57071653 49.4894532 35.12928777 48.11966867 34.6875 46.75 C34.36749023 45.72712891 34.36749023 45.72712891 34.04101562 44.68359375 C32.82571273 40.94699082 31.58590973 37.97030172 29 35 C28.401875 34.236875 27.80375 33.47375 27.1875 32.6875 C26.465625 31.800625 25.74375 30.91375 25 30 C24.36964844 29.15888672 24.36964844 29.15888672 23.7265625 28.30078125 C18.5711689 21.73548719 11.99417906 18.25476845 4 16 C4 15.34 4 14.68 4 14 C5.32 14 6.64 14 8 14 C6.68 13.67 5.36 13.34 4 13 C4.875 8.25 4.875 8.25 6 6 C5.34 6 4.68 6 4 6 C4 6.66 4 7.32 4 8 C3.34 8 2.68 8 2 8 C2 9.65 2 11.3 2 13 C1.01 12.67 0.02 12.34 -1 12 C-2.17353189 8.47940432 -2.20146402 5.693507 -2 2 C-1.34 1.34 -0.68 0.68 0 0 Z " fill="#3B3E3D" transform="translate(91,19)"/>
<path d="M0 0 C2 2 2 2 2 6 C-4.4 7.23076923 -4.4 7.23076923 -7.4375 6.0625 C-7.953125 5.711875 -8.46875 5.36125 -9 5 C-9 5.66 -9 6.32 -9 7 C-9.66 7 -10.32 7 -11 7 C-10.67 7.99 -10.34 8.98 -10 10 C-13.465 11.485 -13.465 11.485 -17 13 C-15.35 13 -13.7 13 -12 13 C-12 15.64 -12 18.28 -12 21 C-17.85707651 16.86559305 -19.76905397 14.0499636 -21 7 C-21.63028587 5.31923769 -22.28050817 3.64455275 -23 2 C-15.51585478 -0.44380252 -7.81441494 -0.64960907 0 0 Z " fill="#EEC89D" transform="translate(146,94)"/>
<path d="M0 0 C0.9075 0.103125 1.815 0.20625 2.75 0.3125 C2.75 0.9725 2.75 1.6325 2.75 2.3125 C4.07 2.6425 5.39 2.9725 6.75 3.3125 C7.92261706 6.83035118 7.71324666 8.43501113 6.625 12.0625 C4.75 15.3125 4.75 15.3125 2.5 16.5625 C-1.65367656 16.18489304 -4.44732654 14.37352046 -7.25 11.3125 C-8.14003293 7.42871996 -7.57486103 5.88725413 -5.625 2.4375 C-3.25 0.3125 -3.25 0.3125 0 0 Z " fill="#3D413C" transform="translate(75.25,80.6875)"/>
<path d="M0 0 C3.5 1.5 3.5 1.5 6 3 C6.99 2.01 7.98 1.02 9 0 C9.66 0.33 10.32 0.66 11 1 C9.25 3.0625 9.25 3.0625 7 5 C4.75 4.75 4.75 4.75 3 4 C3.33 5.32 3.66 6.64 4 8 C2 8 0 8 -2 8 C-2.99 8.33 -3.98 8.66 -5 9 C-2.03 9.495 -2.03 9.495 1 10 C1 10.66 1 11.32 1 12 C-2.3 12 -5.6 12 -9 12 C-7.68 12.66 -6.36 13.32 -5 14 C-7.3431213 13.74438677 -9.67843403 13.40729228 -12 13 C-13.56430248 9.87139505 -13.35627284 7.44397075 -13 4 C-9.42690395 -0.35471081 -5.36504367 -0.90986121 0 0 Z " fill="#565856" transform="translate(36,42)"/>
<path d="M0 0 C0 0.66 0 1.32 0 2 C-1.5159375 2.680625 -1.5159375 2.680625 -3.0625 3.375 C-8.21670742 6.29188412 -10.93713171 11.07969921 -14 16 C-14.55816406 16.85078125 -15.11632813 17.7015625 -15.69140625 18.578125 C-17.4351712 21.80539148 -17.21220945 24.39243935 -17 28 C-15.02 28.33 -13.04 28.66 -11 29 C-11 29.33 -11 29.66 -11 30 C-11.59167969 30.04898438 -12.18335938 30.09796875 -12.79296875 30.1484375 C-17.19104472 30.56456867 -20.96928897 31.04965595 -25 33 C-25.15086854 23.25820263 -21.32196491 15.66652364 -14.74609375 8.56640625 C-5.45665138 0 -5.45665138 0 0 0 Z " fill="#92ADB1" transform="translate(58,39)"/>
<path d="M0 0 C0.66 0.33 1.32 0.66 2 1 C2 2.98 2 4.96 2 7 C2.99 7 3.98 7 5 7 C5 6.34 5 5.68 5 5 C5.99 5 6.98 5 8 5 C9.6875 7 9.6875 7 11 9 C10.67 9.66 10.34 10.32 10 11 C9.67 11 9.34 11 9 11 C9.226875 11.9075 9.45375 12.815 9.6875 13.75 C10 17 10 17 8.875 19.375 C7 21 7 21 4.3125 21.25 C3.549375 21.1675 2.78625 21.085 2 21 C2.66 18.36 3.32 15.72 4 13 C3.01 15.31 2.02 17.62 1 20 C0.01 19.67 -0.98 19.34 -2 19 C-2.125 13.25 -2.125 13.25 -1 11 C-0.34 11 0.32 11 1 11 C1 10.34 1 9.68 1 9 C0.071875 8.87625 -0.85625 8.7525 -1.8125 8.625 C-5 8 -5 8 -8 6 C-8.99 6 -9.98 6 -11 6 C-11 5.34 -11 4.68 -11 4 C-9.68 3.67 -8.36 3.34 -7 3 C-6.67 3.99 -6.34 4.98 -6 6 C-4.35 6.33 -2.7 6.66 -1 7 C-1.020625 6.030625 -1.04125 5.06125 -1.0625 4.0625 C-1 1 -1 1 0 0 Z " fill="#626261" transform="translate(165,107)"/>
<path d="M0 0 C0.66 0 1.32 0 2 0 C2.50376434 7.48649776 2.19158779 13.59009499 -2 20 C-5.65995843 24.1011589 -9.80786069 26.64592311 -15.2890625 27.25390625 C-21.47699533 27.5436735 -25.02319417 26.70820826 -30 23 C-32.02630682 21.07425431 -33.4036259 19.34467446 -35 17 C-34.505 15.515 -34.505 15.515 -34 14 C-32 15 -32 15 -31.1875 16.8125 C-29.33561295 20.22387089 -26.43843924 22.28078038 -23 24 C-17.03691027 24.55769904 -12.07123132 24.50156448 -7 21 C-2.59040108 16.84237816 -1.4604365 11.69791514 0 6 C-0.59554687 6.31582031 -1.19109375 6.63164063 -1.8046875 6.95703125 C-4.52958165 8.2515984 -7.00999725 8.6749997 -10 9 C-10.66 8.67 -11.32 8.34 -12 8 C-12 7.34 -12 6.68 -12 6 C-6.25 3 -6.25 3 -4 3 C-4 3.66 -4 4.32 -4 5 C-2.29159719 3.36587557 -1.06546953 2.13093906 0 0 Z " fill="#2D3130" transform="translate(118,65)"/>
<path d="M0 0 C0.66 0.33 1.32 0.66 2 1 C1.67 1.66 1.34 2.32 1 3 C1.66 3 2.32 3 3 3 C5.15520492 14.19696305 5.15520492 14.19696305 2.42578125 18.45703125 C0.32746079 20.36142191 -1.41157974 21.83823148 -4 23 C-6.26953125 22.6640625 -6.26953125 22.6640625 -8 22 C-7.71601983 15.32646591 -4.92194468 11.28922815 -1 6 C-1.66 6 -2.32 6 -3 6 C-1.125 1.125 -1.125 1.125 0 0 Z " fill="#BD9C78" transform="translate(34,116)"/>
<path d="M0 0 C0.495 0.99 0.495 0.99 1 2 C-1.65654657 5.73884332 -3.58110387 7.64978174 -8 9 C-5.525 12.96 -5.525 12.96 -3 17 C-3.99 17 -4.98 17 -6 17 C-9 13.66666667 -9 13.66666667 -9 11 C-9.66 11 -10.32 11 -11 11 C-11 11.66 -11 12.32 -11 13 C-12.35129647 13.48720213 -13.70624316 13.96428184 -15.0625 14.4375 C-15.81660156 14.70433594 -16.57070312 14.97117188 -17.34765625 15.24609375 C-24.96915284 17.41243961 -32.57230562 17.11828152 -40.4375 17.0625 C-41.64599609 17.05798828 -42.85449219 17.05347656 -44.09960938 17.04882812 C-47.06645789 17.03710145 -50.0332027 17.02068896 -53 17 C-53 16.67 -53 16.34 -53 16 C-51.87464844 15.96261719 -50.74929687 15.92523438 -49.58984375 15.88671875 C-31.64134667 15.17082428 -13.20687819 13.47878451 0 0 Z " fill="#3A3D3C" transform="translate(125,157)"/>
<path d="M0 0 C0.66 0 1.32 0 2 0 C3.0625 1.8125 3.0625 1.8125 4 4 C3.67 4.99 3.34 5.98 3 7 C0.9375 7.6875 0.9375 7.6875 -1 8 C-0.32453125 8.26554687 0.3509375 8.53109375 1.046875 8.8046875 C1.93890625 9.15789062 2.8309375 9.51109375 3.75 9.875 C5.07257813 10.39707031 5.07257813 10.39707031 6.421875 10.9296875 C8.6740248 11.8646709 10.83649459 12.87780794 13 14 C12.34 15.32 11.68 16.64 11 18 C5.33557626 17.63495936 0.99296295 16.9445679 -4 14 C-4 12.02 -4 10.04 -4 8 C-4.66 8 -5.32 8 -6 8 C-6 7.34 -6 6.68 -6 6 C-4.02 5.67 -2.04 5.34 0 5 C-0.2784375 4.0409375 -0.2784375 4.0409375 -0.5625 3.0625 C-0.706875 2.381875 -0.85125 1.70125 -1 1 C-0.67 0.67 -0.34 0.34 0 0 Z " fill="#5E5D5D" transform="translate(150,104)"/>
<path d="M0 0 C2.97 1.65 5.94 3.3 9 5 C7.49087042 9.98012761 4.44338151 13.24259942 1 17 C-0.32 16.67 -1.64 16.34 -3 16 C-3.33266291 9.79029227 -2.45029331 5.71735105 0 0 Z " fill="#C09F7A" transform="translate(49,164)"/>
<path d="M0 0 C3.37478448 2.6919102 4.30155263 6.00447605 5.6875 10 C6.12449219 11.2375 6.56148438 12.475 7.01171875 13.75 C8 17 8 17 8 20 C8.66 20 9.32 20 10 20 C10.50354867 22.43681587 11.00296756 24.87435439 11.5 27.3125 C11.64308594 28.00279297 11.78617188 28.69308594 11.93359375 29.40429688 C12.52625044 32.32524773 13 35.01108122 13 38 C16.3 38.33 19.6 38.66 23 39 C23 39.33 23 39.66 23 40 C20.22970414 40.50314563 17.4588348 41.00263838 14.6875 41.5 C13.90181641 41.64308594 13.11613281 41.78617188 12.30664062 41.93359375 C11.1706543 42.13662109 11.1706543 42.13662109 10.01171875 42.34375 C9.31522217 42.46943359 8.61872559 42.59511719 7.90112305 42.72460938 C6 43 6 43 3 43 C3 42.34 3 41.68 3 41 C6.465 40.505 6.465 40.505 10 40 C6.85025609 21.68957056 6.85025609 21.68957056 0.91796875 4.16015625 C0 2 0 2 0 0 Z " fill="#383B39" transform="translate(120,53)"/>
<path d="M0 0 C0 0.66 0 1.32 0 2 C-0.804375 2.61875 -1.60875 3.2375 -2.4375 3.875 C-6.07240441 7.29304931 -5.83172125 11.62774424 -6.15234375 16.35546875 C-6.28506641 19.15844656 -6.28506641 19.15844656 -4 21 C-6.97 21 -9.94 21 -13 21 C-14.89629651 17.20740697 -13.27761989 12.86754618 -12 9 C-9.29613985 4.64686446 -5.53439097 0 0 0 Z " fill="#8CA5A9" transform="translate(41,71)"/>
<path d="M0 0 C1.32 0.66 2.64 1.32 4 2 C3.24203125 3.10408203 3.24203125 3.10408203 2.46875 4.23046875 C1.8190625 5.20628906 1.169375 6.18210937 0.5 7.1875 C-0.1496875 8.15042969 -0.799375 9.11335937 -1.46875 10.10546875 C-3.05122341 13.09682792 -3.33964475 14.68239856 -3 18 C-0.31678692 17.48399748 1.64855443 16.67572278 4.125 15.4375 C7 14 7 14 9 14 C9 16.31 9 18.62 9 21 C8.67 19.68 8.34 18.36 8 17 C7.48050781 17.37253906 6.96101563 17.74507812 6.42578125 18.12890625 C0.71934605 22 0.71934605 22 -2.875 22 C-5 21 -5 21 -7 18 C-7 10.70862941 -3.99028733 5.95492421 0 0 Z " fill="#43413E" transform="translate(30,120)"/>
<path d="M0 0 C3.34881047 2.71094181 4.59869291 5.99626547 6 10 C6.1875 13.9375 6.1875 13.9375 6 17 C4.68 17 3.36 17 2 17 C-1.9189067 12.52124949 -2.90514265 8.78629833 -3 3 C-1.5625 1 -1.5625 1 0 0 Z " fill="#EFC596" transform="translate(125,160)"/>
<path d="M0 0 C3 0.1875 3 0.1875 6 1 C8.67927341 5.01891012 8.15601248 7.24161923 8 12 C6.68 12.33 5.36 12.66 4 13 C4.875 8.25 4.875 8.25 6 6 C5.34 6 4.68 6 4 6 C4 6.66 4 7.32 4 8 C3.34 8 2.68 8 2 8 C2 9.65 2 11.3 2 13 C1.01 12.67 0.02 12.34 -1 12 C-2.17353189 8.47940432 -2.20146402 5.693507 -2 2 C-1.34 1.34 -0.68 0.68 0 0 Z " fill="#B8D9DF" transform="translate(91,19)"/>
<path d="M0 0 C0 0.66 0 1.32 0 2 C-1.32 2.33 -2.64 2.66 -4 3 C-4.33 4.65 -4.66 6.3 -5 8 C-8.48599134 8.87149784 -10.5721769 8.88281394 -14 8 C-16.75970408 7.93073032 -19.49196042 7.9058264 -22.25 7.9375 C-23.36761719 7.94426758 -23.36761719 7.94426758 -24.5078125 7.95117188 C-26.3385764 7.96290754 -28.16929873 7.9808415 -30 8 C-30.33 8.66 -30.66 9.32 -31 10 C-31.33 8.68 -31.66 7.36 -32 6 C-30.92363281 5.98582031 -29.84726562 5.97164063 -28.73828125 5.95703125 C-19.79155059 5.70928196 -12.69807695 4.70640947 -4.44140625 1.05859375 C-2 0 -2 0 0 0 Z " fill="#2A2C29" transform="translate(59,86)"/>
<path d="M0 0 C0.433125 1.19625 0.86625 2.3925 1.3125 3.625 C2.6529584 7.21232201 4.21821184 10.60611779 6 14 C4.68 14 3.36 14 2 14 C3.18424326 15.41577477 3.18424326 15.41577477 6.5625 15.0625 C8.2640625 15.0315625 8.2640625 15.0315625 10 15 C9.67 15.66 9.34 16.32 9 17 C4.56356484 17.43494462 2.67136622 17.54001196 -0.875 14.6875 C-3 12 -3 12 -4 9 C-4.66 9 -5.32 9 -6 9 C-6.66 7.35 -7.32 5.7 -8 4 C-7.34 4 -6.68 4 -6 4 C-4.61061923 5.96147874 -3.2739589 7.96166576 -2 10 C-1.8 7.85 -1.8 7.85 -3.5 6 C-5 4 -5 4 -5 2 C-2 0 -2 0 0 0 Z " fill="#C09E7A" transform="translate(122,164)"/>
<path d="M0 0 C0.66 0.33 1.32 0.66 2 1 C1.32904297 1.70962891 1.32904297 1.70962891 0.64453125 2.43359375 C-5.54750166 9.20654232 -9.89793515 16.01845018 -12 25 C-12.33 25 -12.66 25 -13 25 C-12.48594831 20.03083364 -11.76615118 15.70973649 -10 11 C-10.53625 11.20625 -11.0725 11.4125 -11.625 11.625 C-14.83267308 12.1314747 -17.01317066 11.15400225 -20 10 C-20 9.67 -20 9.34 -20 9 C-18.56260487 8.97287934 -17.12506137 8.95354933 -15.6875 8.9375 C-14.48673828 8.92009766 -14.48673828 8.92009766 -13.26171875 8.90234375 C-11 9 -11 9 -8 10 C-8 9.34 -8 8.68 -8 8 C-10.31 8 -12.62 8 -15 8 C-14.67 7.34 -14.34 6.68 -14 6 C-13.01 6 -12.02 6 -11 6 C-10.67 5.34 -10.34 4.68 -10 4 C-8.68 4.66 -7.36 5.32 -6 6 C-6.33 4.35 -6.66 2.7 -7 1 C-6.21625 1.20625 -5.4325 1.4125 -4.625 1.625 C-3.75875 1.74875 -2.8925 1.8725 -2 2 C-1.34 1.34 -0.68 0.68 0 0 Z " fill="#2B302E" transform="translate(45,44)"/>
<path d="M0 0 C5.91413535 0.9813849 11.89091918 0.99207749 17.875 1.19921875 C18.8340625 1.23660156 19.793125 1.27398437 20.78125 1.3125 C22.09077637 1.35793945 22.09077637 1.35793945 23.42675781 1.40429688 C25.578125 1.59375 25.578125 1.59375 27.578125 2.59375 C29.57772512 2.633742 31.57859742 2.63721799 33.578125 2.59375 C25.27819976 8.12703349 11.6333579 5.75513856 2.27734375 4.32421875 C-0.57433293 3.55249149 -2.20697438 2.51403201 -4.421875 0.59375 C-2.421875 -0.40625 -2.421875 -0.40625 0 0 Z " fill="#5D6061" transform="translate(64.421875,170.40625)"/>
<path d="M0 0 C1.25834609 2.51669217 0.77393521 3.3591767 0.1875 6.0625 C-0.47342555 11.24951062 1.23955884 13.99272145 4.33203125 18.0546875 C8.99505936 23.49306689 13.11441662 24.85990341 20 26 C20 26.33 20 26.66 20 27 C14.27195694 27.33694371 10.90671635 27.2244136 6 24 C2.96340505 24.26027957 2.1899142 24.8100858 0 27 C0.33 24.36 0.66 21.72 1 19 C-0.32 18.01 -1.64 17.02 -3 16 C-2.34 16 -1.68 16 -1 16 C-1.33 15.01 -1.66 14.02 -2 13 C-2.11687338 11.52413385 -2.17501742 10.04293388 -2.1875 8.5625 C-2.20167969 7.80066406 -2.21585937 7.03882812 -2.23046875 6.25390625 C-1.97612666 3.76652685 -1.24017196 2.15191894 0 0 Z " fill="#93ADB1" transform="translate(81,66)"/>
<path d="M0 0 C0.125 2.375 0.125 2.375 0 5 C-2 7 -2 7 -4.4609375 7.16015625 C-5.42257813 7.12792969 -6.38421875 7.09570312 -7.375 7.0625 C-10.85659871 6.95457982 -13.64607667 7.14186727 -17 8 C-18.87324188 8.09124674 -20.74954391 8.13005514 -22.625 8.125 C-24.06746094 8.12886719 -24.06746094 8.12886719 -25.5390625 8.1328125 C-28 8 -28 8 -30 7 C-30.33 7.66 -30.66 8.32 -31 9 C-31 8.01 -31 7.02 -31 6 C-30.14019531 5.97421875 -29.28039062 5.9484375 -28.39453125 5.921875 C-18.76164701 5.45966463 -8.94721937 0 0 0 Z " fill="#2E302F" transform="translate(114,72)"/>
<path d="M0 0 C7.42216919 7.42216919 5.27421529 30.01754316 6 40 C4 37 4 37 4 33 C3.34 33 2.68 33 2 33 C2.495 28.545 2.495 28.545 3 24 C1.02 24.99 1.02 24.99 -1 26 C-0.67257813 25.47921875 -0.34515625 24.9584375 -0.0078125 24.421875 C1.31089836 21.25287991 1.19340276 18.6701381 1.125 15.25 C1.10695312 14.07953125 1.08890625 12.9090625 1.0703125 11.703125 C1.04710937 10.81109375 1.02390625 9.9190625 1 9 C0.01 9.33 -0.98 9.66 -2 10 C-1.34 6.7 -0.68 3.4 0 0 Z " fill="#2F322F" transform="translate(36,110)"/>
<path d="M0 0 C3.58060962 0.07161219 5.52291402 0.71041402 8.125 3.3125 C7.795 4.3025 7.465 5.2925 7.125 6.3125 C6.5475 5.94125 5.97 5.57 5.375 5.1875 C3.125 4.02083333 3.125 4.02083333 0.875 5.1875 C0.2975 5.55875 -0.28 5.93 -0.875 6.3125 C2.095 6.8075 2.095 6.8075 5.125 7.3125 C5.125 7.9725 5.125 8.6325 5.125 9.3125 C3.47869672 9.17207123 1.83295821 9.02500671 0.1875 8.875 C-1.18728516 8.75318359 -1.18728516 8.75318359 -2.58984375 8.62890625 C-4.875 8.3125 -4.875 8.3125 -5.875 7.3125 C-6.0625 4.875 -6.0625 4.875 -5.875 2.3125 C-3.875 0.3125 -3.875 0.3125 0 0 Z " fill="#C1DFE2" transform="translate(31.875,44.6875)"/>
<path d="M0 0 C0.33 0.66 0.66 1.32 1 2 C0.5359375 2.8353125 0.5359375 2.8353125 0.0625 3.6875 C-1.42359001 6.9219312 -1.32515857 9.48828743 -1 13 C2.40431947 15.26954631 4.16524202 15.36549949 8.1875 15.625 C9.27417969 15.69976562 10.36085938 15.77453125 11.48046875 15.8515625 C12.72763672 15.92503906 12.72763672 15.92503906 14 16 C14 16.33 14 16.66 14 17 C10.03179378 17.93983832 6.32334639 18.13421572 2.25 18.125 C1.10015625 18.12757812 -0.0496875 18.13015625 -1.234375 18.1328125 C-4 18 -4 18 -5 17 C-5.96883029 10.67492222 -4.72941065 6.61441018 -1.09375 1.43359375 C-0.7328125 0.96050781 -0.371875 0.48742188 0 0 Z " fill="#879FA1" transform="translate(88,60)"/>
<path d="M0 0 C8.18940182 3.59534714 12.46683302 11.20903281 15.9375 19.0625 C16.23180908 19.72266113 16.52611816 20.38282227 16.8293457 21.06298828 C18.77194296 25.71807599 19.55763008 29.97714153 20 35 C17.14308717 30.71463075 15.8635026 26.0113842 14.21875 21.15234375 C13.22831502 17.95861805 13.22831502 17.95861805 11 16 C8.00539581 12.52239514 6.04446401 9.08892802 4 5 C2.70758949 3.30140333 1.38509525 1.62390477 0 0 Z " fill="#6A6A69" transform="translate(109,38)"/>
<path d="M0 0 C0.33 0 0.66 0 1 0 C3.86096601 6.97360465 3.49477149 13.71298897 2 21 C1.34 21 0.68 21 0 21 C-0.66 23.31 -1.32 25.62 -2 28 C-3.11032152 24.40318381 -2.56514121 22.30833781 -1.546875 18.703125 C-0.30828456 12.58094939 -0.28717774 6.22722252 0 0 Z " fill="#3E403D" transform="translate(136,120)"/>
<path d="M0 0 C1.32 0.66 2.64 1.32 4 2 C4.60882353 9.91470588 4.60882353 9.91470588 2.5625 13.5625 C-1.11811577 15.62723568 -4.86815564 15.88539522 -9 15 C-9.66 14.01 -10.32 13.02 -11 12 C-9.95199219 11.94392578 -9.95199219 11.94392578 -8.8828125 11.88671875 C-7.97273437 11.82097656 -7.06265625 11.75523438 -6.125 11.6875 C-5.22007812 11.62949219 -4.31515625 11.57148437 -3.3828125 11.51171875 C-0.63778399 11.2117961 -0.63778399 11.2117961 1 8 C1.16699232 4.87478167 1.16699232 4.87478167 1 2 C0.34 1.67 -0.32 1.34 -1 1 C-0.67 0.67 -0.34 0.34 0 0 Z " fill="#4C4D4B" transform="translate(173,116)"/>
<path d="M0 0 C0.66 0 1.32 0 2 0 C2.05391993 1.79133978 2.09275571 3.58313899 2.125 5.375 C2.14820312 6.37273437 2.17140625 7.37046875 2.1953125 8.3984375 C2 11 2 11 0 13 C0 10.69 0 8.38 0 6 C-0.53625 6.309375 -1.0725 6.61875 -1.625 6.9375 C-4.42830524 8.19161024 -6.95305208 8.66881001 -10 9 C-10.66 8.67 -11.32 8.34 -12 8 C-12 7.34 -12 6.68 -12 6 C-6.25 3 -6.25 3 -4 3 C-4 3.66 -4 4.32 -4 5 C-2.29159719 3.36587557 -1.06546953 2.13093906 0 0 Z " fill="#353A3A" transform="translate(118,65)"/>
<path d="M0 0 C-1 2 -1 2 -2.96875 2.67578125 C-3.8040625 2.88589844 -4.639375 3.09601562 -5.5 3.3125 C-10.16381163 4.61060539 -13.9780472 6.48195645 -18.08984375 9.01171875 C-20 10 -20 10 -23 10 C-21.48660052 5.76248146 -18.81008791 4.19812764 -15 2 C-9.9679198 -0.23648009 -5.39939904 -0.21597596 0 0 Z " fill="#3F4241" transform="translate(69,34)"/>
<path d="M0 0 C2.97 0.495 2.97 0.495 6 1 C6 2.32 6 3.64 6 5 C6.66 3.35 7.32 1.7 8 0 C9.32830615 3.98491845 8.23204404 5.40048548 6.5625 9.1875 C6.08941406 10.27417969 5.61632812 11.36085937 5.12890625 12.48046875 C4.75636719 13.31191406 4.38382813 14.14335937 4 15 C3.34 15 2.68 15 2 15 C2 15.66 2 16.32 2 17 C1.34 16.67 0.68 16.34 0 16 C0.7734375 14.88625 0.7734375 14.88625 1.5625 13.75 C3.24942772 11.16784546 3.24942772 11.16784546 2.6875 8.6875 C2.460625 8.130625 2.23375 7.57375 2 7 C1.01 7 0.02 7 -1 7 C-0.67 6.01 -0.34 5.02 0 4 C0.66 4 1.32 4 2 4 C2 3.34 2 2.68 2 2 C1.34 2 0.68 2 0 2 C0 1.34 0 0.68 0 0 Z " fill="#6B6D6C" transform="translate(128,141)"/>
<path d="M0 0 C0.28875 0.598125 0.5775 1.19625 0.875 1.8125 C3.42484159 6.77052531 5.45152551 7.81084749 10.625 9.6875 C11.81351563 10.12449219 13.00203125 10.56148437 14.2265625 11.01171875 C15.14179688 11.33785156 16.05703125 11.66398437 17 12 C16.67 13.65 16.34 15.3 16 17 C15.01 17 14.02 17 13 17 C12.34 15.35 11.68 13.7 11 12 C11 13.32 11 14.64 11 16 C10.01 15.67 9.02 15.34 8 15 C8 13.35 8 11.7 8 10 C7.2575 9.938125 6.515 9.87625 5.75 9.8125 C2.10182081 8.73462887 0.94547207 7.2175115 -1 4 C-0.75 1.6875 -0.75 1.6875 0 0 Z " fill="#6F6F6F" transform="translate(141,112)"/>
<path d="M0 0 C0.33 0.66 0.66 1.32 1 2 C-1.65654657 5.73884332 -3.58110387 7.64978174 -8 9 C-6.35 11.64 -4.7 14.28 -3 17 C-3.99 17 -4.98 17 -6 17 C-9 13.66666667 -9 13.66666667 -9 11 C-9.66 11 -10.32 11 -11 11 C-11.33 11.66 -11.66 12.32 -12 13 C-12.99 12.67 -13.98 12.34 -15 12 C-15 11.34 -15 10.68 -15 10 C-14.33613281 9.69707031 -13.67226562 9.39414063 -12.98828125 9.08203125 C-7.77378998 6.60800254 -3.76754403 4.39546803 0 0 Z " fill="#33322F" transform="translate(125,157)"/>
<path d="M0 0 C0.66 0 1.32 0 2 0 C2.66 1.65 3.32 3.3 4 5 C4.99 4.67 5.98 4.34 7 4 C7.33 3.01 7.66 2.02 8 1 C8.33 1.66 8.66 2.32 9 3 C9.66 3 10.32 3 11 3 C10.67 4.65 10.34 6.3 10 8 C9.01 8 8.02 8 7 8 C6.67 10.31 6.34 12.62 6 15 C4 14 4 14 3.18359375 12.109375 C1.91496544 8.09758704 0.67181183 4.16523335 0 0 Z " fill="#626362" transform="translate(38,143)"/>
<path d="M0 0 C2.0234375 -0.36328125 2.0234375 -0.36328125 4.375 -0.3125 C5.14585937 -0.30863281 5.91671875 -0.30476563 6.7109375 -0.30078125 C9.24049629 0.03160105 10.85513108 0.62579827 13 2 C14.5 4.8125 14.5 4.8125 15 8 C13.25 10.875 13.25 10.875 11 13 C10.34 13 9.68 13 9 13 C9 11 9 11 10.5 9.375 C10.995 8.92125 11.49 8.4675 12 8 C10.87606953 5.9291485 10.87606953 5.9291485 9 4 C6.27510527 3.30250411 6.27510527 3.30250411 3.3125 3.25 C2.31863281 3.19328125 1.32476562 3.1365625 0.30078125 3.078125 C-0.83810547 3.03945312 -0.83810547 3.03945312 -2 3 C-1.34 2.01 -0.68 1.02 0 0 Z " fill="#5F5D5A" transform="translate(137,91)"/>
<path d="M0 0 C0.66 0.66 1.32 1.32 2 2 C1.60712314 5.66685068 -0.13484474 8.86920367 -2 12 C-6.1 15 -6.1 15 -9 15 C-7.61638131 10.57242019 -5.15757738 7.37264785 -2.33984375 3.76953125 C-0.94046713 2.03375555 -0.94046713 2.03375555 0 0 Z " fill="#3F3A34" transform="translate(58,169)"/>
<path d="M0 0 C0.66 0 1.32 0 2 0 C3.32727273 5.30909091 3.32727273 5.30909091 1.875 8.375 C0 10 0 10 -2.6875 10.25 C-3.450625 10.1675 -4.21375 10.085 -5 10 C-4.54857119 8.70590408 -4.08858979 7.41478941 -3.625 6.125 C-3.36976563 5.40570313 -3.11453125 4.68640625 -2.8515625 3.9453125 C-2 2 -2 2 0 0 Z " fill="#8D8F93" transform="translate(172,118)"/>
<path d="M0 0 C-2.31 0.66 -4.62 1.32 -7 2 C-6.34 3.98 -5.68 5.96 -5 8 C-9.41151871 6.65203595 -11.38808519 4.77276583 -14 1 C-14 0.67 -14 0.34 -14 0 C-12.41773035 -0.19627391 -10.83410729 -0.38165538 -9.25 -0.5625 C-8.36828125 -0.66691406 -7.4865625 -0.77132812 -6.578125 -0.87890625 C-4.11567549 -0.99456676 -2.33461936 -0.73638695 0 0 Z " fill="#C7C7C7" transform="translate(44,95)"/>
<path d="M0 0 C1.32 0.66 2.64 1.32 4 2 C2.93174812 3.82142946 1.84484298 5.63192912 0.75 7.4375 C-0.15492187 8.95150391 -0.15492187 8.95150391 -1.078125 10.49609375 C-3 13 -3 13 -5.234375 13.84765625 C-5.81703125 13.89792969 -6.3996875 13.94820312 -7 14 C-4.9914235 9.07898758 -2.70739406 4.57456238 0 0 Z " fill="#494744" transform="translate(30,120)"/>
<path d="M0 0 C4.50976659 0.19650399 8.04733442 0.44427841 12 2.75 C14.24493229 5.27554883 14.48140255 6.73715772 15 10 C14.41992188 9.60167969 13.83984375 9.20335938 13.2421875 8.79296875 C8.9360712 5.87248393 4.725837 3.18115554 0 1 C0 0.67 0 0.34 0 0 Z " fill="#D5E1D8" transform="translate(44,71)"/>
<path d="M0 0 C2.475 0.495 2.475 0.495 5 1 C5 1.928125 5 2.85625 5 3.8125 C5.62420721 7.06092614 5.62420721 7.06092614 7.84765625 8.06640625 C9.88326804 8.80956611 11.90300196 9.45544926 14 10 C13.34 10.66 12.68 11.32 12 12 C3.71802198 8.89208791 3.71802198 8.89208791 0.9375 5.4375 C0 3 0 3 0 0 Z " fill="#282826" transform="translate(141,111)"/>
<path d="M0 0 C5.78706199 5.48247978 5.78706199 5.48247978 7 9 C6.67 9.66 6.34 10.32 6 11 C2.96799661 9.9893322 2.00121175 9.36506843 0 7 C-0.33 6.01 -0.66 5.02 -1 4 C-1.66 4 -2.32 4 -3 4 C-3 3.34 -3 2.68 -3 2 C-2.01 2 -1.02 2 0 2 C0 1.34 0 0.68 0 0 Z " fill="#8EA6AA" transform="translate(112,44)"/>
<path d="M0 0 C2.0625 2.4375 2.0625 2.4375 2.0625 4.4375 C2.7225 4.7675 3.3825 5.0975 4.0625 5.4375 C3.0725 5.7675 2.0825 6.0975 1.0625 6.4375 C0.52625 5.509375 -0.01 4.58125 -0.5625 3.625 C-3.62088763 -0.47967814 -6.25402659 -2.11452244 -11.32421875 -2.9609375 C-13.52856339 -3.21701521 -15.72319384 -3.41980027 -17.9375 -3.5625 C-17.9375 -3.8925 -17.9375 -4.2225 -17.9375 -4.5625 C-10.43836733 -6.00970104 -5.98048832 -5.21702173 0 0 Z " fill="#3A403E" transform="translate(114.9375,59.5625)"/>
<path d="M0 0 C0 0.66 0 1.32 0 2 C-1.0725 2.28875 -2.145 2.5775 -3.25 2.875 C-6.09400364 3.72820109 -8.43508983 4.5636503 -11 6 C-11 4.35 -11 2.7 -11 1 C-6.87831311 -0.62950412 -4.29299643 -1.26264601 0 0 Z " fill="#DDBD97" transform="translate(81,86)"/>
<path d="M0 0 C0.66 0 1.32 0 2 0 C2.61875 0.94875 3.2375 1.8975 3.875 2.875 C5.97142734 5.95798138 6.78740197 6.55986985 10 8 C10.33 8.99 10.66 9.98 11 11 C13.31 11 15.62 11 18 11 C17.67 11.66 17.34 12.32 17 13 C12.56356484 13.43494462 10.67136622 13.54001196 7.125 10.6875 C5 8 5 8 4 5 C3.34 5 2.68 5 2 5 C1.34 3.35 0.68 1.7 0 0 Z " fill="#727170" transform="translate(114,168)"/>
<path d="M0 0 C-1.32 2.97 -2.64 5.94 -4 9 C-4.99 8.67 -5.98 8.34 -7 8 C-7.125 2.25 -7.125 2.25 -6 0 C-3 -1 -3 -1 0 0 Z " fill="#747578" transform="translate(170,118)"/>
<path d="M0 0 C0.66 0.99 1.32 1.98 2 3 C-0.18450043 8.21852881 -2.52455961 10.73665805 -7 14 C-7.99 14.33 -8.98 14.66 -10 15 C-10.66 14.34 -11.32 13.68 -12 13 C-11.0925 12.608125 -10.185 12.21625 -9.25 11.8125 C-4.16679555 8.97763598 -1.86415973 5.43713256 0 0 Z " fill="#393C3C" transform="translate(117,76)"/>
<path d="M0 0 C1.98 0 3.96 0 6 0 C6.1875 2.875 6.1875 2.875 6 6 C3 8 3 8 0.8125 7.625 C0.214375 7.41875 -0.38375 7.2125 -1 7 C-1.33 5.68 -1.66 4.36 -2 3 C0.97 3.495 0.97 3.495 4 4 C3.04134491 1.66924071 3.04134491 1.66924071 0 0 Z " fill="#252725" transform="translate(75,89)"/>
<path d="M0 0 C0.33 0 0.66 0 1 0 C1 1.65 1 3.3 1 5 C1.7425 4.46375 2.485 3.9275 3.25 3.375 C4.1575 2.92125 5.065 2.4675 6 2 C8.3125 2.8125 8.3125 2.8125 10 4 C10 4.66 10 5.32 10 6 C6.20241779 7.01268859 3.79758221 7.01268859 0 6 C-0.38218767 4.34385343 -0.71395102 2.67542976 -1 1 C-0.67 0.67 -0.34 0.34 0 0 Z " fill="#4E4D4A" transform="translate(69,87)"/>
<path d="M0 0 C1.45823212 -0.0270043 2.91660675 -0.04639787 4.375 -0.0625 C5.18710938 -0.07410156 5.99921875 -0.08570312 6.8359375 -0.09765625 C9 0 9 0 11 1 C11.6328125 2.84765625 11.6328125 2.84765625 12.125 5.0625 C12.29257813 5.79597656 12.46015625 6.52945312 12.6328125 7.28515625 C12.75398438 7.85105469 12.87515625 8.41695312 13 9 C12.34 9 11.68 9 11 9 C11 8.01 11 7.02 11 6 C10.34 6 9.68 6 9 6 C8.5875 5.54625 8.175 5.0925 7.75 4.625 C5.41860535 2.46013354 3.02171964 1.87294123 0 1 C0 0.67 0 0.34 0 0 Z " fill="#4F5150" transform="translate(89,17)"/>
<path d="M0 0 C0.99 0 1.98 0 3 0 C3.33 1.32 3.66 2.64 4 4 C2.71211992 4.53012738 1.41953322 5.0488329 0.125 5.5625 C-0.95394531 5.99755859 -0.95394531 5.99755859 -2.0546875 6.44140625 C-4 7 -4 7 -6 6 C-5.67 5.01 -5.34 4.02 -5 3 C-3.35 2.67 -1.7 2.34 0 2 C0 1.34 0 0.68 0 0 Z " fill="#768A8D" transform="translate(53,83)"/>
<path d="M0 0 C2.64 0 5.28 0 8 0 C7.814375 0.763125 7.62875 1.52625 7.4375 2.3125 C6.77180827 5.08967375 6.77180827 5.08967375 8 8 C4.63820226 6.55922954 2.40843732 4.75249979 0 2 C0 1.34 0 0.68 0 0 Z " fill="#C2C2C1" transform="translate(85,80)"/>
<path d="M0 0 C0.33 0 0.66 0 1 0 C1.62583106 9.76991826 1.62583106 9.76991826 -0.8125 14.5625 C-3 17 -3 17 -6 19 C-4.87142356 16.13515212 -3.69212483 13.34872559 -2.375 10.5625 C-1.01133627 7.02937124 -0.82243907 4.72877944 -1 1 C-0.67 0.67 -0.34 0.34 0 0 Z " fill="#323533" transform="translate(62,83)"/>
<path d="M0 0 C4.46618872 1.81955837 7.91736638 4.68436697 9.984375 9.10546875 C10.71387469 11.04965423 11.36347472 13.0234215 12 15 C11.01 15.495 11.01 15.495 10 16 C6.23616236 10.60516605 6.23616236 10.60516605 5 7.4375 C3.79280258 4.49495629 2.05991839 2.40323813 0 0 Z " fill="#555756" transform="translate(109,38)"/>
<path d="M0 0 C1 2 1 2 0.5 4.875 C0.01518462 7.90509615 0.26380672 9.14725106 1 12 C0.5625 14.75 0.5625 14.75 0 17 C-1.546875 15.9140625 -1.546875 15.9140625 -3 14 C-2.890625 10.8984375 -2.890625 10.8984375 -2.25 7.375 C-2.04890625 6.20710938 -1.8478125 5.03921875 -1.640625 3.8359375 C-1 1 -1 1 0 0 Z " fill="#5F6160" transform="translate(27,78)"/>
<path d="M0 0 C1.26107919 2.52215838 0.89065552 3.79683649 0.5 6.5625 C0.29246252 8.03648779 0.11616338 9.51601285 0 11 C0.33 11.33 0.66 11.66 1 12 C1.04063832 13.66617115 1.042721 15.33388095 1 17 C-0.32 16.67 -1.64 16.34 -3 16 C-2.34 16 -1.68 16 -1 16 C-1.33 15.01 -1.66 14.02 -2 13 C-2.11687338 11.52413385 -2.17501742 10.04293388 -2.1875 8.5625 C-2.20167969 7.80066406 -2.21585937 7.03882812 -2.23046875 6.25390625 C-1.97612666 3.76652685 -1.24017196 2.15191894 0 0 Z " fill="#99B5B9" transform="translate(81,66)"/>
<path d="M0 0 C2.97 0.495 2.97 0.495 6 1 C5.34 3.31 4.68 5.62 4 8 C2.35 7.67 0.7 7.34 -1 7 C-0.67 6.01 -0.34 5.02 0 4 C0.66 4 1.32 4 2 4 C2 3.34 2 2.68 2 2 C1.34 2 0.68 2 0 2 C0 1.34 0 0.68 0 0 Z " fill="#879FA2" transform="translate(128,141)"/>
<path d="M0 0 C0.33 0 0.66 0 1 0 C1 1.65 1 3.3 1 5 C1.66 5.33 2.32 5.66 3 6 C3 7.98 3 9.96 3 12 C2.01 11.67 1.02 11.34 0 11 C-1.16461426 7.50615721 -1.13568319 4.66344611 -1 1 C-0.67 0.67 -0.34 0.34 0 0 Z " fill="#8CA5A8" transform="translate(90,20)"/>
<path d="M0 0 C2.31 0 4.62 0 7 0 C7 2.64 7 5.28 7 8 C5.8274869 7.04882866 4.66212985 6.08882991 3.5 5.125 C2.8503125 4.59132813 2.200625 4.05765625 1.53125 3.5078125 C1.0259375 3.01023437 0.520625 2.51265625 0 2 C0 1.34 0 0.68 0 0 Z " fill="#88A0A3" transform="translate(127,107)"/>
<path d="M0 0 C0.66 0 1.32 0 2 0 C3.0625 1.8125 3.0625 1.8125 4 4 C3.67 4.99 3.34 5.98 3 7 C-1.455 7.495 -1.455 7.495 -6 8 C-6 7.34 -6 6.68 -6 6 C-4.02 5.67 -2.04 5.34 0 5 C-0.2784375 4.0409375 -0.2784375 4.0409375 -0.5625 3.0625 C-0.706875 2.381875 -0.85125 1.70125 -1 1 C-0.67 0.67 -0.34 0.34 0 0 Z " fill="#767676" transform="translate(150,104)"/>
<path d="M0 0 C0.33 0.99 0.66 1.98 1 3 C-3.43076923 6.07692308 -3.43076923 6.07692308 -6.3125 5.6875 C-6.869375 5.460625 -7.42625 5.23375 -8 5 C-8 4.34 -8 3.68 -8 3 C-2.25 0 -2.25 0 0 0 Z " fill="#6F8184" transform="translate(114,68)"/>
<path d="M0 0 C0 0.33 0 0.66 0 1 C-0.61488281 1.13277344 -1.22976562 1.26554687 -1.86328125 1.40234375 C-3.07564453 1.66724609 -3.07564453 1.66724609 -4.3125 1.9375 C-5.11300781 2.11152344 -5.91351563 2.28554688 -6.73828125 2.46484375 C-9.145401 2.99886159 -9.145401 2.99886159 -12 4 C-14.33299825 4.03954234 -16.66708189 4.04401732 -19 4 C-14.31184445 -0.68815555 -6.24859684 -0.2272217 0 0 Z " fill="#5B5C5B" transform="translate(81,31)"/>
<path d="M0 0 C1.32 0.66 2.64 1.32 4 2 C3.67 3.65 3.34 5.3 3 7 C1.35 7 -0.3 7 -2 7 C-2 5.68 -2 4.36 -2 3 C-1.34 3 -0.68 3 0 3 C0 2.01 0 1.02 0 0 Z " fill="#6F8587" transform="translate(45,144)"/>
<path d="M0 0 C2 2 2 2 2.1953125 4.6015625 C2.17210937 5.59929687 2.14890625 6.59703125 2.125 7.625 C2.10695313 8.62789062 2.08890625 9.63078125 2.0703125 10.6640625 C2.03550781 11.82035156 2.03550781 11.82035156 2 13 C1.67 11.68 1.34 10.36 1 9 C0.01 9.33 -0.98 9.66 -2 10 C-1.34 6.7 -0.68 3.4 0 0 Z " fill="#272826" transform="translate(36,110)"/>
<path d="M0 0 C0.33 0.99 0.66 1.98 1 3 C2.75759218 3.71260075 2.75759218 3.71260075 5 4 C6.60875 4.2784375 6.60875 4.2784375 8.25 4.5625 C9.61125 4.7790625 9.61125 4.7790625 11 5 C11 5.66 11 6.32 11 7 C9.35369672 6.85957123 7.70795821 6.71250671 6.0625 6.5625 C4.68771484 6.44068359 4.68771484 6.44068359 3.28515625 6.31640625 C1 6 1 6 0 5 C-0.04063832 3.33382885 -0.042721 1.66611905 0 0 Z " fill="#93ADB1" transform="translate(26,47)"/>
<path d="M0 0 C0 3 0 3 -1 6 C-5.33333333 9 -5.33333333 9 -8 9 C-7.67 7.68 -7.34 6.36 -7 5 C-6.401875 4.9175 -5.80375 4.835 -5.1875 4.75 C-2.4033704 3.79544128 -1.56688858 2.42867729 0 0 Z " fill="#656564" transform="translate(57,175)"/>
<path d="M0 0 C2.66735273 2.48952921 4.55746343 4.63408134 6 8 C4.68 8 3.36 8 2 8 C0.74335022 5.09399739 0 3.20395416 0 0 Z " fill="#3D3F3E" transform="translate(43,153)"/>
<path d="M0 0 C2.56160784 1.28080392 2.76461393 2.4565581 4 5 C4.97581759 6.35113205 5.97029741 7.68946944 7 9 C6.01 9 5.02 9 4 9 C1.25 6.1875 1.25 6.1875 -1 3 C-0.67 2.01 -0.34 1.02 0 0 Z " fill="#353837" transform="translate(84,79)"/>
<path d="M0 0 C0 0.66 0 1.32 0 2 C-1.64453125 3.21875 -1.64453125 3.21875 -3.8125 4.5 C-4.52019531 4.9228125 -5.22789063 5.345625 -5.95703125 5.78125 C-6.63121094 6.1834375 -7.30539063 6.585625 -8 7 C-8.99 7.66 -9.98 8.32 -11 9 C-9.23608757 4.5100411 -5.10838455 0 0 0 Z " fill="#889EA1" transform="translate(41,71)"/>
<path d="M0 0 C0.66 0.33 1.32 0.66 2 1 C1.67 1.66 1.34 2.32 1 3 C1.66 3 2.32 3 3 3 C3 3.99 3 4.98 3 6 C-0.75 7.125 -0.75 7.125 -3 6 C-1.125 1.125 -1.125 1.125 0 0 Z " fill="#887E70" transform="translate(34,116)"/>
<path d="M0 0 C6.75 0.75 6.75 0.75 9 3 C8 4 8 4 5.625 4.1875 C3 4 3 4 0 2 C0 1.34 0 0.68 0 0 Z " fill="#757573" transform="translate(154,115)"/>
<path d="M0 0 C5.28 0.33 10.56 0.66 16 1 C16 1.33 16 1.66 16 2 C11.38 2 6.76 2 2 2 C1.67 2.66 1.34 3.32 1 4 C0.67 2.68 0.34 1.36 0 0 Z " fill="#222321" transform="translate(27,92)"/>
<path d="M0 0 C-4.09725269 1.04167441 -7.61495224 0.94409525 -11.8125 0.5625 C-12.97394531 0.46066406 -14.13539062 0.35882813 -15.33203125 0.25390625 C-16.21246094 0.17011719 -17.09289062 0.08632812 -18 0 C-18 -0.33 -18 -0.66 -18 -1 C-15.75135275 -1.22245975 -13.50097377 -1.42746557 -11.25 -1.625 C-9.37054688 -1.79902344 -9.37054688 -1.79902344 -7.453125 -1.9765625 C-4.16413097 -1.99888599 -2.68979224 -1.77961002 0 0 Z " fill="#4A5353" transform="translate(48,93)"/>
<path d="M0 0 C0.99 0.66 1.98 1.32 3 2 C2.67 3.65 2.34 5.3 2 7 C-0.31 6.67 -2.62 6.34 -5 6 C-5 5.67 -5 5.34 -5 5 C-3.02 5 -1.04 5 1 5 C0.04134491 2.66924071 0.04134491 2.66924071 -3 1 C-2.01 0.67 -1.02 0.34 0 0 Z " fill="#4E4A41" transform="translate(80,83)"/>
<path d="M0 0 C1.65 0.99 3.3 1.98 5 3 C4.67 3.99 4.34 4.98 4 6 C3.38125 5.649375 2.7625 5.29875 2.125 4.9375 C1.073125 4.4734375 1.073125 4.4734375 0 4 C-0.99 4.495 -0.99 4.495 -2 5 C-2 4.01 -2 3.02 -2 2 C-1.34 2 -0.68 2 0 2 C0 1.34 0 0.68 0 0 Z " fill="#A5BFC2" transform="translate(35,45)"/>
<path d="M0 0 C0.66 0 1.32 0 2 0 C1.690625 0.721875 1.38125 1.44375 1.0625 2.1875 C0.07439461 4.80307309 -0.5287754 7.25118982 -1 10 C-1.66 10 -2.32 10 -3 10 C-3.75 8.375 -3.75 8.375 -4 6 C-2.1875 2.75 -2.1875 2.75 0 0 Z " fill="#363B3A" transform="translate(130,150)"/>
<path d="M0 0 C2 2 2 2 2 5 C2.66 5.33 3.32 5.66 4 6 C0.17902761 5.46930939 -2.06171403 4.50298434 -5 2 C-3.35 2 -1.7 2 0 2 C0 1.34 0 0.68 0 0 Z " fill="#383835" transform="translate(152,109)"/>
<path d="M0 0 C0 2.31 0 4.62 0 7 C-0.33 5.68 -0.66 4.36 -1 3 C-2.32 3.99 -3.64 4.98 -5 6 C-5.66 5.67 -6.32 5.34 -7 5 C-2.25 0 -2.25 0 0 0 Z " fill="#7A7B7A" transform="translate(39,134)"/>
<path d="M0 0 C0.99 0.33 1.98 0.66 3 1 C3 2.65 3 4.3 3 6 C2.01 6 1.02 6 0 6 C-0.38218767 4.34385343 -0.71395102 2.67542976 -1 1 C-0.67 0.67 -0.34 0.34 0 0 Z " fill="#626262" transform="translate(154,102)"/>
<path d="M0 0 C0.33 0 0.66 0 1 0 C1.226875 0.928125 1.45375 1.85625 1.6875 2.8125 C3.2088437 6.50719183 4.46352496 7.32482761 8 9 C7.01 9.33 6.02 9.66 5 10 C2.3125 8.4375 2.3125 8.4375 0 6 C-0.3125 2.75 -0.3125 2.75 0 0 Z " fill="#8CA4A9" transform="translate(67,87)"/>
<path d="M0 0 C2.31 0.33 4.62 0.66 7 1 C3.5647952 3.29013653 2.014669 3.17842973 -2 3 C-1.34 2.01 -0.68 1.02 0 0 Z " fill="#1D1D1A" transform="translate(73,82)"/>
<path d="M0 0 C0.99 0 1.98 0 3 0 C3 2.64 3 5.28 3 8 C2.67 8 2.34 8 2 8 C1.67 6.68 1.34 5.36 1 4 C0.01 4.33 -0.98 4.66 -2 5 C-2 2 -2 2 0 0 Z " fill="#515C5D" transform="translate(61,82)"/>
<path d="M0 0 C0.33 0 0.66 0 1 0 C1 2.64 1 5.28 1 8 C-0.32 8.33 -1.64 8.66 -3 9 C-2.67 7.68 -2.34 6.36 -2 5 C-1.67 5 -1.34 5 -1 5 C-0.67 3.35 -0.34 1.7 0 0 Z " fill="#A9C6CB" transform="translate(98,23)"/>
<path d="M0 0 C0.33 0.66 0.66 1.32 1 2 C-0.32 3.65 -1.64 5.3 -3 7 C-4.32 6.67 -5.64 6.34 -7 6 C-4.69 4.02 -2.38 2.04 0 0 Z " fill="#3C413C" transform="translate(125,157)"/>
<path d="M0 0 C0.33 0 0.66 0 1 0 C1.38897161 1.62171239 1.76078298 3.24754925 2.125 4.875 C2.33382812 5.77992187 2.54265625 6.68484375 2.7578125 7.6171875 C2.83773437 8.40351562 2.91765625 9.18984375 3 10 C2.34 10.66 1.68 11.32 1 12 C-1.22923777 7.67265609 -0.92470553 4.71599818 0 0 Z " fill="#384040" transform="translate(81,68)"/>
<path d="M0 0 C0.99 0 1.98 0 3 0 C3 0.66 3 1.32 3 2 C2.34 2 1.68 2 1 2 C0.34 4.31 -0.32 6.62 -1 9 C-2.0326802 6.21176345 -2.04509293 5.1322726 -1.0625 2.25 C-0.711875 1.5075 -0.36125 0.765 0 0 Z " fill="#313634" transform="translate(135,139)"/>
<path d="M0 0 C0.99 0.33 1.98 0.66 3 1 C1.515 3.475 1.515 3.475 0 6 C-0.66 5.67 -1.32 5.34 -2 5 C-1.125 1.125 -1.125 1.125 0 0 Z " fill="#949596" transform="translate(167,117)"/>
<path d="M0 0 C1.98 0.66 3.96 1.32 6 2 C2.91190305 3.76462683 1.76687864 4 -2 4 C-2 3.34 -2 2.68 -2 2 C-1.34 2 -0.68 2 0 2 C0 1.34 0 0.68 0 0 Z " fill="#836C55" transform="translate(137,99)"/>
<path d="M0 0 C0.66 0.99 1.32 1.98 2 3 C1.01 4.98 0.02 6.96 -1 9 C-1.66 8.34 -2.32 7.68 -3 7 C-2.01 4.69 -1.02 2.38 0 0 Z " fill="#404444" transform="translate(117,76)"/>
</svg>
