<svg version="1.2" xmlns="http://www.w3.org/2000/svg" viewBox="0 0 200 186" width="200" height="186"><style>.a{fill:#e22012}.b{fill:#e32113}.c{fill:#0b0505}.d{fill:#58d9fa}.e{fill:#fcfcfc}.f{fill:#fbfbfb}.g{fill:#fdfbfa}.h{fill:#faf9f9}.i{fill:#faddd0}.j{fill:#f2e640}.k{fill:#160c0b}.l{fill:#040505}.m{fill:#222118}.n{fill:#020203}.o{fill:#f5e841}.p{fill:#df2012}.q{fill:#030303}.r{fill:#c2ae95}.s{fill:#e02012}.t{fill:#f3e841}.u{fill:#ceedf7}.v{fill:#f5f5f5}.w{fill:#db1f12}.x{fill:#130201}.y{fill:#cbeaf4}.z{fill:#d71f11}.A{fill:#2d2c1f}.B{fill:#1a0702}.C{fill:#292815}.D{fill:#e9e9e9}.E{fill:#130301}.F{fill:#3a3823}.G{fill:#45acc6}.H{fill:#242311}.I{fill:#d9d9d9}.J{fill:#1c1106}.K{fill:#30302a}.L{fill:#24231d}.M{fill:#230e05}.N{fill:#403f36}.O{fill:#2b290d}.P{fill:#11110c}.Q{fill:#4b4b4b}.R{fill:#1b1a0e}.S{fill:#c1b834}.T{fill:#131306}.U{fill:#26251f}.V{fill:#4b565a}.W{fill:#aba32e}.X{fill:#313023}.Y{fill:#1b1a07}.Z{fill:#2a291d}.a0{fill:#120401}.a1{fill:#cacaca}.a2{fill:#201e0e}.a3{fill:#0a0a0a}.a4{fill:#1d1d1c}.a5{fill:#14333b}.a6{fill:#201f0f}.a7{fill:#b61a0f}.a8{fill:#463e14}.a9{fill:#212117}.aa{fill:#29270f}.ab{fill:#11110b}.ac{fill:#42220b}.ad{fill:#1a1910}.ae{fill:#38200a}.af{fill:#4e4e44}.ag{fill:#1a1a13}.ah{fill:#353418}.ai{fill:#3f3e28}.aj{fill:#0f0f0f}.ak{fill:#d0c638}.al{fill:#42402a}.am{fill:#38330e}.an{fill:#11110d}.ao{fill:#64613f}.ap{fill:#12120b}.aq{fill:#1f1e0e}.ar{fill:#3a3a37}.as{fill:#337f93}.at{fill:#3e0e06}.au{fill:#100f0b}.av{fill:#44422e}.aw{fill:#350704}.ax{fill:#0d0c03}.ay{fill:#2b2913}.az{fill:#0f0f0b}.aA{fill:#423f16}.aB{fill:#ba1a0f}.aC{fill:#2f0d05}.aD{fill:#121209}.aE{fill:#3a3929}.aF{fill:#4a471d}.aG{fill:#1a190e}.aH{fill:#17160c}.aI{fill:#c6afa4}.aJ{fill:#070705}.aK{fill:#353431}.aL{fill:#16150c}.aM{fill:#202018}.aN{fill:#393614}.aO{fill:#4d4c33}.aP{fill:#3a381a}.aQ{fill:#0e0e0d}.aR{fill:#390804}.aS{fill:#a9c2cb}.aT{fill:#c6c6c6}.aU{fill:#d2c838}.aV{fill:#212018}.aW{fill:#403d18}.aX{fill:#3b3a2f}.aY{fill:#413f19}.aZ{fill:#38372e}.b0{fill:#150a03}.b1{fill:#0f0e05}.b2{fill:#121105}.b3{fill:#c4c4c4}</style><path class="a" d="m111.2 9.4q0 0.2 0 0.5 0.3-0.1 0.6-0.1c1.4 0 2.6 0.5 3.9 1q0 0.2 0 0.4c0.2 0.1 0.2 0.1 0.4 0.1 0.5 0.1 0.5 0.1 0.9 0.5 0.6 0.4 0.9 0.4 1.6 0.3q0.3 0 0.7 0c0.3 0 0.3 0 0.7-0.1q0.7 0 1.5 0c0.4-0.1 0.4-0.1 0.8-0.1 2-0.1 4-0.1 5.9-0.1q1.2 0 2.3 0c3 0 6 0.2 9 0.5q0 0.3 0 0.5c0.3 0 0.3 0 0.7 0 1.2 0 2.3 0.2 3.5 0.4 0.3 0.1 0.3 0.1 0.6 0.1 1.6 0.3 1.6 0.3 2.3 0.8q0.5 0.2 1 0.3c0.3 0.1 0.3 0.1 0.5 0.2q0.3 0 0.6 0.1 0.3 0.1 0.6 0.2 0.7 0.2 1.4 0.4 0 0.2 0 0.4c0.2 0.1 0.2 0.1 0.4 0.1 1.1 0.3 2 0.6 2.9 1.3q1.2 0.5 2.3 1.1 0 0.2 0 0.4 0.3 0.1 0.6 0.2c0.7 0.2 1.1 0.5 1.6 0.9q0 0.3 0 0.5c0.9 0.2 1.6 0.2 2.5 0q0-0.2 0-0.5c0.3-0.1 0.3-0.1 0.7-0.2q0.2 0 0.4-0.1 0.4-0.2 0.9-0.3 1-0.4 2-0.7 0.2-0.1 0.5-0.2 0.2 0 0.4-0.1c1.7-0.5 3.4-0.4 5.1-0.4q0.5 0 0.9 0c1.5 0 2.9 0.1 4.3 0.5q0 0.2 0 0.4 0.3 0.1 0.6 0.1c2.8 0.6 5.1 2.7 6.8 4.9q0.3 0.4 0.5 0.7c0.4 0.6 0.4 0.6 0.4 1.1q0.4-0.1 0.7-0.1 0.4 0 0.9 0 0.4 0 0.8 0c0.8 0.1 0.8 0.1 1.2 0.3q0 0.2 0 0.4 0.2 0 0.4 0.1c0.8 0.3 1.1 0.8 1.6 1.5 0.3 0.8 0.3 1.6 0.3 2.4q0 0.3 0 0.5c0 0.9-0.1 1.7-0.5 2.5q-0.2 0-0.4 0-0.1 0.2-0.2 0.4c-0.3 0.6-0.6 0.7-1.2 0.9q0 0.2 0 0.4c0 2.8-0.2 5.3-1.1 7.9q-0.2 0-0.5 0 0 0.4-0.1 0.7c-0.3 0.9-0.7 1.6-1.3 2.3q-0.2 0.3-0.5 0.7c-0.5 0.6-1 1-1.6 1.5q-0.3 0.2-0.5 0.4c-0.5 0.5-1 0.9-1.5 1.3q-0.3 0.2-0.6 0.4c-0.6 0.3-1.1 0.6-1.7 0.8 0.3 1.6 0.7 3.1 1.4 4.6q0.3 0.8 0.5 1.6c0.2 0.6 0.4 1.2 0.7 1.8 0.3 0.8 0.6 1.6 0.8 2.5 0.2 0.6 0.2 0.6 0.5 1.3 0.6 1.3 1 2.5 1 3.9q0.3 0 0.5 0 1 3.4 2 6.8 0 0.3 0.1 0.6c0.2 0.8 0.4 1.6 0.3 2.5q0.3 0 0.5 0 0.1 0.2 0.2 0.4c0.9-1 1.7-2.1 2.3-3.3q0.2 0 0.4 0 0.1-0.2 0.1-0.4c0.4-1.6 1.4-3.1 2.4-4.3q0.2 0 0.4 0 0.1-0.2 0.2-0.4c0.4-0.8 0.8-1.3 1.6-1.7 2.6-0.2 2.6-0.2 3.6 0.3q0 0.2 0 0.4 0.2 0 0.4 0.1c0.6 0.2 0.7 0.3 1 0.9 0.5 1.2 0.5 2.3 0.5 3.5q0 0.4 0 0.7c-0.1 3.6-1 6.5-2.8 9.6q-0.2 0-0.4 0-0.1 0.3-0.2 0.6c-0.3 0.8-0.7 1.3-1.3 1.9q-0.2 0.3-0.5 0.6-0.3 0.2-0.5 0.5-0.3 0.3-0.6 0.6c-2.2 2.1-2.2 2.1-3.4 2.8q-0.4 0.2-0.7 0.4c-0.1 0.5-0.1 0.5-0.1 1q0 0.3 0 0.6c0 0.4 0 0.4 0.3 0.7q0.1 0.5 0.1 0.9c0.1 0.4 0.1 0.4 0.1 0.7 0 0.3 0 0.3 0 0.7q0.1 0.3 0.1 0.7c0.5 6.3 0.5 12.5 0.2 18.8q0 0.3-0.1 0.6c-0.2 5-0.2 5-0.6 5.4q-0.1 0.7-0.2 1.4c0 0.4 0 0.4-0.1 0.8q0 0.3-0.1 0.5c-0.3 2.9-0.8 5.8-1.5 8.7q-0.3 1.1-0.5 2.2-0.2 0.6-0.3 1.2-0.2 0-0.5 0 0 0.3 0 0.6c-0.2 1.3-0.7 2.6-1.1 3.9q-0.2 0-0.4 0-0.1 0.3-0.1 0.5c-0.2 1-0.5 1.8-0.8 2.6q-0.1 0.3-0.2 0.5c-0.5 1.1-1.1 2.2-1.7 3.2q-0.6 1-1 1.9-0.4 0.8-0.8 1.5-0.2 0.3-0.4 0.7-0.2 0.3-0.4 0.5-0.2 0-0.5 0 0 0.3-0.1 0.7c-0.3 0.8-0.5 0.8-1.2 1.1q-0.1 0.5-0.2 0.9c-0.5 0.8-0.9 1.4-1.6 2-0.6 0.6-1.2 1.2-1.7 1.9-0.5 0.8-1 1.4-1.7 2q-0.2 0.2-0.5 0.5c-1.5 1.5-1.5 1.5-2.1 1.5q-0.1 0.2-0.2 0.4c-0.3 0.5-0.6 0.8-1.2 1.1q-0.2 0-0.4 0c0.2 0.8 0.5 0.9 1.1 1.4 1.6 1 3.2 2.5 4 4.3q0 0.4 0 0.8 0.2 0 0.5 0c0.3 1.2 0.3 2.5 0 3.6q-0.3 0-0.5 0 0 0.2 0 0.4c-0.3 0.7-0.5 0.9-1.1 1.2-2 0.7-3.6 0.4-5.6-0.1q-0.3-0.1-0.6-0.1-1.2-0.3-2.3-0.7 0-0.2 0-0.4-0.3-0.1-0.5-0.1c-1.2-0.2-2.2-0.8-3.3-1.3q-0.3-0.2-0.7-0.3-0.8-0.4-1.6-0.8 0-0.2 0-0.5-0.5 0-1.1 0 0 0.3 0 0.5-0.3 0.1-0.5 0.2-2 0.7-3.8 1.5c-1 0.4-1.8 0.7-2.9 0.8q0 0.2 0 0.4c-3.6 1.1-7.2 2.1-10.9 2.6-0.5 0.1-0.5 0.1-0.7 0.3-7.6 1.5-16.2 1.2-23.8 0q0-0.2 0-0.4c-0.2 0-0.2 0-0.5 0-3.4-0.2-6.6-1.4-9.8-2.5q0-0.2 0-0.4-0.3-0.1-0.6-0.1c-0.8-0.2-0.8-0.2-1.4-0.4-1.2 0-1.9 1-2.7 1.8-0.9 0.8-1.6 1.3-2.7 1.6q0 0.2 0 0.4-0.9 0.5-1.8 0.9c-0.3 0.2-0.3 0.2-0.5 0.3-2 0.8-4.2 1.1-6.2 0.4-1-0.5-1.6-1-2-2q-0.2-0.2-0.3-0.5c-0.2-1.8 0.2-3.1 1.1-4.7q0.2-0.3 0.4-0.6c0.5-1 1.1-1.7 1.9-2.5q0.3-0.6 0.7-1.1 0.2-0.2 0.4-0.3c0.2-0.5 0.2-0.5 0.2-1.1q-0.1-0.1-0.3-0.3c-2.5-2.1-2.5-2.1-2.8-3.1q-0.2 0-0.5 0-0.5-0.5-1-1.1-0.2-0.3-0.5-0.7c-0.5-0.6-0.5-0.6-0.7-1.3q-0.1-0.2-0.2-0.4-0.4-0.2-0.7-0.3c-0.4-0.6-0.9-1.2-0.9-2q-0.2 0-0.4 0-0.3-0.5-0.5-1-0.1-0.2-0.2-0.5c-0.2-0.5-0.2-0.5-0.2-1q-0.3 0-0.5 0c-1.3-3.3-2.3-6.2-2.2-9.8q-0.6 0-1.1 0 0 0.2 0 0.4c-2.7 0.5-5.7 0.7-8.1-0.7-0.7-0.6-1.2-1.3-1.6-2.2q-0.1-0.2-0.2-0.4c-0.2-1.8-0.3-3.4 0.9-4.9 1.5-1 3.3-0.8 5-0.8q0.4 0 0.9 0c1.9 0 3.8 0.1 5.7 0.5q0.1-0.2 0.1-0.4 0.1-2 0.4-3.9 0-0.4 0.1-0.9c0.1-0.6 0.1-0.6 0.3-0.9 0.3-1.9 0.3-3.9 0.3-5.9q0-0.3 0-0.7c0-1.6-0.1-3.1-0.7-4.6q-0.3-0.9-0.5-1.8 0-0.2-0.1-0.5c-0.2-0.7-0.3-1.4-0.3-2.2q-0.2 0-0.5 0-0.1-0.3-0.2-0.7c-0.5-1.7-1-3.3-1.8-4.9q-0.2-0.4-0.4-0.9-0.5-1.2-1.1-2.4c-0.8-1.4-1.4-2.8-1.8-4.3q-0.3 0-0.5 0-0.1-0.3-0.2-0.6c-0.7-1.3-1.3-2.7-2.1-3.9-0.1-0.4-0.1-0.4-0.1-1.1q-0.3 0-0.5 0-0.3-0.6-0.6-1.2-0.1-0.3-0.3-0.7c-0.2-0.6-0.2-0.6-0.2-1.3q-0.3-0.1-0.7-0.2c-0.5-0.8-0.8-1.5-0.7-2.5q-0.2 0-0.4 0-0.3-0.7-0.6-1.4-0.1-0.4-0.3-0.8c-0.2-0.7-0.2-0.7-0.2-1.1q-0.3 0-0.5 0-0.1-0.3-0.2-0.6c-0.5-1.4-0.9-2.7-1.5-4-0.4-1-0.7-1.8-0.7-2.8q-0.3 0-0.5 0-0.3-1-0.6-2c0-0.3 0-0.3-0.1-0.5q-0.1-0.3-0.2-0.6 0-0.2-0.1-0.5c-0.1-0.5-0.1-0.5-0.1-1.4q-0.2 0-0.5 0-0.2-0.9-0.4-1.9-0.1-0.2-0.1-0.5c-0.3-1.1-0.4-2.1-0.4-3.2q-0.2 0-0.4 0c-1.2-6.6-1.7-14.9 0.5-21.3q0.3-0.8 0.5-1.7c0.5-1.8 1.3-3.4 2.1-5q0.4-0.7 0.7-1.4-0.4 0.1-0.8 0.2c-8.1 1.3-8.1 1.3-10.4-0.2-0.4-1.3-0.5-2.5 0.1-3.8 1-1.7 1-1.7 1.9-2q0.1-0.3 0.2-0.5c0.3-0.7 0.5-0.9 1.2-1.3q0.2 0 0.4 0c0.1-0.3 0.1-0.3 0.2-0.7 0.4-0.2 0.4-0.2 0.8-0.5 0.2-0.1 0.2-0.1 0.4-0.2 0.4-0.2 0.4-0.2 1.1-0.2q0-0.2 0-0.4c0.3-0.1 0.3-0.1 0.7-0.2q0.5-0.2 1-0.3 0.2-0.1 0.5-0.2c0.6-0.2 1.3-0.4 1.9-0.7 0.9-0.3 1.7-0.4 2.6-0.5q0.3-0.1 0.6-0.1c2.9-0.4 5.9-0.5 8.8-0.5q0-0.2 0-0.4c0.2-0.1 0.2-0.1 0.4-0.3q0.3-0.1 0.6-0.3 0.3-0.1 0.6-0.3c0.5-0.2 0.5-0.2 0.7-0.7 0.3-0.2 0.3-0.2 0.8-0.5 0.3-0.1 0.3-0.1 0.5-0.2 0.4-0.2 0.4-0.2 1.1-0.2q0-0.2 0-0.4 0.6-0.3 1.1-0.6c0.3-0.2 0.3-0.2 0.6-0.3 0.6-0.3 0.6-0.3 1.2-0.3q0-0.2 0-0.4 0.7-0.2 1.4-0.5 0.3-0.1 0.7-0.2c0.6-0.2 0.6-0.2 1.1-0.2q0-0.2 0-0.5 0.8-0.2 1.7-0.5 0.3-0.1 0.5-0.2 0.2-0.1 0.5-0.1 0.2-0.1 0.4-0.2c0.5-0.1 0.5-0.1 1.4-0.1q0-0.2 0-0.4 0.2-0.1 0.4-0.1 0.8-0.2 1.7-0.5 0.3 0 0.7-0.1 0.2-0.1 0.6-0.2 0.2 0 0.5-0.1c0.6-0.1 0.6-0.1 1.1-0.4 0.6-0.2 1.1-0.3 1.7-0.5 0.4 0 0.4 0 0.7-0.1q0.7-0.1 1.4-0.3c1.2-0.2 2.3-0.5 3.5-1.1q-0.3-0.2-0.7-0.4 0-0.3 0-0.5-0.2-0.1-0.5-0.2c-0.6-0.2-0.6-0.2-1.1-0.9 0-0.8 0-1.5 0.3-2.3 0.5-0.2 1-0.4 1.5-0.6 0.3-0.2 0.3-0.2 0.7-0.3 2.6-0.7 5.6-0.4 8.3-0.2z"/><path class="b" d="m96.3 76q0.3 0 0.6 0 0.4 0 0.7 0 0.3 0 0.7 0 0.9 0.1 1.7 0.1 0.5 0.9 1 1.8 0.2 0.3 0.3 0.6 0.1 0.2 0.3 0.5c0.1 0.2 0.1 0.2 0.2 0.5 0.2 0.4 0.2 0.4 0.2 0.8q0.2 0 0.5 0c0.2 0.4 0.2 0.4 0.6 0.9 1.5 2.4 3.4 4.5 5.4 6.5 0.3 0.3 0.3 0.3 0.6 0.6 0.6 0.6 1.2 1 1.9 1.4q0.2 0.3 0.4 0.5c0.5 0.5 1.1 0.9 1.7 1.3 0.4 0.2 0.4 0.2 0.7 0.4 0.5 0.3 0.5 0.3 1 0.5q0 0.3 0 0.5 0.3 0.1 0.6 0.2c0.9 0.3 1.7 0.7 2.6 1.2 1.5 0.8 3 1.5 4.6 2q0.4 0.1 0.8 0.2 0.8 0.2 1.7 0.4 0 0.2 0 0.5 0.3 0 0.6-0.1c0.8 0 1.4 0.2 2.1 0.3 1.8 0.3 3.5 0.3 5.3 0.3q0.9 0 1.7 0c2.4 0 4.7-0.2 7.1-0.5q0-0.2 0-0.5 0.3 0 0.7-0.1c3.1-0.7 6-1.8 8.7-3.4 0.5-0.3 1-0.4 1.6-0.5q0-0.2 0-0.5c0.4-0.2 0.4-0.2 0.8-0.5 3.6-2.3 6.6-5.1 9-8.5 0.5-0.6 1.1-1.2 1.6-1.7q0.3-0.3 0.5-0.5c3.3-3.2 7-4.1 11.5-4.1 3.3 0.1 3.3 0.1 4.6 0.8q0.2 0.3 0.3 0.6 0.3 0.1 0.6 0.2c0.9 0.3 1.4 0.8 2 1.5 0.2 0.1 0.2 0.1 0.4 0.3 1.8 2 2.7 4.4 3.2 7q0.1 0.3 0.2 0.6 0.1 0.6 0.2 1.2c0.1 0.5 0.1 0.5 0.3 1.1 0.8 5.4 0.7 10.9 0.7 16.3q0 0.8 0 1.6c0.1 4.5 0 9.2-0.9 13.7-0.3 1-0.4 2.1-0.5 3.1-0.4 2.2-0.7 4.3-1.5 6.4q-0.4 1.5-0.8 2.9 0 0.2-0.1 0.5-0.1 0.5-0.2 1.1-0.3 0-0.5 0c-0.1 0.4-0.1 0.4-0.1 0.8-0.3 1.1-0.7 2.1-1.2 3.2q-0.3 0.7-0.5 1.5c-0.5 1.2-1.2 2.4-1.8 3.5q-0.2 0.3-0.4 0.7c-2.1 3.6-4.5 6.9-7.2 10q-0.2 0.2-0.3 0.4c-1.8 2-3.8 4.2-6.2 5.7-1.3 0-2.2-0.6-3.2-1.3-0.8-0.4-1.5-0.6-2.3-0.8-0.3-0.2-0.3-0.2-0.6-0.6q-0.8-0.3-1.6-0.6-0.2-0.1-0.5-0.2c-0.7-0.2-1.3-0.3-2.1-0.3q0 0.3 0 0.6 0.2 0.1 0.3 0.2 0.9 0.4 1.7 0.8 0.3 0.1 0.6 0.2 1.5 0.8 3 1.6c0.5 0.2 0.9 0.3 1.3 0.4q0 0.2 0 0.4c0.4 0.1 0.4 0.1 0.7 0.2 1.1 0.3 2 0.9 2.9 1.6q0.3 0.2 0.7 0.5c4.1 3 4.1 3 4.7 4.9 0.1 1.1 0.2 1.9-0.4 2.9-0.8 0.8-1.6 0.7-2.6 0.7-0.9 0-1.8-0.2-2.6-0.5q0-0.2 0-0.4c-0.2 0-0.2 0-0.4-0.1-1.4-0.2-2.6-0.6-3.9-1.3q-0.4-0.2-0.8-0.4-2.6-1.3-5.2-2.7-0.3-0.2-0.6-0.3-0.7-0.4-1.4-0.8 0-0.2 0-0.5-0.5-0.1-1-0.2-0.3-0.1-0.6-0.1c-0.4-0.1-0.4-0.1-0.9-0.1 0.5 1.2 1.3 1.5 2.5 2q0 0.2 0 0.5 0.6 0.2 1.3 0.4c-1.3 1.3-3.8 1.9-5.6 2.5q-0.4 0-0.9 0 0 0.2 0 0.4-1.1 0.2-2.2 0.5 0 0.2 0 0.4-2.6 0.6-5.1 1.2-0.9 0.2-1.9 0.4c-10.7 2.5-22.2 1.8-32.7-1.1q0-0.3 0-0.5-0.2 0-0.4-0.1c-3.5-0.6-6.6-2.2-9.5-4.1q0-0.3 0-0.5-0.3-0.1-0.6-0.2c-0.8-0.3-1.4-0.6-2.1-1.1-0.2-0.2-0.2-0.2-0.4-0.3-1.9-1.2-3.4-2.7-5-4.2-0.2-0.3-0.2-0.3-0.5-0.5-1.3-1.4-2.5-2.8-3.6-4.4-0.3-0.5-0.6-0.8-1-1.2-0.7-1.2-0.7-1.2-0.7-1.8q-0.2 0-0.4 0c-1.6-3.1-3.1-6.3-3-9.8 0-0.3 0-0.3 0-0.5 0-1.3 0.2-2.4 0.5-3.5 0.3-1 0.4-1.9 0.6-2.9q0-0.3 0.1-0.5 0.1-0.8 0.2-1.6c0.4-2.9 0.4-2.9 0.7-4 0.5-2.4 0.5-5.1 0.5-7.6 0-0.3 0-0.3 0-0.5 0-3.3-0.2-6.5-1.7-9.5-0.3-0.6-0.4-1.3-0.6-2q-0.3-0.6-0.5-1.3-0.5-1.3-0.9-2.6c-0.2-0.6-0.2-0.6-0.5-1-0.4-0.6-0.6-1.1-0.8-1.7-0.3-1.1-0.7-2-1.2-3q-0.5-0.9-0.9-1.8-0.1-0.3-0.3-0.5-0.2-0.6-0.5-1.2c-0.1-0.3-0.1-0.3-0.2-0.5q-0.2-0.3-0.3-0.5c-0.2-0.5-0.5-0.9-0.9-1.4q-0.2-0.4-0.4-0.8-0.5-1-1-1.8c-0.4-0.7-0.4-0.7-0.4-1.2q-0.2 0-0.4 0c0.3-0.8 0.8-1.2 1.4-1.8 1.4-1.3 2.8-2.6 4.1-3.9 1.8-1.9 3.7-3.4 5.8-4.9q0.3-0.1 0.5-0.3c1.5-1 2.9-2 4.6-2.7 0.6-0.3 1.3-0.5 1.9-0.9 0.9-0.4 1.7-0.6 2.7-0.9q0.2-0.1 0.5-0.1c1.2-0.4 2.4-0.7 3.7-0.7z"/><path class="c" d="m111.2 9.4q0 0.2 0 0.5 0.3-0.1 0.6-0.1c1.4 0 2.6 0.5 3.9 1q0 0.2 0 0.4c0.2 0.1 0.2 0.1 0.4 0.1 0.5 0.1 0.5 0.1 0.9 0.5 0.6 0.4 0.9 0.4 1.6 0.3q0.3 0 0.7 0c0.3 0 0.3 0 0.7-0.1q0.7 0 1.5 0c0.4-0.1 0.4-0.1 0.8-0.1 2-0.1 4-0.1 5.9-0.1q1.2 0 2.3 0c3 0 6 0.2 9 0.5q0 0.3 0 0.5c0.3 0 0.3 0 0.7 0 1.2 0 2.3 0.2 3.5 0.4 0.3 0.1 0.3 0.1 0.6 0.1 1.6 0.3 1.6 0.3 2.3 0.8q0.5 0.2 1 0.3c0.3 0.1 0.3 0.1 0.5 0.2q0.3 0 0.6 0.1 0.3 0.1 0.6 0.2 0.7 0.2 1.4 0.4 0 0.2 0 0.4c0.2 0.1 0.2 0.1 0.4 0.1 1.1 0.3 2 0.6 2.9 1.3q1.2 0.5 2.3 1.1 0 0.2 0 0.4 0.3 0.1 0.6 0.2c0.7 0.2 1.1 0.5 1.6 0.9q0 0.3 0 0.5c0.9 0.2 1.6 0.2 2.5 0q0-0.2 0-0.5c0.3-0.1 0.3-0.1 0.7-0.2q0.2 0 0.4-0.1 0.4-0.2 0.9-0.3 1-0.4 2-0.7 0.2-0.1 0.5-0.2 0.2 0 0.4-0.1c1.7-0.5 3.4-0.4 5.1-0.4q0.5 0 0.9 0c1.5 0 2.9 0.1 4.3 0.5q0 0.2 0 0.4 0.3 0.1 0.6 0.1c2.8 0.6 5.1 2.7 6.8 4.9q0.3 0.4 0.5 0.7c0.4 0.6 0.4 0.6 0.4 1.1q0.4-0.1 0.7-0.1 0.4 0 0.9 0 0.4 0 0.8 0c0.8 0.1 0.8 0.1 1.2 0.3q0 0.2 0 0.4 0.2 0 0.4 0.1c0.8 0.3 1.1 0.8 1.6 1.5 0.3 0.8 0.3 1.6 0.3 2.4q0 0.3 0 0.5c0 0.9-0.1 1.7-0.5 2.5q-0.2 0-0.4 0-0.1 0.2-0.2 0.4c-0.3 0.6-0.6 0.7-1.2 0.9q0 0.2 0 0.4c0 2.8-0.2 5.3-1.1 7.9q-0.2 0-0.5 0 0 0.4-0.1 0.7c-0.3 0.9-0.7 1.6-1.3 2.3q-0.2 0.3-0.5 0.7c-0.5 0.6-1 1-1.6 1.5q-0.3 0.2-0.5 0.4c-0.5 0.5-1 0.9-1.5 1.3q-0.3 0.2-0.6 0.4c-0.6 0.3-1.1 0.6-1.7 0.8 0.3 1.6 0.7 3.1 1.4 4.6q0.3 0.8 0.5 1.6c0.2 0.6 0.4 1.2 0.7 1.8 0.3 0.8 0.6 1.6 0.8 2.5 0.2 0.6 0.2 0.6 0.5 1.3 0.6 1.3 1 2.5 1 3.9q0.3 0 0.5 0 1 3.4 2 6.8 0 0.3 0.1 0.6c0.2 0.8 0.4 1.6 0.3 2.5q0.3 0 0.5 0 0.1 0.2 0.2 0.4c0.9-1 1.7-2.1 2.3-3.3q0.2 0 0.4 0 0.1-0.2 0.1-0.4c0.4-1.6 1.4-3.1 2.4-4.3q0.2 0 0.4 0 0.1-0.2 0.2-0.4c0.4-0.8 0.8-1.3 1.6-1.7 2.6-0.2 2.6-0.2 3.6 0.3q0 0.2 0 0.4 0.2 0 0.4 0.1c0.6 0.2 0.7 0.3 1 0.9 0.5 1.2 0.5 2.3 0.5 3.5q0 0.4 0 0.7c-0.1 3.6-1 6.5-2.8 9.6q-0.2 0-0.4 0-0.1 0.3-0.2 0.6c-0.3 0.8-0.7 1.3-1.3 1.9q-0.2 0.3-0.5 0.6-0.3 0.2-0.5 0.5-0.3 0.3-0.6 0.6c-2.2 2.1-2.2 2.1-3.4 2.8q-0.4 0.2-0.7 0.4c-0.1 0.5-0.1 0.5-0.1 1q0 0.3 0 0.6c0 0.4 0 0.4 0.3 0.7q0.1 0.5 0.1 0.9c0.1 0.4 0.1 0.4 0.1 0.7 0 0.3 0 0.3 0 0.7q0.1 0.3 0.1 0.7c0.5 6.3 0.5 12.5 0.2 18.8q0 0.3-0.1 0.6c-0.2 5-0.2 5-0.6 5.4q-0.1 0.7-0.2 1.4c0 0.4 0 0.4-0.1 0.8q0 0.3-0.1 0.5c-0.3 2.9-0.8 5.8-1.5 8.7q-0.3 1.1-0.5 2.2-0.2 0.6-0.3 1.2-0.2 0-0.5 0 0 0.3 0 0.6c-0.2 1.3-0.7 2.6-1.1 3.9q-0.2 0-0.4 0-0.1 0.3-0.1 0.5c-0.2 1-0.5 1.8-0.8 2.6q-0.1 0.3-0.2 0.5c-0.5 1.1-1.1 2.2-1.7 3.2q-0.6 1-1 1.9-0.4 0.8-0.8 1.5-0.2 0.3-0.4 0.7-0.2 0.3-0.4 0.5-0.2 0-0.5 0 0 0.3-0.1 0.7c-0.3 0.8-0.5 0.8-1.2 1.1q-0.1 0.5-0.2 0.9c-0.5 0.8-0.9 1.4-1.6 2-0.6 0.6-1.2 1.2-1.7 1.9-0.5 0.8-1 1.4-1.7 2q-0.2 0.2-0.5 0.5c-1.5 1.5-1.5 1.5-2.1 1.5q-0.1 0.2-0.2 0.4c-0.3 0.5-0.6 0.8-1.2 1.1q-0.2 0-0.4 0c0.2 0.8 0.5 0.9 1.1 1.4 1.6 1 3.2 2.5 4 4.3q0 0.4 0 0.8 0.2 0 0.5 0c0.3 1.2 0.3 2.5 0 3.6q-0.3 0-0.5 0 0 0.2 0 0.4c-0.3 0.7-0.5 0.9-1.1 1.2-2 0.7-3.6 0.4-5.6-0.1q-0.3-0.1-0.6-0.1-1.2-0.3-2.3-0.7 0-0.2 0-0.4-0.3-0.1-0.5-0.1c-1.2-0.2-2.2-0.8-3.3-1.3q-0.3-0.2-0.7-0.3-0.8-0.4-1.6-0.8 0-0.2 0-0.5-0.5 0-1.1 0 0 0.3 0 0.5-0.3 0.1-0.5 0.2-2 0.7-3.8 1.5c-1 0.4-1.8 0.7-2.9 0.8q0 0.2 0 0.4c-3.6 1.1-7.2 2.1-10.9 2.6-0.5 0.1-0.5 0.1-0.7 0.3-7.6 1.5-16.2 1.2-23.8 0q0-0.2 0-0.4c-0.2 0-0.2 0-0.5 0-3.4-0.2-6.6-1.4-9.8-2.5q0-0.2 0-0.4-0.3-0.1-0.6-0.1c-0.8-0.2-0.8-0.2-1.4-0.4-1.2 0-1.9 1-2.7 1.8-0.9 0.8-1.6 1.3-2.7 1.6q0 0.2 0 0.4-0.9 0.5-1.8 0.9c-0.3 0.2-0.3 0.2-0.5 0.3-2 0.8-4.2 1.1-6.2 0.4-1-0.5-1.6-1-2-2q-0.2-0.2-0.3-0.5c-0.2-1.8 0.2-3.1 1.1-4.7q0.2-0.3 0.4-0.6c0.5-1 1.1-1.7 1.9-2.5q0.3-0.6 0.7-1.1 0.2-0.2 0.4-0.3c0.2-0.5 0.2-0.5 0.2-1.1q-0.1-0.1-0.3-0.3c-2.5-2.1-2.5-2.1-2.8-3.1q-0.2 0-0.5 0-0.5-0.5-1-1.1-0.2-0.3-0.5-0.7c-0.5-0.6-0.5-0.6-0.7-1.3q-0.1-0.2-0.2-0.4-0.4-0.2-0.7-0.3c-0.4-0.6-0.9-1.2-0.9-2q-0.2 0-0.4 0-0.3-0.5-0.5-1-0.1-0.2-0.2-0.5c-0.2-0.5-0.2-0.5-0.2-1q-0.3 0-0.5 0c-1.3-3.3-2.3-6.2-2.2-9.8q-0.6 0-1.1 0 0 0.2 0 0.4c-2.7 0.5-5.7 0.7-8.1-0.7-0.7-0.6-1.2-1.3-1.6-2.2q-0.1-0.2-0.2-0.4c-0.2-1.8-0.3-3.4 0.9-4.9 1.5-1 3.3-0.8 5-0.8q0.4 0 0.9 0c1.9 0 3.8 0.1 5.7 0.5q0.1-0.2 0.1-0.4 0.1-2 0.4-3.9 0-0.4 0.1-0.9c0.1-0.6 0.1-0.6 0.3-0.9 0.3-1.9 0.3-3.9 0.3-5.9q0-0.3 0-0.7c0-1.6-0.1-3.1-0.7-4.6q-0.3-0.9-0.5-1.8 0-0.2-0.1-0.5c-0.2-0.7-0.3-1.4-0.3-2.2q-0.2 0-0.5 0-0.1-0.3-0.2-0.7c-0.5-1.7-1-3.3-1.8-4.9q-0.2-0.4-0.4-0.9-0.5-1.2-1.1-2.4c-0.8-1.4-1.4-2.8-1.8-4.3q-0.3 0-0.5 0-0.1-0.3-0.2-0.6c-0.7-1.3-1.3-2.7-2.1-3.9-0.1-0.4-0.1-0.4-0.1-1.1q-0.3 0-0.5 0-0.3-0.6-0.6-1.2-0.1-0.3-0.3-0.7c-0.2-0.6-0.2-0.6-0.2-1.3q-0.3-0.1-0.7-0.2c-0.5-0.8-0.8-1.5-0.7-2.5q-0.2 0-0.4 0-0.3-0.7-0.6-1.4-0.1-0.4-0.3-0.8c-0.2-0.7-0.2-0.7-0.2-1.1q-0.3 0-0.5 0-0.1-0.3-0.2-0.6c-0.5-1.4-0.9-2.7-1.5-4-0.4-1-0.7-1.8-0.7-2.8q-0.3 0-0.5 0-0.3-1-0.6-2c0-0.3 0-0.3-0.1-0.5q-0.1-0.3-0.2-0.6 0-0.2-0.1-0.5c-0.1-0.5-0.1-0.5-0.1-1.4q-0.2 0-0.5 0-0.2-0.9-0.4-1.9-0.1-0.2-0.1-0.5c-0.3-1.1-0.4-2.1-0.4-3.2q-0.2 0-0.4 0c-1.2-6.6-1.7-14.9 0.5-21.3q0.3-0.8 0.5-1.7c0.5-1.8 1.3-3.4 2.1-5q0.4-0.7 0.7-1.4-0.4 0.1-0.8 0.2c-8.1 1.3-8.1 1.3-10.4-0.2-0.4-1.3-0.5-2.5 0.1-3.8 1-1.7 1-1.7 1.9-2q0.1-0.3 0.2-0.5c0.3-0.7 0.5-0.9 1.2-1.3q0.2 0 0.4 0c0.1-0.3 0.1-0.3 0.2-0.7 0.4-0.2 0.4-0.2 0.8-0.5 0.2-0.1 0.2-0.1 0.4-0.2 0.4-0.2 0.4-0.2 1.1-0.2q0-0.2 0-0.4c0.3-0.1 0.3-0.1 0.7-0.2q0.5-0.2 1-0.3 0.2-0.1 0.5-0.2c0.6-0.2 1.3-0.4 1.9-0.7 0.9-0.3 1.7-0.4 2.6-0.5q0.3-0.1 0.6-0.1c2.9-0.4 5.9-0.5 8.8-0.5q0-0.2 0-0.4c0.2-0.1 0.2-0.1 0.4-0.3q0.3-0.1 0.6-0.3 0.3-0.1 0.6-0.3c0.5-0.2 0.5-0.2 0.7-0.7 0.3-0.2 0.3-0.2 0.8-0.5 0.3-0.1 0.3-0.1 0.5-0.2 0.4-0.2 0.4-0.2 1.1-0.2q0-0.2 0-0.4 0.6-0.3 1.1-0.6c0.3-0.2 0.3-0.2 0.6-0.3 0.6-0.3 0.6-0.3 1.2-0.3q0-0.2 0-0.4 0.7-0.2 1.4-0.5 0.3-0.1 0.7-0.2c0.6-0.2 0.6-0.2 1.1-0.2q0-0.2 0-0.5 0.8-0.2 1.7-0.5 0.3-0.1 0.5-0.2 0.2-0.1 0.5-0.1 0.2-0.1 0.4-0.2c0.5-0.1 0.5-0.1 1.4-0.1q0-0.2 0-0.4 0.2-0.1 0.4-0.1 0.8-0.2 1.7-0.5 0.3 0 0.7-0.1 0.2-0.1 0.6-0.2 0.2 0 0.5-0.1c0.6-0.1 0.6-0.1 1.1-0.4 0.6-0.2 1.1-0.3 1.7-0.5 0.4 0 0.4 0 0.7-0.1q0.7-0.1 1.4-0.3c1.2-0.2 2.3-0.5 3.5-1.1q-0.3-0.2-0.7-0.4 0-0.3 0-0.5-0.2-0.1-0.5-0.2c-0.6-0.2-0.6-0.2-1.1-0.9 0-0.8 0-1.5 0.3-2.3 0.5-0.2 1-0.4 1.5-0.6 0.3-0.2 0.3-0.2 0.7-0.3 2.6-0.7 5.6-0.4 8.3-0.2zm4.9 4.7q0 0.3 0 0.5c-0.3 0-0.3 0-0.6 0-2.6 0.1-5.2 0.5-7.8 1q-0.6 0.1-1.2 0.2-1.6 0.3-3.1 0.6 0 0.2 0 0.4c-0.2 0-0.2 0-0.4 0.1-2.7 0.2-5.2 0.8-7.7 1.7q-1.6 0.5-3.3 0.9c-4.3 1.1-9.2 2.9-12.9 5.4-0.1 0.2-0.1 0.2-0.2 0.5q-0.5 0.2-1 0.4c-1.4 0.7-2.5 1.7-3.7 2.7q-0.2 0.2-0.5 0.4-0.5 0.4-0.9 0.8-0.5 0.4-1 0.8c-0.8 0.7-1.4 1.5-2.1 2.3q-0.2 0.3-0.5 0.6c-5.9 6.9-8.3 15-8.3 24q0 0.3 0 0.5c0 4.5 0.4 9 1.9 13.2q0.2 0.9 0.4 1.7c0.4 1.5 0.8 3 1.4 4.4q0.1 0.3 0.2 0.7 0.2 0 0.4 0 0.1 0.3 0.1 0.6c0.5 2.9 1.9 5.8 3.2 8.4 0.6 1.2 1.1 2.3 1.7 3.5 2.2-0.3 4.4-3.5 5.9-5.1 4.1-4.1 9.2-7.2 14.7-9.2q0.2-0.1 0.5-0.2c1.4-0.5 2.9-0.7 4.4-1q0.3 0 0.6-0.1c1-0.1 2-0.1 2.9-0.1q0.4 0 0.7 0 0.7 0 1.4 0 1.1 0 2.2 0 3.1 0 6.2 0 1.9 0 3.8 0 0.8 0.1 1.5 0.1c3.5 0 6.8-0.2 10.2-0.9 0.5-0.1 0.5-0.1 0.9-0.2q0.3 0 0.6-0.1 0-0.2 0-0.5 0.3 0 0.7 0c1.8-0.3 3.5-1.2 5.1-2q0-0.2 0-0.4c0.3-0.1 0.3-0.1 0.6-0.2 0.9-0.3 1.6-0.7 2.4-1.2q0.2-0.2 0.5-0.3c2.6-1.7 4.9-3.8 7.2-5.8q1.6-1.4 3.2-2.6c0.3-0.3 0.3-0.3 0.7-0.5 1.9-1.5 1.9-1.5 2.6-1.8 0.6-0.4 0.6-0.4 0.7-1.2q0-0.4 0-0.9c0-1.6 0.2-2.7 0.9-4.1q0.1-0.3 0.3-0.5c0.4-1.1 1-1.9 2-2.5q1.2-0.3 2.5-0.4-0.1-0.4-0.1-0.7c-0.1-3.4-0.1-3.4 1-4.7 0.4-0.4 0.8-0.8 1.3-1.1q0.2-0.2 0.5-0.4c1.7-0.8 3.5-1.1 5.3-1.2q0.4 0 0.7 0c2.6-0.1 4.5 0.4 6.5 2 0.5 0.5 0.8 1 1.1 1.6q0.2 0 0.5 0 0 1.5 0 3.1c0.5 0.3 0.5 0.3 1 0.6 0.8 0.3 1.3 0.6 1.9 1.2q0.2 0 0.4 0c-0.1-1.2-0.6-2.2-1.1-3.3q-0.2-0.5-0.4-1-0.1-0.2-0.2-0.5-0.4-0.9-0.8-1.8c-0.6-1.6-1.4-3.1-2.2-4.6q-0.2 0-0.4 0-0.1-0.2-0.2-0.4 0-0.3-0.1-0.5c-0.1-0.3-0.1-0.3-0.2-0.6-0.2-0.6-0.2-0.6-0.6-1.2q-0.3 0-0.5 0-0.1-0.3-0.2-0.6c-0.3-0.8-0.6-1.4-1.1-2.1-0.2-0.2-0.2-0.2-0.4-0.5-2-2.9-4.2-5.6-6.9-7.9-0.4-0.3-0.4-0.3-0.9-0.9-2.5-2.4-2.5-2.4-5.5-3.7q0-0.2 0-0.4c-2.6-1.4-2.6-1.4-5.3-2.5-0.5-0.2-0.5-0.2-1.2-0.5-1.3-0.6-2.8-0.9-4.2-1.2q-0.2 0-0.5-0.1c-8.9-1.9-18.1-1.7-27.2-0.7zm-24.6 62.9c-0.4 0.1-0.4 0.1-0.7 0.2-1.4 0.5-2.7 1.1-4 1.8-0.4 0.1-0.4 0.1-0.7 0.3-4.8 2.5-8.7 6.3-12.4 10.1-0.7 0.7-1.4 1.4-2.2 2q-0.2 0.2-0.4 0.4 0 0.2 0 0.4 0.2 0 0.4 0c0.1 0.3 0.1 0.3 0.2 0.6 0.3 0.8 0.6 1.4 1.1 2.1 0.4 0.6 0.7 1.2 1 1.8q0.2 0.4 0.4 0.9c1 1.8 1.9 3.7 2.7 5.6q0.2 0.5 0.5 1.1c0.9 2.1 1.9 4.2 2.5 6.5 0.1 0.5 0.1 0.5 0.6 1.2q0.2 0.5 0.3 1c0.2 0.7 0.4 1.4 0.7 2 1 2.7 1.1 5.5 1.1 8.3q0 0.6 0 1.1c-0.1 3-0.2 5.9-0.9 8.8q-0.2 1.1-0.4 2.3-0.1 0.2-0.1 0.4-0.3 1.8-0.6 3.5-0.1 0.8-0.4 1.5c-0.8 3.6 0 7.4 1.7 10.6q0.3 0.7 0.7 1.5 0.1 0.3 0.2 0.5 0.1 0.2 0.2 0.4 0.2 0 0.4 0 0.1 0.3 0.2 0.6c0.4 1.1 0.4 1.1 1.1 2.1 0.6 0.5 1 1.1 1.5 1.8 2.8 3.7 6.4 7.2 10.7 9.2q0.2 0 0.4 0 0 0.2 0 0.5c2.6 1.8 6.7 4.2 9.9 4.2q0 0.2 0 0.5 1.5 0.3 2.9 0.7 0.4 0.1 0.9 0.2c7.1 1.8 14.6 1.8 21.8 1.2q0.3 0 0.5 0c3-0.3 5.9-0.8 8.9-1.5q0.6-0.1 1.2-0.3 1.7-0.4 3.5-0.8 0-0.2 0-0.4 1.1-0.3 2.2-0.5 0-0.2 0-0.4 0.3-0.1 0.6-0.1c2.1-0.3 4-1.3 5.9-2.2-0.6-0.5-0.6-0.5-1.3-0.6q0-0.3 0-0.5-0.2-0.1-0.5-0.2-0.2-0.2-0.5-0.3-0.3-0.1-0.6-0.3c-0.5-0.4-0.7-0.6-0.9-1.2 2 0.3 2 0.3 2.5 0.4q0.1 0.4 0.2 0.7c0.4 0.3 0.4 0.3 0.9 0.5 1.1 0.5 2.2 1.1 3.3 1.7 3.7 2.3 3.7 2.3 7.9 3.2q0 0.2 0 0.4c1.5 0.4 3.2 0.9 4.7 0.2 0.5-0.5 0.9-0.8 1-1.6 0-1.8-0.5-2.7-1.7-4-1.1-1.2-2.4-2.2-3.8-3.1q-0.3-0.2-0.6-0.4c-1.4-0.9-1.4-0.9-3-1.4q0-0.2 0-0.4-0.3-0.2-0.6-0.3c-2.1-0.9-4.2-1.9-6.3-2.9q0-0.3 0-0.6c1.5 0.1 2.9 0.5 4.2 1.1q0.1 0.2 0.3 0.4c0.4 0.2 0.4 0.2 0.9 0.4 1.2 0.5 2.3 1 3.4 1.6 0.7 0.3 1.1 0.3 1.9 0 0.6-0.3 0.6-0.3 1.1-0.8q0.3-0.3 0.6-0.6 0.3-0.3 0.6-0.6 0.3-0.3 0.7-0.6c4.1-3.6 7.4-8.1 10-12.9q0.4-0.6 0.7-1.2c0.9-1.5 1.7-3 2.3-4.6q0.2-0.5 0.4-1.1c0.4-1 0.7-2 0.9-3.1q0.2 0 0.5 0 0-0.4 0.1-0.7 0.1-0.4 0.2-0.9 0.1-0.2 0.2-0.5 0.4-1.6 0.9-3.2c0.7-2.1 1-4.2 1.3-6.4q0.2-1.6 0.5-3.1c0.9-4.5 0.9-9.2 0.8-13.7q0-0.8 0-1.6c0-4.5-0.1-8.9-0.4-13.3q-0.1-0.3-0.1-0.6c-0.1-1.1-0.3-1.9-0.6-2.9q-0.2-0.9-0.3-1.8c-0.3-1.4-0.6-2.6-1.3-3.8q-0.1-0.3-0.2-0.5c-0.8-1.6-2-2.9-3.4-4q-0.7-0.3-1.3-0.5-0.1-0.3-0.3-0.6c-2.7-1.4-7.4-1.1-10.3-0.3-2.4 0.9-4.4 2.2-6.3 4.1q-0.2 0.2-0.5 0.5c-0.7 0.7-1.3 1.5-1.9 2.3-2.4 2.9-5 5.5-8.3 7.5q-0.3 0.2-0.7 0.4 0 0.3 0 0.5-0.2 0-0.4 0c-0.9 0.3-1.5 0.6-2.2 1-2.7 1.5-5.4 2.5-8.4 3q0 0.2 0 0.5c-2.5 0.3-5.1 0.5-7.7 0.5q-0.8 0-1.7 0c-1.8 0-3.5-0.1-5.3-0.4-0.7-0.2-1.4-0.2-2.1-0.1q0-0.2 0-0.5-0.4-0.1-0.7-0.2c-2.4-0.5-4.4-1.3-6.5-2.5q-0.9-0.4-1.7-0.9-0.3-0.1-0.5-0.2c-0.4-0.2-0.4-0.2-0.9-0.2q0-0.2 0-0.5c-0.5-0.3-0.5-0.3-1-0.6q-0.3-0.2-0.7-0.4-0.2-0.1-0.5-0.3c-0.9-0.5-1.6-1.1-2.3-1.8q-0.3-0.2-0.5-0.3c-0.7-0.4-1-0.9-1.5-1.5q-0.6-0.6-1.1-1.1c-1.7-1.7-3.2-3.5-4.4-5.6q-0.2-0.2-0.3-0.5-0.3 0-0.5 0-0.1-0.3-0.2-0.6c-0.2-0.8-0.6-1.5-1-2.3q-0.3-0.4-0.5-0.7c-0.1-0.3-0.1-0.3-0.3-0.6-3-0.1-5.7-0.1-8.5 0.9z"/><path class="d" d="m178.5 57.4q0.3 0 0.6 0 0.1 0.3 0.2 0.5 0.1 0.3 0.3 0.7 0.1 0.3 0.2 0.6 0.2 0.6 0.4 1.1 0.6 1.7 1.1 3.4 0.1 0.2 0.2 0.4c0.2 0.9 0.4 1.6 0.3 2.5q0.3 0 0.5 0 0.3 1 0.6 1.9c0.1 0.3 0.1 0.3 0.2 0.6 1 2.9 1 2.9 1 4.3q0.2 0 0.4 0 0.4 1.3 0.7 2.7 0.1 0.4 0.2 0.7c0.3 1.3 0.6 2.5 0.7 3.7-0.9-0.3-1.4-0.9-2-1.5-1.3-1.1-1.3-1.1-2.7-1.8q-0.1-0.2-0.2-0.5c-1.8-0.8-3.6-0.7-5.4-0.7-0.5 0-0.5 0-0.9 0-3.8 0-7.4 1.4-10.3 3.9q-0.3 0.2-0.6 0.4c-1.4 1.3-2.5 2.5-3.5 4.1-0.4 0.7-0.9 1.2-1.5 1.8q-0.2 0.2-0.4 0.4c-1.1 1.1-2.2 2-3.4 2.9q-0.3 0.2-0.6 0.4c-3.8 2.8-3.8 2.8-4.8 2.8q0 0.2 0 0.4-0.3 0.1-0.6 0.2-1.7 0.7-3.4 1.4-1.4 0.5-2.8 1-0.4 0.2-0.8 0.3c-2.6 0.8-5.4 0.8-8.2 0.8q-0.2 0-0.5 0c-6.9 0-6.9 0-8.6-1.2q-1.1-0.3-2.2-0.5c-1.1-0.3-1.8-0.7-2.7-1.3q-0.7-0.3-1.4-0.5-0.3-0.1-0.6-0.2c-0.3-0.1-0.3-0.1-0.5-0.2q0-0.2 0-0.5-0.2 0-0.4-0.1c-1.5-0.4-2.6-1.1-3.9-2.1q-0.2-0.2-0.5-0.4-2.1-1.6-4-3.4-0.2-0.2-0.4-0.5c-1.1-1-1.9-2-2.7-3.2-0.4-0.5-0.7-0.9-1.1-1.3q-0.2-0.4-0.5-0.9-0.1-0.1-0.3-0.3c-0.4-0.4-0.7-0.9-1-1.4q0-0.4 0-0.7-0.2 0-0.5 0-0.2-0.5-0.4-0.9-0.1-0.2-0.3-0.5c-0.2-0.4-0.2-0.4-0.2-0.9q0.4 0 0.7 0 3.1 0.1 6.1 0.1 1.6 0 3.2 0c5.8 0 5.8 0 11.6-0.3q0.3-0.1 0.6-0.1c2.1-0.3 4-1.1 5.9-1.9q0.4-0.2 0.8-0.3c4.8-1.9 8.7-4.8 12.5-8.1 6.8-6 6.8-6 8-6q0.1 0.3 0.2 0.5c1 2.1 2.2 3.3 4.4 4.1 1.6 0.5 3 0.6 4.6 0.6q0.3 0.1 0.7 0.1c1.6 0 2.8-0.3 4.2-1.2q0.4 0 0.9 0 0.2 1.3 0.3 2.6 0.1 0.3 0.1 0.7 0.1 0.4 0.1 0.7c0.1 0.4 0.1 0.4 0.1 0.7q0.1 1 0.1 2 0.2 0 0.4 0 0.3 0.6 0.5 1.2c0.2 0.4 0.2 0.4 0.6 1 0.5 0.1 0.5 0.1 1 0.1 0.3 0 0.3 0 0.6 0q0.3 0 0.6 0 0.3 0 0.6 0 0.8 0 1.5-0.1 0-0.2 0-0.4 0.4-0.1 0.8-0.2 0.4-0.1 0.8-0.3c0.3-0.6 0.2-1.2 0.2-1.9 0-0.2 0-0.2 0-0.4q0-0.8 0-1.5 0-0.2 0-0.5c0-2.4 0-4.7-0.2-7.1q0.3 0 0.7 0 0.5 0 1-0.1c0.3 0 0.3 0 0.5 0 1 0 1 0 1.8-0.5 0.3-0.6 0.5-1.2 0.7-1.9z"/><path class="e" d="m127.8 25.3c3.3-0.1 6.5 0.1 9.4 1.6q0.6 0.3 1.2 0.5 0.4 0.2 0.8 0.4 0 0.2 0 0.5 0.3 0.1 0.5 0.1c2 0.9 3.6 2.6 4.7 4.4q0.1 0.2 0.1 0.5 0.1 0.2 0.1 0.4 0.4 0.1 0.7 0.2c0.2 0.4 0.2 0.4 0.3 0.8 0.2 0.7 0.2 0.7 0.7 1.3 0.5 0.5 0.7 1.1 0.9 1.9q0.1 0.4 0.3 0.8c1.2 3.8 1.8 7.7 0.5 11.6q-0.1 0.3-0.2 0.6c-0.9 2.7-2.3 5.2-4.1 7.4q-0.2 0.3-0.4 0.5c-0.8 1.1-1.9 1.9-3 2.7q-0.8 0.5-1.5 1.2c-2.5 1.8-6.2 2-9.2 2q-0.4 0-0.7 0c-2.9-0.1-5.9-0.2-8.5-1.7q-0.3-0.1-0.6-0.3c-1.5-0.6-2.7-1.4-3.9-2.3-0.3-0.3-0.3-0.3-0.7-0.6-2.4-2-4.9-5.7-5.3-8.9q-0.3 0-0.5 0c-1.6-4.4-1.5-8.8 0-13.2q0.2 0 0.5 0c0.1-0.4 0.1-0.4 0.2-0.9 1.4-4.2 5.9-7.7 9.8-9.7 2.6-1.3 5.1-1.7 7.9-1.8z"/><path class="f" d="m175.3 19.7q0.3 0.1 0.6 0.2c2 0.5 3.6 1.9 5.1 3.3q0.2 0.2 0.4 0.3c0.7 0.7 1.1 1.4 1.6 2.3q0.2 0.2 0.4 0.4 0.1 0.1 0.2 0.3c0 0.5 0 0.5-0.2 0.9q-0.2 0-0.4 0c-0.4 1.5-0.6 3.2 0 4.6 0.6 0.9 1.1 1.6 2 2.1 0.8 0.2 0.8 0.2 1.5 0.2 0.2 6 0.2 6-1.3 7.9q-0.2 0.5-0.4 1.1-0.3 0-0.5 0c-0.1 0.2-0.1 0.2-0.1 0.5-0.9 1.8-2.7 3.2-4.4 4.4q-0.2 0-0.4 0-0.1 0.4-0.3 0.7-0.5 0.1-1.1 0.2c-0.6-1-0.6-1-0.6-1.5q-0.3 0-0.5 0-0.1-0.4-0.2-0.7c-0.6-1.9-0.6-1.9-1.4-3.7-0.5-0.9-0.7-1.6-0.9-2.6q-0.2 0-0.4 0-0.3-0.6-0.6-1.3-0.1-0.4-0.3-0.7c-0.2-0.7-0.2-0.7-0.2-1.1q-0.3 0-0.5 0-0.1-0.3-0.2-0.6c-1.3-2.5-2.7-4.6-4.4-6.9-0.8-1-0.8-1-0.8-1.5-0.3-0.1-0.3-0.1-0.6-0.2q-0.4-0.5-0.7-1c-0.9-1.4-2.1-2.5-3.4-3.5q-0.4-0.4-0.9-0.8-0.3-0.3-0.6-0.6c0-0.4 0-0.4 0.2-0.9 0.4-0.2 0.4-0.2 1-0.4q0.3-0.1 0.6-0.2c0.3-0.1 0.3-0.1 0.6-0.3q0.2 0 0.4-0.1c1.1-0.5 2.2-0.7 3.3-0.9q0.3-0.1 0.5-0.1c2.7-0.4 5.3-0.4 7.9 0.2z"/><path class="g" d="m176.7 90.8q0.4 0 0.7 0c0.9 0 1.8 0 2.6 0.3-0.2 0.7-0.5 1.2-1 1.8-0.8 0.9-1.5 1.9-2.3 2.9q-1.6 2.3-3.3 4.4-1.1 1.6-2.3 3.1c-0.2 0.2-0.2 0.2-0.3 0.5q-0.2 0.2-0.3 0.4-0.4 0.5-0.8 1c-0.5 0.5-0.5 0.5-0.4 1.1 0.9-0.1 1.7-0.3 2.6-0.6 1.4-0.4 2.8-0.7 4.3-0.9-0.3 0.7-0.7 1.3-1.1 1.9q-1.2 1.6-2.2 3.2-0.6 0.9-1.1 1.7-0.3 0.4-0.6 0.9-0.7 1.1-1.5 2.2c-0.2 0.3-0.2 0.3-0.4 0.6q-0.5 0.8-1.1 1.6-0.1 0.2-0.3 0.4-0.3 0.5-0.6 0.9c-0.4 0.7-0.8 1.3-0.9 2.1 1.2-0.3 2.3-0.6 3.5-1.2 1-0.5 1.9-0.6 3-0.6q-1.2 2.4-2.6 4.8-0.4 0.7-0.8 1.3-0.1 0.3-0.3 0.7-0.8 1.3-1.5 2.6c-0.9-0.2-1.2-0.5-1.7-1.2-0.3-0.4-0.3-0.4-0.9-1-0.5-0.5-0.7-0.8-1-1.4q-0.1-0.1-0.3-0.3c-1.2-1.3-2.4-4.1-2.4-6q-0.2 0-0.4 0-0.2-1.1-0.4-2.2-0.1-0.3-0.2-0.7c-0.6-3.4-0.8-6.8-0.1-10.3 0-0.3 0-0.3 0.1-0.6 0.2-0.9 0.4-1.6 1-2.3q0.2-0.5 0.4-1.1c0.6-1.4 1.4-2.5 2.3-3.6q0.2-0.3 0.4-0.5c1.8-2.3 4.5-4.3 7.3-5 0.7-0.2 0.7-0.2 1.4-0.5 1.2-0.5 2.3-0.4 3.5-0.4z"/><path class="h" d="m182.7 92.4q0.4 0 0.7 0 0 0.3 0 0.5 0.2 0 0.5 0.1c1.3 0.7 2.4 1.8 3.3 3q0.3 0.3 0.5 0.5c2 2.1 1.1 7.4 1.1 10q0 1.2 0 2.4c0.1 4.4 0 8.9-1 13.2q-0.2 1-0.3 1.9 0 0.3-0.1 0.6 0 0.5-0.1 1c-0.2 1.2-0.5 1.7-1.4 2.5q-0.3 0.3-0.7 0.6c-1.1 0.9-2.3 1.8-3.8 1.9q0 0.2 0 0.4c-1.5 0.4-2.8 0.6-4.3 0.5-0.3 0-0.3 0-0.6 0-2.3 0-4.4-0.3-6.3-1.6 0.3-0.8 0.6-1.4 1.1-2q0.2-0.3 0.4-0.5 0.3-0.3 0.5-0.6 0.5-0.7 1.1-1.4 0.1-0.2 0.3-0.4 0.7-1 1.4-2c0.2-0.2 0.2-0.2 0.4-0.4q0.4-0.5 0.8-1.1c0.5-0.6 0.5-0.6 1-0.9 0.5-0.5 0.7-1 1.1-1.7q0.5-0.7 1.1-1.5 0.3-0.4 0.7-0.8 0.1-0.2 0.3-0.4 0.7-1 1.5-1.9 1.2-1.7 2.5-3.2c0.4-0.5 0.4-0.5 0.6-1.2-1.1 0.1-1.9 0.3-2.9 0.7q-0.8 0.2-1.5 0.4-0.4 0.1-0.8 0.2c-0.6 0.1-1 0.1-1.5-0.1q0.1-0.2 0.2-0.4 1.4-2 2.7-4 1.3-1.9 2.7-3.8c1.8-2.4 1.8-2.4 3.3-5.1q-0.2 0.1-0.4 0.1-1 0.1-2 0.3-0.3 0-0.6 0.1c-1.1 0.1-2.2 0.2-3.3 0.2q0 0.2 0 0.4-0.5 0-1.1 0c0.3-1.3 1-2.5 1.6-3.7q0.5-1.1 0.9-2.1c0.2-0.4 0.2-0.4 0.4-0.7z"/><path class="i" d="m173.3 48.6c1.6 0.4 2.8 1.9 3.6 3.2q0 0.2 0 0.5 0.2 0 0.5 0c0.8 1.3 0.8 2.5 0.6 4-0.2 1-0.5 1.8-1.1 2.7-0.5 0.1-0.5 0.1-1.2 0.1q-0.3 0-0.7 0-0.4 0-0.8 0c-2 0.1-3.7 0.2-5.6 1q-0.2 0.1-0.5 0.1-0.2 0.1-0.4 0.2-0.1 0.3-0.2 0.6c-0.6 0.4-1.3 0.7-1.9 1q-0.8 0.4-1.5 0.8c-2.2 1.2-4.4 1.3-6.9 0.8-0.5-0.1-0.9-0.3-1.4-0.6q-0.3-0.1-0.5-0.2c-1.3-0.6-2-1.1-2.8-2.2q-0.4-0.2-0.7-0.5c-0.9-2.3-0.8-5.7 0.2-8 0.7-1.1 1.5-2.1 2.7-2.5 0.6-0.1 0.6-0.1 1.2-0.1q0.2 0 0.5 0c0.6 0.1 0.6 0.1 1 0.3q0 0.2 0 0.5 1 0.3 2 0.6 0 0.3 0 0.5c1.6 0.2 3.2 0.2 4.8 0.2q0.2 0.1 0.5 0.1c1.8 0 3.4-0.2 4.8-1.2q0.3-0.2 0.6-0.3c0.5-0.3 0.8-0.7 1.2-1 0.7-0.5 1.2-0.7 2-0.6z"/><path  d="m55.4 106.5q0.3 0 0.6 0c1.1 0 1.9 0.1 3 0.5q0.2 0.1 0.5 0.2c0.3 0.1 0.3 0.1 0.5 0.1q0.3 0.1 0.5 0.2c0.5 0.2 0.8 0.4 1.2 0.9 0.1 0.7 0.1 1.5-0.3 2.2-1.3 0.7-2.8 0.1-4.1-0.3-3.6-0.7-7.3 1.1-10.6 2.3-5.7 2-11.6 3.3-17.6 4.2q-0.8 0.1-1.7 0.3c-7.5 1.3-14.9 1.2-22.4-0.1q-0.4 0-0.8-0.1c-3.2-0.6-3.2-0.6-4.2-1.6-0.1-0.8-0.1-1.3 0.3-2 0.4-0.4 0.4-0.4 1-0.5q0.3 0 0.7 0.1c0.4 0 0.4 0 0.8 0.1 0.4 0 0.4 0 0.8 0.1q0.4 0 0.8 0.1 1.2 0.1 2.4 0.3c0.4 0.1 0.4 0.1 0.8 0.2 1.9 0.2 1.9 0.2 2.7 0.5 4.5 0.5 9.4 0.5 13.9-0.3q1.8-0.3 3.7-0.6 0.6-0.1 1.3-0.1 0.5-0.1 0.9-0.2 0.4 0 0.8-0.1 1-0.1 2.1 0 0-0.3 0-0.5 1.4-0.3 2.8-0.6 0.4 0 0.8-0.1 0.4-0.1 0.8-0.2 0.4 0 0.7-0.1c0.6-0.1 1.2-0.1 1.8-0.1q0-0.2 0-0.5 0.9-0.2 1.7-0.4 0.3-0.1 0.5-0.1c0.8-0.2 1.5-0.4 2.3-0.4q0-0.2 0-0.4 0.9-0.3 1.9-0.6 0.2 0 0.5-0.1 0.2-0.1 0.5-0.2 0.2-0.1 0.5-0.1c0.4-0.1 0.4-0.1 1.1-0.1q0-0.3 0-0.5 0.2 0 0.4-0.1 0.8-0.2 1.7-0.4c0.3-0.1 0.3-0.1 0.6-0.2q0.3-0.1 0.6-0.1 0.2-0.1 0.5-0.2c1-0.3 1.6-0.4 2.7-0.4z"/><path class="j" d="m183.2 88.6c0.1 0.2 0.1 0.2 0.2 0.5-0.2 0.5-0.2 0.5-0.5 1.1q-0.5 1.1-0.9 2.1-0.6 1.2-1.2 2.3c-0.8 1.7-1.5 3.4-2.1 5.2 0.2 0 0.2 0 0.5 0q1-0.2 2.1-0.4 0.4-0.1 0.7-0.1c1.3-0.2 2.4-0.4 3.7-0.4-0.7 1.3-1.5 2.4-2.3 3.6q-0.4 0.5-0.8 1.1-0.2 0.3-0.4 0.6-1.1 1.7-2.3 3.4-1.1 1.6-2.3 3.2c-0.3 0.5-0.5 1-0.7 1.6q0.4-0.1 0.8-0.2 0.3 0 0.5-0.1c0.5-0.1 0.5-0.1 1-0.4 0.7-0.2 1.2-0.3 1.9-0.4q0.3-0.1 0.6-0.2c0.6 0 0.6 0 1.5 0-0.4 1.1-1 1.8-1.8 2.7q-1.5 1.8-2.9 3.7-1.9 2.5-3.8 4.9-0.9 1.3-1.9 2.6-1.2 1.5-2.4 3c-1.7 2.1-3.3 4.3-4.9 6.5q-1.1 1.5-2.3 3-0.1-0.2-0.2-0.4 0.4-0.8 0.9-1.5 0.3-0.5 0.5-0.9 0.2-0.3 0.3-0.5 0.7-1.1 1.3-2.2 0.3-0.5 0.5-0.9 0.1-0.2 0.3-0.5 0.1-0.2 0.2-0.5 0.2-0.2 0.4-0.5 0.5-0.9 1-1.8 0.1-0.3 0.3-0.6c0.1-0.3 0.1-0.3 0.3-0.5 0.1-0.3 0.1-0.3 0.3-0.5q0.1-0.2 0.2-0.3 0.2 0 0.5 0 0-0.3 0.1-0.6c0.3-0.8 0.6-1.4 1-2.1q0.2 0 0.4 0 0.1-0.3 0.1-0.5c0.1-0.6 0.3-1 0.6-1.5q0.3 0 0.7 0 0-0.3 0-0.6c0.2-0.9 0.5-1.5 0.9-2.2q0.2-0.4 0.4-0.7 0.1-0.3 0.2-0.6c-2.7 0.7-2.7 0.7-5.4 1.6-0.4 0.2-0.4 0.2-1.1 0.2 0.3-0.8 0.7-1.5 1.2-2.2q0.9-1.3 1.7-2.6c0.3-0.3 0.3-0.3 0.7-0.6 0.3-0.4 0.3-0.4 0.5-0.9 0.4-0.8 0.4-0.8 0.9-1.1q0.3-0.6 0.6-1.3c0.4-0.7 0.9-1.4 1.4-2.1q0.7-1 1.4-2 0.2-0.4 0.4-0.7 0.6-0.9 1.1-1.7c-2.4 0.5-4.7 1-6.9 1.8q-0.2-0.3-0.3-0.5 1.2-1.6 2.5-3.2 0.1-0.2 0.3-0.4 0.8-1.1 1.6-2.1 0.7-0.9 1.4-1.9 0.2-0.2 0.4-0.5 0.3-0.4 0.6-0.9c0.8-1.1 0.8-1.1 1.3-1.3q0.3-0.6 0.6-1.2c0.4-0.6 0.9-1.2 1.4-1.9 0.6-0.7 1.1-1.4 1.6-2.2 0.4-0.6 0.4-0.6 0.9-0.8z"/><path class="k" d="m136.8 25.1q0 0.3 0 0.5 0.3 0 0.5 0c3.7 0.8 6.9 4.3 8.8 7.2 1.4 2.3 3 5 3 7.8q0.2 0 0.5 0c1.4 5.8-0.3 11.1-3.1 16.1-2.2 3.7-6.2 7.5-10.4 8.6-6.3 1.4-13.2 1.2-18.8-2.2-2-1.4-4-3-5.3-5-0.3-0.5-0.3-0.5-0.8-1-0.5-0.6-0.9-1.4-1.3-2.2q-0.2-0.2-0.3-0.4c-1.5-3-1.5-3-1.5-4.7q-0.2 0-0.5 0c-0.8-3.9-1.4-8.6 0.5-12.3q0.2 0 0.4 0 0.1-0.3 0.1-0.5c0.8-3.6 4.7-7.5 7.8-9.4q0.7-0.4 1.4-0.8 0.6-0.3 1.1-0.7c1.8-1 3.6-1.4 5.5-1.9q0.3 0 0.6-0.1c3.7-0.7 8.2-0.1 11.8 1zm-10.2 0.3c-4.2 0.2-7.8 1.7-10.9 4.4q-0.3 0.3-0.6 0.5c-1.3 1.2-2.4 2.4-3.4 3.8q-0.2 0.3-0.4 0.5c-0.7 1-1.2 1.9-1.4 3.1q-0.3 0-0.5 0c-1.5 4.3-1.6 8.9 0 13.2q0.2 0 0.5 0 0 0.4 0.1 0.8c0.5 2.5 2.3 4.7 3.9 6.6q0.2 0.3 0.4 0.6c1 1.1 2.1 2.1 3.4 2.8q0.4 0.2 0.8 0.4c0.7 0.5 1.5 0.8 2.4 1.2 0.3 0.1 0.3 0.1 0.7 0.3 4.5 1.9 11 1.6 15.5 0 1.2-0.6 2.2-1.3 3.3-2.1q0.3-0.3 0.6-0.5c3.3-2.6 5.7-6.3 6.8-10.3q0.1-0.6 0.3-1.2 0.2-0.5 0.3-1 0.1-0.2 0.2-0.4c0.6-3.1 0.1-7.2-1.3-10-0.2-0.4-0.4-0.9-0.6-1.4-0.2-0.8-0.2-0.8-0.7-1q-0.3-0.7-0.5-1.4-0.1-0.2-0.2-0.4-0.3-0.1-0.7-0.2c-0.1-0.3-0.1-0.3-0.1-0.6-0.7-1.9-2.5-3.3-4.1-4.4q-0.6-0.2-1.2-0.4 0-0.3 0-0.5-0.3-0.1-0.6-0.2-0.5-0.2-0.9-0.4-0.3-0.1-0.5-0.2-1.1-0.4-2.1-0.9c-2.7-1.1-5.7-0.8-8.5-0.7z"/><path class="l" d="m31 45q0.3 0 0.5 0c9.2 0.1 9.2 0.1 12.9 1.9 0 0.7 0 0.7 0 1.6-0.7 0.4-0.8 0.5-1.6 0.5q-0.4 0.1-0.9 0.1c-0.3 0.4-0.3 0.4-0.4 0.9-0.8 0.9-1.7 1.7-2.6 2.4-0.8 0.6-1.5 1.2-2.1 1.9-1.1 0.7-1.1 0.7-1.6 0.7q0 0.2 0 0.4c-2 1-4.2 1-6.3 0.4-1.2-0.4-2.3-1-3.3-1.7q0-0.2 0-0.5-0.3-0.1-0.6-0.1c-0.7-0.4-0.9-0.7-1.2-1.4q-0.2-0.2-0.4-0.4c-0.7-0.7-0.6-1.8-0.6-2.7 0.1-1.1 0.5-1.9 1.2-2.7 2-1.5 4.7-1.3 7-1.3z"/><path class="m" d="m185.4 84.1q0.4 0 0.7 0c-0.1 0.9-0.4 1.5-0.7 2.3-0.6 1.2-1.1 2.4-1.5 3.7-0.3 0.8-0.7 1.4-1.2 2.1-0.2 0.6-0.2 0.6-0.3 1.1-0.3 1-0.7 1.7-1.2 2.5q-0.3 0.7-0.5 1.4c-0.3 0.6-0.6 1.2-0.9 1.7q0.6 0 1.1 0 0-0.2 0-0.4c4.3-0.8 4.3-0.8 6.3-0.7-0.3 1-0.6 1.7-1.3 2.5q-0.2 0.4-0.4 0.7-0.3 0.3-0.5 0.6c-1.2 1.6-2.3 3.3-3.4 4.9q-1.6 2.3-3.1 4.6c2.5-0.5 2.5-0.5 4.9-1.2 0.5-0.2 1-0.2 1.6-0.2 0 1.1-0.2 1.2-0.9 2q-0.3 0.3-0.6 0.7-0.1 0.2-0.2 0.3-0.8 0.9-1.4 1.8-0.3 0.4-0.6 0.7-0.1 0.2-0.3 0.4-0.4 0.6-0.9 1.2c-1.2 1.5-1.2 1.5-2.3 3.2-0.4 0.7-0.4 0.7-1.1 0.9q-0.3 0.5-0.5 0.9-0.4 0.6-0.8 1.1-2.5 3-4.7 6.2-1.1 1.5-2.3 2.9-0.8 1-1.6 2-0.1 0.2-0.2 0.4-0.5 0.6-0.9 1.1-0.6 0.7-1.1 1.5-0.1 0.1-0.3 0.3-0.7 1-1.5 2-0.3 0.4-0.7 0.8c-0.1 0.2-0.1 0.2-0.3 0.4-0.5 0.7-1 1.4-1.5 2.2q-0.2 0.3-0.4 0.7-0.5 0-0.9 0c0-1.2 0.5-2 1.1-3q0.7-1.1 1.3-2.2 0.8-1.4 1.6-2.8 0.8-1.2 1.5-2.4 0.7-1.3 1.4-2.5c0.1-0.3 0.1-0.3 0.3-0.5q0.3-0.6 0.6-1.2 0.2 0 0.5 0 0-0.3 0.1-0.6c0.4-0.9 0.8-1.6 1.2-2.4q0.2-0.3 0.3-0.5 0.4-0.7 0.8-1.4 0.4-0.7 0.8-1.3 0.3-0.6 0.6-1.2 0.8-1.3 1.5-2.7c-1.1 0.1-2 0.3-3.1 0.8-1.1 0.5-2 0.7-3.1 0.8 0.1-1 0.3-1.6 0.9-2.4q0.9-1.2 1.7-2.5 0.2-0.3 0.5-0.7 0.2-0.3 0.5-0.7 1.7-2.6 3.4-5.2 0.4-0.5 0.8-1.1 1-1.5 2-2.9-1 0.2-2 0.5-0.2 0.1-0.5 0.1-1.7 0.5-3.3 1.1c-0.5 0.1-0.8 0-1.3-0.2 0.1-0.9 0.6-1.4 1.1-2.1q0.3-0.4 0.6-0.8 0.2-0.2 0.4-0.4 0.9-1.3 1.8-2.5 2-2.7 4.1-5.4 1-1.3 2-2.7 0.4-0.4 0.7-0.8 0.1-0.2 0.3-0.4 0.3-0.5 0.7-0.9 0.9-1.2 1.8-2.4 0.2-0.3 0.3-0.5 0.4-0.5 0.7-0.9 0.3-0.5 0.6-0.9 0.4-0.5 0.8-1 0.2-0.2 0.4-0.5zm-2.6 4.9c-0.6 0.6-1 1.2-1.5 1.8q-1 1.4-2.1 2.8c-0.3 0.4-0.3 0.4-0.5 1.1q-0.6 0.5-1.1 1.1-0.5 0.6-1 1.2-0.2 0.4-0.5 0.8-0.1 0.1-0.3 0.3-0.7 1-1.4 1.9-1.2 1.6-2.4 3.2-0.4 0.5-0.8 1-0.2 0.2-0.3 0.5-0.1 0.1-0.3 0.3 0.1 0.2 0.3 0.5 0.1-0.1 0.3-0.2c4.5-1.4 4.5-1.4 6.6-1.6q-0.8 1.3-1.7 2.7-0.2 0.2-0.3 0.4-0.7 1.1-1.4 2.1-0.3 0.4-0.5 0.8-0.2 0.3-0.5 0.6c-0.3 0.5-0.3 0.5-0.5 1.2q-0.2 0.2-0.5 0.4c-0.5 0.5-0.5 0.5-0.7 1.1-0.2 0.6-0.6 0.9-1.1 1.4q-0.4 0.7-0.9 1.4c-0.2 0.3-0.2 0.3-0.4 0.7q-0.3 0.3-0.5 0.7c-0.3 0.3-0.3 0.3-0.5 0.7-0.4 0.5-0.4 0.5-0.4 1 1.2-0.2 2.2-0.5 3.3-0.9 1.1-0.4 2.1-0.7 3.2-0.9q-0.1 0.4-0.3 0.7-0.2 0.5-0.4 1-0.2 0.2-0.3 0.4c-0.4 1-0.4 1-0.5 2q-0.4 0-0.7 0c-0.6 0.7-0.7 1-0.7 2q-0.2 0-0.4 0-0.3 0.5-0.6 1.1-0.1 0.3-0.3 0.6c-0.3 0.5-0.3 0.5-0.2 1q-0.3 0-0.5 0c-0.1 0.1-0.1 0.1-0.2 0.3q-0.1 0.3-0.3 0.5-0.1 0.3-0.3 0.6-0.4 0.6-0.7 1.3-1 1.6-1.9 3.3-0.2 0.3-0.4 0.6-0.3 0.6-0.7 1.2-0.8 1.5-1.8 3-0.1 0.2-0.2 0.4 0.1 0.2 0.2 0.4 0.2-0.2 0.4-0.5 0.4-0.5 0.8-1 0.7-0.9 1.4-1.9 1.5-2 3-4 0.4-0.5 0.8-1 0.6-0.7 1.2-1.5 1.6-2 3.1-4 0.7-1 1.4-1.9 0.3-0.3 0.6-0.7 0.6-0.7 1.1-1.5 0.2-0.1 0.3-0.3 0.3-0.4 0.6-0.8 0.7-0.9 1.4-1.8 0.3-0.4 0.5-0.8 0.2-0.1 0.3-0.3 1.1-1.4 2.3-2.8c0.4-0.5 0.6-1 0.8-1.6-1.7 0.1-3.4 0.3-4.9 1.1q-0.7 0.1-1.4 0.2c0.3-0.8 0.7-1.5 1.2-2.2q1.1-1.5 2.1-3 1.5-2.2 3.1-4.5 0.9-1.3 1.8-2.6 0.1-0.3 0.3-0.5c0.3-0.4 0.3-0.4 0.3-0.7-2.4 0.2-4.7 0.5-7 0.9 0.7-2.2 1.7-4.3 2.8-6.4q1.1-2.3 1.9-4.8c-0.3 0-0.3 0-0.6 0.4z"/><path class="n" d="m25.6 28.5c0.5 0.8 0.5 1.1 0.4 2-0.6 0.6-0.9 0.6-1.7 0.7q-0.4 0.1-0.7 0.1c-0.7 0.1-1.4 0.1-2.1 0.1-0.1 0.3-0.1 0.3-0.2 0.7-0.5 0.3-0.9 0.6-1.4 0.8q-0.2 0.2-0.4 0.3c-2.5 1.3-4.9 2.2-7.7 2.8-0.8 0-0.8 0-1 0.3-2.2 0.2-4 0.2-5.9-0.9-0.2-0.1-0.2-0.1-0.4-0.2-0.7-0.3-1-0.9-1.4-1.5q0-0.5 0-0.9-0.2 0-0.4 0c-0.1-1.1-0.2-2.1 0.3-3.1 1.2-1.5 2.9-1.9 4.8-2.1 5.1-0.5 12.8-0.9 17.8 0.9z"/><path class="o" d="m156.3 159.1c1-0.1 1.7 0.2 2.6 0.7q0.2 0.1 0.4 0.2 0.6 0.3 1.2 0.6c1.3 0.7 1.3 0.7 2.7 1.2q0 0.2 0 0.4 0.4 0.1 0.7 0.2c1.1 0.3 2 0.9 2.9 1.6q0.3 0.2 0.7 0.5c4.1 3 4.1 3 4.7 4.9 0.1 1.1 0.2 1.9-0.4 2.9-0.8 0.8-1.6 0.7-2.6 0.7-0.9 0-1.8-0.2-2.6-0.5q0-0.2 0-0.4-0.2 0-0.4-0.1c-1.4-0.2-2.6-0.6-3.9-1.3q-0.4-0.2-0.8-0.4-2.6-1.3-5.2-2.7c-0.3-0.2-0.3-0.2-0.6-0.3q-0.7-0.4-1.4-0.8 0-0.2 0-0.5c-0.6-0.2-0.6-0.2-1.2-0.4 0.2-1 0.6-1.8 1.1-2.7 0.1-0.2 0.1-0.2 0.2-0.4q0.3-0.5 0.5-1 0.3 0 0.5 0c0-0.2 0-0.2 0.1-0.4 0.1-0.8 0.4-1.4 0.8-2z"/><path class="p" d="m196.9 68.2c0.7 0.3 1.1 0.7 1.5 1.4 0.8 2.5 0.2 5.8-0.6 8.3q-0.3 0-0.5 0c0 0.2 0 0.2-0.1 0.4-0.8 3.6-4.6 7.1-7.4 9.2-0.3 0.2-0.3 0.2-1 0.2q-0.7-3.7-1.4-7.4-0.1-0.3-0.2-0.7c0-0.6 0-0.6 0.5-1.3 0.3-0.3 0.3-0.3 0.6-0.6 0.7-0.7 1.3-1.4 1.8-2.3q0.3-0.1 0.5-0.2 0.4-0.8 0.7-1.5c2.8-5.6 2.8-5.6 5.6-5.5z"/><path class="q" d="m138.5 36.5q0.2 0 0.4 0c0.7 0 1.2 0.1 1.9 0.3q0 0.2 0 0.4c0.3 0.1 0.3 0.1 0.5 0.1 1.1 0.3 2.1 1.2 2.7 2.2 0.2 0.4 0.2 0.4 0.4 1.1 0.1 0.3 0.1 0.3 0.2 0.7 0.2 1.9 0 3.6-1 5.3-1.6 1.5-3 1.9-5.1 1.9-1.8-0.1-3.2-0.5-4.5-1.9-0.7-1.1-0.9-2-1-3.3q-0.1-0.4-0.1-0.7c-0.1-1.4-0.1-2.4 0.7-3.6q0.5-0.4 0.9-0.9 0.2-0.2 0.5-0.4c1.1-1 1.9-1.2 3.5-1.2z"/><path class="r" d="m165.1 41.6q0.3 0 0.7 0c1.4 0 2.6 0.3 3.9 0.8q0 0.2 0 0.5 0.3 0 0.5 0.1c0.8 0.4 1.1 0.6 1.5 1.4 0.3 1.2 0.3 2.2-0.3 3.3-0.7 1-1.4 1.7-2.6 2.1q-0.3 0-0.6 0 0 0.2 0 0.5c-1.5 0.4-2.7 0.5-4.2 0.4q-0.3 0-0.7 0c-0.9 0-1.8 0-2.8-0.2q0-0.2 0-0.5-0.2 0-0.4 0c-1.3-0.3-2-0.6-2.9-1.5-0.5-1.3-0.4-2.8 0-4.2 1.1-1.4 2.4-2.1 4.2-2.5 1.2-0.1 2.4-0.1 3.7-0.2z"/><path class="s" d="m72.6 27.8c-0.7 1-1.6 1.9-2.5 2.7-1 1.1-2 2.2-2.9 3.4-1.5 2-1.5 2-2.9 2.3q-0.3 0.1-0.7 0.2-1.8 0.3-3.5 0.6c-0.9 0.1-0.9 0.1-1.6 0.5q-0.9 0-1.9 0c-0.2 0-0.2 0-0.5 0-1.3 0-1.3 0-1.8-0.3-0.3-0.4-0.3-0.4-0.3-1.1 0.4-2.1 2.3-3.9 3.9-5.1 1.4-0.8 2.8-1.6 4.4-1.6q0-0.2 0-0.5c1.5-0.4 2.9-0.6 4.4-0.8q0.4 0 0.7-0.1c1.8-0.2 3.5-0.3 5.2-0.2z"/><path  d="m47.5 129c0.6 0.6 0.7 0.9 0.7 1.7 0 0.4 0 0.4 0 0.8q-0.2 0-0.4 0 0 0.2 0 0.4c-1.2 0.5-2.4 0.8-3.6 1-1 0.2-1.9 0.5-2.8 0.8-1.4 0.5-2.8 0.8-4.3 1.1q-0.4 0.1-0.8 0.2c-9.4 1.9-9.4 1.9-10.6 1.1-0.5-0.8-0.5-1.3-0.4-2.2 0.3-0.4 0.3-0.4 0.7-0.9 0.7-0.2 1.3-0.2 2-0.3q0.3-0.1 0.6-0.1 0.9-0.1 1.9-0.3 0.9-0.1 1.8-0.2 0.6-0.1 1.2-0.2c1-0.1 1.9-0.3 2.8-0.6q0.9-0.2 1.7-0.4 0.5-0.1 0.9-0.2c0.8-0.1 0.8-0.1 1.7-0.1q0-0.2 0-0.5c5.5-1.5 5.5-1.5 6.9-1.1z"/><path class="t" d="m91.7 166.3c0.7 0.1 1.3 0.4 1.9 0.8q1.8 1.1 3.7 2.1 0 0.2 0 0.4 0.2 0.1 0.4 0.1 0.3 0.1 0.6 0.2 0.3 0.1 0.5 0.2c0.6 0.2 0.8 0.5 1 1.1-1.7 1.4-3.4 2.7-5.4 3.8-0.2 0.1-0.2 0.1-0.5 0.3-1.6 0.8-3.3 1.3-5.1 1.1-0.9-0.5-1.6-1-2-1.8 0-3 3-6.2 4.9-8.3z"/><path class="u" d="m31.1 46.8q0.4 0 0.8 0c2 0 3.8 0.3 5.8 0.8q0.6 0.1 1.3 0.2 0.5 0.1 0.9 0.2c-2.1 2.5-4.7 5.6-8.1 6.2-1.3-0.2-2.5-0.6-3.8-1q0-0.2 0-0.5-0.3 0-0.5-0.1c-1.2-0.5-1.8-1.3-2.4-2.3-0.2-0.7-0.1-1.1 0-1.8 1.3-1.8 4-1.7 6-1.7z"/><path class="v" d="m173.1 59.9c0.2 2.4 0.2 4.8 0.2 7.3q0 0.5 0 1 0 1.2 0 2.5c-1.5 0.8-3.3 0.8-4.9 0.6-0.5-0.2-0.5-0.2-0.6-0.7-0.5-1.9-0.7-3.7-0.8-5.5q-0.2 0-0.4 0c-0.2-0.9-0.3-1.7-0.2-2.5 0.7-0.9 1.9-1.3 3-1.8 0.6-0.2 0.6-0.2 1.3-0.6 0.8-0.4 1.5-0.3 2.4-0.3z"/><path class="w" d="m79.6 136.9c0 1.1 0 2.2-0.3 3.3 0 0.4 0 0.4-0.1 0.8-0.3 0.6-0.3 0.6-0.8 0.9-2.3 0.5-5.2 1.2-7.5 0.2-0.8-0.5-1.4-1.2-1.8-2.1-0.2-1.2-0.3-2.2 0.5-3.2 2.5-1.7 7.2-0.5 10 0.1z"/><path class="x" d="m104.5 108.2q0.2 0.1 0.4 0.2c0 0.7-0.1 1-0.7 1.5q-0.3 0.2-0.6 0.5-0.6 0.6-1.1 1.2-0.7 0.8-1.5 1.6c-2 2.2-4.4 4.8-4.4 8 0 0.8 0 0.8 0.3 1.3q0.4 0 0.9 0c0.3 0 0.3 0 0.6 0 0.6 0 1-0.1 1.4-0.5 0.5-0.5 1-0.7 1.5-1 1.6-0.9 2.9-2.2 4.2-3.4q0.5-0.5 1.1-1c0.8-0.7 1.6-1.4 2.3-2.2q0.2-0.2 0.4-0.4 0.3-0.4 0.6-0.8c0.3-0.3 0.3-0.3 0.9-0.8 0.6 0 0.6 0 1.1 0.2-0.6 3-5.3 6.3-7.6 8.1q-0.3 0.2-0.5 0.4c-1.1 0.9-2.3 1.6-3.6 2.3q-0.3 0.2-0.6 0.4c-1 0.4-1.9 0.4-3 0.3-0.8-0.5-1.2-1-1.5-1.8-0.4-2.6 0.5-4.7 2-6.8q1.3-1.6 2.6-3 0.9-1 1.8-2c0.6-0.7 0.6-0.7 1-1q0.2 0 0.4 0 0.1-0.2 0.2-0.4c0.4-0.7 0.7-1 1.4-0.9z"/><path class="y" d="m12.2 29.6q0.7 0 1.5 0c5.3 0 5.3 0 6 0.7q-0.3 0.1-0.6 0.2 0 0.2 0 0.5c-3.1 1.5-3.1 1.5-4.3 1.5q0 0.3 0 0.5-1.1 0.3-2.2 0.7-0.3 0.1-0.6 0.1c-1.9 0.6-3.9 0.9-5.7 0.1-0.8-0.7-1.3-1.3-1.6-2.4q0-0.2 0-0.5c2-1.7 5-1.5 7.5-1.4z"/><path class="z" d="m107.2 10.9q0.4 0 0.8 0c2.9 0.1 5.1 0.4 7.7 1.9q-0.1 0.2-0.2 0.4c-0.6 0.1-0.6 0.1-1.4 0.2q-1.7 0.2-3.4 0.5c-0.3 0.1-0.3 0.1-0.7 0.1q-0.7 0.2-1.4 0.3c-2.2 0.4-3.5 0-5.5-1.1-0.7-0.5-0.7-0.5-1.1-0.9q0.1-0.4 0.2-0.9c1.7-0.4 3.3-0.5 5-0.5z"/><path class="A" d="m172.9 109.7c0.2 0.4 0.2 0.4 0.4 0.9-0.2 0.6-0.2 0.6-0.4 1.1q-0.3 0-0.5 0c-0.1 0.3-0.1 0.3-0.2 0.5q-0.3 0.8-0.7 1.6-0.2 0-0.4 0-0.1 0.2-0.2 0.4c-0.3 0.7-0.6 1.2-1 1.8q-1 1.4-2 2.9c1.9-0.6 1.9-0.6 3.7-1.3 0.9-0.3 1.8-0.4 2.8-0.5-0.1 0.8-0.4 1.5-0.7 2.2-0.3 0.6-0.6 1.2-0.8 1.9q-0.4 0-0.7 0-0.3 1-0.7 2-0.2 0-0.4 0c-0.1 0.2-0.1 0.2-0.2 0.4q0 0.3-0.1 0.5c-0.1 0.3-0.1 0.3-0.2 0.6-0.2 0.5-0.2 0.5-0.6 1.2q-0.3 0-0.5 0-0.1 0.3-0.2 0.6c-0.3 0.7-0.5 1.1-1.1 1.6q-0.3-0.1-0.5-0.2c0.3-1.1 0.8-2 1.4-2.9q0.7-1.3 1.4-2.5 0.2-0.2 0.3-0.5 0.9-1.6 1.8-3.3c-1.1 0.1-2 0.3-3.1 0.8-1.1 0.5-2 0.7-3.1 0.8 0.1-1 0.3-1.6 0.9-2.4q0.9-1.2 1.7-2.5 0.2-0.3 0.5-0.7 0.2-0.3 0.5-0.7 0.6-0.9 1.1-1.8 0.2-0.2 0.3-0.4 0.7-1.1 1.5-2.1z"/><path class="B" d="m167.7 127.9q0.2 0 0.5 0c-0.2 0.8-0.4 1.4-0.8 2.1q-0.2 0.3-0.3 0.6-0.2 0.3-0.4 0.6c-0.2 0.3-0.2 0.3-0.4 0.7q-1.5 2.6-3.1 5.2c0.7-0.6 1.2-1.2 1.7-2q0.8-1.1 1.6-2.3c0.2-0.2 0.2-0.2 0.4-0.5 0.4-0.4 0.7-0.6 1.3-0.8q0.1-0.2 0.2-0.4c0.3-0.7 0.8-1 1.3-1.4-0.1 0.7-0.4 1.2-0.9 1.8q-0.2 0.2-0.4 0.5-0.2 0.3-0.5 0.6-0.5 0.7-1 1.4-0.3 0.4-0.6 0.8-0.6 0.7-1.2 1.4-0.2 0.4-0.5 0.8-0.1 0.1-0.3 0.3-0.7 1-1.5 2-0.3 0.4-0.7 0.8-0.1 0.2-0.3 0.4c-0.5 0.7-1 1.4-1.5 2.2q-0.2 0.3-0.4 0.7-0.5 0-0.9 0c0-1.2 0.5-2 1.1-3q0.7-1.1 1.3-2.2 0.8-1.4 1.6-2.8 0.8-1.2 1.5-2.4 0.7-1.3 1.4-2.5c0.1-0.3 0.1-0.3 0.3-0.5q0.3-0.6 0.6-1.2 0.2 0 0.5 0 0.2-0.5 0.4-0.9z"/><path class="C" d="m183.2 89.1q0.1 0.2 0.2 0.4 0.3-0.1 0.7-0.2c-0.2 0.9-0.4 1.5-0.9 2.2-0.4 0.7-0.6 1.1-0.8 1.8-0.3 1-0.7 1.7-1.2 2.5q-0.3 0.7-0.5 1.4c-0.3 0.6-0.6 1.2-0.9 1.7q0.6 0 1.1 0 0-0.2 0-0.4 1-0.2 2-0.4c0.3 0 0.3 0 0.6-0.1 0.2 0 0.2 0 0.5-0.1q0.3 0 0.5 0c0.5-0.1 0.5-0.1 1.4 0.1q-0.9 0.3-1.8 0.5 0 0.3 0 0.7-1 0.1-2 0.3-0.2 0.1-0.5 0.1c-1 0.2-1.9 0.3-2.9 0.2-0.1-0.9 0.2-1.5 0.6-2.3 0.5-0.9 0.9-1.9 1.3-2.9 0.3-0.8 0.7-1.5 1.2-2.2q0.3-0.6 0.5-1.2c0.3-0.7 0.5-1.4 0.9-2.1z"/><path class="D" d="m139.9 39c0.5 0.4 0.5 0.4 1 0.8q0.2 0.2 0.5 0.4c0.4 0.5 0.4 0.8 0.3 1.5-1.5 0.1-2.8 0.1-4.3-0.4-0.1-0.4-0.1-0.4-0.2-0.9 1.3-1.8 1.3-1.8 2.7-1.4z"/><path class="E" d="m185.4 84.1q0.4 0 0.7 0c-0.1 0.9-0.4 1.6-0.8 2.4q-0.5 1-0.9 2.2c-0.2 0.3-0.2 0.3-0.3 0.6q-0.4 0.1-0.7 0.2 0.1-0.8 0.2-1.5-0.3 0-0.6 0c0.5-1.5 1.3-2.8 2.4-3.9z"/><path class="F" d="m181.2 114.4q0.1 0.4 0.2 0.7c-0.2 0.4-0.2 0.4-0.6 0.8q-0.2 0.3-0.4 0.5-0.2 0.3-0.4 0.5c-0.9 1.1-1.7 2.2-2.4 3.5-0.2 0.3-0.2 0.3-0.7 0.5q0.2-0.6 0.5-1.3-0.4 0.2-0.7 0.4c0.3-0.6 0.6-1.1 1-1.7 0.2-0.2 0.2-0.2 0.4-0.5q0.2-0.2 0.4-0.5 0.1-0.2 0.3-0.4 0.4-0.5 0.7-0.9 0.3-0.5 0.7-0.9c0.3-0.4 0.3-0.4 1-0.7z"/><path class="G" d="m101.3 75.8q6.2 0 12.4 0.1 0.9 0.1 1.7 0.1 2.1 0 4.1 0.1 0 0.1 0 0.2c-5.8 0-11.7 0-17.7 0q-0.1 0.2-0.2 0.4-0.1-0.4-0.3-0.9z"/><path class="H" d="m177.4 119.4q0.1 0.3 0.2 0.6c-0.2 0.4-0.2 0.4-0.5 0.8q-0.2 0.3-0.4 0.5-0.2 0.2-0.4 0.5-0.1 0.2-0.3 0.4-0.4 0.5-0.7 1-0.4 0.4-0.8 0.9-0.2 0.3-0.3 0.5c-0.2 0.3-0.2 0.3-0.3 0.5q-0.2 0.2-0.4 0.3-0.3 0-0.6 0c0.3-1.3 1-2.2 1.8-3.3q0.2-0.2 0.4-0.5c0.7-0.8 1.3-1.6 2.3-2.2z"/><path class="I" d="m186.5 27.6q0.7 0 1.4 0c0.5 1 0.6 1.8 0.4 2.9-0.3 0.7-0.3 0.7-0.6 1.1q-0.4 0.1-0.7 0.3 0-0.4 0-0.8-0.1-0.5-0.1-1 0-0.2 0-0.5c-0.1-0.7-0.1-1.3-0.4-2z"/><path class="J" d="m183 87.3q0.2 0.3 0.4 0.7 0.2-0.2 0.5-0.3-0.2 0.6-0.3 1.1-0.4 0-0.9 0 0 0.3-0.1 0.5c-0.4 0.8-0.8 1.3-1.3 1.9q-0.3 0.4-0.6 0.7c-0.4 0.5-0.4 0.5-0.9 1 0-1.7 0.7-2.5 1.8-3.7 0.5-0.6 0.9-1.2 1.4-1.9z"/><path class="K" d="m172.9 109.7c0.2 0.4 0.2 0.4 0.4 0.9-0.2 0.6-0.2 0.6-0.4 1.1q-0.3 0-0.5 0c-0.1 0.3-0.1 0.3-0.2 0.5q-0.3 0.8-0.7 1.6-0.2 0-0.4 0-0.1 0.2-0.2 0.4-0.3 0-0.5 0-0.3 0.2-0.7 0.5c0.9-1.8 2-3.4 3.2-5z"/><path class="L" d="m175.8 105.5c0.2 0.5 0.2 0.8 0.1 1.3-0.4 0.9-0.9 1.6-1.5 2.3q-0.1 0.2-0.3 0.5-0.4 0.5-0.8 1-0.2-0.2-0.4-0.4 0.3-0.7 0.6-1.3 0.2-0.4 0.3-0.7c0.4-0.7 0.8-1.3 1.3-1.9q0.4-0.4 0.7-0.8z"/><path class="M" d="m165.5 131.3c0.3 0.6 0.1 1.1-0.1 1.8-0.3 1.2-0.9 2.5-2 3.1q-0.2 0.1-0.4 0.2-0.2 0.1-0.4 0.2c0.9-1.8 1.9-3.6 2.9-5.3z"/><path class="N" d="m185.9 98q-0.9 0.3-1.8 0.5 0 0.3 0 0.7-1.7 0.2-3.4 0.4 0.1-0.5 0.2-1.1 1-0.2 2-0.4 0.3 0 0.6-0.1 0.2 0 0.5-0.1 0.3 0 0.5 0c0.5-0.1 0.5-0.1 1.4 0.1z"/><path class="O" d="m178.9 108.8q0 0.3 0 0.7 0.2 0.2 0.5 0.4-0.6 0.8-1.1 1.6 0.3 0.1 0.6 0.2c-0.2 0.4-0.2 0.4-0.6 0.7-0.8 0-0.8 0-1.4 0 0.1-1 0.5-1.6 1.1-2.4q0.3-0.3 0.5-0.7 0.2-0.2 0.4-0.5z"/><path class="P" d="m183.2 89.1q0.1 0.2 0.2 0.4 0.3-0.1 0.7-0.2c-0.3 1.2-0.7 1.9-1.4 2.9q-0.1 0.4-0.2 0.8-0.1 0.3-0.2 0.6-0.3 0.1-0.7 0.2c-0.1-1 0.2-1.6 0.5-2.5q0.2-0.3 0.3-0.7 0.4-0.8 0.8-1.5z"/><path class="Q" d="m138.5 36.5c0.2 0 0.2 0 0.4 0 0.8 0 1.2 0 1.9 0.5q-0.4 0-0.8 0-0.5 0-1 0c-0.3 0-0.3 0-0.6 0-1.4-0.1-2 0.3-3.1 1.2q-0.3 0.3-0.6 0.6-0.3 0.3-0.6 0.6c-0.5 0.5-0.7 1-0.9 1.7-0.2-0.4-0.2-0.4-0.2-0.9 1.2-2.3 2.9-3.7 5.5-3.7z"/><path class="R" d="m183.6 110.6c-0.6 0.4-0.9 0.6-1.6 0.7-0.3 0.1-0.3 0.1-0.6 0.1q-0.3 0.1-0.6 0.1-0.3 0.1-0.6 0.2-0.8 0.1-1.5 0.3-0.2-0.4-0.4-0.7 0.9-0.3 1.8-0.5 0.2 0 0.5-0.1c1.1-0.3 1.9-0.3 3-0.1z"/><path class="S" d="m183.2 88.6q0.1 0.2 0.2 0.5c-0.2 0.5-0.2 0.5-0.5 1.2q-0.6 1.1-1.1 2.4c-0.2-0.5-0.2-0.5-0.2-1.2q-0.8 0.7-1.6 1.4c0.5-0.9 1-1.7 1.6-2.5q0.2-0.2 0.3-0.5c0.8-1 0.8-1 1.3-1.3z"/><path class="T" d="m177.8 103.7c-0.1 0.7-0.5 1.3-0.9 1.9q-0.2 0.3-0.4 0.6-0.1 0.2-0.3 0.4-0.3-0.2-0.6-0.5 0.4-0.7 0.9-1.5-0.7 0-1.4 0c0.8-1 1.5-1 2.7-0.9z"/><path class="U" d="m172.9 100.7c0 1.4-0.6 2.4-1.4 3.4-0.5 0.4-0.5 0.4-1.1 0.7q-0.5 0.3-0.9 0.7c0.4-0.9 1-1.7 1.6-2.4q0.3-0.4 0.6-0.8c0.2-0.3 0.2-0.3 0.5-0.7q0.3-0.4 0.7-0.9z"/><path class="V" d="m9 29.4q1.6 0 3.2 0 0.6 0 1.2 0c2.2 0 4.5 0 6.8 0.2q-0.1 0.5-0.2 0.9c-0.5-0.2-0.5-0.2-0.7-0.4-2.2-0.3-4.5-0.3-6.7-0.4q-0.5 0-1.1 0-1.2-0.1-2.5-0.1 0-0.1 0-0.2z"/><path class="W" d="m165.7 132.6q0.1 0.2 0.2 0.4-0.1 0.3-0.2 0.5 0.2 0.1 0.4 0.2c-0.1 0.2-0.1 0.2-0.3 0.4q-1.3 1.7-2.6 3.4-0.1-0.2-0.2-0.4 0.5-0.8 1-1.7 0.1-0.2 0.2-0.4 0.3-0.4 0.6-0.9 0.4-0.7 0.9-1.5z"/><path class="X" d="m179.8 91.5c0.2 0.5 0.2 0.5 0.1 1.2-0.3 0.9-0.6 1.5-1.2 2.2q-0.2 0-0.4 0 0-0.2 0-0.4-0.3-0.2-0.5-0.3 1-1.3 2-2.7z"/><path class="Y" d="m174.4 117.1c-0.1 1-0.6 1.7-1.1 2.5q-0.2 0-0.4 0 0.2-0.8 0.4-1.6-0.4 0-0.9 0 0-0.3 0-0.7c0.7-0.2 1.3-0.2 2-0.2z"/><path class="Z" d="m170.6 113.8q0.1 0.3 0.3 0.6c-0.4 0.7-0.4 0.7-0.9 1.4q-0.3 0.4-0.5 0.7-0.2 0.3-0.4 0.6-0.3-0.3-0.5-0.7c0.5-1.1 0.9-1.9 2-2.6z"/><path class="a0" d="m169.5 129.7q0.1 0.3 0.2 0.7c-0.3 0.5-0.3 0.5-0.8 1.1q-0.2 0.3-0.5 0.5-0.6 0.8-1.4 1.5-0.1-0.3-0.2-0.7c0.4-0.7 0.4-0.7 0.9-1.3q0.2 0 0.5 0 0-0.2 0.1-0.4c0.3-0.6 0.7-1 1.2-1.4z"/><path class="a1" d="m116.4 29.2q0.2 0.1 0.4 0.2-1.9 1.9-3.8 3.8-0.2-0.1-0.4-0.2c1.1-1.4 2.4-2.6 3.8-3.8z"/><path class="a2" d="m180.9 106.6q0.2 0.3 0.3 0.6c-0.4 0.7-0.4 0.7-0.9 1.3q-0.3 0.4-0.5 0.7-0.2 0.3-0.4 0.5-0.4-0.1-0.7-0.2c0.5-1.3 1.1-2.1 2.2-2.9z"/><path class="a3" d="m187.2 97.8q-0.2 0.7-0.4 1.4c-0.3 0.1-0.3 0.1-0.5 0.2q-0.1-0.4-0.2-0.9-0.2 0.1-0.4 0.1c-0.7 0.2-1.3 0.1-2.1 0.1 0.9-0.9 2.4-0.9 3.6-0.9z"/><path class="a4" d="m170.9 104.1q0.1 0.2 0.2 0.5c-0.3 0.5-0.3 0.5-0.7 1.1q0.2 0.1 0.5 0.2c-0.4 0.4-0.4 0.4-0.9 0.7-0.5-0.1-0.5-0.1-0.9-0.3 0.1-0.8 0.4-1.1 1-1.6q0.2-0.2 0.4-0.3 0.2-0.2 0.4-0.3z"/><path class="a5" d="m165.7 78.8q0.1 0.2 0.2 0.4-1.8 1.6-3.6 3.1c0-0.6 0-0.6 0.3-1 1-0.9 2-1.8 3.1-2.5z"/><path class="a6" d="m182.7 112.4q0.1 0.3 0.3 0.7c-0.3 0.4-0.3 0.4-0.7 0.9q-0.2 0.3-0.4 0.5-0.1 0.2-0.3 0.4-0.4-0.2-0.9-0.5 0.4-0.4 0.8-0.9 0.2-0.2 0.4-0.5c0.4-0.4 0.4-0.4 0.8-0.6z"/><path class="a7" d="m58.3 30.7q0.2 0.1 0.4 0.3-0.7 0.7-1.4 1.4-0.2 0.2-0.4 0.4-0.2 0.2-0.4 0.4-0.2 0.2-0.4 0.4c-0.3 0.3-0.3 0.3-0.7 0.3 0.6-1.3 1.7-2.4 2.9-3.2z"/><path class="a8" d="m170.2 128.1q0 0.9 0 1.8c-0.2 0-0.2 0-0.4 0-0.8 0.3-1.1 0.9-1.6 1.6q-0.3-0.1-0.5-0.2 0.6-0.8 1.1-1.5 0.2-0.2 0.3-0.4c0.8-1 0.8-1 1.1-1.3z"/><path class="a9" d="m174.4 99.6c-0.1 0.8-0.4 1.3-0.9 1.9q-0.2 0.2-0.3 0.5-0.2 0.1-0.3 0.3c-0.2-0.5-0.3-0.8-0.1-1.3 0.8-1.4 0.8-1.4 1.6-1.4z"/><path class="aa" d="m181.8 104.6q0 0.3 0 0.6 0.3 0.2 0.5 0.5c-0.7 0.7-1.4 1.3-2.3 1.8 0.4-0.7 0.8-1.4 1.2-2q0.2-0.3 0.4-0.5c0.1-0.2 0.1-0.2 0.2-0.4z"/><path class="ab" d="m172.6 119.8q0.2 0.2 0.3 0.5c-0.3 0.5-0.3 0.5-0.7 1.2q-0.2 0.4-0.4 0.7-0.1 0.3-0.3 0.5-0.2 0-0.4 0 0.1-0.5 0.3-1.1 0.1-0.3 0.2-0.6c0.1-0.5 0.1-0.5 0.4-1q0.3-0.1 0.6-0.2z"/><path class="ac" d="m183 87.3q0.2 0.3 0.4 0.7 0.2-0.2 0.5-0.3-0.2 0.6-0.3 1.1-0.2 0-0.5 0c-0.8 0.1-1.1 0.4-1.7 0.9 0.4-0.9 1-1.6 1.6-2.4z"/><path class="ad" d="m171.7 127c-0.1 0.7-0.3 1.2-0.7 1.7-0.2 0.2-0.2 0.2-0.4 0.4-0.1 0.2-0.1 0.2-0.2 0.4q-0.2-0.4-0.4-0.7c0.9-1.8 0.9-1.8 1.7-1.8z"/><path class="ae" d="m183.2 89.1q0.1 0.2 0.2 0.4 0.3-0.1 0.7-0.2-0.2 0.8-0.5 1.6-0.3 0-0.6 0-0.2 0.2-0.3 0.4-0.2 0-0.4 0c0.2-0.8 0.5-1.5 0.9-2.2z"/><path class="af" d="m171.5 120.7q0.1 0.2 0.2 0.5-0.3 0.8-0.6 1.5 0.2 0 0.4 0 0 0.2 0 0.5-0.2 0-0.4 0-0.1 0.2-0.2 0.4-0.3 0-0.5 0c-0.2 0.1-0.2 0.1-0.4 0.3 0.4-1.2 0.9-2.2 1.5-3.2z"/><path class="ag" d="m173.8 108.4q0.3 0 0.6 0c-0.1 1.1-0.5 1.5-1.3 2.2q-0.1-0.2-0.2-0.4c0.1-0.5 0.1-0.5 0.4-1 0.1-0.2 0.1-0.2 0.3-0.5q0.1-0.1 0.2-0.3z"/><path class="ah" d="m183 110.8q0.3 0.1 0.6 0.3 0.3 0 0.5 0c-0.1 0.8-0.5 1.2-1.1 1.8q-0.4-0.3-0.7-0.5 0.2-0.2 0.3-0.4c0.4-0.5 0.4-0.5 0.4-1.2z"/><path class="ai" d="m181.4 93.1q0.3 0.2 0.7 0.5c-0.2 1-0.2 1-0.7 1.5q-0.2 0-0.5 0c-0.2 0.1-0.2 0.1-0.4 0.3q0.2-0.5 0.3-1 0.1-0.3 0.2-0.6c0.2-0.5 0.2-0.5 0.4-0.7z"/><path class="aj" d="m167.3 118.9q0.1 0.2 0.2 0.5 0.5-0.1 1.1-0.3 0 0.3 0 0.5-0.4 0-0.9 0 0 0.2 0 0.4-0.6 0.1-1.3 0.3 0-0.5 0-0.9 0.4-0.3 0.9-0.5z"/><path class="ak" d="m183.2 88.6q0.1 0.2 0.2 0.5c-0.2 0.6-0.2 0.6-0.5 1.2q-0.2 0.4-0.4 0.7-0.1 0.3-0.2 0.5c-0.5-0.6-0.5-0.6-0.4-1.1 0.3-0.7 0.5-1.4 1.3-1.8z"/><path class="al" d="m175.8 104.1q-0.1 0.1-0.2 0.2 0.4 0.1 0.9 0.3-0.2 0.2-0.3 0.4c-0.6 0.1-1.2 0.2-1.8 0.2q-0.3-0.4-0.6-0.9c1.5-0.4 1.5-0.4 2-0.2z"/><path class="am" d="m167.3 131.9c0 0.8-0.2 1.3-0.5 2-0.4 0.3-0.4 0.3-0.9 0.5q-0.3 0.2-0.7 0.4c0.4-0.7 0.8-1.3 1.3-1.9q0.2-0.3 0.4-0.6 0.2-0.2 0.4-0.4z"/><path class="an" d="m181.2 94.7c0.2 0.7 0.2 0.7 0 1.1q-0.1 0.3-0.2 0.5-0.2 0.2-0.3 0.5c-0.1 0.2-0.1 0.2-0.2 0.4q-0.2 0-0.5 0c0.2-1.5 0.2-1.5 0.7-2.2 0.2-0.1 0.2-0.1 0.5-0.3z"/><path class="ao" d="m172.4 118.2q0.4 0 0.7 0-0.1 0.7-0.2 1.4 0.2 0.1 0.4 0.2-0.2 0.7-0.4 1.4-0.3 0-0.5 0 0.1-0.6 0.2-1.2-0.2 0-0.4 0 0.1-0.3 0.2-0.6c0.3-0.7 0.3-0.7 0-1.2z"/><path class="ap" d="m174.4 104.8q0 0.2 0 0.4-1.1 0.1-2.2 0.3c0.7-1.1 1.1-1 2.2-0.7z"/><path class="aq" d="m182.7 103.2c0.3 0.8 0.2 1.1 0 1.8q-0.2 0.2-0.4 0.5-0.3-0.2-0.7-0.3 0.2-0.4 0.4-0.9 0.2-0.2 0.3-0.5c0.2-0.4 0.2-0.4 0.4-0.6z"/><path class="ar" d="m171.3 102.8c0.2 0.7 0.3 0.9 0 1.5-0.4 0.3-0.4 0.3-0.9 0.5q-0.5 0.3-0.9 0.7c0.3-0.7 0.7-1.3 1.2-1.9 0.1-0.2 0.1-0.2 0.3-0.5q0.2-0.2 0.3-0.3z"/><path class="as" d="m165.7 63.3q0.1 1.3 0.2 2.7-0.2 0-0.4 0-0.1-1-0.3-2.1-0.5 0-1.1 0c0.6-0.6 0.6-0.6 1.6-0.6z"/><path class="at" d="m165.5 131.3c0.3 0.5 0.1 0.8 0 1.4q-0.1 0.3-0.1 0.6c-0.1 0.2-0.1 0.2-0.2 0.4q-0.3 0-0.6 0c-0.2 0.1-0.2 0.1-0.5 0.2q0.7-1.3 1.4-2.6z"/><path class="au" d="m174.2 123.4q0.1 0.3 0.2 0.7c-0.4 0.7-0.4 0.7-0.9 1.3q-0.3 0-0.6 0c0.2-1 0.4-1.5 1.3-2z"/><path class="av" d="m170.9 112.6q0.4 0.3 0.8 0.5-0.1 0.3-0.2 0.7-0.2 0-0.4 0-0.1 0.2-0.2 0.4-0.3 0-0.5 0-0.3 0.2-0.7 0.5 0.5-1.1 1.2-2.1z"/><path class="aw" d="m111.2 112.4c-0.3 0.9-0.9 1.4-1.6 2q-0.3-0.1-0.6-0.2 0.4-0.4 0.8-0.9c0.3-0.2 0.3-0.2 0.5-0.5 0.5-0.4 0.5-0.4 0.9-0.4z"/><path class="ax" d="m166.4 130.6c0.2 0.7 0.2 0.7 0 1.1q-0.3 0.5-0.7 1.1-0.2 0-0.5 0c0.5-1.7 0.5-1.7 1.2-2.2z"/><path class="ay" d="m178.7 117.1c0.2 0.6 0.3 0.8 0 1.4-0.1 0.2-0.1 0.2-0.2 0.4q-0.4 0-0.7 0c0.1-0.8 0.2-1.2 0.9-1.8z"/><path class="az" d="m180.7 111.1c-0.2 0.4-0.2 0.4-0.6 0.6q-0.3 0-0.5 0.1-0.3 0-0.5 0.1-0.2 0-0.4 0.1-0.2-0.4-0.4-0.7c1.7-0.5 1.7-0.5 2.4-0.2z"/><path class="aA" d="m186.1 98.5c0.1 0.5 0.1 0.5 0.2 1.1q-0.2 0.2-0.4 0.5 0-0.3 0-0.5-0.2 0-0.5 0 0-0.2 0-0.4-0.5-0.1-1.1-0.3c0.7-0.4 1-0.4 1.8-0.4z"/><path class="aB" d="m195.3 68.4c-0.3 0.8-0.7 1.2-1.3 1.8-0.2 0.2-0.2 0.2-0.4 0.4q-0.2 0.1-0.3 0.3c0-0.8 0.2-1 0.7-1.6q0.2-0.3 0.5-0.5c0.3-0.4 0.3-0.4 0.8-0.4z"/><path class="aC" d="m166.6 129.2q0.1 0.3 0.2 0.5 0.2 0 0.5 0c-0.2 0.5-0.2 0.5-0.5 1.1-0.6 0.3-0.6 0.3-1.1 0.5q0.4-1.1 0.9-2.1z"/><path class="aD" d="m169.5 115.1q0.2 0 0.5 0c-0.2 0.8-0.5 1.4-0.9 2q-0.3-0.3-0.5-0.7 0.2-0.4 0.5-0.9 0.2 0 0.4 0 0-0.2 0-0.4z"/><path class="aE" d="m167.3 118q0.1 0.2 0.2 0.5 0.2 0 0.4 0 0 0.2 0 0.4 0.4 0.1 0.7 0.2c-0.7 0.2-1.3 0.3-2 0.3 0.4-1.1 0.4-1.1 0.7-1.4z"/><path class="aF" d="m172.4 117.6q0 0.2 0 0.4 0.5 0 0.9 0-0.1 0.2-0.2 0.5c-0.9 0-1.6-0.1-2.5-0.5 0.7-0.4 1-0.4 1.8-0.4z"/><path class="aG" d="m179.1 116.4q0.4 0 0.7 0c-0.1 1.1-0.1 1.1-0.7 1.6q-0.3-0.1-0.6-0.2 0.3-0.7 0.6-1.4z"/><path class="aH" d="m185.2 99.6q0.3 0 0.7 0c-0.1 0.6-0.1 0.6-0.2 1.1-0.5 0.3-0.5 0.3-0.9 0.5q0.2-0.8 0.4-1.6z"/><path class="aI" d="m154.3 50c-0.4 0.8-0.8 1.3-1.4 1.8q-0.2 0-0.4 0c0.3-0.8 0.8-1.8 1.8-1.8z"/><path class="aJ" d="m172 118.2q-0.1 0.3-0.3 0.5c-0.5 0.1-1.1 0.2-1.7 0.2 0.6-0.9 1-1 2-0.7z"/><path class="aK" d="m174.7 98.3q0.2 0.2 0.4 0.4c-0.1 0.5-0.1 0.5-0.2 0.9q-0.6 0.1-1.1 0.2c0.2-0.5 0.5-1 0.9-1.5z"/><path class="aL" d="m175.8 97.4q0.1 0.4 0.2 0.9-0.4 0.3-0.9 0.6-0.1-0.4-0.2-0.9 0.4-0.3 0.9-0.6z"/><path class="aM" d="m177.6 94.5q0.3 0 0.7 0c-0.1 0.5-0.1 0.5-0.3 1.1q-0.3 0.2-0.6 0.4c-0.2-0.4-0.2-0.4-0.3-0.9q0.3-0.3 0.5-0.6z"/><path class="aN" d="m173.1 124.3c0 0.7 0 0.7-0.2 1.1q0.2 0.1 0.4 0.2c-0.4 0.3-0.4 0.3-0.9 0.5q-0.2-0.1-0.4-0.2 0.5-0.8 1.1-1.6z"/><path class="aO" d="m172.9 109.7c0.2 0.4 0.2 0.4 0.4 0.9-0.2 0.6-0.2 0.6-0.4 1.1q-0.1-0.3-0.3-0.6-0.2 0-0.4 0c0.4-1.1 0.4-1.1 0.7-1.4z"/><path class="aP" d="m184.8 100.3q0.1 0.2 0.2 0.4-0.1 0.3-0.2 0.5 0.2 0.1 0.4 0.2-0.3 0.3-0.7 0.7-0.3-0.2-0.6-0.5 0.4-0.6 0.9-1.3z"/><path class="aQ" d="m180.9 106.6q0.2 0.3 0.3 0.6-0.6 0.6-1.2 1.2-0.1-0.3-0.2-0.5 0.6-0.6 1.1-1.3z"/><path class="aR" d="m153.1 49.6c-0.3 0.8-0.8 1.2-1.5 1.8 0.6-1.8 0.6-1.8 1.5-1.8z"/><path class="aS" d="m25.8 47.8q0.3 0.1 0.7 0.2c-0.4 0.4-0.4 0.4-0.7 0.7q-0.2 0-0.5 0 0 0.8 0 1.6-0.1 0-0.2 0c-0.1-1.7-0.1-1.7 0.3-2.3q0.2-0.1 0.4-0.2z"/><path class="aT" d="m161.7 21.3q0.2 0.1 0.4 0.2-0.3 0.7-0.7 1.4-0.3-0.2-0.6-0.5c0-0.4 0-0.4 0.2-0.9q0.3-0.1 0.7-0.2z"/><path class="aU" d="m91.7 166.3q0.3 0.1 0.7 0.2-0.7 0.6-1.4 1.3-0.2-0.1-0.4-0.2 0.5-0.7 1.1-1.3z"/><path class="aV" d="m168.6 126.8q0.1 0.3 0.2 0.6-0.3 0.4-0.6 0.7-0.3-0.1-0.5-0.2c0.1-0.4 0.1-0.4 0.2-0.9q0.4-0.1 0.7-0.2z"/><path class="aW" d="m178.9 108.8q0 0.3 0 0.7 0.2 0.2 0.5 0.4c-0.7 0.5-0.7 0.5-1.4 0.5 0.3-0.7 0.4-1.1 0.9-1.6z"/><path class="aX" d="m174.4 107.2q0.4 0.5 0.7 0.9-0.3 0.4-0.7 0.7 0-0.2 0-0.4-0.2 0-0.4 0 0.2-0.6 0.4-1.2z"/><path class="aY" d="m181.8 104.6q0 0.3 0 0.6 0.3 0.2 0.5 0.5c-0.7 0.4-0.7 0.4-1.4 0.4 0.3-0.6 0.4-1 0.9-1.5z"/><path class="aZ" d="m176.2 96.3c0.3 0.7 0.2 1 0 1.7q-0.2-0.2-0.4-0.4c-0.2 0.1-0.2 0.1-0.5 0.2 0.3-0.5 0.6-1 0.9-1.5z"/><path class="b0" d="m183 90.6c0.1 0.5 0.1 0.5 0.2 0.9-0.3 0.4-0.3 0.4-0.7 0.7q-0.2 0-0.4 0 0.1-0.4 0.2-0.9 0.2 0 0.4 0 0.1-0.3 0.3-0.7z"/><path class="b1" d="m172 111.7q0.1 0.4 0.2 0.7-0.4 0.4-0.9 0.9c0-0.9 0-0.9 0.3-1.3q0.2-0.1 0.4-0.3z"/><path class="b2" d="m173.5 100.5q0.2 0.3 0.3 0.7-0.6 0.5-1.2 1.1c0.2-0.8 0.3-1.2 0.9-1.8z"/><path class="b3" d="m138.8 38.8q0.3 0.1 0.7 0.2c-1.3 1.2-1.3 1.2-1.8 1.2 0.3-0.7 0.4-0.9 1.1-1.4z"/></svg>