<?xml version="1.0" encoding="UTF-8"?>
<svg version="1.1" xmlns="http://www.w3.org/2000/svg" width="860" height="717">
<path d="M0 0 C283.8 0 567.6 0 860 0 C860 236.61 860 473.22 860 717 C576.2 717 292.4 717 0 717 C0 480.39 0 243.78 0 0 Z " fill="#F6F6F6" transform="translate(0,0)"/>
<path d="M0 0 C0.61617187 0.53109375 1.23234375 1.0621875 1.8671875 1.609375 C4.72830571 3.47486599 6.67048465 3.33243051 10.0625 3.25 C11.10535156 3.23453125 12.14820313 3.2190625 13.22265625 3.203125 C16.08978295 3.04894652 18.88721698 2.80330471 21.73828125 2.5 C58.40864175 -0.93384665 99.26188327 1.27074288 133 17 C133.64195312 17.29100586 134.28390625 17.58201172 134.9453125 17.88183594 C143.43769209 21.7550496 151.10813397 26.03361084 158.30883789 32.02636719 C160.07858453 33.48759893 160.07858453 33.48759893 163 35 C166.05814552 34.57187753 166.05814552 34.57187753 169 33 C170.68802734 32.30583984 170.68802734 32.30583984 172.41015625 31.59765625 C174.21806641 30.83775391 174.21806641 30.83775391 176.0625 30.0625 C194.04044345 22.80959578 212.74569903 21.20091594 231.0625 28.1875 C242.28224926 33.09254423 251.38695028 41.77983226 258 52 C258 52.66 258 53.32 258 54 C259.485 53.505 259.485 53.505 261 53 C266.25765945 52.60319551 269.56102842 53.10501854 274 56 C278.0298816 59.97557053 280.13027694 63.54320057 280.25 69.25 C280.17519368 75.0007356 278.70993987 78.97916197 274.9375 83.4375 C273 85 273 85 271 85 C271.04640625 86.06476563 271.0928125 87.12953125 271.140625 88.2265625 C271.66051035 105.28394151 267.70875148 120.02428396 255.78076172 132.75244141 C250.18608659 138.45419166 244.16359688 143.35401162 237 147 C236.34 147 235.68 147 235 147 C238.71123107 159.32969761 242.91396546 171.46604966 247.18746948 183.6105957 C262.71850465 227.81285287 262.71850465 227.81285287 267 248 C267.66 248 268.32 248 269 248 C275.01008861 240.55215312 279.82798402 232.12611489 284.54882812 223.82641602 C288.09734623 217.63180468 291.48577513 212.38238599 298 209 C303.29042342 208.04772378 307.52576109 208.94938256 312 212 C317.90094707 219.49579764 317.53370955 226.74256525 317 236 C313.5147012 258.2290711 300.15236729 276.11339801 283 290 C278.4298441 293 278.4298441 293 276 293 C276.08564209 293.54301758 276.17128418 294.08603516 276.25952148 294.64550781 C276.65659018 297.17966937 277.04705173 299.71481029 277.4375 302.25 C277.57220703 303.10335938 277.70691406 303.95671875 277.84570312 304.8359375 C279.54190495 315.92330556 280.1570344 326.91121073 280.16796875 338.12109375 C280.17129715 339.34167984 280.17462555 340.56226593 280.17805481 341.81983948 C280.18308792 344.39055 280.18546426 346.96126698 280.18530273 349.53198242 C280.18747653 353.39578483 280.2056368 357.25929527 280.22460938 361.12304688 C280.25578076 374.83542589 279.86684096 388.32243943 278.24478149 401.94381714 C278.03155272 403.73495477 277.83949215 405.52858736 277.65112305 407.32250977 C270.87525764 471.77544873 245.10148649 530.00030628 195 572 C195.6290625 572.4846875 196.258125 572.969375 196.90625 573.46875 C215.98920567 588.41323336 215.98920567 588.41323336 217.33984375 598.55078125 C217.52205257 603.4704193 217.30057491 607.11003671 214 611 C209.64457421 614.93393297 205.92817732 615.15287847 200.15869141 615.11450195 C187.55480376 614.44596279 175.4081735 607.58649735 164.46704102 601.92675781 C163.44151123 601.40694336 162.41598145 600.88712891 161.359375 600.3515625 C160.44639648 599.87541504 159.53341797 599.39926758 158.59277344 598.90869141 C154.1572803 597.35418053 150.79496874 598.93833544 146.69140625 600.8203125 C145.87406006 601.18729248 145.05671387 601.55427246 144.21459961 601.93237305 C143.33940674 602.32593994 142.46421387 602.71950684 141.5625 603.125 C117.42713149 613.65264184 91.26562225 620.61221616 65 623 C64.08516846 623.08467529 63.17033691 623.16935059 62.2277832 623.2565918 C23.91861123 626.54023511 -18.05405815 624.14389727 -52.97680664 606.65649414 C-55.43187924 605.85986204 -56.61196622 606.08300997 -59 607 C-61.20582546 608.80984029 -61.20582546 608.80984029 -63.4375 611.0625 C-73.35046686 620.20397311 -85.51460239 627.83303214 -99.3125 628.5 C-105.36151686 628.21842458 -108.98375455 625.91012727 -113.375 621.75 C-115.5192213 618.12131779 -116.50677858 615.16843229 -116 611 C-112.98426807 603.02534486 -107.38019001 596.09016622 -102.3671875 589.26171875 C-100.14739989 586.23465327 -98.06013699 583.13767408 -96 580 C-96.64066406 579.43152344 -97.28132812 578.86304688 -97.94140625 578.27734375 C-100.64175412 575.86675005 -103.32497045 573.43864991 -106 571 C-106.61746094 570.43925781 -107.23492187 569.87851562 -107.87109375 569.30078125 C-123.26444745 554.64571789 -140.53571978 529.88946377 -141.171875 507.98828125 C-141.21334124 504.32215245 -141.13350818 500.66405792 -141 497 C-142.18142578 497.32484375 -142.18142578 497.32484375 -143.38671875 497.65625 C-153.58773939 500.26384818 -164.2862215 502.38291064 -174.05859375 497.34375 C-178.29030051 494.41476182 -181.37169124 490.88492628 -183 486 C-183.53161515 480.06022302 -183.55745864 475.02951049 -180 470 C-171.7851486 463.89152075 -159.28030935 465.11297047 -149.54736328 466.29882812 C-144.99131989 467.02024101 -140.49283333 467.95890207 -136 469 C-135.86722656 467.70449219 -135.73445313 466.40898438 -135.59765625 465.07421875 C-135.24549309 461.8861173 -134.8086051 458.73955743 -134.24609375 455.58203125 C-130.63266881 434.77467112 -129.22921264 412.26344021 -136 392 C-136.23074219 391.26297852 -136.46148437 390.52595703 -136.69921875 389.76660156 C-143.34852405 368.57853746 -152.99368112 348.63861512 -163.125 328.9375 C-163.49823395 328.21118378 -163.8714679 327.48486755 -164.25601196 326.73654175 C-167.87944755 319.70546152 -171.56007694 312.72241977 -175.49349976 305.85916138 C-180.02819968 297.94593327 -183.93153562 289.96831643 -187.5 281.5625 C-187.77314026 280.92380981 -188.04628052 280.28511963 -188.32769775 279.6270752 C-209.70537143 229.57437034 -225.69432195 172.02526871 -205 119 C-204.37931641 117.38544922 -204.37931641 117.38544922 -203.74609375 115.73828125 C-201.27059039 109.55340294 -198.3992822 103.72815213 -195 98 C-196.62808594 98.41572266 -196.62808594 98.41572266 -198.2890625 98.83984375 C-199.73434281 99.2058563 -201.17965712 99.5717346 -202.625 99.9375 C-203.69427734 100.21110352 -203.69427734 100.21110352 -204.78515625 100.49023438 C-211.54034972 102.1945263 -218.01169895 103.21398072 -225 103.3125 C-226.02867187 103.35600586 -226.02867187 103.35600586 -227.078125 103.40039062 C-232.2131383 103.46408831 -235.06128681 102.23622928 -239 99 C-240.81923334 95.36153331 -240.07616671 91.75821949 -239 88 C-231.02451534 73.672539 -218.3890888 65.34772698 -203.00390625 60.74609375 C-192.48235068 57.84771752 -181.66203356 56.03181057 -170.7421875 55.90625 C-158.23977534 56.01833016 -158.23977534 56.01833016 -147.609375 50.15625 C-120.78054802 27.98632112 -80.80432441 21.46868443 -48 13 C-48.62648438 12.52949219 -49.25296875 12.05898438 -49.8984375 11.57421875 C-51.12433594 10.64029297 -51.12433594 10.64029297 -52.375 9.6875 C-53.18710937 9.07261719 -53.99921875 8.45773438 -54.8359375 7.82421875 C-57 6 -57 6 -59 3 C-58.9375 0.5 -58.9375 0.5 -58 -2 C-45.08579233 -13.6227869 -13.40033514 -7.48437609 0 0 Z " fill="#E32012" transform="translate(491,49)"/>
<path d="M0 0 C0.77923828 0.00451172 1.55847656 0.00902344 2.36132812 0.01367188 C4.26175268 0.02533092 6.16213706 0.04326123 8.0625 0.0625 C8.59617187 1.05507813 9.12984375 2.04765625 9.6796875 3.0703125 C28.78781723 38.1272337 58.22727286 65.39411753 97.0625 77.0625 C97.68640625 77.25038086 98.3103125 77.43826172 98.953125 77.63183594 C133.26757659 87.80607083 169.89909992 82.57949247 201.25 66 C207.15072369 62.76057182 212.70705232 59.13768915 218.0625 55.0625 C219.27292969 54.15757812 219.27292969 54.15757812 220.5078125 53.234375 C229.52439746 46.28114647 237.40421899 38.49638741 244.1875 29.375 C253.34310048 17.12522841 265.03681068 8.60115872 280.0625 5.0625 C280.98591187 4.80774902 280.98591187 4.80774902 281.92797852 4.54785156 C293.32868454 1.9555373 307.01889144 3.12511814 317.0625 9.0625 C330.37741909 18.61614251 337.06529978 31.53000052 339.73828125 47.4375 C339.96064453 48.860625 339.96064453 48.860625 340.1875 50.3125 C340.34347656 51.21484375 340.49945312 52.1171875 340.66015625 53.046875 C343.87588492 72.81961985 344.47198577 92.75713605 344.4375 112.75 C344.43668427 114.54408798 344.43668427 114.54408798 344.43585205 116.37442017 C344.28957637 186.73360904 327.77458667 257.61386572 277.0625 309.0625 C272.96601782 313.05958553 268.79480468 316.98858916 264.50830078 320.78173828 C263.30405978 321.84851442 262.13029457 322.94957071 260.96484375 324.05859375 C259.0625 325.0625 259.0625 325.0625 256.77734375 324.484375 C255.88144531 324.01515625 254.98554687 323.5459375 254.0625 323.0625 C252.90878906 322.49015625 251.75507812 321.9178125 250.56640625 321.328125 C249.25231501 320.65681573 247.93852646 319.98491369 246.625 319.3125 C234.32500912 312.31133868 234.32500912 312.31133868 221.0625 309.0625 C221.0625 310.0525 221.0625 311.0425 221.0625 312.0625 C221.5793335 312.28800537 222.09616699 312.51351074 222.62866211 312.74584961 C268.33524827 332.77559903 268.33524827 332.77559903 280.0625 350 C281.36696478 353.99492338 281.8704508 357.90392972 281.0625 362.0625 C279.90234375 363.8046875 279.90234375 363.8046875 278.0625 365.0625 C254.24139509 368.96817599 226.9873943 350.6790962 208.0625 338.0625 C207.0725 338.0625 206.0825 338.0625 205.0625 338.0625 C205.0625 339.0525 205.0625 340.0425 205.0625 341.0625 C207.21025034 342.60545801 209.28084754 343.9384056 211.5625 345.25 C212.49255859 345.80204102 212.49255859 345.80204102 213.44140625 346.36523438 C214.9759788 347.2741735 216.5185256 348.1696247 218.0625 349.0625 C214.26048143 352.39183518 209.82810018 353.98437121 205.1875 355.8125 C204.30908447 356.15958008 203.43066895 356.50666016 202.52563477 356.86425781 C174.41097734 367.78131761 145.2530317 374.04112878 115.0625 375.0625 C114.29728027 375.09504883 113.53206055 375.12759766 112.74365234 375.16113281 C73.28770746 376.67896399 32.84428839 369.10331217 -0.9375 348.0625 C-2.03191406 347.3816333 -2.03191406 347.3816333 -3.1484375 346.68701172 C-31.8356478 328.62900029 -58.20850556 302.887366 -66.3203125 268.7890625 C-69.02177256 252.47771502 -64.68515214 236.41302462 -61.46655273 220.4777832 C-56.15331671 194.10969126 -54.91514325 166.675158 -63.9375 141.0625 C-64.32373535 139.94842773 -64.7099707 138.83435547 -65.10791016 137.68652344 C-73.85054856 112.82900233 -84.7616956 89.12235348 -97.79931641 66.23706055 C-99.02260783 63.89989694 -99.99684242 61.52544518 -100.9375 59.0625 C-100.256875 58.4540625 -99.57625 57.845625 -98.875 57.21875 C-93.50069304 52.35900434 -88.27983897 47.4270365 -83.234375 42.22485352 C-61.57148086 19.98360701 -32.20309847 -0.35873203 0 0 Z " fill="#E32113" transform="translate(421.9375,292.9375)"/>
<path d="M0 0 C0.61617187 0.53109375 1.23234375 1.0621875 1.8671875 1.609375 C4.72830571 3.47486599 6.67048465 3.33243051 10.0625 3.25 C11.10535156 3.23453125 12.14820313 3.2190625 13.22265625 3.203125 C16.08978295 3.04894652 18.88721698 2.80330471 21.73828125 2.5 C58.40864175 -0.93384665 99.26188327 1.27074288 133 17 C133.64195312 17.29100586 134.28390625 17.58201172 134.9453125 17.88183594 C143.43769209 21.7550496 151.10813397 26.03361084 158.30883789 32.02636719 C160.07858453 33.48759893 160.07858453 33.48759893 163 35 C166.05814552 34.57187753 166.05814552 34.57187753 169 33 C170.68802734 32.30583984 170.68802734 32.30583984 172.41015625 31.59765625 C174.21806641 30.83775391 174.21806641 30.83775391 176.0625 30.0625 C194.04044345 22.80959578 212.74569903 21.20091594 231.0625 28.1875 C242.28224926 33.09254423 251.38695028 41.77983226 258 52 C258 52.66 258 53.32 258 54 C259.485 53.505 259.485 53.505 261 53 C266.25765945 52.60319551 269.56102842 53.10501854 274 56 C278.0298816 59.97557053 280.13027694 63.54320057 280.25 69.25 C280.17519368 75.0007356 278.70993987 78.97916197 274.9375 83.4375 C273 85 273 85 271 85 C271.04640625 86.06476563 271.0928125 87.12953125 271.140625 88.2265625 C271.66051035 105.28394151 267.70875148 120.02428396 255.78076172 132.75244141 C250.18608659 138.45419166 244.16359688 143.35401162 237 147 C236.34 147 235.68 147 235 147 C238.71123107 159.32969761 242.91396546 171.46604966 247.18746948 183.6105957 C262.71850465 227.81285287 262.71850465 227.81285287 267 248 C267.66 248 268.32 248 269 248 C275.01008861 240.55215312 279.82798402 232.12611489 284.54882812 223.82641602 C288.09734623 217.63180468 291.48577513 212.38238599 298 209 C303.29042342 208.04772378 307.52576109 208.94938256 312 212 C317.90094707 219.49579764 317.53370955 226.74256525 317 236 C313.5147012 258.2290711 300.15236729 276.11339801 283 290 C278.4298441 293 278.4298441 293 276 293 C276.08564209 293.54301758 276.17128418 294.08603516 276.25952148 294.64550781 C276.65659018 297.17966937 277.04705173 299.71481029 277.4375 302.25 C277.57220703 303.10335938 277.70691406 303.95671875 277.84570312 304.8359375 C279.54190495 315.92330556 280.1570344 326.91121073 280.16796875 338.12109375 C280.17129715 339.34167984 280.17462555 340.56226593 280.17805481 341.81983948 C280.18308792 344.39055 280.18546426 346.96126698 280.18530273 349.53198242 C280.18747653 353.39578483 280.2056368 357.25929527 280.22460938 361.12304688 C280.25578076 374.83542589 279.86684096 388.32243943 278.24478149 401.94381714 C278.03155272 403.73495477 277.83949215 405.52858736 277.65112305 407.32250977 C270.87525764 471.77544873 245.10148649 530.00030628 195 572 C195.6290625 572.4846875 196.258125 572.969375 196.90625 573.46875 C215.98920567 588.41323336 215.98920567 588.41323336 217.33984375 598.55078125 C217.52205257 603.4704193 217.30057491 607.11003671 214 611 C209.64457421 614.93393297 205.92817732 615.15287847 200.15869141 615.11450195 C187.55480376 614.44596279 175.4081735 607.58649735 164.46704102 601.92675781 C163.44151123 601.40694336 162.41598145 600.88712891 161.359375 600.3515625 C160.44639648 599.87541504 159.53341797 599.39926758 158.59277344 598.90869141 C154.1572803 597.35418053 150.79496874 598.93833544 146.69140625 600.8203125 C145.87406006 601.18729248 145.05671387 601.55427246 144.21459961 601.93237305 C143.33940674 602.32593994 142.46421387 602.71950684 141.5625 603.125 C117.42713149 613.65264184 91.26562225 620.61221616 65 623 C64.08516846 623.08467529 63.17033691 623.16935059 62.2277832 623.2565918 C23.91861123 626.54023511 -18.05405815 624.14389727 -52.97680664 606.65649414 C-55.43187924 605.85986204 -56.61196622 606.08300997 -59 607 C-61.20582546 608.80984029 -61.20582546 608.80984029 -63.4375 611.0625 C-73.35046686 620.20397311 -85.51460239 627.83303214 -99.3125 628.5 C-105.36151686 628.21842458 -108.98375455 625.91012727 -113.375 621.75 C-115.5192213 618.12131779 -116.50677858 615.16843229 -116 611 C-112.98426807 603.02534486 -107.38019001 596.09016622 -102.3671875 589.26171875 C-100.14739989 586.23465327 -98.06013699 583.13767408 -96 580 C-96.64066406 579.43152344 -97.28132812 578.86304688 -97.94140625 578.27734375 C-100.64175412 575.86675005 -103.32497045 573.43864991 -106 571 C-106.61746094 570.43925781 -107.23492187 569.87851562 -107.87109375 569.30078125 C-123.26444745 554.64571789 -140.53571978 529.88946377 -141.171875 507.98828125 C-141.21334124 504.32215245 -141.13350818 500.66405792 -141 497 C-142.18142578 497.32484375 -142.18142578 497.32484375 -143.38671875 497.65625 C-153.58773939 500.26384818 -164.2862215 502.38291064 -174.05859375 497.34375 C-178.29030051 494.41476182 -181.37169124 490.88492628 -183 486 C-183.53161515 480.06022302 -183.55745864 475.02951049 -180 470 C-171.7851486 463.89152075 -159.28030935 465.11297047 -149.54736328 466.29882812 C-144.99131989 467.02024101 -140.49283333 467.95890207 -136 469 C-135.86722656 467.70449219 -135.73445313 466.40898438 -135.59765625 465.07421875 C-135.24549309 461.8861173 -134.8086051 458.73955743 -134.24609375 455.58203125 C-130.63266881 434.77467112 -129.22921264 412.26344021 -136 392 C-136.23074219 391.26297852 -136.46148437 390.52595703 -136.69921875 389.76660156 C-143.34852405 368.57853746 -152.99368112 348.63861512 -163.125 328.9375 C-163.49823395 328.21118378 -163.8714679 327.48486755 -164.25601196 326.73654175 C-167.87944755 319.70546152 -171.56007694 312.72241977 -175.49349976 305.85916138 C-180.02819968 297.94593327 -183.93153562 289.96831643 -187.5 281.5625 C-187.77314026 280.92380981 -188.04628052 280.28511963 -188.32769775 279.6270752 C-209.70537143 229.57437034 -225.69432195 172.02526871 -205 119 C-204.37931641 117.38544922 -204.37931641 117.38544922 -203.74609375 115.73828125 C-201.27059039 109.55340294 -198.3992822 103.72815213 -195 98 C-196.62808594 98.41572266 -196.62808594 98.41572266 -198.2890625 98.83984375 C-199.73434281 99.2058563 -201.17965712 99.5717346 -202.625 99.9375 C-203.69427734 100.21110352 -203.69427734 100.21110352 -204.78515625 100.49023438 C-211.54034972 102.1945263 -218.01169895 103.21398072 -225 103.3125 C-226.02867187 103.35600586 -226.02867187 103.35600586 -227.078125 103.40039062 C-232.2131383 103.46408831 -235.06128681 102.23622928 -239 99 C-240.81923334 95.36153331 -240.07616671 91.75821949 -239 88 C-231.02451534 73.672539 -218.3890888 65.34772698 -203.00390625 60.74609375 C-192.48235068 57.84771752 -181.66203356 56.03181057 -170.7421875 55.90625 C-158.23977534 56.01833016 -158.23977534 56.01833016 -147.609375 50.15625 C-120.78054802 27.98632112 -80.80432441 21.46868443 -48 13 C-48.62648438 12.52949219 -49.25296875 12.05898438 -49.8984375 11.57421875 C-51.12433594 10.64029297 -51.12433594 10.64029297 -52.375 9.6875 C-53.18710937 9.07261719 -53.99921875 8.45773438 -54.8359375 7.82421875 C-57 6 -57 6 -59 3 C-58.9375 0.5 -58.9375 0.5 -58 -2 C-45.08579233 -13.6227869 -13.40033514 -7.48437609 0 0 Z M1 10 C0.01547852 10.12858398 -0.96904297 10.25716797 -1.98339844 10.38964844 C-16.62602635 12.33836255 -31.05745644 15.37826922 -45.5 18.4375 C-46.8354335 18.71814301 -46.8354335 18.71814301 -48.19784546 19.00445557 C-58.70403667 21.22326578 -69.02551811 23.7424976 -79.296875 26.87719727 C-82.35918871 27.80570338 -85.42097374 28.67267769 -88.515625 29.484375 C-129.22660246 40.27433023 -167.71414836 63.43397589 -190 100 C-212.63045441 138.98858935 -212.88334704 182.48359664 -201.96386719 225.32470703 C-196.47266244 245.95755688 -188.85829992 265.60051617 -180 285 C-179.66242676 285.74282227 -179.32485352 286.48564453 -178.97705078 287.25097656 C-177.34116881 290.84499823 -175.68601094 294.42922074 -174 298 C-169.13337079 297.56590802 -167.16354274 295.58956943 -163.859375 292.109375 C-162.86986323 291.08506004 -161.88010752 290.06098069 -160.89013672 289.03710938 C-160.37771423 288.49981201 -159.86529175 287.96251465 -159.33734131 287.40893555 C-145.72678969 273.18450393 -131.59858712 261.04898974 -114 252 C-112.83339844 251.38511719 -111.66679687 250.77023437 -110.46484375 250.13671875 C-95.93380773 242.75090747 -79.93128586 238.74923784 -63.62231445 238.93408203 C-62.42758011 238.94109131 -62.42758011 238.94109131 -61.20870972 238.94824219 C-59.49058439 238.9586832 -57.77247127 238.97132481 -56.0543766 238.98596573 C-53.31336376 239.00821774 -50.57242254 239.02215161 -47.8313446 239.03366089 C-40.04102881 239.06700746 -32.25082853 239.10815828 -24.46069336 239.17138672 C-19.67926023 239.20959665 -14.89794841 239.23222929 -10.11638451 239.24569321 C-8.31670957 239.25361546 -6.51704821 239.2670278 -4.71746254 239.28662491 C5.01290061 239.39061737 14.49237566 239.02227406 24.13989258 237.67529297 C24.97806613 237.55911684 25.81623968 237.44294071 26.67981243 237.32324409 C47.99353121 234.04843167 68.45786645 223.60023808 85 210 C85.88429688 209.29359375 86.76859375 208.5871875 87.6796875 207.859375 C91.59391794 204.70529946 95.44884948 201.49024656 99.23828125 198.1875 C108.73246991 189.92134776 118.51510655 181.98992897 129 175 C129.43795461 172.25157286 129.43795461 172.25157286 129.4375 169.0625 C129.92104736 160.31996375 132.20769676 151.78526951 138 145 C142.05655197 141.92535181 146.00044986 140.71120361 151 140 C150.96519531 139.13117188 150.93039062 138.26234375 150.89453125 137.3671875 C150.60224874 124.92430336 150.60224874 124.92430336 155.3359375 119.45703125 C162.2997192 112.57817372 172.48733913 110.41661288 182 110 C182.72703125 109.9484375 183.4540625 109.896875 184.203125 109.84375 C193.21643384 109.46556921 202.00118215 112.22368309 209 118 C212.74802251 121.84877581 213.53468164 124.48337057 213.75 129.8125 C213.80671875 130.97394531 213.8634375 132.13539063 213.921875 133.33203125 C213.94765625 134.21246094 213.9734375 135.09289062 214 136 C215.051875 136.268125 216.10375 136.53625 217.1875 136.8125 C220.57519246 137.8676829 223.07089567 139.04726378 226 141 C224.62849873 133.51129137 222.10842361 126.99614202 219 120.0625 C218.51015625 118.96365479 218.0203125 117.86480957 217.515625 116.73266602 C206.79404446 93.0356933 192.76813714 72.0160665 175 53 C174.22914063 52.175 173.45828125 51.35 172.6640625 50.5 C149.6790484 26.69674915 118.86773031 14.05496583 86.5 9.25 C85.78155914 9.14260498 85.06311829 9.03520996 84.32290649 8.92456055 C56.66086253 4.90757529 28.61421443 6.2052348 1 10 Z M-160.5703125 294.60644531 C-161.21742188 295.26225586 -161.86453125 295.91806641 -162.53125 296.59375 C-163.10423828 297.17833984 -163.67722656 297.76292969 -164.26757812 298.36523438 C-166.0794605 300.07498133 -167.98142769 301.54300202 -170 303 C-168.64145929 306.58864373 -167.03979346 309.88097465 -165.1640625 313.2265625 C-151.86797015 337.23212889 -140.82344691 361.98785636 -132 388 C-131.54874756 389.29067383 -131.54874756 389.29067383 -131.08837891 390.60742188 C-124.25751387 410.69676377 -125.07409078 435.33589325 -129 456 C-129.18256348 456.98194336 -129.36512695 457.96388672 -129.55322266 458.97558594 C-130.59717137 464.55805049 -131.67279911 470.13312725 -132.78125 475.703125 C-138.10023602 502.83331219 -135.12725522 523.62888693 -119.75 546.625 C-107.52581391 563.56692515 -93.72440576 576.97672306 -76 588 C-75.20964355 588.49709473 -74.41928711 588.99418945 -73.60498047 589.50634766 C-49.13104389 604.83878667 -23.1564155 614.06133011 5.5625 617.25 C6.66593246 617.37607635 6.66593246 617.37607635 7.79165649 617.50469971 C35.07665112 620.58687242 61.99235494 618.75166111 89 614 C89.70801758 613.87963379 90.41603516 613.75926758 91.14550781 613.63525391 C101.67391676 611.7850009 111.71534292 608.58235285 121.8125 605.125 C123.01640381 604.71435303 124.22030762 604.30370605 125.46069336 603.88061523 C133.56050571 601.04065222 141.27296547 597.73118023 149 594 C145.32777711 591.02218317 141.68405821 588.56310121 137.57421875 586.24609375 C136.79498047 585.62927734 136.79498047 585.62927734 136 585 C136 584.01 136 583.02 136 582 C140.24795408 582.5694721 142.93903611 584.02974153 146.5 586.375 C162.91962475 596.82671802 182.66791538 608.97472987 202.625 609.25 C203.75164062 609.27578125 204.87828125 609.3015625 206.0390625 609.328125 C208.96038665 609.23551764 208.96038665 609.23551764 210.8671875 607.74609375 C213.05759515 604.36984472 212.65240628 600.85170632 212 597 C203.6523471 576.36274699 175.6495769 566.37950038 157 558 C155.33762433 557.32270438 153.67235945 556.65225463 152 556 C152 555.01 152 554.02 152 553 C157.78168758 553.57627932 162.53481887 555.79153292 167.75 558.1875 C168.63945313 558.58880127 169.52890625 558.99010254 170.4453125 559.40356445 C175.96791361 561.93560013 181.16114694 564.66794828 186.125 568.19921875 C187.98840418 569.2363028 187.98840418 569.2363028 189.94140625 568.3828125 C231.22851593 540.64915628 256.89328897 489.40653205 266.58056641 441.97509766 C267.00530604 439.97501406 267.48627555 437.99569554 267.98046875 436.01171875 C278.70148073 391.68929834 288.15388501 312.07002051 264 271 C263.33677734 269.87078125 263.33677734 269.87078125 262.66015625 268.71875 C257.01294958 259.73115317 250.85932233 254.06868479 241 250 C239.66195312 249.44699219 239.66195312 249.44699219 238.296875 248.8828125 C233.92227002 247.71141354 229.82260506 247.65793939 225.3125 247.6875 C224.41982422 247.69313965 223.52714844 247.6987793 222.60742188 247.70458984 C206.643102 247.99817985 192.15077666 254.65749278 180.94921875 266.09375 C177.5124157 269.88424346 174.33245625 273.84152969 171.1875 277.875 C151.01254016 303.18184283 117.89113659 321.86779006 85.69238281 325.77734375 C79.74307813 326.26934283 73.77894235 326.29594713 67.8125 326.3125 C66.5536499 326.31805908 65.2947998 326.32361816 63.99780273 326.3293457 C26.42523617 326.04148045 -7.66726655 309.09794227 -34 283 C-35.18335938 281.83597656 -35.18335938 281.83597656 -36.390625 280.6484375 C-46.45290493 270.1156193 -54.47881784 256.98516097 -61 244 C-102.75098542 242.63525835 -132.6224509 266.17081443 -160.5703125 294.60644531 Z " fill="#0B0707" transform="translate(491,49)"/>
<path d="M0 0 C0.66 0 1.32 0 2 0 C11.13455688 22.32219528 18.72891165 45.23920602 24.42578125 68.67529297 C24.94385597 70.7727026 25.49246591 72.85762704 26.0625 74.94140625 C26.495625 76.54822266 26.495625 76.54822266 26.9375 78.1875 C27.29134766 79.47720703 27.29134766 79.47720703 27.65234375 80.79296875 C28.02903814 83.18434322 27.7597635 84.7207095 27 87 C26.319375 85.9790625 26.319375 85.9790625 25.625 84.9375 C17.66289779 76.02752848 6.69190721 70.31946274 -5.23046875 69.5546875 C-24.66965734 68.89712865 -41.32090403 73.73638829 -56 87 C-60.47151647 91.54704884 -64.54604956 96.34134929 -68.375 101.4375 C-88.52906044 127.72136684 -121.68459757 143.38593024 -154 148 C-159.00932488 148.42716694 -163.97399041 148.52533206 -169 148.5 C-169.66509583 148.49823761 -170.33019165 148.49647522 -171.01544189 148.49465942 C-190.1456668 148.3827118 -207.78270213 144.32579641 -225 136 C-225.64372559 135.69191406 -226.28745117 135.38382813 -226.95068359 135.06640625 C-242.13984957 127.68060247 -255.03251855 117.86077551 -267 106 C-267.78890625 105.22398437 -268.5778125 104.44796875 -269.390625 103.6484375 C-276.14300963 96.58029388 -292 79.32119981 -292 69 C-291.21089737 69.00444122 -290.42179474 69.00888245 -289.60877991 69.01345825 C-282.09413312 69.05388915 -274.57954065 69.08416158 -267.06481266 69.10362434 C-263.20339805 69.11396736 -259.34207489 69.1279481 -255.48071289 69.15087891 C-232.15311681 69.46797066 -232.15311681 69.46797066 -209 67 C-207.70219604 66.78077881 -207.70219604 66.78077881 -206.37817383 66.55712891 C-177.94562656 61.2460673 -155.01195732 45.73594228 -133.5859375 27.09375 C-129.65389371 23.6826086 -125.65222267 20.36044599 -121.625 17.0625 C-120.98304688 16.53084229 -120.34109375 15.99918457 -119.6796875 15.45141602 C-115.33410298 11.90884434 -110.81886078 8.86353062 -106 6 C-105.67128906 6.65226563 -105.34257813 7.30453125 -105.00390625 7.9765625 C-100.29910493 16.6211568 -94.26857234 21.3735914 -84.94140625 24.4765625 C-81.62786732 25.36995126 -78.4115117 25.81078075 -75 26 C-73.36611328 26.09667969 -73.36611328 26.09667969 -71.69921875 26.1953125 C-64.8966086 26.41451583 -59.71262166 26.14517864 -53.671875 22.875 C-52 22 -52 22 -50 22 C-48.20769739 27.84613726 -47.14526836 33.64476319 -46.23242188 39.68359375 C-45.31208452 45.30731259 -44.15508334 50.84491666 -40 55 C-32.41988381 56.0293985 -25.13621119 54.54112317 -18 52 C-16.5387973 50.76766415 -16.5387973 50.76766415 -16.88647461 47.03100586 C-16.8866338 45.25894393 -16.89233215 43.4868774 -16.90234375 41.71484375 C-16.9037587 40.78402481 -16.90517365 39.85320587 -16.90663147 38.8941803 C-16.91224828 35.90858809 -16.9248036 32.92306971 -16.9375 29.9375 C-16.94251284 27.91862087 -16.94707612 25.89974057 -16.95117188 23.88085938 C-16.96222317 18.92054428 -16.97949905 13.96028468 -17 9 C-12.38 8.67 -7.76 8.34 -3 8 C-2.34 6.02 -1.68 4.04 -1 2 C-0.67 1.34 -0.34 0.68 0 0 Z " fill="#58D9FB" transform="translate(727,223)"/>
<path d="M0 0 C0.72316406 0.58007812 1.44632813 1.16015625 2.19140625 1.7578125 C2.86300781 2.25539063 3.53460937 2.75296875 4.2265625 3.265625 C20.10150065 15.82670926 27.95856522 36.38012464 31.19140625 55.7578125 C33.01321579 74.22957759 25.53589805 95.60845429 14.25390625 110.0703125 C12.91618378 111.64691398 11.56306539 113.21064579 10.19140625 114.7578125 C9.6603125 115.38300781 9.12921875 116.00820312 8.58203125 116.65234375 C-2.76168576 129.09112255 -19.3952124 134.98597472 -35.85107422 135.8671875 C-57.89644421 136.67157956 -78.08591372 131.76891064 -95.171875 117.2421875 C-110.93382294 102.39092988 -121.28796555 80.56679762 -122.21142578 58.81591797 C-122.51960334 40.52058835 -113.64817443 25.14378739 -101.80859375 11.7578125 C-101.01582031 10.84128906 -101.01582031 10.84128906 -100.20703125 9.90625 C-91.34923751 0.35030503 -79.93271808 -5.86909294 -67.80859375 -10.2421875 C-66.86886719 -10.5825 -65.92914062 -10.9228125 -64.9609375 -11.2734375 C-43.90946243 -17.66882233 -17.45679131 -13.2867176 0 0 Z " fill="#FDFDFD" transform="translate(582.80859375,114.2421875)"/>
<path d="M0 0 C14.96783397 -0.50453373 27.67476956 3.36146487 39.09375 13.109375 C43.62597326 17.40216005 48.51417196 22.32515362 50.8515625 28.1953125 C49.7265625 31.6328125 49.7265625 31.6328125 48.7421875 33.31640625 C46.72321711 37.57572535 47.2560813 42.76722635 48.35546875 47.25 C49.93400148 51.45340715 52.09342336 53.83555071 55.8515625 56.1953125 C57.84204025 56.88989351 59.84127564 57.56033913 61.8515625 58.1953125 C62.82070437 73.37853518 60.03204537 86.29763975 49.8515625 98.1953125 C44.47451195 104.24203235 38.77939093 109.01896203 31.8515625 113.1953125 C28.85743158 112.171678 27.9614718 111.39822199 26.4296875 108.5703125 C25.99140625 107.4565625 25.553125 106.3428125 25.1015625 105.1953125 C24.58205194 103.91743019 24.06115035 102.64011275 23.5390625 101.36328125 C23.26578125 100.68442871 22.9925 100.00557617 22.7109375 99.30615234 C11.86074226 72.65536029 -1.87137832 47.70786258 -21.1484375 26.1953125 C-22.21394252 24.90612358 -23.27699191 23.61489478 -24.3359375 22.3203125 C-27.09370718 19.08678723 -30.25043722 16.39040988 -33.51171875 13.67578125 C-35.1484375 12.1953125 -35.1484375 12.1953125 -36.1484375 10.1953125 C-24.1309628 4.8445925 -13.22991873 0.82071456 0 0 Z " fill="#FDFDFD" transform="translate(695.1484375,77.8046875)"/>
<path d="M0 0 C0.81082031 -0.00386719 1.62164063 -0.00773437 2.45703125 -0.01171875 C3.23691406 -0.01042969 4.01679687 -0.00914062 4.8203125 -0.0078125 C5.88016357 -0.00612061 5.88016357 -0.00612061 6.96142578 -0.00439453 C8.875 0.125 8.875 0.125 11.875 1.125 C10.45198944 5.25922015 8.46005809 8.20757081 5.75 11.625 C4.84815722 12.77411131 3.9471782 13.92390082 3.046875 15.07421875 C2.54607422 15.71149902 2.04527344 16.3487793 1.52929688 17.00537109 C-3.76629049 23.79053779 -8.94132879 30.67054986 -14.14746094 37.52441406 C-16.03463365 40.00616267 -17.92726015 42.48367301 -19.8203125 44.9609375 C-20.92221468 46.41120031 -22.02379707 47.86170617 -23.125 49.3125 C-23.63530762 49.97741455 -24.14561523 50.6423291 -24.67138672 51.32739258 C-27.25897773 54.38639827 -27.25897773 54.38639827 -28.125 58.125 C-26.56652344 57.72667969 -26.56652344 57.72667969 -24.9765625 57.3203125 C-17.39229283 55.3951308 -9.82647705 53.53200061 -2.125 52.125 C-3.770289 57.04819701 -6.56727568 61.00448267 -9.47265625 65.25 C-10.00338242 66.03334717 -10.53410858 66.81669434 -11.08091736 67.6237793 C-12.77869274 70.12721985 -14.48304786 72.62610188 -16.1875 75.125 C-17.30706159 76.77445393 -18.42620628 78.42419092 -19.54492188 80.07421875 C-28.36597044 93.06822883 -28.36597044 93.06822883 -31.90576172 98.0703125 C-32.32570908 98.66610107 -32.74565643 99.26188965 -33.17832947 99.87573242 C-34.28476736 101.44042009 -35.39878269 102.99974202 -36.51342773 104.55859375 C-37.95257695 106.8504187 -38.70043552 108.48152954 -39.125 111.125 C-38.44397217 110.87741943 -37.76294434 110.62983887 -37.0612793 110.37475586 C-33.98168685 109.2611849 -30.89724764 108.16170514 -27.8125 107.0625 C-26.74064453 106.67255859 -25.66878906 106.28261719 -24.56445312 105.88085938 C-23.53642578 105.51669922 -22.50839844 105.15253906 -21.44921875 104.77734375 C-20.50135498 104.43695068 -19.55349121 104.09655762 -18.5769043 103.74584961 C-16.125 103.125 -16.125 103.125 -13.125 104.125 C-13.55167969 104.79660156 -13.97835937 105.46820313 -14.41796875 106.16015625 C-21.36664649 117.26371346 -27.72804544 128.69747334 -34.125 140.125 C-46.55950655 134.09173646 -53.25243954 119.57393385 -57.80859375 107.16015625 C-61.41246342 96.59492088 -63.73685649 85.28412601 -64.125 74.125 C-64.1765625 73.02929688 -64.228125 71.93359375 -64.28125 70.8046875 C-64.78095297 51.85761648 -57.9317422 35.02322592 -45.125 21.125 C-44.0421875 19.93970703 -44.0421875 19.93970703 -42.9375 18.73046875 C-31.154279 6.39490926 -17.07861179 -0.08224051 0 0 Z " fill="#FDFCFC" transform="translate(720.125,348.875)"/>
<path d="M0 0 C8.42059254 1.16346702 13.74180934 8.61786979 19.23828125 14.59375 C24.17781511 21.3404304 24.45491338 27.31547001 24.43359375 35.44921875 C24.44042175 36.56352264 24.44724976 37.67782654 24.45428467 38.82589722 C24.46790087 42.44670894 24.45523916 46.0667141 24.4375 49.6875 C24.43545563 50.91886688 24.43341125 52.15023376 24.43130493 53.41891479 C24.38942384 68.87655831 23.99881344 84.20304444 22.1875 99.5625 C22.10490936 100.2669223 22.02231873 100.9713446 21.93722534 101.69711304 C18.51702026 129.90263534 18.51702026 129.90263534 11.6875 136.09765625 C5.38874433 140.70270582 -0.52945917 143.76640925 -8 146 C-8.99 146.33 -9.98 146.66 -11 147 C-23.65849853 147.89054764 -34.17236572 146.56791393 -46 142 C-46 138.0876019 -44.75823283 137.01837007 -42.375 133.9375 C-41.98111084 133.42437256 -41.58722168 132.91124512 -41.18139648 132.38256836 C-39.79541983 130.58219231 -38.39802474 128.79103462 -37 127 C-35.87860865 125.55491839 -34.75752967 124.10959434 -33.63671875 122.6640625 C-31.23694283 119.57248911 -28.83280754 116.48436864 -26.42578125 113.3984375 C-22.71296026 108.63609568 -19.02814905 103.85284078 -15.3515625 99.0625 C-13.76606157 96.99766158 -12.17744908 94.93520916 -10.5859375 92.875 C-3.97257805 84.31313187 2.52492835 75.66680552 9 67 C5.83197588 65.96998006 3.94378866 66.05091322 0.77734375 67.03125 C-0.40118164 67.38123047 -0.40118164 67.38123047 -1.60351562 67.73828125 C-2.41498047 67.98964844 -3.22644531 68.24101562 -4.0625 68.5 C-5.67598473 68.99743798 -7.29180865 69.48736805 -8.91015625 69.96875 C-9.62308838 70.18982422 -10.33602051 70.41089844 -11.07055664 70.63867188 C-13 71 -13 71 -16 70 C-15.319375 69.05125 -14.63875 68.1025 -13.9375 67.125 C-5.63700648 55.49091648 2.30844848 43.63411753 10.19824219 31.71875 C12.79060967 27.80701501 15.39439506 23.90292577 18 20 C17.36497559 20.12117188 16.72995117 20.24234375 16.07568359 20.3671875 C13.17649283 20.91709784 10.27579449 21.45861591 7.375 22 C6.37597656 22.19078125 5.37695312 22.3815625 4.34765625 22.578125 C-0.49052593 23.47527136 -5.05392418 24.27009288 -10 24 C-7.49415892 15.59806226 -3.78974143 7.88058561 0 0 Z " fill="#FCFAFA" transform="translate(742,355)"/>
<path d="M0 0 C8.47995918 2.2315682 14.00104349 9.95506397 18.30859375 17.2109375 C21.4408134 24.02180765 19.50820765 30.10745865 17.31640625 36.96875 C16.5625 38.9375 16.5625 38.9375 15.5625 39.9375 C14.11449256 39.99788851 12.66388787 39.99802276 11.21484375 39.97265625 C-1.15895045 39.97375497 -9.87989001 41.42298402 -20.47705078 47.79394531 C-23.9752372 49.83448145 -27.61921295 51.585054 -31.25 53.375 C-31.92659668 53.71668213 -32.60319336 54.05836426 -33.30029297 54.41040039 C-42.20324028 58.89607231 -52.20755929 59.41532244 -61.875 56.75 C-69.94408619 53.8815873 -76.61486398 49.55295546 -80.546875 41.73046875 C-83.20660618 33.38964511 -82.3837844 22.84065525 -78.64453125 14.9921875 C-76.15465446 10.75375646 -73.38640045 6.35147156 -68.4375 4.9375 C-62.16486327 4.18045764 -58.5570495 5.51032782 -53.125 8.6484375 C-41.48759686 14.23033145 -26.13186321 13.44404976 -14.203125 9.29296875 C-10.5923632 7.52328747 -8.06577794 5.15307647 -5.19140625 2.38671875 C-3.4375 0.9375 -3.4375 0.9375 0 0 Z " fill="#FCDFD2" transform="translate(705.4375,188.0625)"/>
<path d="M0 0 C0.495 0.99 0.495 0.99 1 2 C0.17074659 4.12532626 -0.76944735 6.20758866 -1.75390625 8.265625 C-2.05183578 8.89547302 -2.34976532 9.52532104 -2.65672302 10.17425537 C-3.61790913 12.20312234 -4.58963506 14.22671069 -5.5625 16.25 C-6.81758843 18.87841684 -8.06808205 21.50898952 -9.31640625 24.140625 C-9.62422028 24.78809692 -9.9320343 25.43556885 -10.24917603 26.10266113 C-13.34750517 32.65893326 -16.19821182 39.31215439 -19 46 C-18.14619751 45.81824219 -18.14619751 45.81824219 -17.27514648 45.6328125 C-14.66407345 45.08127072 -12.05086554 44.54057037 -9.4375 44 C-8.09461914 43.71382813 -8.09461914 43.71382813 -6.72460938 43.421875 C-1.70738579 42.39270093 2.87899545 41.77520968 8 42 C6.26995494 45.76539218 3.99607509 49.13618412 1.6875 52.5625 C1.25526123 53.20727295 0.82302246 53.8520459 0.37768555 54.51635742 C-7.22387677 65.82828583 -14.85378799 77.13396355 -22.828125 88.1875 C-24.17240564 90.10133057 -24.17240564 90.10133057 -25 93 C-23.97060303 92.71950806 -23.97060303 92.71950806 -22.92041016 92.43334961 C-19.82388553 91.5940188 -16.72453679 90.76563453 -13.625 89.9375 C-12.54476562 89.64294922 -11.46453125 89.34839844 -10.3515625 89.04492188 C-9.3203125 88.77099609 -8.2890625 88.49707031 -7.2265625 88.21484375 C-6.27346191 87.95823975 -5.32036133 87.70163574 -4.33837891 87.43725586 C-2 87 -2 87 0 88 C-5.63946204 95.35469012 -11.30579715 102.68761582 -17 110 C-22.69377918 117.31280889 -28.35732055 124.64770078 -34 132 C-36.08579105 134.71301586 -38.17286478 137.42504482 -40.25976562 140.13720703 C-42.29441368 142.78177486 -44.32788256 145.42722447 -46.359375 148.07421875 C-51.87662975 155.25927109 -57.42754153 162.41730422 -63.00292969 169.55737305 C-66.72426998 174.33088436 -70.3861453 179.14460076 -74 184 C-74.33 183.34 -74.66 182.68 -75 182 C-73.86694336 179.58349609 -73.86694336 179.58349609 -72.08984375 176.5234375 C-71.43636963 175.38938477 -70.78289551 174.25533203 -70.10961914 173.08691406 C-69.38574223 171.84951412 -68.66169849 170.61221176 -67.9375 169.375 C-67.20300459 168.10684474 -66.46920592 166.8382857 -65.73608398 165.56933594 C-63.86077994 162.32830882 -61.97585386 159.09300972 -60.08679199 155.85998535 C-58.43338362 153.0302669 -56.7834828 150.19850381 -55.1328125 147.3671875 C-53.36618928 144.33933609 -51.5987437 141.31197672 -49.82910156 138.28588867 C-46.41254955 132.43993194 -43.01995245 126.58185624 -39.6875 120.6875 C-39.32019775 120.04135742 -38.95289551 119.39521484 -38.57446289 118.72949219 C-37.13586214 116.1690146 -35.93176322 113.79528967 -35 111 C-43.25 113.64 -51.5 116.28 -60 119 C-58.16744822 114.41862056 -55.97850265 110.84168052 -53.1640625 106.8671875 C-52.16589203 105.43663941 -51.168868 104.00529085 -50.17285156 102.57324219 C-49.39198181 101.45218079 -49.39198181 101.45218079 -48.59533691 100.30847168 C-45.92517077 96.44470919 -43.31702098 92.53997371 -40.7109375 88.6328125 C-40.18993469 87.85194275 -39.66893188 87.071073 -39.13214111 86.26654053 C-38.07799819 84.68534648 -37.02434809 83.10382376 -35.97119141 81.52197266 C-34.34322167 79.07727904 -32.71271879 76.63428764 -31.08203125 74.19140625 C-30.04151824 72.63030725 -29.00114795 71.06911312 -27.9609375 69.5078125 C-27.23298477 68.41740158 -27.23298477 68.41740158 -26.49032593 67.30496216 C-24.09271641 63.74299615 -24.09271641 63.74299615 -22 60 C-25.93797906 60.97724681 -29.8752985 61.95712561 -33.8125 62.9375 C-35.49182617 63.35418945 -35.49182617 63.35418945 -37.20507812 63.77929688 C-38.27822266 64.04677734 -39.35136719 64.31425781 -40.45703125 64.58984375 C-41.44678955 64.83597412 -42.43654785 65.08210449 -43.45629883 65.33569336 C-45.32306818 65.82321418 -47.16963011 66.3898767 -49 67 C-47.64913667 64.13320326 -46.11382476 61.63519778 -44.234375 59.0859375 C-43.40486328 57.95865234 -43.40486328 57.95865234 -42.55859375 56.80859375 C-41.96175781 56.00550781 -41.36492188 55.20242188 -40.75 54.375 C-40.12738281 53.53324219 -39.50476563 52.69148438 -38.86328125 51.82421875 C-34.09506446 45.40583438 -29.20610795 39.08886389 -24.27270508 32.79711914 C-15.89589905 22.08041001 -7.88327913 11.0835675 0 0 Z " fill="#F4E941" transform="translate(746,337)"/>
<path d="M0 0 C18.01488167 14.3254339 29.87040244 35.02139198 33.44140625 57.94140625 C34.60940304 79.94320628 28.00958559 102.99476715 13.41552734 119.82397461 C2.26979528 132.10124329 -11.1851051 140.61554137 -27.55859375 143.94140625 C-28.84830078 144.21404297 -28.84830078 144.21404297 -30.1640625 144.4921875 C-54.60810702 147.72701503 -76.17397957 142.98625472 -96.43359375 129.12890625 C-114.04401885 115.52564375 -125.30951523 94.59572685 -129.08203125 72.82421875 C-131.67935993 51.66237685 -125.60821238 34.35913749 -112.55859375 17.56640625 C-111.24450234 16.0083056 -109.91191303 14.46555874 -108.55859375 12.94140625 C-107.95660156 12.25691406 -107.35460937 11.57242188 -106.734375 10.8671875 C-79.9248646 -17.74086448 -31.91368175 -23.71755161 0 0 Z M-100.55859375 11.94140625 C-101.21214844 12.52664062 -101.86570312 13.111875 -102.5390625 13.71484375 C-109.63861885 20.39124773 -114.48332259 28.449747 -118.87109375 37.06640625 C-119.20874756 37.72310303 -119.54640137 38.3797998 -119.89428711 39.05639648 C-128.47701447 56.44548412 -124.29947041 73.89377508 -118.39453125 91.390625 C-111.51072537 109.30256888 -98.22858496 124.43848155 -80.89453125 132.765625 C-60.83201219 141.63695302 -36.64007167 143.26861093 -15.93359375 135.31640625 C-1.07044204 129.22939321 9.54813006 118.69160974 17.44140625 104.94140625 C18.12009766 103.77158203 18.12009766 103.77158203 18.8125 102.578125 C21.54506474 97.51309066 23.44770733 92.28298442 25.19140625 86.81640625 C25.4023291 86.15938721 25.61325195 85.50236816 25.83056641 84.82543945 C31.67338928 65.64094514 27.26098799 46.23060312 18.41210938 28.72363281 C15.89224386 24.09711917 12.76762474 20.00752504 9.44140625 15.94140625 C8.91160156 15.23757812 8.38179687 14.53375 7.8359375 13.80859375 C-2.27481349 1.07653695 -18.95624431 -6.92335323 -34.921875 -8.80859375 C-60.13391548 -10.54175228 -81.57960092 -5.60220056 -100.55859375 11.94140625 Z " fill="#0C0605" transform="translate(585.55859375,110.05859375)"/>
<path d="M0 0 C0 1.65 0 3.3 0 5 C-1.216875 5.391875 -2.43375 5.78375 -3.6875 6.1875 C-8.55582068 8.32406707 -11.69722068 11.41055966 -15.3125 15.1875 C-23.57851971 23.81750121 -33.08872131 33.6763022 -45.625 34.5 C-56.08946343 34.13366414 -65.50255466 29.06022931 -73 22 C-77.47280458 17.07991496 -78.48250965 13.10395164 -78.40625 6.57421875 C-77.71437799 2.19014514 -75.41351378 -0.30670011 -72 -3 C-54.66796905 -12.28501658 -17.24175235 -8.62087617 0 0 Z " fill="#070808" transform="translate(218,183)"/>
<path d="M0 0 C1 2 1 2 1 4 C0.67 4.99 0.34 5.98 0 7 C-6.625 7.125 -6.625 7.125 -10 6 C-12.76210374 5.87679413 -15.48796459 5.81486071 -18.25 5.8125 C-18.98863281 5.80025391 -19.72726562 5.78800781 -20.48828125 5.77539062 C-30.75957027 5.7482179 -40.00967771 10.14388314 -49.48828125 13.72265625 C-55.53549142 15.94902889 -61.32453793 17.63378622 -67.70629883 18.57421875 C-70.25822396 18.95858218 -70.25822396 18.95858218 -73.4375 20.5 C-77.61868825 22.26050032 -81.56036682 22.85524115 -86.03515625 23.47265625 C-89.00356472 23.91826116 -89.00356472 23.91826116 -91.7421875 24.96484375 C-96.95683953 26.62177755 -102.33279277 27.13815971 -107.74414062 27.85546875 C-112.15079706 28.47035104 -115.89162138 29.23418042 -120 31 C-152.40420533 38.06372159 -194.12674871 37.07269302 -226 28 C-228 26 -228 26 -228.1875 22.9375 C-228 20 -228 20 -227 19 C-222.72002646 18.7665469 -218.87948141 18.9299776 -214.6875 19.8125 C-213.81996094 19.99167969 -212.95242187 20.17085938 -212.05859375 20.35546875 C-209.85933947 20.81891314 -207.6644394 21.30320036 -205.47265625 21.80078125 C-177.41646264 27.55641937 -147.03165878 24.55051017 -119 20 C-118.00966766 19.84017639 -118.00966766 19.84017639 -116.99932861 19.67712402 C-91.72906309 15.55693018 -67.66136734 8.5617088 -43.57299805 -0.03051758 C-28.65758774 -5.33862434 -14.61136991 -7.75297179 0 0 Z " fill="#070707" transform="translate(282,414)"/>
<path d="M0 0 C20.69655284 6.83264316 45.38371585 18.40733266 58 36.9375 C59.30446478 40.93242338 59.8079508 44.84142972 59 49 C57.83984375 50.7421875 57.83984375 50.7421875 56 52 C33.11609275 55.75201434 7.40061817 38.82731558 -11 27 C-11.66 26.34 -12.32 25.68 -13 25 C-12.60536888 21.72901438 -11.11211873 19.12195597 -9.53125 16.26953125 C-9.04269531 15.38458984 -8.55414062 14.49964844 -8.05078125 13.58789062 C-7.53902344 12.67201172 -7.02726563 11.75613281 -6.5 10.8125 C-5.73236328 9.4212793 -5.73236328 9.4212793 -4.94921875 8.00195312 C-1.14959206 1.14959206 -1.14959206 1.14959206 0 0 Z " fill="#F7EB42" transform="translate(644,606)"/>
<path d="M0 0 C0.99 0.33 1.98 0.66 3 1 C1.35307425 6.39068518 -0.9072615 11.4122694 -3.24609375 16.52734375 C-3.86376366 17.88805748 -3.86376366 17.88805748 -4.49391174 19.27626038 C-5.80563389 22.16462613 -7.12139566 25.05112875 -8.4375 27.9375 C-9.74925027 30.82065042 -11.0601501 33.70418476 -12.37037659 36.58802795 C-13.18404521 38.37825379 -13.99871953 40.16802298 -14.81455994 41.95726013 C-16.93476706 46.6149624 -19.00461173 51.28741965 -21 56 C-20.10075806 55.81824219 -20.10075806 55.81824219 -19.18334961 55.6328125 C-16.43607241 55.08160805 -13.68685579 54.54073709 -10.9375 54 C-9.99455078 53.80921875 -9.05160156 53.6184375 -8.08007812 53.421875 C-2.95330295 52.42152862 1.77687319 51.768183 7 52 C5.32956314 57.14453562 2.2556007 61.2376518 -0.8125 65.625 C-1.98584368 67.3201972 -3.15901563 69.01551328 -4.33203125 70.7109375 C-4.93611816 71.58073242 -5.54020508 72.45052734 -6.16259766 73.34667969 C-9.66853204 78.40946137 -13.12793614 83.5041537 -16.59692383 88.59228516 C-19.67843954 93.10107584 -22.81019027 97.56710265 -26 102 C-24.77023437 101.72285156 -23.54046875 101.44570313 -22.2734375 101.16015625 C-20.64064416 100.79418533 -19.00783059 100.42830468 -17.375 100.0625 C-16.16263672 99.78889648 -16.16263672 99.78889648 -14.92578125 99.50976562 C-10.63101819 98.54955437 -6.35222151 97.66903081 -2 97 C-1.67 97.66 -1.34 98.32 -1 99 C-7.58813532 107.85316613 -14.23938795 116.64276764 -21.08203125 125.30078125 C-30.1579635 136.78608646 -39.08774168 148.38750447 -48 160 C-50.08579105 162.71301586 -52.17286478 165.42504482 -54.25976562 168.13720703 C-56.29441368 170.78177486 -58.32788256 173.42722447 -60.359375 176.07421875 C-65.21714988 182.40043865 -70.10005724 188.70637474 -75 195 C-79.19497404 200.39005715 -83.38980465 205.78016598 -87.5625 211.1875 C-88.34882812 212.20585938 -89.13515625 213.22421875 -89.9453125 214.2734375 C-91.6836673 216.58022772 -93.32498259 218.91757769 -94.9375 221.3125 C-95.618125 222.199375 -96.29875 223.08625 -97 224 C-97.99 224 -98.98 224 -100 224 C-99.44286794 219.28234948 -97.31270635 215.78135928 -94.875 211.8125 C-93.95830195 210.28725898 -93.0430296 208.76116051 -92.12890625 207.234375 C-91.62762207 206.39970703 -91.12633789 205.56503906 -90.60986328 204.70507812 C-87.62429973 199.6883896 -84.72322135 194.62285135 -81.8125 189.5625 C-80.52218265 187.32288945 -79.23181738 185.08330651 -77.94140625 182.84375 C-77.29187988 181.71582031 -76.64235352 180.58789062 -75.97314453 179.42578125 C-72.73470192 173.80318452 -69.49243127 168.18279722 -66.25 162.5625 C-65.6322168 161.49153076 -65.01443359 160.42056152 -64.37792969 159.31713867 C-58.92866172 149.87227254 -53.46739506 140.43438232 -48 131 C-51.43829486 131 -52.9495971 131.17029161 -56.00390625 132.3125 C-56.74447266 132.58320313 -57.48503906 132.85390625 -58.24804688 133.1328125 C-59.01181641 133.41898438 -59.77558594 133.70515625 -60.5625 134 C-62.08302277 134.56684476 -63.6051059 135.12952603 -65.12890625 135.6875 C-66.13546265 136.06455078 -66.13546265 136.06455078 -67.16235352 136.44921875 C-69 137 -69 137 -72 137 C-71.43618184 132.92050277 -70.19139366 130.40947738 -67.84375 127.046875 C-67.121875 125.99564453 -66.4 124.94441406 -65.65625 123.86132812 C-65.24052734 123.25973877 -64.82480469 122.65814941 -64.39648438 122.03833008 C-61.58533064 117.93512683 -58.84736776 113.78254938 -56.09375 109.640625 C-54.84401481 107.76544849 -53.59401106 105.89045093 -52.34375 104.015625 C-51.71339844 103.07009766 -51.08304688 102.12457031 -50.43359375 101.15039062 C-49.79550781 100.19326172 -49.15742187 99.23613281 -48.5 98.25 C-47.84773437 97.27160156 -47.19546875 96.29320312 -46.5234375 95.28515625 C-42.68229167 89.5234375 -38.84114583 83.76171875 -35 78 C-35.66993988 78.20301224 -36.33987976 78.40602448 -37.03012085 78.6151886 C-37.91785187 78.88308701 -38.80558289 79.15098541 -39.72021484 79.42700195 C-40.59640472 79.69188919 -41.4725946 79.95677643 -42.37533569 80.22969055 C-46.10001151 81.322841 -49.85435391 82.26809199 -53.625 83.1875 C-54.34300781 83.36474609 -55.06101562 83.54199219 -55.80078125 83.72460938 C-57.53330659 84.15196563 -59.26657177 84.57632089 -61 85 C-61 80.54367293 -60.55120645 79.92934561 -57.921875 76.578125 C-57.261875 75.72605469 -56.601875 74.87398438 -55.921875 73.99609375 C-55.20515625 73.08988281 -54.4884375 72.18367188 -53.75 71.25 C-52.26508738 69.33895929 -50.78071641 67.42749758 -49.296875 65.515625 C-48.19375977 64.10313477 -48.19375977 64.10313477 -47.06835938 62.66210938 C-44.33306746 59.14161563 -41.66073354 55.57696026 -39 52 C-34.41726801 45.86322664 -29.77682323 39.77201615 -25.125 33.6875 C-18.09878212 24.49210286 -11.20226243 15.20653002 -4.37182617 5.86499023 C-2.92687598 3.9005883 -1.46595797 1.94876012 0 0 Z M-7 14 C-7.3403125 14.46559326 -7.680625 14.93118652 -8.03125 15.41088867 C-16.85517062 27.46897567 -25.82981459 39.40253591 -34.91064453 51.26806641 C-38.55099429 56.02800024 -42.18125873 60.79561637 -45.8125 65.5625 C-46.48845215 66.44921387 -47.1644043 67.33592773 -47.86083984 68.24951172 C-48.49070801 69.07596191 -49.12057617 69.90241211 -49.76953125 70.75390625 C-50.32229736 71.47908447 -50.87506348 72.2042627 -51.44458008 72.95141602 C-52.97096708 74.96176186 -54.48765128 76.97907887 -56 79 C-55.505 79.99 -55.505 79.99 -55 81 C-53.87722656 80.66226563 -52.75445313 80.32453125 -51.59765625 79.9765625 C-50.08598621 79.52587826 -48.57426467 79.07536671 -47.0625 78.625 C-46.32708984 78.40328125 -45.59167969 78.1815625 -44.83398438 77.953125 C-39.5994722 76.39877204 -34.34434977 75.11805157 -29 74 C-36.30764616 86.00173417 -44.10725188 97.62561365 -52.07324219 109.19873047 C-54.61678142 112.89672453 -57.1496289 116.60198085 -59.68237305 120.30737305 C-62.11963501 123.87291541 -64.55970495 127.43653312 -67 131 C-66.67 131.66 -66.34 132.32 -66 133 C-58.08 130.36 -50.16 127.72 -42 125 C-46.6814754 134.62303276 -51.597697 143.91721408 -57.0859375 153.09765625 C-60.68923158 159.12903578 -64.18364215 165.22300689 -67.6875 171.3125 C-68.92033637 173.45456324 -70.15340358 175.59649364 -71.38671875 177.73828125 C-71.97630371 178.76646973 -72.56588867 179.7946582 -73.17333984 180.85400391 C-74.44549937 183.04500199 -75.73921277 185.2235671 -77.04931641 187.39208984 C-77.6994873 188.47312988 -78.3496582 189.55416992 -79.01953125 190.66796875 C-79.61483643 191.64403076 -80.2101416 192.62009277 -80.82348633 193.62573242 C-81.21173584 194.40924072 -81.59998535 195.19274902 -82 196 C-81.67 196.66 -81.34 197.32 -81 198 C-80.64921387 197.54898926 -80.29842773 197.09797852 -79.93701172 196.63330078 C-78.86939603 195.26065204 -77.80176783 193.88801304 -76.73413086 192.51538086 C-75.47704234 190.89907702 -74.22004612 189.28270138 -72.96313477 187.66625977 C-69.78091167 183.57404014 -66.59752933 179.48274128 -63.41015625 175.39453125 C-57.20085481 167.42705923 -51.02625003 159.4352613 -44.90087891 151.40307617 C-40.90029883 146.16271718 -36.86426098 140.95086606 -32.8125 135.75 C-24.10725302 124.57474802 -15.47015611 113.35491942 -7 102 C-9.80753307 100.59623347 -11.22098146 101.40564886 -14.2265625 102.21484375 C-15.7734375 102.62573242 -15.7734375 102.62573242 -17.3515625 103.04492188 C-18.43179688 103.33947266 -19.51203125 103.63402344 -20.625 103.9375 C-21.71296875 104.22818359 -22.8009375 104.51886719 -23.921875 104.81835938 C-26.61635044 105.53924973 -29.30887546 106.26671753 -32 107 C-29.17387897 101.73370399 -26.25519724 96.74723749 -22.6875 91.9375 C-17.773909 85.20658005 -13.12476642 78.30671847 -8.5 71.375 C-7.79319092 70.31917725 -7.08638184 69.26335449 -6.3581543 68.17553711 C-5.69340088 67.17659424 -5.02864746 66.17765137 -4.34375 65.1484375 C-3.74755859 64.25302246 -3.15136719 63.35760742 -2.53710938 62.43505859 C-1.2098413 60.33242648 -0.05898575 58.2467494 1 56 C-5.05303105 55.73429768 -10.52911806 56.74090637 -16.4375 58 C-17.35982422 58.19078125 -18.28214844 58.3815625 -19.23242188 58.578125 C-21.48963929 59.04594208 -23.7453418 59.52002747 -26 60 C-24.28217555 56.15242974 -22.56274065 52.30558415 -20.84185791 48.4593811 C-20.24087942 47.11576809 -19.64025048 45.77199866 -19.03997803 44.42807007 C-15.14460888 35.70866877 -11.18790684 27.02941226 -6.9765625 18.45703125 C-6.65429688 17.64621094 -6.33203125 16.83539063 -6 16 C-6.495 15.01 -6.495 15.01 -7 14 Z " fill="#13120B" transform="translate(753,323)"/>
<path d="M0 0 C0.68306213 0.09131195 1.36612427 0.1826239 2.06988525 0.27670288 C13.38060959 1.81810959 13.38060959 1.81810959 14.625 3.0625 C14.66563832 4.72867115 14.667721 6.39638095 14.625 8.0625 C11.17436776 9.58028258 8.17055854 10.32541284 4.4375 10.75 C-1.07324021 11.68315201 -4.27109256 13.85396839 -8.65625 17.19140625 C-13.80278747 20.73334799 -19.56507901 22.84463137 -25.375 25.0625 C-26.39207031 25.47886719 -27.40914062 25.89523438 -28.45703125 26.32421875 C-35.18819516 28.78683969 -41.57886954 29.49092402 -48.6875 29.625 C-49.52361816 29.65190918 -50.35973633 29.67881836 -51.22119141 29.70654297 C-57.45543553 29.66809826 -61.55011089 28.00829936 -66.375 24.0625 C-69.61835387 20.61643652 -71.16959775 17.1268571 -72.0625 12.5 C-71.11210862 7.74804311 -69.08993667 5.11999585 -65.375 2.0625 C-48.46383268 -7.65167158 -18.7329474 -2.51435456 0 0 Z " fill="#090909" transform="translate(134.375,111.9375)"/>
<path d="M0 0 C3.36671951 1.59154013 4.45304025 3.75698841 6.1484375 7.015625 C7.4138978 15.89377562 6.18341524 24.62335861 3.1484375 33.015625 C2.81972656 33.96824219 2.49101563 34.92085938 2.15234375 35.90234375 C-3.61470431 51.16805921 -14.88587756 65.39850025 -28.8515625 74.015625 C-29.5115625 74.015625 -30.1715625 74.015625 -30.8515625 74.015625 C-32.45621932 67.82208534 -33.80999896 61.60655429 -35.0390625 55.328125 C-35.22919922 54.40451172 -35.41933594 53.48089844 -35.61523438 52.52929688 C-35.78990234 51.63404297 -35.96457031 50.73878906 -36.14453125 49.81640625 C-36.3046167 49.01372314 -36.46470215 48.21104004 -36.62963867 47.3840332 C-36.95667761 43.89381895 -36.64217379 41.06060688 -34.50390625 38.234375 C-33.93800781 37.6671875 -33.37210938 37.1 -32.7890625 36.515625 C-27.48664233 30.7478904 -23.77252187 23.97423903 -19.81494141 17.25585938 C-9.05463023 -0.95311897 -9.05463023 -0.95311897 0 0 Z " fill="#E12012" transform="translate(796.8515625,262.984375)"/>
<path d="M0 0 C5.84173302 2.97397317 10.80212778 8.36298603 13.1875 14.5 C14.05195734 22.09918311 14.01612421 29.28367734 9.1875 35.5 C4.67938897 40.37923881 0.35592808 43.15210388 -6.38671875 43.71484375 C-13.75764781 43.96623969 -19.14935642 42.70804771 -25.0625 38.125 C-30.50896588 32.92610075 -31.93768901 28.16270799 -32.1875 20.8125 C-32.11950258 13.84276422 -30.11034381 8.94122832 -25.28515625 3.90625 C-17.95261226 -2.51205823 -9.1177602 -3.54057355 0 0 Z " fill="#040404" transform="translate(585.8125,145.5)"/>
<path d="M0 0 C1.41345703 -0.03673828 1.41345703 -0.03673828 2.85546875 -0.07421875 C11.06149642 -0.10826866 17.65723862 1.75650376 23.6875 7.5 C26.52989157 11.18164925 26.88634435 14.44081269 26.57421875 19.01171875 C25.76476448 23.27015208 24.00531131 26.02937437 20.4765625 28.5546875 C9.67828115 35.01479469 -3.18286443 36.14224082 -15.41015625 33.65625 C-21.13361901 31.89736677 -25.15781722 30.11761251 -28.875 25.375 C-29.205 25.045 -29.535 24.715 -29.875 24.375 C-30.53243371 18.48338248 -30.05630244 13.48436452 -26.875 8.375 C-18.77073695 1.35454059 -10.41454132 0.01413099 0 0 Z " fill="#C4AF96" transform="translate(674.875,162.625)"/>
<path d="M0 0 C-0.9590625 0.9590625 -0.9590625 0.9590625 -1.9375 1.9375 C-2.39769531 2.4015625 -2.85789062 2.865625 -3.33203125 3.34375 C-4.52256478 4.52591913 -5.73034283 5.69082528 -6.94921875 6.84375 C-12.24954514 11.94424362 -16.82295254 17.38382027 -21.28173828 23.21459961 C-22.50882802 24.81923817 -23.75359269 26.41031986 -25 28 C-25.45632813 28.58910156 -25.91265625 29.17820313 -26.3828125 29.78515625 C-30.82697424 33.1236449 -37.61215035 33.74124822 -43 35 C-43.9590625 35.23074219 -44.918125 35.46148437 -45.90625 35.69921875 C-53.47220436 37.3058446 -61.29556807 37.64203599 -69 37 C-69.99 36.34 -70.98 35.68 -72 35 C-72.57675391 31.75021356 -72.13623492 30.24565765 -70.53125 27.3515625 C-58.85465254 11.67797591 -44.15718449 4.25790849 -24.7578125 1.3125 C-16.50059021 0.19434408 -8.33830267 -0.28918969 0 0 Z " fill="#E02012" transform="translate(328,110)"/>
<path d="M0 0 C6.25512256 2.30564488 11.67210868 5.93327091 17.3125 9.4375 C18.43462891 10.11876953 19.55675781 10.80003906 20.71289062 11.50195312 C21.77314453 12.16001953 22.83339844 12.81808594 23.92578125 13.49609375 C24.89942627 14.09607178 25.87307129 14.6960498 26.8762207 15.31420898 C27.57706787 15.87052002 28.27791504 16.42683105 29 17 C29 20 29 20 27.63671875 21.578125 C17.39811356 30.35993466 5.23717273 39.4272826 -8.74609375 39.2890625 C-12.24547396 38.8402685 -14.36136636 37.25249213 -17 35 C-19 32 -19 32 -19 29.4375 C-15.78196583 18.37550754 -6.90786791 9.00929051 0 0 Z " fill="#F5EA41" transform="translate(399,633)"/>
<path d="M0 0 C0.90403564 0.00273926 1.80807129 0.00547852 2.73950195 0.00830078 C9.78624949 0.11361162 16.70496375 0.75291616 23.6875 1.6875 C24.63753906 1.81342529 25.58757812 1.93935059 26.56640625 2.0690918 C33.23786909 3.05036909 33.23786909 3.05036909 35.5 5.3125 C15.48805078 26.17134989 15.48805078 26.17134989 4.4375 27.75 C-4.98872519 26.70264165 -13.10800092 22.26489352 -19.5 15.3125 C-21.06430248 12.18389505 -20.85627284 9.75647075 -20.5 6.3125 C-14.91432457 0.23397086 -7.73859587 -0.04758663 0 0 Z " fill="#D0EFFA" transform="translate(167.5,182.6875)"/>
<path d="M0 0 C0.97234581 8.69118866 1.21484247 17.32145922 1.25 26.0625 C1.270625 27.37927734 1.29125 28.69605469 1.3125 30.05273438 C1.31765625 31.30505859 1.3228125 32.55738281 1.328125 33.84765625 C1.34214355 35.5493396 1.34214355 35.5493396 1.35644531 37.28540039 C1.18000488 38.6291272 1.18000488 38.6291272 1 40 C-2.72066472 42.48044315 -5.86540474 42.44381173 -10.1875 42.625 C-11.31188477 42.68300781 -11.31188477 42.68300781 -12.45898438 42.7421875 C-14.30559199 42.83628216 -16.1527619 42.91922319 -18 43 C-20.7636639 38.99345932 -21.82563342 35.16694415 -22.625 30.4375 C-22.74979736 29.73947266 -22.87459473 29.04144531 -23.00317383 28.32226562 C-24.04882102 22.24405102 -24.66174677 16.15854164 -25 10 C-9.08082799 -0.6810621 -9.08082799 -0.6810621 0 0 Z " fill="#F9F9F9" transform="translate(706,232)"/>
<path d="M0 0 C-0.91769345 12.00246427 -0.91769345 12.00246427 -3 17 C-5 18.3125 -5 18.3125 -8 19 C-8.72574219 19.18175781 -9.45148438 19.36351562 -10.19921875 19.55078125 C-18.66603791 21.5046626 -26.57587833 22.59443333 -34.375 18.14453125 C-37.59180606 15.87884814 -38.77558301 13.67325098 -40 10 C-40.50341997 4.71409029 -40.50341997 4.71409029 -40 2 C-30.82277137 -7.41873465 -11.45233714 -3.09296697 0 0 Z " fill="#DF2012" transform="translate(353,523)"/>
<path d="M0 0 C1 1 1 1 1.0625 4.5625 C1.041875 5.696875 1.02125 6.83125 1 8 C0.10539062 8.25394531 -0.78921875 8.50789063 -1.7109375 8.76953125 C-3.52464844 9.28580078 -3.52464844 9.28580078 -5.375 9.8125 C-6.01912842 9.99482178 -6.66325684 10.17714355 -7.3269043 10.36499023 C-10.84635656 11.36584681 -14.33401883 12.42913005 -17.8125 13.5625 C-22.95069175 15.12336285 -28.19829688 15.9874366 -33.48413086 16.87524414 C-37.98030382 17.63191835 -42.42485299 18.49949856 -46.875 19.5 C-52.53825579 20.7402727 -58.2159515 21.7623603 -63.9375 22.6875 C-65.12738525 22.88472656 -65.12738525 22.88472656 -66.34130859 23.0859375 C-70.95099028 23.81055258 -75.33234784 24.22516705 -80 24 C-81 23 -81 23 -81.1875 20.0625 C-81 17 -81 17 -79 15 C-76.21897 14.41561881 -73.48653318 13.93715205 -70.6796875 13.51953125 C-68.93999458 13.24377316 -67.2004155 12.96729611 -65.4609375 12.69018555 C-64.54795898 12.54721039 -63.63498047 12.40423523 -62.69433594 12.25692749 C-46.81892246 9.75439841 -31.6233733 6.69236562 -16.3203125 1.7097168 C-5.05247813 -1.73678936 -5.05247813 -1.73678936 0 0 Z " fill="#070707" transform="translate(231,494)"/>
<path d="M0 0 C0.56332031 0.25394531 1.12664062 0.50789063 1.70703125 0.76953125 C1.12873195 4.11712554 0.14295563 5.6743296 -2.3203125 7.984375 C-3.25435913 8.8801123 -3.25435913 8.8801123 -4.20727539 9.79394531 C-4.8749292 10.42526367 -5.54258301 11.05658203 -6.23046875 11.70703125 C-23.03942678 27.62440087 -23.03942678 27.62440087 -30.73046875 48.33203125 C-30.50419948 51.62266119 -30.50419948 51.62266119 -29.29296875 53.76953125 C-15.41182782 53.31441188 -6.14373995 44.58194519 3.70703125 35.76953125 C4.71442307 34.88493735 5.72222275 34.00080768 6.73046875 33.1171875 C11.60839656 28.78050921 16.17262846 24.36803629 20.3671875 19.36328125 C21.70703125 17.76953125 21.70703125 17.76953125 23.70703125 15.76953125 C25.83203125 16.14453125 25.83203125 16.14453125 27.70703125 16.76953125 C27.11796321 20.05636017 26.10694334 21.77664263 23.828125 24.1953125 C23.24095703 24.8234082 22.65378906 25.45150391 22.04882812 26.09863281 C21.10620117 27.08041504 21.10620117 27.08041504 20.14453125 28.08203125 C19.50193359 28.7584668 18.85933594 29.43490234 18.19726562 30.13183594 C13.90093585 34.61713472 9.56243181 38.88869138 4.70703125 42.76953125 C3.62625638 43.66270512 2.54553207 44.55594016 1.46484375 45.44921875 C-16.57166915 60.17039497 -16.57166915 60.17039497 -28.2890625 60.0625 C-31.43804097 59.60212303 -33.12758975 58.00052779 -35.29296875 55.76953125 C-37.33821632 51.6790361 -36.94114143 47.19871123 -36.29296875 42.76953125 C-32.88134279 34.07404558 -27.3972214 26.75070079 -21.29296875 19.76953125 C-20.58140625 18.94839844 -19.86984375 18.12726563 -19.13671875 17.28125 C-16.89235385 14.7405341 -14.60480921 12.24895158 -12.29296875 9.76953125 C-11.41769531 8.81691406 -10.54242188 7.86429687 -9.640625 6.8828125 C-8.76277344 5.95855469 -7.88492187 5.03429687 -6.98046875 4.08203125 C-5.77970703 2.80779297 -5.77970703 2.80779297 -4.5546875 1.5078125 C-2.29296875 -0.23046875 -2.29296875 -0.23046875 0 0 Z " fill="#0B0100" transform="translate(447.29296875,414.23046875)"/>
<path d="M0 0 C1.14130371 0.00644531 2.28260742 0.01289062 3.45849609 0.01953125 C12.5167194 0.10117134 21.53241776 0.48320389 30.5625 1.1875 C30.5625 2.1775 30.5625 3.1675 30.5625 4.1875 C17.77182308 10.96101222 5.29181961 17.53226134 -9.5 17.75 C-10.2024585 17.76482422 -10.90491699 17.77964844 -11.62866211 17.79492188 C-16.65179188 17.69350548 -19.56216305 16.3099477 -23.4375 13.1875 C-25.0604615 10.92946661 -25.47984032 9.8861153 -25.3125 7.125 C-24.10199488 4.44459581 -23.01398374 3.64090109 -20.4375 2.1875 C-13.57668176 0.00379049 -7.1629106 -0.08354466 0 0 Z " fill="#CFEEF9" transform="translate(95.4375,116.8125)"/>
<path d="M0 0 C0 0.33 0 0.66 0 1 C-6.625 1.125 -6.625 1.125 -10 0 C-12.76210374 -0.12320587 -15.48796459 -0.18513929 -18.25 -0.1875 C-18.98863281 -0.19974609 -19.72726562 -0.21199219 -20.48828125 -0.22460938 C-30.75957027 -0.2517821 -40.00967771 4.14388314 -49.48828125 7.72265625 C-55.53549142 9.94902889 -61.32453793 11.63378622 -67.70629883 12.57421875 C-70.25822396 12.95858218 -70.25822396 12.95858218 -73.4375 14.5 C-77.61868825 16.26050032 -81.56036682 16.85524115 -86.03515625 17.47265625 C-89.00356472 17.91826116 -89.00356472 17.91826116 -91.7421875 18.96484375 C-96.95683953 20.62177755 -102.33279277 21.13815971 -107.74414062 21.85546875 C-112.15079706 22.47035104 -115.89162138 23.23418042 -120 25 C-151.51502308 31.8698907 -188.27233166 29.5567461 -219.71875 23.64453125 C-220.87310547 23.42772705 -222.02746094 23.21092285 -223.21679688 22.98754883 C-226 22 -226 22 -227.39257812 19.8972168 C-227.59302734 19.27113525 -227.79347656 18.64505371 -228 18 C-227.34153076 18.19118408 -226.68306152 18.38236816 -226.00463867 18.5793457 C-184.43978094 30.32490217 -140.99073361 25.5825155 -99.2578125 17.65625 C-98.52947205 17.51977554 -97.80113159 17.38330109 -97.05072021 17.24269104 C-93.69653044 16.59644216 -90.41566926 15.86772525 -87.13598633 14.90869141 C-83.19300363 13.76616267 -80.07459383 13.8570318 -76 14 C-76 13.34 -76 12.68 -76 12 C-74.75597412 11.66693848 -74.75597412 11.66693848 -73.48681641 11.32714844 C-66.99211456 9.53656573 -60.64095298 7.58008449 -54.3359375 5.203125 C-36.65075292 -1.41628089 -18.49111856 -8.17502084 0 0 Z " fill="#565656" transform="translate(282,420)"/>
<path d="M0 0 C0.97211426 0.00418945 1.94422852 0.00837891 2.94580078 0.01269531 C13.44244 0.17760992 22.06760489 2.19154888 31.25 7.3125 C31.25 7.6425 31.25 7.9725 31.25 8.3125 C27.10589065 9.00733219 22.96159802 9.70105808 18.81713867 10.39379883 C17.40986232 10.62917842 16.0026348 10.86485019 14.59545898 11.10083008 C12.56246786 11.44170381 10.52929826 11.78149539 8.49609375 12.12109375 C6.66582642 12.42744751 6.66582642 12.42744751 4.79858398 12.73999023 C3.04203491 13.02338257 3.04203491 13.02338257 1.25 13.3125 C0.01830078 13.53325195 -1.21339844 13.75400391 -2.48242188 13.98144531 C-6.7709237 14.41593489 -9.23642928 12.91118577 -12.6875 10.625 C-13.57018555 10.09616211 -13.57018555 10.09616211 -14.47070312 9.55664062 C-16.15234375 8.48828125 -16.15234375 8.48828125 -18.75 6.3125 C-18.75 4.9925 -18.75 3.6725 -18.75 2.3125 C-12.39774188 0.44111879 -6.60753868 -0.03872717 0 0 Z " fill="#DF2012" transform="translate(457.75,46.6875)"/>
<path d="M0 0 C0.65846924 0.19118408 1.31693848 0.38236816 1.99536133 0.5793457 C31.85781289 9.01799148 64.26046446 9.13711029 94.93359375 5.4453125 C100.28529113 4.80506721 105.61836658 4.79944223 111 5 C88.36376851 20.09082099 33.49076321 10.38415078 8.28125 5.64453125 C7.12689453 5.42772705 5.97253906 5.21092285 4.78320312 4.98754883 C2 4 2 4 0.60742188 1.8972168 C0.40697266 1.27113525 0.20652344 0.64505371 0 0 Z " fill="#575757" transform="translate(54,438)"/>
<path d="M0 0 C0.99 0.33 1.98 0.66 3 1 C1.7023449 5.08364114 0.1962487 8.94764816 -1.6015625 12.8359375 C-2.09140625 13.89941406 -2.58125 14.96289062 -3.0859375 16.05859375 C-3.59382812 17.15300781 -4.10171875 18.24742187 -4.625 19.375 C-5.140625 20.49261719 -5.65625 21.61023438 -6.1875 22.76171875 C-7.45553228 25.50912202 -8.7264468 28.2551527 -10 31 C-10.99 31 -11.98 31 -13 31 C-12.54363464 29.603522 -12.08480512 28.2078492 -11.625 26.8125 C-11.36976563 26.03519531 -11.11453125 25.25789063 -10.8515625 24.45703125 C-9.97793078 21.93632321 -9.00879602 19.46935722 -8 17 C-8.45890625 17.63808594 -8.9178125 18.27617187 -9.390625 18.93359375 C-10.00421875 19.75988281 -10.6178125 20.58617187 -11.25 21.4375 C-12.15492188 22.67306641 -12.15492188 22.67306641 -13.078125 23.93359375 C-15.10483324 26.11271704 -16.0991395 26.64701919 -19 27 C-17.57037471 23.92950044 -15.86616284 21.31039767 -13.84765625 18.59375 C-13.23599609 17.76746094 -12.62433594 16.94117188 -11.99414062 16.08984375 C-11.35669922 15.23519531 -10.71925781 14.38054687 -10.0625 13.5 C-9.42892578 12.64535156 -8.79535156 11.79070312 -8.14257812 10.91015625 C-5.43893106 7.26549217 -2.72443195 3.62915091 0 0 Z " fill="#100602" transform="translate(753,323)"/>
<path d="M0 0 C0.495 1.98 0.495 1.98 1 4 C-0.34191406 4.38091797 -0.34191406 4.38091797 -1.7109375 4.76953125 C-3.52464844 5.28580078 -3.52464844 5.28580078 -5.375 5.8125 C-6.01912842 5.99482178 -6.66325684 6.17714355 -7.3269043 6.36499023 C-10.84635656 7.36584681 -14.33401883 8.42913005 -17.8125 9.5625 C-22.95069175 11.12336285 -28.19829688 11.9874366 -33.48413086 12.87524414 C-37.98030382 13.63191835 -42.42485299 14.49949856 -46.875 15.5 C-52.53825579 16.7402727 -58.2159515 17.7623603 -63.9375 18.6875 C-65.12738525 18.88472656 -65.12738525 18.88472656 -66.34130859 19.0859375 C-70.95631057 19.8113889 -75.32881085 20.13061914 -80 20 C-80 19.01 -80 18.02 -80 17 C-78.26907104 17.03734253 -78.26907104 17.03734253 -76.50317383 17.07543945 C-72.24093266 17.07245596 -68.14055237 16.53325299 -63.94921875 15.79296875 C-63.20976517 15.6669075 -62.47031158 15.54084625 -61.70845032 15.41096497 C-60.15411525 15.14431528 -58.60033904 14.87438887 -57.04711914 14.60131836 C-54.70540096 14.19063938 -52.36176498 13.79279931 -50.01757812 13.39648438 C-41.8738328 11.99901489 -33.92450575 10.37743223 -26 8 C-24.42366872 7.54776197 -22.84685765 7.09719239 -21.26953125 6.6484375 C-19.03303102 6.00999357 -16.79711427 5.3705086 -14.56445312 4.71875 C-9.70721571 3.3418953 -5.02439497 2.51211274 0 2 C0 1.34 0 0.68 0 0 Z " fill="#5C5C5C" transform="translate(231,498)"/>
<path d="M0 0 C4.17315511 0.26990555 6.30691078 1.76067954 9.3125 4.5625 C10.00988281 5.20316406 10.70726562 5.84382812 11.42578125 6.50390625 C11.94527344 6.99761719 12.46476563 7.49132812 13 8 C12.67 8.99 12.34 9.98 12 11 C-0.66970387 11.3690205 -0.66970387 11.3690205 -6 9 C-2.25 2.25 -2.25 2.25 0 0 Z " fill="#EFEFEF" transform="translate(576,152)"/>
<path d="M0 0 C0.33 0.66 0.66 1.32 1 2 C-7.7890625 13.71875 -7.7890625 13.71875 -9.39160156 15.83984375 C-10.49170225 17.31733174 -11.57097098 18.8104986 -12.63183594 20.31640625 C-13.15293945 21.04730469 -13.67404297 21.77820313 -14.2109375 22.53125 C-14.6754834 23.19705078 -15.1400293 23.86285156 -15.61865234 24.54882812 C-16.07449707 25.02771484 -16.5303418 25.50660156 -17 26 C-17.99 26 -18.98 26 -20 26 C-19.46632772 20.75745467 -16.81868271 16.75050345 -14.1875 12.3125 C-13.74857422 11.54099609 -13.30964844 10.76949219 -12.85742188 9.97460938 C-12.42365234 9.23662109 -11.98988281 8.49863281 -11.54296875 7.73828125 C-11.15133545 7.06837158 -10.75970215 6.39846191 -10.35620117 5.70825195 C-8.77933101 3.72204844 -7.32003912 2.96573436 -5 2 C-5 2.99 -5 3.98 -5 5 C-3.35 3.35 -1.7 1.7 0 0 Z " fill="#0C0101" transform="translate(673,521)"/>
<path d="M0 0 C0.99 0 1.98 0 3 0 C2.40362519 4.28108393 0.88310622 7.34338618 -1.2734375 11.0703125 C-1.59784821 11.63321991 -1.92225891 12.19612732 -2.25650024 12.77609253 C-2.94071858 13.95963031 -3.62839755 15.14117348 -4.31933594 16.32080078 C-5.37297815 18.12154453 -6.41378196 19.9292546 -7.453125 21.73828125 C-13.0520749 31.37849654 -13.0520749 31.37849654 -16 34 C-16.99 33.67 -17.98 33.34 -19 33 C-18.60208252 32.3201001 -18.20416504 31.6402002 -17.79418945 30.93969727 C-15.96594623 27.81455645 -14.13921394 24.68853494 -12.3125 21.5625 C-11.37374023 19.95858398 -11.37374023 19.95858398 -10.41601562 18.32226562 C-6.87132084 12.25359969 -3.3769868 6.16371533 0 0 Z " fill="#15130C" transform="translate(703,457)"/>
<path d="M0 0 C0.87301758 0.00580078 1.74603516 0.01160156 2.64550781 0.01757812 C8.79969455 0.14162668 14.37753629 0.86164762 20.0625 3.375 C20.0625 3.705 20.0625 4.035 20.0625 4.375 C13.4375 4.5 13.4375 4.5 10.0625 3.375 C7.30039626 3.25179413 4.57453541 3.18986071 1.8125 3.1875 C1.07386719 3.17525391 0.33523438 3.16300781 -0.42578125 3.15039062 C-10.90598804 3.12266521 -20.37999065 7.68803961 -30.04101562 11.36132812 C-31.12447266 11.76158203 -32.20792969 12.16183594 -33.32421875 12.57421875 C-34.79701294 13.12855591 -34.79701294 13.12855591 -36.29956055 13.6940918 C-39.02315924 14.39711047 -40.33708655 14.34086785 -42.9375 13.375 C-42.11342651 13.0804895 -42.11342651 13.0804895 -41.27270508 12.7800293 C-38.76313638 11.87965373 -36.25658093 10.97115844 -33.75 10.0625 C-32.45352539 9.5994043 -32.45352539 9.5994043 -31.13085938 9.12695312 C-26.10908539 7.30102023 -26.10908539 7.30102023 -21.38671875 4.83203125 C-14.59938826 0.79427324 -7.77927448 -0.12561689 0 0 Z " fill="#7E7E7E" transform="translate(261.9375,416.625)"/>
<path d="M0 0 C1 3 1 3 0.16723633 5.06884766 C-1.27139596 7.59572675 -2.71457732 10.11789757 -4.1875 12.625 C-4.68314453 13.50929688 -5.17878906 14.39359375 -5.68945312 15.3046875 C-6.17736328 16.14515625 -6.66527344 16.985625 -7.16796875 17.8515625 C-7.61422607 18.62322754 -8.0604834 19.39489258 -8.52026367 20.18994141 C-10.25805953 22.31566629 -11.32333724 22.6465529 -14 23 C-12.2653843 18.0721145 -9.64380099 13.72935425 -7 9.25 C-6.54882812 8.47011719 -6.09765625 7.69023437 -5.6328125 6.88671875 C-5.19710937 6.14550781 -4.76140625 5.40429688 -4.3125 4.640625 C-3.91675781 3.96547852 -3.52101563 3.29033203 -3.11328125 2.59472656 C-2 1 -2 1 0 0 Z " fill="#130903" transform="translate(686,490)"/>
<path d="M0 0 C4.75 0.75 4.75 0.75 7 3 C7.43371114 8.2912759 7.48523002 11.71048613 4 16 C3.34 16 2.68 16 2 16 C1.93941406 15.09636719 1.87882813 14.19273438 1.81640625 13.26171875 C1.73261719 12.08222656 1.64882813 10.90273437 1.5625 9.6875 C1.48128906 8.51574219 1.40007813 7.34398438 1.31640625 6.13671875 C1.1132629 2.97409042 1.1132629 2.97409042 0 0 Z " fill="#ECECEC" transform="translate(757,110)"/>
<path d="M0 0 C0.33 0.66 0.66 1.32 1 2 C-0.39073264 3.89975896 -1.78732802 5.79471601 -3.1875 7.6875 C-3.96480469 8.74324219 -4.74210938 9.79898437 -5.54296875 10.88671875 C-11.56980704 18.52326901 -11.56980704 18.52326901 -16 20 C-14.28192374 16.07158968 -11.72691311 12.80936699 -9.125 9.4375 C-8.69058594 8.86064453 -8.25617187 8.28378906 -7.80859375 7.68945312 C-5.4657987 4.63959831 -3.22946223 2.11041602 0 0 Z " fill="#120A03" transform="translate(693,495)"/>
<path d="M0 0 C-4.74441606 3.16294404 -9.68403223 3.12271399 -15.2734375 3.31640625 C-16.42714844 3.35830078 -17.58085937 3.40019531 -18.76953125 3.44335938 C-20.55423828 3.50233398 -20.55423828 3.50233398 -22.375 3.5625 C-24.19451172 3.62727539 -24.19451172 3.62727539 -26.05078125 3.69335938 C-29.03375032 3.79905513 -32.01679742 3.90115321 -35 4 C-32.63428734 1.63428734 -31.87218812 1.66670303 -28.6328125 1.3671875 C-27.75197998 1.2832373 -26.87114746 1.19928711 -25.96362305 1.11279297 C-25.02687744 1.03432129 -24.09013184 0.95584961 -23.125 0.875 C-22.17858643 0.79008301 -21.23217285 0.70516602 -20.25708008 0.61767578 C-13.48499616 0.04199363 -6.79709896 -0.25330804 0 0 Z " fill="#6E6E6E" transform="translate(165,443)"/>
<path d="M0 0 C0.66644531 0.19335938 1.33289062 0.38671875 2.01953125 0.5859375 C7.91407067 2.25124794 13.72678938 3.55998979 19.78515625 4.47265625 C22 5 22 5 24 7 C16.57211438 7.44567314 9.03236836 6.4733264 2 4 C0.5859375 1.890625 0.5859375 1.890625 0 0 Z " fill="#6E6E6E" transform="translate(54,438)"/>
<path d="M0 0 C0.33 0.99 0.66 1.98 1 3 C-0.4765625 5.41015625 -0.4765625 5.41015625 -2.625 8.0625 C-3.31851563 8.94035156 -4.01203125 9.81820313 -4.7265625 10.72265625 C-7.08290078 13.08304322 -8.84584124 14.0205507 -12 15 C-10.62642293 12.0762431 -9.05214734 9.52866443 -7.125 6.9375 C-6.63257813 6.26589844 -6.14015625 5.59429687 -5.6328125 4.90234375 C-3.92676882 2.91468042 -2.14550281 1.4907065 0 0 Z " fill="#1A1911" transform="translate(724,364)"/>
<path d="M0 0 C0.33 0.99 0.66 1.98 1 3 C0.05988318 4.70116376 -0.94895617 6.36504293 -2 8 C-2.69822617 9.65369357 -3.37498605 11.31727014 -4 13 C-4.99 12.34 -5.98 11.68 -7 11 C-5.72278474 6.00724943 -3.82669043 3.42388092 0 0 Z " fill="#211807" transform="translate(674,511)"/>
<path d="M0 0 C0.33 1.32 0.66 2.64 1 4 C-1.24623699 4.69969682 -3.49716414 5.38435043 -5.75 6.0625 C-7.00296875 6.44535156 -8.2559375 6.82820313 -9.546875 7.22265625 C-12.6738008 7.92656828 -14.09466046 8.16653785 -17 7 C-14.91999989 6.15838146 -12.83585854 5.32699237 -10.75 4.5 C-9.58984375 4.0359375 -8.4296875 3.571875 -7.234375 3.09375 C-4 2 -4 2 0 2 C0 1.34 0 0.68 0 0 Z " fill="#888888" transform="translate(231,498)"/>
<path d="M0 0 C0.33 0.99 0.66 1.98 1 3 C-0.65234375 5.48046875 -0.65234375 5.48046875 -2.9375 8.1875 C-3.68902344 9.08855469 -4.44054687 9.98960937 -5.21484375 10.91796875 C-5.80394531 11.60503906 -6.39304687 12.29210937 -7 13 C-7.33 12.34 -7.66 11.68 -8 11 C-6.85546875 8.65234375 -6.85546875 8.65234375 -5.1875 5.9375 C-4.37345703 4.58978516 -4.37345703 4.58978516 -3.54296875 3.21484375 C-2 1 -2 1 0 0 Z " fill="#DCD13B" transform="translate(679,508)"/>
<path d="M0 0 C0.99 0 1.98 0 3 0 C2.50168276 3.68754757 1.89932357 5.60490662 -1 8 C-1.99 7.67 -2.98 7.34 -4 7 C-2.68 4.69 -1.36 2.38 0 0 Z " fill="#1B1B13" transform="translate(703,457)"/>
<path d="M0 0 C0 0.66 0 1.32 0 2 C-2.64 2.66 -5.28 3.32 -8 4 C-7.67 2.68 -7.34 1.36 -7 0 C-2.25 -1.125 -2.25 -1.125 0 0 Z " fill="#0E0E07" transform="translate(711,401)"/>
<path d="M0 0 C0.33 0.66 0.66 1.32 1 2 C0.22265625 3.9453125 0.22265625 3.9453125 -0.9375 6.125 C-1.31777344 6.84945313 -1.69804688 7.57390625 -2.08984375 8.3203125 C-2.39019531 8.87460937 -2.69054687 9.42890625 -3 10 C-3.99 10 -4.98 10 -6 10 C-4.34832443 6.4213696 -2.21713508 3.25179812 0 0 Z " fill="#C2B934" transform="translate(746,337)"/>
</svg>
