<?xml version="1.0" encoding="UTF-8"?>
<svg version="1.1" xmlns="http://www.w3.org/2000/svg" width="200" height="200">
<path d="M0 0 C0 0.66 0 1.32 0 2 C1.76730469 2.0928125 1.76730469 2.0928125 3.5703125 2.1875 C8.4291201 2.79565397 11.22302089 4.88456759 14.875 8 C15.99658408 8.9176597 17.11894498 9.83437102 18.2421875 10.75 C19.60730469 11.86375 19.60730469 11.86375 21 13 C21.99 13.495 21.99 13.495 23 14 C23.97590121 15.64893653 24.94408528 17.303169 25.86328125 18.984375 C26.995039 20.99120317 28.2304471 22.89059223 29.5 24.8125 C46.36778187 51.769906 43.96965765 94.38525712 37.49755859 124.32421875 C36.01257783 130.66238029 34.08589368 136.83502534 32 143 C32.63808594 142.91621094 33.27617187 142.83242187 33.93359375 142.74609375 C34.75988281 142.64425781 35.58617187 142.54242188 36.4375 142.4375 C37.26121094 142.33308594 38.08492188 142.22867188 38.93359375 142.12109375 C39.61550781 142.08113281 40.29742187 142.04117188 41 142 C42 143 42 143 42.125 146.4375 C42 150 42 150 41 152 C41.61746094 151.95359375 42.23492187 151.9071875 42.87109375 151.859375 C49.53696169 151.5752893 54.15153439 152.83561281 60 156 C60 157.32 60 158.64 60 160 C59.030625 160.12375 58.06125 160.2475 57.0625 160.375 C56.051875 160.58125 55.04125 160.7875 54 161 C53.67 161.66 53.34 162.32 53 163 C50.69 163 48.38 163 46 163 C44.99782936 166.58327753 44.99782936 166.58327753 46 170 C48.33247815 170.62852934 50.69291467 171.15535246 53.0625 171.625 C54.35285156 171.88539063 55.64320313 172.14578125 56.97265625 172.4140625 C57.97167969 172.60742188 58.97070312 172.80078125 60 173 C60.33 174.32 60.66 175.64 61 177 C59.02 177.99 59.02 177.99 57 179 C61.455 181.475 61.455 181.475 66 184 C66 184.99 66 185.98 66 187 C58.06927985 189.24703737 58.06927985 189.24703737 54 188 C52.00211562 187.65421232 50.00240549 187.31856451 48 187 C48.33 186.01 48.66 185.02 49 184 C46.36 183.67 43.72 183.34 41 183 C40.67 182.01 40.34 181.02 40 180 C33.91276345 179.97532919 27.82555583 179.95715396 21.73828125 179.94506836 C19.66633599 179.94003148 17.5943943 179.93320175 15.52246094 179.92456055 C12.54881918 179.91246679 9.57522431 179.90676533 6.6015625 179.90234375 C5.20618759 179.89460182 5.20618759 179.89460182 3.78262329 179.88670349 C2.49151138 179.88659019 2.49151138 179.88659019 1.17431641 179.88647461 C0.03514267 179.88314369 0.03514267 179.88314369 -1.12704468 179.87974548 C-3.09213361 179.88398961 -3.09213361 179.88398961 -5 181 C-5 180.01 -5 179.02 -5 178 C-5.99 177.67 -6.98 177.34 -8 177 C-9.1875 174.4375 -9.1875 174.4375 -10 172 C-9.34 172 -8.68 172 -8 172 C-8 171.34 -8 170.68 -8 170 C-7.01 169.34 -6.02 168.68 -5 168 C-13.81716047 166.18712588 -22.65189863 164.46754054 -31.5 162.8125 C-32.43086426 162.63364258 -33.36172852 162.45478516 -34.32080078 162.27050781 C-39.30522816 161.34922831 -43.93149694 160.79809535 -49 161 C-49 160.34 -49 159.68 -49 159 C-49.66386719 158.93941406 -50.32773437 158.87882813 -51.01171875 158.81640625 C-59.78207381 157.98418278 -59.78207381 157.98418278 -64 157 C-64 156.34 -64 155.68 -64 155 C-64.66 155 -65.32 155 -66 155 C-66 154.01 -66 153.02 -66 152 C-67.423125 151.62875 -67.423125 151.62875 -68.875 151.25 C-72 150 -72 150 -73.3125 148.125 C-73.96946538 146.09437973 -74.55277612 144.08704478 -75 142 C-75.66 142 -76.32 142 -77 142 C-77.12375 141.195625 -77.2475 140.39125 -77.375 139.5625 C-77.58125 138.716875 -77.7875 137.87125 -78 137 C-78.66 136.67 -79.32 136.34 -80 136 C-80.66796875 133.96875 -80.66796875 133.96875 -81.1875 131.5 C-81.36667969 130.6853125 -81.54585937 129.870625 -81.73046875 129.03125 C-81.81941406 128.3609375 -81.90835938 127.690625 -82 127 C-81 126 -81 126 -78.93359375 125.90234375 C-75.46679688 125.95117188 -75.46679688 125.95117188 -72 126 C-71.67 122.04 -71.34 118.08 -71 114 C-70.34 114 -69.68 114 -69 114 C-69 112.02 -69 110.04 -69 108 C-68.01 108 -67.02 108 -66 108 C-66 107.01 -66 106.02 -66 105 C-66.99 104.67 -67.98 104.34 -69 104 C-69.25 97.375 -69.25 97.375 -67 94 C-66.505 93.01 -66.505 93.01 -66 92 C-67.37363991 88.96161767 -68.97015138 86.07385931 -70.5546875 83.140625 C-71.98852467 80.02493559 -72.60411434 77.39040541 -73 74 C-72.01 73.505 -72.01 73.505 -71 73 C-67.44303099 76.17923778 -65.44288019 79.53292272 -63.25 83.75 C-62.93417969 84.35199219 -62.61835937 84.95398438 -62.29296875 85.57421875 C-61.52202105 87.046028 -60.76007676 88.52254742 -60 90 C-58.02 89.505 -58.02 89.505 -56 89 C-56.66 87.68 -57.32 86.36 -58 85 C-58.66 85 -59.32 85 -60 85 C-61 82 -61 82 -60 79 C-61.32 79 -62.64 79 -64 79 C-64 78.01 -64 77.02 -64 76 C-64.99 76 -65.98 76 -67 76 C-67 75.01 -67 74.02 -67 73 C-67.66 73 -68.32 73 -69 73 C-69.3936141 71.12881911 -69.76406825 69.25275884 -70.125 67.375 C-70.33382812 66.33085938 -70.54265625 65.28671875 -70.7578125 64.2109375 C-71.03328405 60.55871787 -70.21361864 58.42694473 -69 55 C-68.76517748 52.52635825 -68.60164515 50.0451827 -68.5 47.5625 C-68.28498964 42.32162249 -67.58638032 37.95743849 -66 33 C-66.99 32.67 -67.98 32.34 -69 32 C-69.33 28.37 -69.66 24.74 -70 21 C-69.34 21 -68.68 21 -68 21 C-67.67 20.01 -67.34 19.02 -67 18 C-63.535 17.505 -63.535 17.505 -60 17 C-60 18.32 -60 19.64 -60 21 C-57.70139597 18.78652946 -55.66553391 16.57513768 -53.6875 14.0625 C-40.65867118 -1.71553123 -18.49040695 -0.46596399 0 0 Z " fill="#91D5FB" transform="translate(113,8)"/>
<path d="M0 0 C0 0.66 0 1.32 0 2 C1.76730469 2.0928125 1.76730469 2.0928125 3.5703125 2.1875 C8.4291201 2.79565397 11.22302089 4.88456759 14.875 8 C15.99658408 8.9176597 17.11894498 9.83437102 18.2421875 10.75 C19.60730469 11.86375 19.60730469 11.86375 21 13 C21.99 13.495 21.99 13.495 23 14 C23.97590121 15.64893653 24.94408528 17.303169 25.86328125 18.984375 C26.995039 20.99120317 28.2304471 22.89059223 29.5 24.8125 C46.36778187 51.769906 43.96965765 94.38525712 37.49755859 124.32421875 C36.01257783 130.66238029 34.08589368 136.83502534 32 143 C32.63808594 142.91621094 33.27617187 142.83242187 33.93359375 142.74609375 C34.75988281 142.64425781 35.58617187 142.54242188 36.4375 142.4375 C37.26121094 142.33308594 38.08492188 142.22867188 38.93359375 142.12109375 C39.61550781 142.08113281 40.29742187 142.04117188 41 142 C42 143 42 143 42.125 146.4375 C42 150 42 150 41 152 C41.61746094 151.95359375 42.23492187 151.9071875 42.87109375 151.859375 C49.53696169 151.5752893 54.15153439 152.83561281 60 156 C60 157.32 60 158.64 60 160 C59.030625 160.12375 58.06125 160.2475 57.0625 160.375 C56.051875 160.58125 55.04125 160.7875 54 161 C53.67 161.66 53.34 162.32 53 163 C50.69 163 48.38 163 46 163 C44.99782936 166.58327753 44.99782936 166.58327753 46 170 C48.33247815 170.62852934 50.69291467 171.15535246 53.0625 171.625 C54.35285156 171.88539063 55.64320313 172.14578125 56.97265625 172.4140625 C57.97167969 172.60742188 58.97070312 172.80078125 60 173 C60.33 174.32 60.66 175.64 61 177 C59.02 177.99 59.02 177.99 57 179 C61.455 181.475 61.455 181.475 66 184 C66 184.99 66 185.98 66 187 C58.06927985 189.24703737 58.06927985 189.24703737 54 188 C52.00211562 187.65421232 50.00240549 187.31856451 48 187 C48.33 186.01 48.66 185.02 49 184 C46.36 183.67 43.72 183.34 41 183 C40.67 182.01 40.34 181.02 40 180 C33.91276345 179.97532919 27.82555583 179.95715396 21.73828125 179.94506836 C19.66633599 179.94003148 17.5943943 179.93320175 15.52246094 179.92456055 C12.54881918 179.91246679 9.57522431 179.90676533 6.6015625 179.90234375 C5.20618759 179.89460182 5.20618759 179.89460182 3.78262329 179.88670349 C2.49151138 179.88659019 2.49151138 179.88659019 1.17431641 179.88647461 C0.03514267 179.88314369 0.03514267 179.88314369 -1.12704468 179.87974548 C-3.09213361 179.88398961 -3.09213361 179.88398961 -5 181 C-5 180.01 -5 179.02 -5 178 C-5.99 177.67 -6.98 177.34 -8 177 C-9.1875 174.4375 -9.1875 174.4375 -10 172 C-9.34 172 -8.68 172 -8 172 C-8 171.34 -8 170.68 -8 170 C-7.01 169.34 -6.02 168.68 -5 168 C-13.81716047 166.18712588 -22.65189863 164.46754054 -31.5 162.8125 C-32.43086426 162.63364258 -33.36172852 162.45478516 -34.32080078 162.27050781 C-39.30522816 161.34922831 -43.93149694 160.79809535 -49 161 C-49 160.34 -49 159.68 -49 159 C-49.66386719 158.93941406 -50.32773437 158.87882813 -51.01171875 158.81640625 C-59.78207381 157.98418278 -59.78207381 157.98418278 -64 157 C-64 156.34 -64 155.68 -64 155 C-64.66 155 -65.32 155 -66 155 C-66 154.01 -66 153.02 -66 152 C-67.423125 151.62875 -67.423125 151.62875 -68.875 151.25 C-72 150 -72 150 -73.3125 148.125 C-73.96946538 146.09437973 -74.55277612 144.08704478 -75 142 C-75.66 142 -76.32 142 -77 142 C-77.12375 141.195625 -77.2475 140.39125 -77.375 139.5625 C-77.58125 138.716875 -77.7875 137.87125 -78 137 C-78.66 136.67 -79.32 136.34 -80 136 C-80.66796875 133.96875 -80.66796875 133.96875 -81.1875 131.5 C-81.36667969 130.6853125 -81.54585937 129.870625 -81.73046875 129.03125 C-81.81941406 128.3609375 -81.90835938 127.690625 -82 127 C-81 126 -81 126 -78.93359375 125.90234375 C-75.46679688 125.95117188 -75.46679688 125.95117188 -72 126 C-71.67 122.04 -71.34 118.08 -71 114 C-70.34 114 -69.68 114 -69 114 C-69 112.02 -69 110.04 -69 108 C-68.01 108 -67.02 108 -66 108 C-66 107.01 -66 106.02 -66 105 C-66.99 104.67 -67.98 104.34 -69 104 C-69.25 97.375 -69.25 97.375 -67 94 C-66.505 93.01 -66.505 93.01 -66 92 C-67.37363991 88.96161767 -68.97015138 86.07385931 -70.5546875 83.140625 C-71.98852467 80.02493559 -72.60411434 77.39040541 -73 74 C-72.01 73.505 -72.01 73.505 -71 73 C-67.44303099 76.17923778 -65.44288019 79.53292272 -63.25 83.75 C-62.93417969 84.35199219 -62.61835937 84.95398438 -62.29296875 85.57421875 C-61.52202105 87.046028 -60.76007676 88.52254742 -60 90 C-58.02 89.505 -58.02 89.505 -56 89 C-56.66 87.68 -57.32 86.36 -58 85 C-58.66 85 -59.32 85 -60 85 C-61 82 -61 82 -60 79 C-61.32 79 -62.64 79 -64 79 C-64 78.01 -64 77.02 -64 76 C-64.99 76 -65.98 76 -67 76 C-67 75.01 -67 74.02 -67 73 C-67.66 73 -68.32 73 -69 73 C-69.3936141 71.12881911 -69.76406825 69.25275884 -70.125 67.375 C-70.33382812 66.33085938 -70.54265625 65.28671875 -70.7578125 64.2109375 C-71.03328405 60.55871787 -70.21361864 58.42694473 -69 55 C-68.76517748 52.52635825 -68.60164515 50.0451827 -68.5 47.5625 C-68.28498964 42.32162249 -67.58638032 37.95743849 -66 33 C-66.99 32.67 -67.98 32.34 -69 32 C-69.33 28.37 -69.66 24.74 -70 21 C-69.34 21 -68.68 21 -68 21 C-67.67 20.01 -67.34 19.02 -67 18 C-63.535 17.505 -63.535 17.505 -60 17 C-60 18.32 -60 19.64 -60 21 C-57.70139597 18.78652946 -55.66553391 16.57513768 -53.6875 14.0625 C-40.65867118 -1.71553123 -18.49040695 -0.46596399 0 0 Z M-38 6 C-38.85464844 6.4125 -39.70929688 6.825 -40.58984375 7.25 C-52.80168704 13.87337263 -61.33141884 24.42198346 -65.87109375 37.51171875 C-67.17139046 42.65013266 -67.20061299 47.72833651 -67 53 C-67 55 -67 55 -67.9765625 56.8515625 C-69.70890297 60.48815509 -69.55286742 64.06167282 -69 68 C-67.15752389 71.75319208 -65.994607 73.5026965 -62.25 75.375 C-61.5075 75.58125 -60.765 75.7875 -60 76 C-59.67 75.01 -59.34 74.02 -59 73 C-56 74 -56 74 -55 76 C-53.865625 75.835 -52.73125 75.67 -51.5625 75.5 C-48 75 -48 75 -47 75 C-47.33 76.32 -47.66 77.64 -48 79 C-48.495 78.01 -48.495 78.01 -49 77 C-53.95 77.495 -53.95 77.495 -59 78 C-58.17309466 82.68579695 -57.45219312 85.07313336 -53.5 87.875 C-51.69667985 89.02881925 -49.91506106 90.04246947 -48 91 C-48.7425 91.0825 -49.485 91.165 -50.25 91.25 C-53.74932271 92.20436074 -55.01116787 92.94025826 -57 96 C-57.03181247 99.07520519 -56.59217226 101.98764547 -56 105 C-58.31 105 -60.62 105 -63 105 C-63.98484108 106.74681293 -64.96266187 108.4975851 -65.9375 110.25 C-66.75541016 111.71179688 -66.75541016 111.71179688 -67.58984375 113.203125 C-71.22993557 120.42280849 -70.85327298 128.67309972 -68.8125 136.375 C-66.46286101 143.14623237 -62.56912001 145.83963234 -56.375 149.125 C-50.70008372 151.83395637 -45.13426518 153.66723159 -39 155 C-37.64068359 155.30744141 -37.64068359 155.30744141 -36.25390625 155.62109375 C-29.78460134 156.95166001 -23.59235348 157.22952101 -17 157 C-17.28875 155.96101562 -17.5775 154.92203125 -17.875 153.8515625 C-19.94976823 146.14422384 -21.69735005 139.05826727 -21 131 C-18.75 130.6875 -18.75 130.6875 -16 131 C-11.64227384 135.20888542 -9.4432979 140.96652658 -6.91210938 146.38085938 C-6.57888672 147.07373047 -6.24566406 147.76660156 -5.90234375 148.48046875 C-5.60835693 149.10848389 -5.31437012 149.73649902 -5.01147461 150.38354492 C-3.94567061 152.33312824 -3.94567061 152.33312824 -1 154 C3.37543643 154.57788783 5.32849449 154.47172602 8.98046875 151.90625 C12.16189314 149.09151173 14.1627079 145.86168715 16 142.0625 C16.33539795 141.37792725 16.6707959 140.69335449 17.01635742 139.98803711 C29.82668511 112.45116387 36.96263978 69.24078641 26.375 40.1875 C25.92125 39.135625 25.4675 38.08375 25 37 C23.4221875 36.8453125 23.4221875 36.8453125 21.8125 36.6875 C18.06950909 36.01253443 16.16308137 34.96623977 13 33 C11.68 33 10.36 33 9 33 C9.33 31.35 9.66 29.7 10 28 C13.3 27.34 16.6 26.68 20 26 C20.33 24.68 20.66 23.36 21 22 C18.36 22 15.72 22 13 22 C14.65 21.34 16.3 20.68 18 20 C14.26918382 12.38291697 9.12321818 7.08352216 1.3125 3.5625 C-10.87447344 -0.36933082 -26.53487402 0.39871708 -38 6 Z " fill="#597CAB" transform="translate(113,8)"/>
<path d="M0 0 C9.80326656 2.7460529 16.32258798 10.36403085 21.40234375 18.90234375 C25.66013696 27.15767386 29.13935582 35.8828435 31 45 C31.66 45 32.32 45 33 45 C36.20372168 62.39163197 40.21361393 95.57277214 32 112 C31.34 112 30.68 112 30 112 C29.91363281 112.71542969 29.82726562 113.43085937 29.73828125 114.16796875 C28.09269341 125.838055 24.27925634 137.54337079 17 147 C16.34 147 15.68 147 15 147 C14.5875 147.94875 14.175 148.8975 13.75 149.875 C11.86508187 153.24092523 11.50239647 153.80181173 8 155 C5.37573495 155.13958857 2.86707253 155.18931369 0.25 155.125 C-0.44738281 155.11597656 -1.14476563 155.10695312 -1.86328125 155.09765625 C-3.57566958 155.07419888 -5.28788004 155.03833104 -7 155 C-8.5625 152.1875 -8.5625 152.1875 -10 149 C-9.67 148.01 -9.34 147.02 -9 146 C-8.34 146.33 -7.68 146.66 -7 147 C-3.14468664 147.36370881 -0.82630729 147.5287847 2.484375 145.41015625 C5.39970358 142.61705418 7.18121198 139.70696799 8.9375 136.125 C9.27740967 135.43591553 9.61731934 134.74683105 9.9675293 134.03686523 C22.86021596 106.51774174 29.60933273 63.97796271 19.75 34.75 C18.25981222 31.71934902 18.25981222 31.71934902 15.125 31.25 C14.09375 31.1675 13.0625 31.085 12 31 C10.31243867 30.03567924 8.64333504 29.03789581 7 28 C4.80869466 27.30420546 4.80869466 27.30420546 3 27 C2.67 25.68 2.34 24.36 2 23 C3.90401138 21.09598862 5.33425686 20.06479561 8.046875 19.80078125 C10.03233273 19.8113422 12.0169914 19.90084957 14 20 C14 19.01 14 18.02 14 17 C8.42169984 16.87530901 8.42169984 16.87530901 3 18 C5.35277269 15.27573689 7.62496331 14.1858237 11 13 C7.61227103 8.30840284 4.21814817 3.9700218 0 0 Z " fill="#5981B5" transform="translate(119,14)"/>
<path d="M0 0 C3.70437115 2.58444499 5.76412778 5.56656945 7.4375 9.75 C8.17846062 16.04816531 8.25969088 20.45512418 4.6875 25.875 C1.29545405 29.17536903 -1.69406776 30.86734206 -6.3125 31.875 C-8.27139207 31.83355659 -10.2298554 31.76876072 -12.1875 31.6875 C-17.53757071 31.57409451 -20.62181329 32.55342509 -24.984375 35.5859375 C-25.64179687 36.22402344 -25.64179687 36.22402344 -26.3125 36.875 C-26.3125 37.535 -26.3125 38.195 -26.3125 38.875 C-27.9625 39.535 -29.6125 40.195 -31.3125 40.875 C-26.05751859 41.74851934 -21.01009956 42.03209838 -15.6875 42 C-14.90713379 41.99806641 -14.12676758 41.99613281 -13.32275391 41.99414062 C-6.61840447 41.94473293 0.01391776 41.53528376 6.6875 40.875 C6.1925 41.865 6.1925 41.865 5.6875 42.875 C2.81640625 43.47265625 2.81640625 43.47265625 -0.75 43.9375 C-5.17953702 44.41558704 -5.17953702 44.41558704 -9.3125 45.875 C-12.66025114 46.14311258 -16.0177214 46.10666674 -19.375 46.125 C-20.29216797 46.145625 -21.20933594 46.16625 -22.15429688 46.1875 C-28.41588772 46.22300158 -33.51506359 45.24436375 -39.3125 42.875 C-39.3125 42.215 -39.3125 41.555 -39.3125 40.875 C-40.364375 40.483125 -41.41625 40.09125 -42.5 39.6875 C-46.25435504 38.06543586 -48.71174832 36.08769326 -51.3125 32.875 C-52.125 30.0625 -52.125 30.0625 -52.3125 27.875 C-49.0125 27.545 -45.7125 27.215 -42.3125 26.875 C-41.9825 27.535 -41.6525 28.195 -41.3125 28.875 C-39.17858597 22.61551886 -38.72294485 16.45291873 -38.3125 9.875 C-35.8830484 13.5191774 -36.15070425 15.58741272 -36.3125 19.875 C-35.68601562 19.86339844 -35.05953125 19.85179688 -34.4140625 19.83984375 C-33.59679687 19.83082031 -32.77953125 19.82179688 -31.9375 19.8125 C-31.12539062 19.80089844 -30.31328125 19.78929688 -29.4765625 19.77734375 C-27.3125 19.875 -27.3125 19.875 -25.3125 20.875 C-25.34730469 20.22273438 -25.38210937 19.57046875 -25.41796875 18.8984375 C-25.58710966 13.43760246 -25.54469668 9.50781524 -22.3125 4.875 C-16.07155825 -1.55823967 -8.4320507 -2.86371533 0 0 Z " fill="#577CA4" transform="translate(106.3125,58.125)"/>
<path d="M0 0 C0.495 0.99 0.495 0.99 1 2 C1.61746094 1.95359375 2.23492187 1.9071875 2.87109375 1.859375 C9.53696169 1.5752893 14.15153439 2.83561281 20 6 C20 7.32 20 8.64 20 10 C19.030625 10.12375 18.06125 10.2475 17.0625 10.375 C16.051875 10.58125 15.04125 10.7875 14 11 C13.67 11.66 13.34 12.32 13 13 C10.69 13 8.38 13 6 13 C4.99782936 16.58327753 4.99782936 16.58327753 6 20 C8.33247815 20.62852934 10.69291467 21.15535246 13.0625 21.625 C14.35285156 21.88539063 15.64320313 22.14578125 16.97265625 22.4140625 C17.97167969 22.60742188 18.97070312 22.80078125 20 23 C20.495 24.98 20.495 24.98 21 27 C19.68 27.66 18.36 28.32 17 29 C19.97 30.65 22.94 32.3 26 34 C26 34.99 26 35.98 26 37 C18.06927985 39.24703737 18.06927985 39.24703737 14 38 C12.00211562 37.65421232 10.00240549 37.31856451 8 37 C8.33 36.01 8.66 35.02 9 34 C6.36 33.67 3.72 33.34 1 33 C0.67 32.01 0.34 31.02 0 30 C-6.08723655 29.97532919 -12.17444417 29.95715396 -18.26171875 29.94506836 C-20.33366401 29.94003148 -22.4056057 29.93320175 -24.47753906 29.92456055 C-27.45118082 29.91246679 -30.42477569 29.90676533 -33.3984375 29.90234375 C-34.32868744 29.89718246 -35.25893738 29.89202118 -36.21737671 29.88670349 C-37.50848862 29.88659019 -37.50848862 29.88659019 -38.82568359 29.88647461 C-39.58513275 29.884254 -40.34458191 29.88203339 -41.12704468 29.87974548 C-43.09213361 29.88398961 -43.09213361 29.88398961 -45 31 C-45 30.01 -45 29.02 -45 28 C-45.99 27.67 -46.98 27.34 -48 27 C-49.1875 24.4375 -49.1875 24.4375 -50 22 C-40.75647518 18.24438497 -33.08007087 16.33600236 -23 16 C-27.29 16 -31.58 16 -36 16 C-30.14735272 11.61051454 -24.78669723 10.88058969 -17.625 10.25 C-10.94844927 9.42205472 -5.83810909 7.82582963 -1 3 C-0.67 2.01 -0.34 1.02 0 0 Z " fill="#6F737D" transform="translate(153,158)"/>
<path d="M0 0 C0 0.66 0 1.32 0 2 C1.76730469 2.0928125 1.76730469 2.0928125 3.5703125 2.1875 C8.4291201 2.79565397 11.22302089 4.88456759 14.875 8 C15.99658408 8.9176597 17.11894498 9.83437102 18.2421875 10.75 C19.60730469 11.86375 19.60730469 11.86375 21 13 C21.99 13.495 21.99 13.495 23 14 C23.97590121 15.64893653 24.94408528 17.303169 25.86328125 18.984375 C26.995039 20.99120317 28.2304471 22.89059223 29.5 24.8125 C32.33154627 29.29941179 34.17691526 34.03482451 36 39 C36.4125 40.010625 36.825 41.02125 37.25 42.0625 C38.27290253 46.06886825 38.16444506 49.88887349 38 54 C35.87641781 50.81462671 35.28491292 48.50742676 34.375 44.8125 C30.55620238 31.14969072 24.23899028 17.53854351 12.3125 9.1875 C-0.53116586 2.07408506 -15.36829714 0.98247003 -29.6640625 3.6953125 C-43.22838759 7.86625484 -53.95690077 16.1397241 -60.9375 28.5 C-63.51643402 33.62213223 -65.29585061 38.31502917 -66 44 C-66.10828125 44.84175781 -66.2165625 45.68351562 -66.328125 46.55078125 C-66.58182469 48.69721412 -66.79508209 50.84836196 -67 53 C-66.34 53.33 -65.68 53.66 -65 54 C-65.495 54.639375 -65.99 55.27875 -66.5 55.9375 C-68.51629516 60.05410262 -68.60554656 63.49113305 -68 68 C-66.64499863 71.18425322 -65.76738497 72.53956902 -62.8125 74.3125 C-62.214375 74.539375 -61.61625 74.76625 -61 75 C-60.34 74.01 -59.68 73.02 -59 72 C-57.68 72.66 -56.36 73.32 -55 74 C-55 74.66 -55 75.32 -55 76 C-52.03 75.01 -49.06 74.02 -46 73 C-46.33 75.31 -46.66 77.62 -47 80 C-47.66 79.67 -48.32 79.34 -49 79 C-49 78.34 -49 77.68 -49 77 C-49.99 77.495 -49.99 77.495 -51 78 C-53.6723621 78.13415472 -56.32250488 78.04318541 -59 78 C-56.08441421 84.91744729 -56.08441421 84.91744729 -50 89 C-47.68308546 89.72166191 -45.35151077 90.40059529 -43 91 C-43 91.33 -43 91.66 -43 92 C-43.60328125 91.95359375 -44.2065625 91.9071875 -44.828125 91.859375 C-49.910282 91.6225677 -49.910282 91.6225677 -54.5625 93.4375 C-56.68875469 97.2277801 -56.32693592 100.74983302 -56 105 C-54.68 105.33 -53.36 105.66 -52 106 C-55.63 106 -59.26 106 -63 106 C-63.804375 107.5675 -64.60875 109.135 -65.4375 110.75 C-65.88996094 111.63171875 -66.34242187 112.5134375 -66.80859375 113.421875 C-69.08985766 118.35838052 -69.12426243 122.87191755 -69.0625 128.25 C-69.05798828 128.99507812 -69.05347656 129.74015625 -69.04882812 130.5078125 C-69.03709246 132.3385764 -69.0191585 134.16929873 -69 136 C-69.66 135.01 -70.32 134.02 -71 133 C-71.86175198 131.92672708 -72.7369604 130.86412584 -73.625 129.8125 C-74.40875 128.884375 -75.1925 127.95625 -76 127 C-74.68 127 -73.36 127 -72 127 C-71.67 122.71 -71.34 118.42 -71 114 C-70.34 114 -69.68 114 -69 114 C-69 112.02 -69 110.04 -69 108 C-68.01 108 -67.02 108 -66 108 C-66 107.01 -66 106.02 -66 105 C-66.99 104.67 -67.98 104.34 -69 104 C-69.25 97.375 -69.25 97.375 -67 94 C-66.505 93.01 -66.505 93.01 -66 92 C-67.37363991 88.96161767 -68.97015138 86.07385931 -70.5546875 83.140625 C-71.98852467 80.02493559 -72.60411434 77.39040541 -73 74 C-72.01 73.505 -72.01 73.505 -71 73 C-67.44303099 76.17923778 -65.44288019 79.53292272 -63.25 83.75 C-62.77626953 84.65298828 -62.77626953 84.65298828 -62.29296875 85.57421875 C-61.52202105 87.046028 -60.76007676 88.52254742 -60 90 C-58.02 89.505 -58.02 89.505 -56 89 C-56.66 87.68 -57.32 86.36 -58 85 C-58.66 85 -59.32 85 -60 85 C-61 82 -61 82 -60 79 C-61.32 79 -62.64 79 -64 79 C-64 78.01 -64 77.02 -64 76 C-64.99 76 -65.98 76 -67 76 C-67 75.01 -67 74.02 -67 73 C-67.66 73 -68.32 73 -69 73 C-69.3936141 71.12881911 -69.76406825 69.25275884 -70.125 67.375 C-70.33382812 66.33085938 -70.54265625 65.28671875 -70.7578125 64.2109375 C-71.03328405 60.55871787 -70.21361864 58.42694473 -69 55 C-68.76517748 52.52635825 -68.60164515 50.0451827 -68.5 47.5625 C-68.28498964 42.32162249 -67.58638032 37.95743849 -66 33 C-66.99 32.67 -67.98 32.34 -69 32 C-69.33 28.37 -69.66 24.74 -70 21 C-69.34 21 -68.68 21 -68 21 C-67.67 20.01 -67.34 19.02 -67 18 C-63.535 17.505 -63.535 17.505 -60 17 C-60 18.32 -60 19.64 -60 21 C-57.70139597 18.78652946 -55.66553391 16.57513768 -53.6875 14.0625 C-40.65867118 -1.71553123 -18.49040695 -0.46596399 0 0 Z " fill="#4D4A4D" transform="translate(113,8)"/>
<path d="M0 0 C1.54300781 -0.03867187 1.54300781 -0.03867187 3.1171875 -0.078125 C6.53720687 0.29496802 8.37525853 1.21972493 11.125 3.25 C13.4208886 7.84177721 12.72946008 14.04569177 11.40625 18.87109375 C9.90624883 22.55456437 8.65233169 24.81270055 5.5625 27.375 C3.125 28.25 3.125 28.25 0.125 27.25 C-0.5625 25.1875 -0.5625 25.1875 -0.875 23.25 C-1.865 23.25 -2.855 23.25 -3.875 23.25 C-4.205 24.9 -4.535 26.55 -4.875 28.25 C-8.125 28.25 -8.125 28.25 -11.875 27.25 C-15.58522787 23.05861866 -16.52342888 17.81347221 -16.26953125 12.359375 C-15.42494695 7.8437758 -12.36088354 4.12964293 -8.875 1.25 C-5.71490467 0.19663489 -3.3196864 0.04967112 0 0 Z " fill="#FBFBFB" transform="translate(97.875,58.75)"/>
<path d="M0 0 C0.33 1.32 0.66 2.64 1 4 C0.67 3.34 0.34 2.68 0 2 C-0.99 2.495 -0.99 2.495 -2 3 C-1.34 3.763125 -0.68 4.52625 0 5.3125 C2 8 2 8 2 11 C2.66 11 3.32 11 4 11 C4.2475 12.010625 4.495 13.02125 4.75 14.0625 C7.34284469 20.02001292 13.36896656 22.43928117 19 25 C30.67301926 29.17634689 42.68258619 31.09465817 55 32 C55.495 33.98 55.495 33.98 56 36 C51.38 36 46.76 36 42 36 C42 36.33 42 36.66 42 37 C37.68376644 37.0959163 33.43169914 36.94505456 29.125 36.625 C28.17882812 36.55539063 27.23265625 36.48578125 26.2578125 36.4140625 C25.51273438 36.27742188 24.76765625 36.14078125 24 36 C23.67 35.34 23.34 34.68 23 34 C20.81273734 33.56786991 20.81273734 33.56786991 18.25 33.4375 C14.76167469 33.15763436 11.4161563 32.79710314 8 32 C8 31.34 8 30.68 8 30 C7.34 30 6.68 30 6 30 C6 29.01 6 28.02 6 27 C5.05125 26.7525 4.1025 26.505 3.125 26.25 C0 25 0 25 -1.3125 23.125 C-1.96946538 21.09437973 -2.55277612 19.08704478 -3 17 C-3.66 17 -4.32 17 -5 17 C-5.12375 16.195625 -5.2475 15.39125 -5.375 14.5625 C-5.58125 13.716875 -5.7875 12.87125 -6 12 C-6.66 11.67 -7.32 11.34 -8 11 C-8.66796875 8.96875 -8.66796875 8.96875 -9.1875 6.5 C-9.36667969 5.6853125 -9.54585937 4.870625 -9.73046875 4.03125 C-9.81941406 3.3609375 -9.90835937 2.690625 -10 2 C-8.41727399 0.41727399 -6.61965997 0.65264253 -4.4375 0.4375 C-3.19806641 0.31181641 -3.19806641 0.31181641 -1.93359375 0.18359375 C-0.97646484 0.09271484 -0.97646484 0.09271484 0 0 Z " fill="#876551" transform="translate(41,133)"/>
<path d="M0 0 C3.311115 2.82418633 4.94788204 5.47543307 5.5234375 9.8203125 C5.51570313 10.84898438 5.50796875 11.87765625 5.5 12.9375 C5.50773437 13.97132812 5.51546875 15.00515625 5.5234375 16.0703125 C5.125 18.8125 5.125 18.8125 3.83203125 20.63671875 C1.14384183 22.48830917 -1.68650779 22.51169885 -4.875 22.8125 C-5.535 21.8225 -6.195 20.8325 -6.875 19.8125 C-7.535 19.8125 -8.195 19.8125 -8.875 19.8125 C-9.535 20.8025 -10.195 21.7925 -10.875 22.8125 C-14.91089821 20.74001173 -17.12493671 19.04949534 -18.875 14.8125 C-19.60920399 9.96854443 -19.33423095 6.6992908 -17.0625 2.3125 C-12.82038191 -2.53563496 -5.69100624 -2.35063301 0 0 Z " fill="#F9F9F9" transform="translate(62.875,61.1875)"/>
<path d="M0 0 C3.44432594 0.54796094 4.3978621 2.01702737 6.50146484 4.67456055 C8.48491954 7.47521099 10.00984936 10.45459255 11.4375 13.5625 C11.73857666 14.20904541 12.03965332 14.85559082 12.34985352 15.52172852 C14.93313738 21.33358244 16.17169322 27.09972983 16.75 33.4375 C12.84601555 35.51962504 10.13697798 35.4375 5.75 35.4375 C2.46428571 27.00892857 2.46428571 27.00892857 1.75 22.4375 C1.09 22.4375 0.43 22.4375 -0.25 22.4375 C-2.49417317 15.41110066 -4.04331839 8.85197571 -3.25 1.4375 C-2.25 0.4375 -2.25 0.4375 0 0 Z " fill="#6E5548" transform="translate(94.25,137.5625)"/>
<path d="M0 0 C1.77600998 0.02513528 3.55205455 0.04793914 5.328125 0.06835938 C9.63628643 0.12289274 13.94275144 0.20886839 18.25 0.3125 C18.25 1.3025 18.25 2.2925 18.25 3.3125 C16.95964844 3.36148438 15.66929687 3.41046875 14.33984375 3.4609375 C12.62237653 3.53601803 10.90492959 3.61156354 9.1875 3.6875 C8.33994141 3.7184375 7.49238281 3.749375 6.61914062 3.78125 C5.78447266 3.81992188 4.94980469 3.85859375 4.08984375 3.8984375 C3.33050537 3.9298584 2.57116699 3.9612793 1.78881836 3.99365234 C-1.4578854 4.40140262 -4.60369359 5.41355531 -7.75 6.3125 C-0.49 6.3125 6.77 6.3125 14.25 6.3125 C7.50377059 13.05872941 -3.54832694 11.67852139 -12.5 11.6875 C-13.80066406 11.71199219 -15.10132813 11.73648438 -16.44140625 11.76171875 C-18.31892578 11.76751953 -18.31892578 11.76751953 -20.234375 11.7734375 C-21.93158691 11.78576416 -21.93158691 11.78576416 -23.66308594 11.79833984 C-27.40786874 11.20896008 -29.09520837 9.9716275 -31.75 7.3125 C-31.75 6.6525 -31.75 5.9925 -31.75 5.3125 C-21.26920286 -0.56538762 -11.68848397 -0.28980616 0 0 Z " fill="#A6A3B4" transform="translate(136.75,174.6875)"/>
<path d="M0 0 C3.70437115 2.58444499 5.76412778 5.56656945 7.4375 9.75 C8.17846062 16.04816531 8.25969088 20.45512418 4.6875 25.875 C0.5368828 29.91343836 -3.3724497 31.86316087 -9.22265625 31.88671875 C-11.31860601 31.83833109 -13.41415073 31.76155511 -15.5078125 31.65234375 C-18.77704108 31.91187861 -19.81684081 32.85967689 -22.3125 34.875 C-26.0625 35.0625 -26.0625 35.0625 -29.3125 34.875 C-29.3125 35.535 -29.3125 36.195 -29.3125 36.875 C-30.6325 36.545 -31.9525 36.215 -33.3125 35.875 C-32.3225 35.875 -31.3325 35.875 -30.3125 35.875 C-30.3125 34.885 -30.3125 33.895 -30.3125 32.875 C-28.3325 32.215 -26.3525 31.555 -24.3125 30.875 C-23.9825 29.225 -23.6525 27.575 -23.3125 25.875 C-26.40577895 22.89824541 -26.40577895 22.89824541 -30.3125 21.875 C-30.6425 23.195 -30.9725 24.515 -31.3125 25.875 C-32.6325 26.205 -33.9525 26.535 -35.3125 26.875 C-35.60125 26.235625 -35.89 25.59625 -36.1875 24.9375 C-37.14073451 22.72293921 -37.14073451 22.72293921 -39.3125 21.875 C-38.9825 17.915 -38.6525 13.955 -38.3125 9.875 C-35.8830484 13.5191774 -36.15070425 15.58741272 -36.3125 19.875 C-35.68601562 19.86339844 -35.05953125 19.85179688 -34.4140625 19.83984375 C-33.59679687 19.83082031 -32.77953125 19.82179688 -31.9375 19.8125 C-31.12539062 19.80089844 -30.31328125 19.78929688 -29.4765625 19.77734375 C-27.3125 19.875 -27.3125 19.875 -25.3125 20.875 C-25.36470703 19.89660156 -25.36470703 19.89660156 -25.41796875 18.8984375 C-25.58710966 13.43760246 -25.54469668 9.50781524 -22.3125 4.875 C-16.07155825 -1.55823967 -8.4320507 -2.86371533 0 0 Z M-21.5625 6.4375 C-24.77828316 10.91662654 -24.91384858 14.46286276 -24.3125 19.875 C-23.45911177 22.94925398 -22.44005682 25.47153524 -20.3125 27.875 C-16.68596335 29.01456727 -16.68596335 29.01456727 -13.3125 28.875 C-12.9825 27.225 -12.6525 25.575 -12.3125 23.875 C-10.9925 24.205 -9.6725 24.535 -8.3125 24.875 C-8.3125 26.195 -8.3125 27.515 -8.3125 28.875 C-4.85440006 28.57859143 -3.35739121 27.91153935 -0.625 25.6875 C3.77245506 20.33924384 4.125386 15.10700782 4.015625 8.375 C3.86179377 5.6838901 3.86179377 5.6838901 1.8125 3.25 C-1.7284141 0.95882029 -3.89932936 0.68752534 -8.125 0.625 C-9.16269531 0.59921875 -10.20039062 0.5734375 -11.26953125 0.546875 C-15.97925094 1.05472667 -18.48433594 2.93181315 -21.5625 6.4375 Z " fill="#484B56" transform="translate(106.3125,58.125)"/>
<path d="M0 0 C3.45377019 1.04613084 4.11723617 2.20324043 5.96484375 5.40625 C6.97367003 7.45586538 7.94659684 9.51950626 8.91210938 11.58984375 C10.9623463 15.8076785 10.9623463 15.8076785 14.75390625 18.46875 C15.49511719 18.6440625 16.23632812 18.819375 17 19 C15.68 20.32 14.36 21.64 13 23 C12.67 22.67 12.34 22.34 12 22 C12.165 22.639375 12.33 23.27875 12.5 23.9375 C13 26 13 26 13 27 C13.99 27.33 14.98 27.66 16 28 C16 29.32 16 30.64 16 32 C17.32 32.33 18.64 32.66 20 33 C16.37 33 12.74 33 9 33 C8.195625 34.5675 7.39125 36.135 6.5625 37.75 C6.11003906 38.63171875 5.65757813 39.5134375 5.19140625 40.421875 C2.91014234 45.35838052 2.87573757 49.87191755 2.9375 55.25 C2.94201172 55.99507812 2.94652344 56.74015625 2.95117188 57.5078125 C2.96290754 59.3385764 2.9808415 61.16929873 3 63 C2.34 62.01 1.68 61.02 1 60 C0.13824802 58.92672708 -0.7369604 57.86412584 -1.625 56.8125 C-2.800625 55.4203125 -2.800625 55.4203125 -4 54 C-2.68 54 -1.36 54 0 54 C0.33 49.71 0.66 45.42 1 41 C1.66 41 2.32 41 3 41 C3 39.02 3 37.04 3 35 C3.99 35 4.98 35 6 35 C6 34.01 6 33.02 6 32 C5.01 31.67 4.02 31.34 3 31 C2.75 24.375 2.75 24.375 5 21 C5.33 20.34 5.66 19.68 6 19 C4.62636009 15.96161767 3.02984862 13.07385931 1.4453125 10.140625 C0.00414572 7.00900854 -0.68971015 4.42319774 -1 1 C-0.67 0.67 -0.34 0.34 0 0 Z " fill="#5B5451" transform="translate(41,81)"/>
<path d="M0 0 C0 0.66 0 1.32 0 2 C1.17820313 2.061875 2.35640625 2.12375 3.5703125 2.1875 C8.4291201 2.79565397 11.22302089 4.88456759 14.875 8 C15.99658408 8.9176597 17.11894498 9.83437102 18.2421875 10.75 C19.60730469 11.86375 19.60730469 11.86375 21 13 C21.99 13.495 21.99 13.495 23 14 C23.97590121 15.64893653 24.94408528 17.303169 25.86328125 18.984375 C26.995039 20.99120317 28.2304471 22.89059223 29.5 24.8125 C32.33154627 29.29941179 34.17691526 34.03482451 36 39 C36.4125 40.010625 36.825 41.02125 37.25 42.0625 C38.27290253 46.06886825 38.16444506 49.88887349 38 54 C35.87641781 50.81462671 35.28491292 48.50742676 34.375 44.8125 C30.55620238 31.14969072 24.23899028 17.53854351 12.3125 9.1875 C-0.53116586 2.07408506 -15.36829714 0.98247003 -29.6640625 3.6953125 C-40.88164032 7.14464521 -49.1365387 13.45275946 -57 22 C-57.33 21.34 -57.66 20.68 -58 20 C-55.82519306 15.10668438 -52.14231698 12.18899352 -48 9 C-47.45988281 8.55398437 -46.91976562 8.10796875 -46.36328125 7.6484375 C-33.38120084 -1.86203039 -15.17667921 -0.52312563 0 0 Z " fill="#48484D" transform="translate(113,8)"/>
<path d="M0 0 C-0.33 1.65 -0.66 3.3 -1 5 C-0.34 5 0.32 5 1 5 C1.33 4.34 1.66 3.68 2 3 C1.67 4.32 1.34 5.64 1 7 C0.01 7 -0.98 7 -2 7 C-1.34 8.65 -0.68 10.3 0 12 C0.90363281 11.97679687 1.80726563 11.95359375 2.73828125 11.9296875 C3.91777344 11.91164062 5.09726563 11.89359375 6.3125 11.875 C8.07013672 11.84019531 8.07013672 11.84019531 9.86328125 11.8046875 C13 12 13 12 16 14 C10.39 13.67 4.78 13.34 -1 13 C-1.495 11.515 -1.495 11.515 -2 10 C-8.08723655 9.97532919 -14.17444417 9.95715396 -20.26171875 9.94506836 C-22.33366401 9.94003148 -24.4056057 9.93320175 -26.47753906 9.92456055 C-29.45118082 9.91246679 -32.42477569 9.90676533 -35.3984375 9.90234375 C-36.32868744 9.89718246 -37.25893738 9.89202118 -38.21737671 9.88670349 C-39.50848862 9.88659019 -39.50848862 9.88659019 -40.82568359 9.88647461 C-41.58513275 9.884254 -42.34458191 9.88203339 -43.12704468 9.87974548 C-45.09213361 9.88398961 -45.09213361 9.88398961 -47 11 C-47 10.01 -47 9.02 -47 8 C-47.99 7.67 -48.98 7.34 -50 7 C-51.1875 4.4375 -51.1875 4.4375 -52 2 C-51.34 2 -50.68 2 -50 2 C-49.26813477 2.813479 -48.53626953 3.62695801 -47.78222656 4.46508789 C-44.39588734 7.55041258 -42.98818431 7.61214944 -38.484375 7.55859375 C-37.23269531 7.55150391 -35.98101562 7.54441406 -34.69140625 7.53710938 C-33.39074219 7.50423828 -32.09007812 7.47136719 -30.75 7.4375 C-29.46480469 7.43169922 -28.17960937 7.42589844 -26.85546875 7.41992188 C-15.61516034 7.34827225 -15.61516034 7.34827225 -5 4 C-12.59 4 -20.18 4 -28 4 C-22.30663822 -0.27002133 -17.19218124 -0.22820753 -10.3125 -0.625 C-9.54099609 -0.6765625 -8.76949219 -0.728125 -7.97460938 -0.78125 C-2.24325478 -1.12162739 -2.24325478 -1.12162739 0 0 Z " fill="#6D696C" transform="translate(155,178)"/>
<path d="M0 0 C1.5912689 4.873261 2.21192221 8.80790596 2 14 C-1.64043263 15.21347754 -5.02055186 15.2224972 -8.8125 15.25 C-9.51181641 15.270625 -10.21113281 15.29125 -10.93164062 15.3125 C-15.72306977 15.34835728 -18.89852236 14.44672136 -23 12 C-22.42655063 9.13275314 -22.1385485 8.1385485 -20 6 C-17.8984375 5.5078125 -17.8984375 5.5078125 -15.375 5.125 C-10.26702223 4.20704457 -4.82030271 0 0 0 Z " fill="#C29D7D" transform="translate(119,108)"/>
<path d="M0 0 C2.34914492 2.34914492 2.73140357 3.95679446 3.625 7.125 C4.01558594 8.49011719 4.01558594 8.49011719 4.4140625 9.8828125 C4.70410156 10.93082031 4.70410156 10.93082031 5 12 C7.41619823 12.25030977 7.41619823 12.25030977 10 12 C10.66 11.01 11.32 10.02 12 9 C12 10.32 12 11.64 12 13 C12.99 12.34 13.98 11.68 15 11 C14.67 8.36 14.34 5.72 14 3 C14.66 3.33 15.32 3.66 16 4 C16.625 6.5625 16.625 6.5625 17 9 C19.41700987 8.85870713 21.83350429 8.71213513 24.25 8.5625 C24.93191406 8.52318359 25.61382812 8.48386719 26.31640625 8.44335938 C29.02047 8.27271458 31.61609555 8.09597611 34.25 7.4375 C37.21428363 6.69642909 40.03438272 7.48672009 43 8 C43 8.33 43 8.66 43 9 C42.3709375 9.03738281 41.741875 9.07476562 41.09375 9.11328125 C39.80984375 9.21189453 39.80984375 9.21189453 38.5 9.3125 C37.6646875 9.37050781 36.829375 9.42851562 35.96875 9.48828125 C32.06681336 10.06559078 32.06681336 10.06559078 25 13 C33.25 13.33 41.5 13.66 50 14 C50 14.33 50 14.66 50 15 C49.20416504 15.0093457 48.40833008 15.01869141 47.58837891 15.02832031 C43.93332349 15.08246928 40.27948716 15.16603076 36.625 15.25 C35.37332031 15.26417969 34.12164062 15.27835938 32.83203125 15.29296875 C25.84480503 15.47588043 20.22368244 16.15468633 13.86865234 19.15136719 C12 20 12 20 10 20 C10 19.34 10 18.68 10 18 C10.99 17.34 11.98 16.68 13 16 C12.03320312 15.80664062 11.06640625 15.61328125 10.0703125 15.4140625 C-0.96484375 13.20703125 -0.96484375 13.20703125 -12 11 C-12 10.34 -12 9.68 -12 9 C-13.65 9 -15.3 9 -17 9 C-17 8.67 -17 8.34 -17 8 C-10.73 8.33 -4.46 8.66 2 9 C1.34 6.03 0.68 3.06 0 0 Z " fill="#474248" transform="translate(95,160)"/>
<path d="M0 0 C0.763125 0.309375 1.52625 0.61875 2.3125 0.9375 C4.18789677 1.67893593 6.08684652 2.36228217 8 3 C8.33 2.34 8.66 1.68 9 1 C11.31 1 13.62 1 16 1 C16.33 2.32 16.66 3.64 17 5 C15.02 5.99 15.02 5.99 13 7 C17.455 9.475 17.455 9.475 22 12 C22 12.99 22 13.98 22 15 C14.06927985 17.24703737 14.06927985 17.24703737 10 16 C8.00211562 15.65421232 6.00240549 15.31856451 4 15 C4.33 14.01 4.66 13.02 5 12 C6.98 11.67 8.96 11.34 11 11 C6.71 10.67 2.42 10.34 -2 10 C-2.66 8.35 -3.32 6.7 -4 5 C-3.01 4.67 -2.02 4.34 -1 4 C-0.26676204 1.98491642 -0.26676204 1.98491642 0 0 Z " fill="#7D797B" transform="translate(157,180)"/>
<path d="M0 0 C3.34538777 1.28259566 6.4703409 2.74411276 9.625 4.4375 C21.44973431 10.39366247 34.93680831 12.03984278 48 13 C48.495 14.98 48.495 14.98 49 17 C44.38 17 39.76 17 35 17 C35 17.33 35 17.66 35 18 C30.63885332 18.16773641 27.77704704 18.17466345 24 16 C22.783125 15.566875 21.56625 15.13375 20.3125 14.6875 C12.2252316 11.66604842 5.5861288 7.68180037 0 1 C0 0.67 0 0.34 0 0 Z " fill="#5A7FAE" transform="translate(48,152)"/>
<path d="M0 0 C1.77734375 0.5 1.77734375 0.5 4 2 C5.36476793 4.67670614 6.49644789 7.20876792 7.5625 10 C7.86478516 10.76658936 8.16707031 11.53317871 8.47851562 12.32299805 C14.60040072 28.05431721 14.60040072 28.05431721 13 33 C11.35 33 9.7 33 8 33 C3.78049212 22.2402549 -0.19359976 11.61598535 0 0 Z " fill="#D3AA85" transform="translate(92,140)"/>
<path d="M0 0 C3.46265264 0.3147866 5.58585959 0.70266842 8.4375 2.75 C10 5 10 5 9.875 7.625 C9 10 9 10 7 12 C4.375 12.125 4.375 12.125 2 12 C2 12.99 2 13.98 2 15 C0.68 15 -0.64 15 -2 15 C-2 14.34 -2 13.68 -2 13 C-2.804375 12.855625 -3.60875 12.71125 -4.4375 12.5625 C-7 12 -7 12 -8 11 C-8.23728814 4.47457627 -8.23728814 4.47457627 -7 2 C-6.34 2 -5.68 2 -5 2 C-4.01 3.485 -4.01 3.485 -3 5 C-1.01508358 4.73323796 -1.01508358 4.73323796 1 4 C1.33 3.01 1.66 2.02 2 1 C1.34 0.67 0.68 0.34 0 0 Z " fill="#B59376" transform="translate(74,79)"/>
<path d="M0 0 C0.63035156 0.16242188 1.26070313 0.32484375 1.91015625 0.4921875 C6.10107864 1.18096109 10.1980696 1.14458166 14.4375 1.125 C15.68756836 1.13080078 15.68756836 1.13080078 16.96289062 1.13671875 C21.44564884 1.12963139 25.57431616 0.75041635 30 0 C32.79320691 -0.11703673 35.58000326 -0.09535258 38.375 -0.0625 C39.11105469 -0.05798828 39.84710938 -0.05347656 40.60546875 -0.04882812 C42.40368158 -0.03715142 44.20185197 -0.01922011 46 0 C41.93868988 4.58426261 36.45614141 4.82949395 30.63085938 5.23388672 C26.8349024 5.37550434 23.04847351 5.42035544 19.25 5.4375 C17.94933594 5.47037109 16.64867187 5.50324219 15.30859375 5.53710938 C14.05691406 5.54419922 12.80523437 5.55128906 11.515625 5.55859375 C10.38415039 5.57204834 9.25267578 5.58550293 8.08691406 5.59936523 C4.08959585 4.82323298 2.58888333 3.04945812 0 0 Z " fill="#F7F6F6" transform="translate(105,181)"/>
<path d="M0 0 C0.61875 0.969375 1.2375 1.93875 1.875 2.9375 C3.62519095 6.12771338 3.62519095 6.12771338 6.1875 6.6875 C6.785625 6.790625 7.38375 6.89375 8 7 C8.33 7.99 8.66 8.98 9 10 C7.9375 11.5 7.9375 11.5 6 13 C1.68281133 13.66418287 -1.16836865 13.24266033 -4.8125 10.9375 C-8.45907412 8.09219104 -9.21068928 5.47276077 -10 1 C-2.25 0 -2.25 0 0 0 Z " fill="#92D4F6" transform="translate(64,85)"/>
<path d="M0 0 C0.86625 -0.00773437 1.7325 -0.01546875 2.625 -0.0234375 C5 0.375 5 0.375 6.8203125 1.67578125 C8 3.375 8 3.375 7.875 6.9375 C7 10.375 7 10.375 4 12.375 C1.08203125 12.5703125 1.08203125 12.5703125 -2.1875 12.5 C-3.27417969 12.48195313 -4.36085938 12.46390625 -5.48046875 12.4453125 C-6.72763672 12.41050781 -6.72763672 12.41050781 -8 12.375 C-8.33 11.055 -8.66 9.735 -9 8.375 C-7.09598862 6.47098862 -5.66574314 5.43979561 -2.953125 5.17578125 C-0.96766727 5.1863422 1.0169914 5.27584957 3 5.375 C3 4.385 3 3.395 3 2.375 C-2.57830016 2.25030901 -2.57830016 2.25030901 -8 3.375 C-5.53942518 0.31546946 -3.87051927 -0.03455821 0 0 Z " fill="#455876" transform="translate(130,28.625)"/>
<path d="M0 0 C1.5912689 4.873261 2.21192221 8.80790596 2 14 C-1.64043263 15.21347754 -5.02055186 15.2224972 -8.8125 15.25 C-9.51181641 15.270625 -10.21113281 15.29125 -10.93164062 15.3125 C-15.72306977 15.34835728 -18.89852236 14.44672136 -23 12 C-22.67 10.68 -22.34 9.36 -22 8 C-21.67 9.32 -21.34 10.64 -21 12 C-10.89454777 11.98022777 -10.89454777 11.98022777 -2 8 C-1.02525184 4.91038542 -1.02525184 4.91038542 -1 2 C-2.98 2.66 -4.96 3.32 -7 4 C-3.17391304 0 -3.17391304 0 0 0 Z " fill="#4E525D" transform="translate(119,108)"/>
<path d="M0 0 C3.45377019 1.04613084 4.11723617 2.20324043 5.96484375 5.40625 C6.97367003 7.45586538 7.94659684 9.51950626 8.91210938 11.58984375 C10.9623463 15.8076785 10.9623463 15.8076785 14.75390625 18.46875 C15.49511719 18.6440625 16.23632812 18.819375 17 19 C15.68 20.32 14.36 21.64 13 23 C12.67 22.67 12.34 22.34 12 22 C12.33 23.32 12.66 24.64 13 26 C9.97989537 23.27161002 8.67806741 20.41760335 7.0625 16.7421875 C6.04823002 14.65758182 6.04823002 14.65758182 3 14 C0.81294652 9.71001048 -0.53936034 5.83671646 -1 1 C-0.67 0.67 -0.34 0.34 0 0 Z " fill="#986569" transform="translate(41,81)"/>
<path d="M0 0 C7.38461538 -0.36923077 7.38461538 -0.36923077 10.5 1.5 C10.995 1.995 11.49 2.49 12 3 C11.195625 3.226875 10.39125 3.45375 9.5625 3.6875 C8.716875 4.120625 7.87125 4.55375 7 5 C6.10613836 7.54775306 6.10613836 7.54775306 6 10 C7.03125 10.144375 8.0625 10.28875 9.125 10.4375 C12.42549813 10.91660457 15.71268341 11.43875083 19 12 C18.67 12.66 18.34 13.32 18 14 C14.04 13.67 10.08 13.34 6 13 C6 15.31 6 17.62 6 20 C5.34 20 4.68 20 4 20 C4 19.34 4 18.68 4 18 C2.35 18.33 0.7 18.66 -1 19 C-0.525625 18.5875 -0.05125 18.175 0.4375 17.75 C2.16266518 15.817815 2.56584875 14.51807725 3 12 C3.66 12 4.32 12 5 12 C4.67 11.01 4.34 10.02 4 9 C3.34 9.66 2.68 10.32 2 11 C1.01 11 0.02 11 -1 11 C-1 10.34 -1 9.68 -1 9 C-3.31 8.67 -5.62 8.34 -8 8 C-7.67 7.34 -7.34 6.68 -7 6 C-3.7 6.33 -0.4 6.66 3 7 C3.33 5.35 3.66 3.7 4 2 C2.68 1.34 1.36 0.68 0 0 Z " fill="#37414C" transform="translate(62,114)"/>
<path d="M0 0 C2.8198943 2.8198943 2.25833974 4.65138577 2.265625 8.59765625 C2.26971878 9.59120621 2.26971878 9.59120621 2.27389526 10.60482788 C2.27794978 12.75758835 2.26533193 14.90979585 2.25 17.0625 C2.24756287 17.78809113 2.24512573 18.51368225 2.24261475 19.26126099 C2.15294231 41.84335028 2.15294231 41.84335028 0 51 C-0.99 51.495 -0.99 51.495 -2 52 C-1.93941406 50.84371094 -1.87882813 49.68742187 -1.81640625 48.49609375 C-0.99666611 32.33715181 -0.48871733 16.17167231 0 0 Z " fill="#39363C" transform="translate(152,73)"/>
<path d="M0 0 C0 1.32 0 2.64 0 4 C0.66 4 1.32 4 2 4 C1.35550393 7.01217112 0.34977818 9.51655836 -1.0625 12.25 C-1.42472656 12.95640625 -1.78695312 13.6628125 -2.16015625 14.390625 C-2.57587891 15.18726563 -2.57587891 15.18726563 -3 16 C-6 15 -6 15 -7.1875 12.9375 C-8.23642055 9.14524878 -8.13319932 5.92937998 -8 2 C-5.09399739 0.74335022 -3.20395416 0 0 0 Z " fill="#5B6371" transform="translate(53,25)"/>
<path d="M0 0 C0 0.33 0 0.66 0 1 C-1.30710937 1.03867188 -1.30710937 1.03867188 -2.640625 1.078125 C-20.39654111 1.92364481 -33.01143208 7.96894792 -45 21 C-45.33 20.34 -45.66 19.68 -46 19 C-43.82519306 14.10668438 -40.14231698 11.18899352 -36 8 C-35.45988281 7.55398437 -34.91976562 7.10796875 -34.36328125 6.6484375 C-25.01683053 -0.19862527 -11.13766501 -2.21309974 0 0 Z " fill="#55595D" transform="translate(101,9)"/>
<path d="M0 0 C0.969375 0.886875 1.93875 1.77375 2.9375 2.6875 C10.22389423 8.8787448 17.73393826 11.86967179 27 14 C23.20960634 16.12999997 20.34263862 16.16702456 16 16 C16 15.34 16 14.68 16 14 C15.00419922 13.90912109 15.00419922 13.90912109 13.98828125 13.81640625 C5.21792619 12.98418278 5.21792619 12.98418278 1 12 C1 11.01 1 10.02 1 9 C1.66 9 2.32 9 3 9 C3.33 8.34 3.66 7.68 4 7 C4 7.66 4 8.32 4 9 C4.66 9 5.32 9 6 9 C5.566875 8.51789063 5.13375 8.03578125 4.6875 7.5390625 C4.130625 6.90742188 3.57375 6.27578125 3 5.625 C2.443125 4.99851563 1.88625 4.37203125 1.3125 3.7265625 C0 2 0 2 0 0 Z " fill="#4E4A4F" transform="translate(48,153)"/>
<path d="M0 0 C4.8747919 3.71412716 8.74536187 7.77180471 12 13 C12 13.66 12 14.32 12 15 C12.99 15.33 13.98 15.66 15 16 C16.60546875 17.55859375 16.60546875 17.55859375 18.1875 19.4375 C18.71730469 20.05496094 19.24710938 20.67242187 19.79296875 21.30859375 C21 23 21 23 21 25 C14.84971241 24.45184603 12.31954154 20.56242418 8.44921875 16.13671875 C0 5.31578947 0 5.31578947 0 0 Z " fill="#CEA684" transform="translate(33,137)"/>
<path d="M0 0 C2.37327719 2.37327719 2.2957818 2.94974106 2.3125 6.1875 C2.15244337 12.04368951 0.77565854 16.22434146 -3.4375 20.4375 C-8.6042887 22.70363539 -13.44050027 22.32385435 -19 22 C-18.34 21.67 -17.68 21.34 -17 21 C-17 19.35 -17 17.7 -17 16 C-15.125 15.375 -15.125 15.375 -13 15 C-11 17 -11 17 -11 20 C-8.07471774 19.66916219 -8.07471774 19.66916219 -5 18 C-1.2258875 12.52107032 -0.41235983 6.49466725 0 0 Z " fill="#B7B4C3" transform="translate(110,66)"/>
<path d="M0 0 C-0.33 1.65 -0.66 3.3 -1 5 C-0.34 5 0.32 5 1 5 C1.33 4.34 1.66 3.68 2 3 C1.67 4.32 1.34 5.64 1 7 C0.01 6.67 -0.98 6.34 -2 6 C-2.33 5.34 -2.66 4.68 -3 4 C-11.25 4 -19.5 4 -28 4 C-22.30663822 -0.27002133 -17.19218124 -0.22820753 -10.3125 -0.625 C-9.54099609 -0.6765625 -8.76949219 -0.728125 -7.97460938 -0.78125 C-2.24325478 -1.12162739 -2.24325478 -1.12162739 0 0 Z " fill="#585057" transform="translate(155,178)"/>
<path d="M0 0 C2.4294516 3.6441774 2.16179575 5.71241272 2 10 C2.62648438 9.98839844 3.25296875 9.97679688 3.8984375 9.96484375 C4.71570313 9.95582031 5.53296875 9.94679688 6.375 9.9375 C7.18710938 9.92589844 7.99921875 9.91429688 8.8359375 9.90234375 C11 10 11 10 13 11 C13 7.7 13 4.4 13 1 C13.33 1 13.66 1 14 1 C14.33 4.96 14.66 8.92 15 13 C12.69 12.67 10.38 12.34 8 12 C7.67 13.32 7.34 14.64 7 16 C5.68 16.33 4.36 16.66 3 17 C2.71125 16.360625 2.4225 15.72125 2.125 15.0625 C1.17176549 12.84793921 1.17176549 12.84793921 -1 12 C-0.67 8.04 -0.34 4.08 0 0 Z " fill="#49454A" transform="translate(68,68)"/>
<path d="M0 0 C0.99 0 1.98 0 3 0 C3.3403125 0.928125 3.3403125 0.928125 3.6875 1.875 C5.47621004 4.77100673 6.72178232 5.09325894 10 6 C12.99302637 6.4369015 15.98593834 6.75046984 19 7 C19 7.66 19 8.32 19 9 C18.18015625 8.96519531 17.3603125 8.93039063 16.515625 8.89453125 C14.89914063 8.85392578 14.89914063 8.85392578 13.25 8.8125 C12.18265625 8.77769531 11.1153125 8.74289063 10.015625 8.70703125 C6.6261356 9.03632102 5.57608278 9.90420384 3 12 C-0.75 12.1875 -0.75 12.1875 -4 12 C-4 12.66 -4 13.32 -4 14 C-5.32 13.67 -6.64 13.34 -8 13 C-7.01 13 -6.02 13 -5 13 C-5 12.01 -5 11.02 -5 10 C-3.02 9.34 -1.04 8.68 1 8 C1.6878236 5.64632287 1.6878236 5.64632287 2 3 C1.34 2.01 0.68 1.02 0 0 Z " fill="#474854" transform="translate(81,81)"/>
<path d="M0 0 C3.11674776 0.92156329 4.64676617 1.43364185 6.3984375 4.2421875 C6.72070312 5.11101562 7.04296875 5.97984375 7.375 6.875 C7.71273437 7.73867187 8.05046875 8.60234375 8.3984375 9.4921875 C9.03884936 12.16195644 9.13024251 13.50451407 8 16 C7.01 16.33 6.02 16.66 5 17 C5 15.68 5 14.36 5 13 C4.34 13 3.68 13 3 13 C2.49487756 11.39743892 1.99608373 9.79288208 1.5 8.1875 C1.2215625 7.29417969 0.943125 6.40085938 0.65625 5.48046875 C0 3 0 3 0 0 Z " fill="#8E644A" transform="translate(102,156)"/>
<path d="M0 0 C3 1 3 1 4.31640625 3.51171875 C4.72761719 4.55972656 5.13882813 5.60773437 5.5625 6.6875 C5.97628906 7.72261719 6.39007813 8.75773437 6.81640625 9.82421875 C10.2699778 19.09073252 10.2699778 19.09073252 10.125 23.875 C10.10695312 24.65617187 10.08890625 25.43734375 10.0703125 26.2421875 C10.03550781 27.11230469 10.03550781 27.11230469 10 28 C7.82999747 24.74499621 7.11891003 22.1452868 6.125 18.375 C4.70699524 13.22540376 3.07809071 8.46747791 0.734375 3.671875 C0 2 0 2 0 0 Z " fill="#423F46" transform="translate(141,34)"/>
<path d="M0 0 C1 1 1 1 1.0625 4.5625 C1.041875 5.696875 1.02125 6.83125 1 8 C0.34 8 -0.32 8 -1 8 C-1.07734375 8.59296875 -1.1546875 9.1859375 -1.234375 9.796875 C-2.258364 12.7434556 -3.66446678 13.55484908 -6.25 15.25 C-7.01828125 15.77078125 -7.7865625 16.2915625 -8.578125 16.828125 C-11.2760471 18.13357118 -13.04150297 18.23080473 -16 18 C-13.75787371 15.75787371 -11.97775203 15.13185436 -9.0625 13.9375 C-5.99999301 12.47032493 -4.36810321 11.64716671 -2.67578125 8.671875 C-1.95957391 6.4498854 -1.39089117 4.3002442 -1 2 C-3.31 2.33 -5.62 2.66 -8 3 C-8 2.34 -8 1.68 -8 1 C-5.26752652 -0.36623674 -3.01801098 -0.128426 0 0 Z " fill="#2E2931" transform="translate(154,150)"/>
<path d="M0 0 C0.33 0.66 0.66 1.32 1 2 C1.66386719 1.97679687 2.32773438 1.95359375 3.01171875 1.9296875 C11.78207381 1.75043937 11.78207381 1.75043937 16 4 C13.75488081 6.02582848 12.56317412 6.97543789 9.4921875 7.109375 C8.62851563 6.99078125 7.76484375 6.8721875 6.875 6.75 C6.00617188 6.64171875 5.13734375 6.5334375 4.2421875 6.421875 C2 6 2 6 0 5 C0 3.35 0 1.7 0 0 Z " fill="#A3A6AD" transform="translate(153,158)"/>
<path d="M0 0 C0.66 0 1.32 0 2 0 C1.39628896 7.54638804 0.36728377 18.04464993 -4.6328125 23.91796875 C-5.30957031 24.45357422 -5.30957031 24.45357422 -6 25 C-7 23 -7 23 -6.07421875 19.8046875 C-5.61848839 18.49251283 -5.15586342 17.18271871 -4.6875 15.875 C-2.86420218 10.62086658 -1.21968632 5.43314816 0 0 Z " fill="#464043" transform="translate(149,126)"/>
<path d="M0 0 C0.66 0 1.32 0 2 0 C2.65355469 0.79792969 3.30710937 1.59585938 3.98046875 2.41796875 C8.21717054 6.04081465 11.89134491 5.99450998 17.3125 6.3125 C18.70952148 6.42174805 18.70952148 6.42174805 20.13476562 6.53320312 C22.42248431 6.70918149 24.7096111 6.86407282 27 7 C27 7.33 27 7.66 27 8 C26.40461426 7.99476318 25.80922852 7.98952637 25.19580078 7.98413086 C22.50554453 7.96338001 19.81530511 7.95034593 17.125 7.9375 C16.18785156 7.92912109 15.25070313 7.92074219 14.28515625 7.91210938 C13.38925781 7.90888672 12.49335937 7.90566406 11.5703125 7.90234375 C10.74289551 7.89710693 9.91547852 7.89187012 9.06298828 7.88647461 C6.93588243 7.86647862 6.93588243 7.86647862 5 9 C5 8.01 5 7.02 5 6 C4.01 5.67 3.02 5.34 2 5 C0.8125 2.4375 0.8125 2.4375 0 0 Z " fill="#5C5756" transform="translate(103,180)"/>
<path d="M0 0 C1.98 0.99 3.96 1.98 6 3 C6 3.99 6 4.98 6 6 C-1.93072015 8.24703737 -1.93072015 8.24703737 -6 7 C-7.99788438 6.65421232 -9.99759451 6.31856451 -12 6 C-11.67 5.01 -11.34 4.02 -11 3 C-9.95199219 3.2165625 -9.95199219 3.2165625 -8.8828125 3.4375 C-7.97273437 3.623125 -7.06265625 3.80875 -6.125 4 C-5.22007812 4.185625 -4.31515625 4.37125 -3.3828125 4.5625 C-1.07592097 5.06019595 -1.07592097 5.06019595 1 5 C0.34 3.68 -0.32 2.36 -1 1 C-0.67 0.67 -0.34 0.34 0 0 Z " fill="#605D5F" transform="translate(173,189)"/>
<path d="M0 0 C3 0 3 0 4.68359375 1.5390625 C8.06173857 5.55672248 11.21649309 9.54638894 14 14 C13.01 14.33 12.02 14.66 11 15 C11 14.01 11 13.02 11 12 C9.576875 11.62875 9.576875 11.62875 8.125 11.25 C5 10 5 10 3.6875 8.125 C3.03053462 6.09437973 2.44722388 4.08704478 2 2 C1.34 2 0.68 2 0 2 C0 1.34 0 0.68 0 0 Z " fill="#6C605B" transform="translate(36,148)"/>
<path d="M0 0 C1.1577506 3.47325181 1.06866652 6.36067448 1 10 C-3.67049515 12.7376287 -6.98799719 13.33996234 -12.375 13.1875 C-13.62023437 13.16042969 -14.86546875 13.13335937 -16.1484375 13.10546875 C-17.08945313 13.07066406 -18.03046875 13.03585938 -19 13 C-19 12.67 -19 12.34 -19 12 C-18.27554688 11.96261719 -17.55109375 11.92523438 -16.8046875 11.88671875 C-8.92310346 11.46171374 -8.92310346 11.46171374 -2 8 C-1.02525184 4.91038542 -1.02525184 4.91038542 -1 2 C-2.98 2.66 -4.96 3.32 -7 4 C-3.17391304 0 -3.17391304 0 0 0 Z " fill="#886752" transform="translate(119,108)"/>
<path d="M0 0 C0.66 0.33 1.32 0.66 2 1 C1.40049704 4.68266103 0.75241109 8.34543185 0 12 C-3 11 -3 11 -4.25 8.75 C-5.07700926 5.71763271 -4.85394079 3.98879276 -4 1 C-3.01 1 -2.02 1 -1 1 C-0.67 0.67 -0.34 0.34 0 0 Z " fill="#6F92BA" transform="translate(50,29)"/>
<path d="M0 0 C0.66 0 1.32 0 2 0 C1.7235469 3.48055338 1.42630365 6.95901678 1.125 10.4375 C1.04636719 11.43072266 0.96773437 12.42394531 0.88671875 13.44726562 C0.80292969 14.39150391 0.71914062 15.33574219 0.6328125 16.30859375 C0.55949707 17.18314209 0.48618164 18.05769043 0.41064453 18.95874023 C0.27513184 19.63235596 0.13961914 20.30597168 0 21 C-0.66 21.33 -1.32 21.66 -2 22 C-1.86181468 18.52048477 -1.71317399 15.04149505 -1.5625 11.5625 C-1.52318359 10.56927734 -1.48386719 9.57605469 -1.44335938 8.55273438 C-1.40146484 7.60849609 -1.35957031 6.66425781 -1.31640625 5.69140625 C-1.27974854 4.81685791 -1.24309082 3.94230957 -1.20532227 3.04125977 C-1 1 -1 1 0 0 Z " fill="#3A373D" transform="translate(152,103)"/>
<path d="M0 0 C1.32 0.66 2.64 1.32 4 2 C4 2.66 4 3.32 4 4 C6.97 3.01 9.94 2.02 13 1 C12.67 3.31 12.34 5.62 12 8 C11.34 7.67 10.68 7.34 10 7 C10 6.34 10 5.68 10 5 C9.01 5.495 9.01 5.495 8 6 C5.6670134 6.04022391 3.33293334 6.04320247 1 6 C0.34 4.35 -0.32 2.7 -1 1 C-0.67 0.67 -0.34 0.34 0 0 Z " fill="#43454E" transform="translate(54,80)"/>
<path d="M0 0 C-0.33 1.32 -0.66 2.64 -1 4 C-5.95 4.33 -10.9 4.66 -16 5 C-16 4.34 -16 3.68 -16 3 C-10.28264895 0.54970669 -6.20970773 -0.33266291 0 0 Z " fill="#89B8D7" transform="translate(134,30)"/>
<path d="M0 0 C2 0 2 0 4.625 2.375 C7 5 7 5 7 7 C6.34 7 5.68 7 5 7 C5 7.66 5 8.32 5 9 C0.125 8.125 0.125 8.125 -1 7 C-0.71269945 4.66055264 -0.38063221 2.3260857 0 0 Z " fill="#D6AE8A" transform="translate(67,81)"/>
<path d="M0 0 C0.99 0 1.98 0 3 0 C3.04898438 0.59167969 3.09796875 1.18335937 3.1484375 1.79296875 C3.57093826 6.79666131 3.57093826 6.79666131 5.1875 11.5 C6.48266801 15.48513235 5.11683696 19.05670642 4 23 C3.34 23 2.68 23 2 23 C3 15.57142857 3 15.57142857 4 12 C3.01 11.67 2.02 11.34 1 11 C0.67 7.37 0.34 3.74 0 0 Z " fill="#575557" transform="translate(43,29)"/>
<path d="M0 0 C10.55808656 1.92710706 10.55808656 1.92710706 15 4 C15 4.33 15 4.66 15 5 C10.71 5 6.42 5 2 5 C1.34 3.35 0.68 1.7 0 0 Z " fill="#E9E7E6" transform="translate(153,185)"/>
<path d="M0 0 C3.3 0 6.6 0 10 0 C9.67 1.32 9.34 2.64 9 4 C8.2575 3.979375 7.515 3.95875 6.75 3.9375 C4.06766043 3.89438005 4.06766043 3.89438005 1.8125 4.5625 C0 5 0 5 -2 4 C-1.34 2.68 -0.68 1.36 0 0 Z " fill="#0E2331" transform="translate(123,35)"/>
<path d="M0 0 C0.66 0 1.32 0 2 0 C2.04254356 1.99954746 2.04080783 4.00041636 2 6 C1.67 6.33 1.34 6.66 1 7 C0.63239269 9.32817964 0.29758419 11.6618385 0 14 C-0.99 14.33 -1.98 14.66 -3 15 C-2.88529863 13.24929483 -2.75780972 11.49942464 -2.625 9.75 C-2.55539063 8.77546875 -2.48578125 7.8009375 -2.4140625 6.796875 C-2.01534751 4.10366811 -1.36492937 2.33036721 0 0 Z " fill="#BBEAFB" transform="translate(48,116)"/>
<path d="M0 0 C1.32 0.33 2.64 0.66 4 1 C3.34 1.721875 2.68 2.44375 2 3.1875 C-0.1535853 6.21597933 -0.41176754 7.39703406 0 11 C-1.65 11.33 -3.3 11.66 -5 12 C-4.79375 11.29875 -4.5875 10.5975 -4.375 9.875 C-3.92149643 6.39813928 -4.72459723 4.22601877 -6 1 C-3 3 -3 3 -2 5 C-1.34 4.34 -0.68 3.68 0 3 C0 2.01 0 1.02 0 0 Z " fill="#4D3537" transform="translate(57,98)"/>
<path d="M0 0 C2.51699845 2.51699845 3.10964078 4.57554146 4 8 C3.625 10.375 3.625 10.375 3 12 C2.01 11.67 1.02 11.34 0 11 C-2.06145107 10.931009 -4.12501401 10.91532273 -6.1875 10.9375 C-7.27417969 10.94652344 -8.36085938 10.95554688 -9.48046875 10.96484375 C-10.31191406 10.97644531 -11.14335938 10.98804688 -12 11 C-12 10.34 -12 9.68 -12 9 C-13.65 9 -15.3 9 -17 9 C-17 8.67 -17 8.34 -17 8 C-10.73 8.33 -4.46 8.66 2 9 C1.34 6.03 0.68 3.06 0 0 Z " fill="#3A343B" transform="translate(95,160)"/>
<path d="M0 0 C0.66 0 1.32 0 2 0 C2 0.99 2 1.98 2 3 C2.66 3 3.32 3 4 3 C4 4.65 4 6.3 4 8 C2.02 8 0.04 8 -2 8 C-2.6875 6.25 -2.6875 6.25 -3 4 C-1.6875 1.75 -1.6875 1.75 0 0 Z " fill="#CCA280" transform="translate(48,103)"/>
<path d="M0 0 C1.2065625 0.0309375 1.2065625 0.0309375 2.4375 0.0625 C2.7675 0.7225 3.0975 1.3825 3.4375 2.0625 C2.7775 2.0625 2.1175 2.0625 1.4375 2.0625 C1.1075 2.7225 0.7775 3.3825 0.4375 4.0625 C-0.5525 3.4025 -1.5425 2.7425 -2.5625 2.0625 C-2.33433594 3.17109375 -2.10617188 4.2796875 -1.87109375 5.421875 C-1.58027949 6.88532738 -1.28993973 8.34887411 -1 9.8125 C-0.77280273 10.90691406 -0.77280273 10.90691406 -0.54101562 12.0234375 C0.18307178 15.72807073 0.53567231 18.45572322 -0.5625 22.0625 C-2.80667317 15.03610066 -4.35581839 8.47697571 -3.5625 1.0625 C-2.5625 0.0625 -2.5625 0.0625 0 0 Z " fill="#564B44" transform="translate(94.5625,137.9375)"/>
<path d="M0 0 C1.65 0 3.3 0 5 0 C3.93277615 2.91061051 3.36086255 3.82859029 0.5 5.1875 C-0.325 5.455625 -1.15 5.72375 -2 6 C-2.99 6.495 -2.99 6.495 -4 7 C-6.00800456 6.71887936 -8.01014051 6.38932033 -10 6 C-8.375 4 -8.375 4 -6 2 C-2.75 1.75 -2.75 1.75 0 2 C0 1.34 0 0.68 0 0 Z " fill="#78A6C5" transform="translate(77,93)"/>
<path d="M0 0 C6.62952978 -0.36015554 11.03174123 0.13064482 17 3 C18.98821313 3.39764263 20.98732362 3.75455166 23 4 C23 4.33 23 4.66 23 5 C17.4978184 5.23136637 12.86146222 4.4350346 7.5625 3 C6.83095703 2.80921875 6.09941406 2.6184375 5.34570312 2.421875 C3.56180334 1.95549597 1.78060155 1.47881722 0 1 C0 0.67 0 0.34 0 0 Z " fill="#676669" transform="translate(85,170)"/>
<path d="M0 0 C0.33 0.66 0.66 1.32 1 2 C1.66 2.33 2.32 2.66 3 3 C3 4.98 3 6.96 3 9 C1.35 8.67 -0.3 8.34 -2 8 C-2.33 5.69 -2.66 3.38 -3 1 C-2.01 0.67 -1.02 0.34 0 0 Z " fill="#676361" transform="translate(38,87)"/>
<path d="M0 0 C2 0 2 0 3.5078125 1.4609375 C4.04148437 2.09257812 4.57515625 2.72421875 5.125 3.375 C5.66382813 4.00148437 6.20265625 4.62796875 6.7578125 5.2734375 C8 7 8 7 8 9 C5.75 8.875 5.75 8.875 3 8 C0.6875 4.9375 0.6875 4.9375 -1 2 C-0.67 1.34 -0.34 0.68 0 0 Z " fill="#BE9575" transform="translate(46,153)"/>
<path d="M0 0 C0.99773437 0.02320312 1.99546875 0.04640625 3.0234375 0.0703125 C4.52777344 0.09738281 4.52777344 0.09738281 6.0625 0.125 C6.83335938 0.14820312 7.60421875 0.17140625 8.3984375 0.1953125 C8.3984375 0.8553125 8.3984375 1.5153125 8.3984375 2.1953125 C5.0984375 2.1953125 1.7984375 2.1953125 -1.6015625 2.1953125 C-1.2715625 3.8453125 -0.9415625 5.4953125 -0.6015625 7.1953125 C-1.9215625 7.1953125 -3.2415625 7.1953125 -4.6015625 7.1953125 C-4.7265625 4.8203125 -4.7265625 4.8203125 -4.6015625 2.1953125 C-2.6015625 0.1953125 -2.6015625 0.1953125 0 0 Z " fill="#72A0BA" transform="translate(72.6015625,116.8046875)"/>
<path d="M0 0 C2.25 0.25 2.25 0.25 4 1 C4 2.32 4 3.64 4 5 C5.32 5.33 6.64 5.66 8 6 C-0.57142857 6.28571429 -0.57142857 6.28571429 -4 4 C-2.25 1.9375 -2.25 1.9375 0 0 Z " fill="#424254" transform="translate(53,108)"/>
<path d="M0 0 C0.99 1.32 1.98 2.64 3 4 C2.0925 4.7425 1.185 5.485 0.25 6.25 C-2.3069423 8.37674584 -4.69110193 10.60229816 -7 13 C-5.35821735 8.22390502 -2.73453298 4.20617096 0 0 Z " fill="#30313C" transform="translate(141,151)"/>
<path d="M0 0 C7.38461538 -0.36923077 7.38461538 -0.36923077 10.5 1.5 C10.995 1.995 11.49 2.49 12 3 C9.09399739 4.25664978 7.20395416 5 4 5 C4 4.01 4 3.02 4 2 C2.68 1.34 1.36 0.68 0 0 Z " fill="#4F6879" transform="translate(62,114)"/>
<path d="M0 0 C2.0625 0.4375 2.0625 0.4375 4 1 C4.33 2.32 4.66 3.64 5 5 C3.35 5.33 1.7 5.66 0 6 C-0.38218767 4.34385343 -0.71395102 2.67542976 -1 1 C-0.67 0.67 -0.34 0.34 0 0 Z " fill="#31383E" transform="translate(94,81)"/>
<path d="M0 0 C1.27875 -0.061875 2.5575 -0.12375 3.875 -0.1875 C4.95394531 -0.23970703 4.95394531 -0.23970703 6.0546875 -0.29296875 C6.69664062 -0.19628906 7.33859375 -0.09960938 8 0 C8.66 0.99 9.32 1.98 10 3 C10.66 3.33 11.32 3.66 12 4 C9.39517051 4.94721072 7.69325299 5.30222393 5.109375 4.17578125 C3.37417127 3.17063275 1.68359577 2.0893855 0 1 C0 0.67 0 0.34 0 0 Z " fill="#5F8BBE" transform="translate(126,41)"/>
<path d="M0 0 C0.763125 0.309375 1.52625 0.61875 2.3125 0.9375 C4.18789677 1.67893593 6.08684652 2.36228217 8 3 C8.33 2.34 8.66 1.68 9 1 C10.32 1 11.64 1 13 1 C12.67 1.99 12.34 2.98 12 4 C11.01 3.67 10.02 3.34 9 3 C9 3.66 9 4.32 9 5 C3.5 5.36666667 3.5 5.36666667 1.125 3.625 C0 2 0 2 0 0 Z " fill="#C0BBBD" transform="translate(157,180)"/>
<path d="M0 0 C0.99 0 1.98 0 3 0 C3.103125 0.845625 3.20625 1.69125 3.3125 2.5625 C4.0828854 6.41442701 5.36274514 9.44075031 7 13 C6.01 12.67 5.02 12.34 4 12 C4 11.34 4 10.68 4 10 C3.34 9.67 2.68 9.34 2 9 C1.3671875 6.93359375 1.3671875 6.93359375 0.875 4.4375 C0.70742188 3.61121094 0.53984375 2.78492188 0.3671875 1.93359375 C0.24601562 1.29550781 0.12484375 0.65742188 0 0 Z " fill="#564842" transform="translate(31,135)"/>
<path d="M0 0 C0.99 0 1.98 0 3 0 C4.55136786 2.46393719 5.03039129 3.68089146 4.75 6.625 C4 9 4 9 2 11 C-0.625 11.125 -0.625 11.125 -3 11 C-1.35 9.68 0.3 8.36 2 7 C1.34414811 3.39007621 1.34414811 3.39007621 0 0 Z " fill="#8B664F" transform="translate(81,81)"/>
<path d="M0 0 C0.99 0 1.98 0 3 0 C3.66 2.97 4.32 5.94 5 9 C4.01 9.33 3.02 9.66 2 10 C1 7 1 7 2 4 C0.68 3.67 -0.64 3.34 -2 3 C-1.34 2.01 -0.68 1.02 0 0 Z " fill="#706F73" transform="translate(51,83)"/>
<path d="M0 0 C0.99 0.33 1.98 0.66 3 1 C3 1.99 3 2.98 3 4 C2.34 4 1.68 4 1 4 C0.67 5.98 0.34 7.96 0 10 C-1.85776765 6.86501708 -2.20140476 4.62528568 -2 1 C-1.34 0.67 -0.68 0.34 0 0 Z " fill="#AFE0F5" transform="translate(45,133)"/>
<path d="M0 0 C0 0.33 0 0.66 0 1 C-4.40914783 2.10228696 -8.48382401 2.07654536 -13 2 C-9.16001987 -2.17389144 -5.07563763 -0.9001665 0 0 Z " fill="#494146" transform="translate(140,180)"/>
<path d="M0 0 C1.2380014 3.57644848 0.74926071 6.33694766 0 10 C0.66 10 1.32 10 2 10 C2 10.66 2 11.32 2 12 C1.34 12 0.68 12 0 12 C-0.33 12.66 -0.66 13.32 -1 14 C-1.33 13.67 -1.66 13.34 -2 13 C-1.93579251 11.37146465 -1.7987936 9.74550788 -1.625 8.125 C-1.53476562 7.24070313 -1.44453125 6.35640625 -1.3515625 5.4453125 C-1 3 -1 3 0 0 Z " fill="#96CDE8" transform="translate(45,121)"/>
<path d="M0 0 C3.3 0 6.6 0 10 0 C10 0.66 10 1.32 10 2 C6.01803543 3.05404945 3.01804691 2.84098656 -1 2 C-0.67 1.34 -0.34 0.68 0 0 Z " fill="#DCD8D8" transform="translate(164,192)"/>
<path d="M0 0 C4.95 0.99 4.95 0.99 10 2 C6.23312136 3.88343932 4.97041037 4.22057835 1 4 C0.67 2.68 0.34 1.36 0 0 Z " fill="#615B5C" transform="translate(159,179)"/>
<path d="M0 0 C0.66 0 1.32 0 2 0 C1.33035714 8.03571429 1.33035714 8.03571429 -2 12 C-1.85904936 10.3745692 -1.71207913 8.74965949 -1.5625 7.125 C-1.48128906 6.22007812 -1.40007812 5.31515625 -1.31640625 4.3828125 C-1 2 -1 2 0 0 Z " fill="#35313A" transform="translate(149,126)"/>
<path d="M0 0 C6 8 6 8 6 12 C5.34 12 4.68 12 4 12 C4 11.01 4 10.02 4 9 C3.01 9.33 2.02 9.66 1 10 C0.67 6.7 0.34 3.4 0 0 Z " fill="#563F3D" transform="translate(46,94)"/>
<path d="M0 0 C0.33 0 0.66 0 1 0 C1.08107583 1.93681161 1.13922475 3.8745934 1.1875 5.8125 C1.22230469 6.89144531 1.25710937 7.97039062 1.29296875 9.08203125 C1 12 1 12 -0.51171875 13.88671875 C-1.00285156 14.25410156 -1.49398437 14.62148437 -2 15 C-2.99 14.67 -3.98 14.34 -5 14 C-4.52949219 13.62230469 -4.05898438 13.24460937 -3.57421875 12.85546875 C-1.50320971 10.41445314 -1.29313284 8.45509934 -0.8125 5.3125 C-0.65394531 4.31863281 -0.49539062 3.32476562 -0.33203125 2.30078125 C-0.22246094 1.54152344 -0.11289063 0.78226562 0 0 Z " fill="#ADAAB7" transform="translate(67,68)"/>
<path d="M0 0 C2.31 0 4.62 0 7 0 C5.02 0.99 5.02 0.99 3 2 C3 2.66 3 3.32 3 4 C1.02 4.66 -0.96 5.32 -3 6 C-3 5.34 -3 4.68 -3 4 C-2.01 3.34 -1.02 2.68 0 2 C0 1.34 0 0.68 0 0 Z " fill="#7A797C" transform="translate(108,174)"/>
<path d="M0 0 C0.66 0 1.32 0 2 0 C4.5393228 3.41831915 5.3636198 5.75776898 5 10 C2.08772731 6.71195019 0.50298788 4.40114397 0 0 Z " fill="#9E7054" transform="translate(96,140)"/>
<path d="M0 0 C0.99 0 1.98 0 3 0 C3.33 1.32 3.66 2.64 4 4 C0.37673261 5.2077558 -0.64146369 4.54311128 -4 3 C-3.01 2.67 -2.02 2.34 -1 2 C-0.67 1.34 -0.34 0.68 0 0 Z " fill="#606064" transform="translate(170,181)"/>
<path d="M0 0 C1 1 1 1 1.0625 3.5625 C1.041875 4.366875 1.02125 5.17125 1 6 C0.67 4.68 0.34 3.36 0 2 C-2.64 2.33 -5.28 2.66 -8 3 C-8 2.34 -8 1.68 -8 1 C-5.26752652 -0.36623674 -3.01801098 -0.128426 0 0 Z " fill="#50494C" transform="translate(154,150)"/>
<path d="M0 0 C-0.33 1.32 -0.66 2.64 -1 4 C-2.32 4.33 -3.64 4.66 -5 5 C-5 3.68 -5 2.36 -5 1 C-3 0 -3 0 0 0 Z " fill="#181E22" transform="translate(76,80)"/>
<path d="M0 0 C2.31 0 4.62 0 7 0 C7 0.66 7 1.32 7 2 C8.65 2 10.3 2 12 2 C12 2.33 12 2.66 12 3 C3.42857143 3.28571429 3.42857143 3.28571429 0 1 C0 0.67 0 0.34 0 0 Z " fill="#726D72" transform="translate(136,178)"/>
<path d="M0 0 C3.68802044 1.22934015 4.72356973 2.93859378 7 6 C6.34 6.66 5.68 7.32 5 8 C5 7.34 5 6.68 5 6 C4.01 6 3.02 6 2 6 C2 5.01 2 4.02 2 3 C1.34 3 0.68 3 0 3 C0 2.01 0 1.02 0 0 Z " fill="#605A59" transform="translate(44,78)"/>
<path d="M0 0 C0 0.33 0 0.66 0 1 C-1.62580966 0.88601335 -3.25067157 0.75844341 -4.875 0.625 C-5.77992187 0.55539063 -6.68484375 0.48578125 -7.6171875 0.4140625 C-10 0 -10 0 -12 -2 C-7.626212 -3.45792933 -4.27811823 -1.42603941 0 0 Z " fill="#5F8ABA" transform="translate(79,102)"/>
<path d="M0 0 C2.97 0.33 5.94 0.66 9 1 C8.67 1.66 8.34 2.32 8 3 C5.03 2.67 2.06 2.34 -1 2 C-0.67 1.34 -0.34 0.68 0 0 Z " fill="#686C72" transform="translate(158,160)"/>
<path d="M0 0 C1.46015291 0.28241641 2.91809793 0.57626614 4.375 0.875 C5.18710937 1.03742188 5.99921875 1.19984375 6.8359375 1.3671875 C9 2 9 2 11 4 C9.68 4.33 8.36 4.66 7 5 C7 4.34 7 3.68 7 3 C4.69 2.67 2.38 2.34 0 2 C0 1.34 0 0.68 0 0 Z " fill="#3A4956" transform="translate(54,120)"/>
<path d="M0 0 C0.66 0 1.32 0 2 0 C1.67 2.97 1.34 5.94 1 9 C-1 7 -1 7 -1.1875 3.9375 C-1 1 -1 1 0 0 Z " fill="#4C4C53" transform="translate(152,103)"/>
<path d="M0 0 C2.9719385 1.12451727 5.33440687 2.22293791 8 4 C8 4.66 8 5.32 8 6 C4.74456771 5.65120368 3.98126893 4.97866739 1.75 2.4375 C1.1725 1.633125 0.595 0.82875 0 0 Z " fill="#678CB7" transform="translate(48,152)"/>
<path d="M0 0 C1.875 0.625 1.875 0.625 4 2 C5.25 5.125 5.25 5.125 6 8 C5.34 8 4.68 8 4 8 C2.96210419 6.35666496 1.96432076 4.68756133 1 3 C0.34 2.34 -0.32 1.68 -1 1 C-0.67 0.67 -0.34 0.34 0 0 Z " fill="#6A5557" transform="translate(41,81)"/>
<path d="M0 0 C2.15377564 2.62198774 3.40072174 4.64404172 4 8 C1 7 1 7 -0.25 4.5625 C-1 2 -1 2 0 0 Z " fill="#4B3328" transform="translate(44,145)"/>
<path d="M0 0 C0.66 0 1.32 0 2 0 C0.75023244 3.65316671 0.32901247 4.78065836 -3 7 C-2.25 2.25 -2.25 2.25 0 0 Z " fill="#A5A2B0" transform="translate(109,79)"/>
<path d="M0 0 C0.66 0 1.32 0 2 0 C2 0.66 2 1.32 2 2 C1.34 2 0.68 2 0 2 C0 1.34 0 0.68 0 0 Z " fill="#585757" transform="translate(130,16)"/>
<path d="" fill="#3B3B3B" transform="translate(0,0)"/>
<path d="" fill="#3B3B3B" transform="translate(0,0)"/>
<path d="" fill="#777777" transform="translate(0,0)"/>
<path d="" fill="#7A7974" transform="translate(0,0)"/>
<path d="" fill="#3B3B3B" transform="translate(0,0)"/>
<path d="" fill="#3B3B3B" transform="translate(0,0)"/>
</svg>
